<svg width="24" height="24" viewBox="0 0 24 24" fill="none" xmlns="http://www.w3.org/2000/svg">
<path d="M22 2.5C22 2.22386 21.7761 2 21.5 2H2.5C2.22386 2 2 2.22386 2 2.5V21.5C2 21.7761 2.22386 22 2.5 22H21.5C21.7761 22 22 21.7761 22 21.5V2.5ZM19.5 4C19.7761 4 20 4.22386 20 4.5V10.5C20 10.7761 19.7761 11 19.5 11H17.7231C17.5507 11 17.3905 11.0888 17.2991 11.235L15.8115 13.6147C15.6253 13.9125 15.1982 13.9306 14.9875 13.6497L9.93008 6.90644C9.73942 6.65222 9.36308 6.63803 9.15381 6.87717L5.6954 10.8293C5.60046 10.9378 5.4633 11 5.31913 11H4.5C4.22386 11 4 10.7761 4 10.5V4.5C4 4.22386 4.22386 4 4.5 4H19.5ZM4 13.5C4 13.2239 4.22386 13 4.5 13H6.2271C6.37129 13 6.50846 12.9378 6.60341 12.8292L9.03381 10.0513C9.24307 9.81209 9.61945 9.82626 9.81012 10.0805L15.1375 17.1837C15.3482 17.4647 15.7753 17.4465 15.9615 17.1487L18.4081 13.235C18.4995 13.0888 18.6597 13 18.8321 13H19.5C19.7761 13 20 13.2239 20 13.5V19.5C20 19.7761 19.7761 20 19.5 20H4.5C4.22386 20 4 19.7761 4 19.5V13.5Z" fill="#0A0A0A"/>
</svg>
