<svg width="42" height="42" viewBox="0 0 42 42" fill="none" xmlns="http://www.w3.org/2000/svg">
<rect width="42" height="42" rx="21" fill="#635BFF"/>
<path d="M27.5 21.498H22.5V26.498C22.5 26.7633 22.3946 27.0176 22.2071 27.2052C22.0196 27.3927 21.7652 27.498 21.5 27.498C21.2348 27.498 20.9804 27.3927 20.7929 27.2052C20.6054 27.0176 20.5 26.7633 20.5 26.498V21.498H15.5C15.2348 21.498 14.9804 21.3927 14.7929 21.2052C14.6054 21.0176 14.5 20.7633 14.5 20.498C14.5 20.2328 14.6054 19.9785 14.7929 19.7909C14.9804 19.6034 15.2348 19.498 15.5 19.498H20.5V14.498C20.5 14.2328 20.6054 13.9785 20.7929 13.7909C20.9804 13.6034 21.2348 13.498 21.5 13.498C21.7652 13.498 22.0196 13.6034 22.2071 13.7909C22.3946 13.9785 22.5 14.2328 22.5 14.498V19.498H27.5C27.7652 19.498 28.0196 19.6034 28.2071 19.7909C28.3946 19.9785 28.5 20.2328 28.5 20.498C28.5 20.7633 28.3946 21.0176 28.2071 21.2052C28.0196 21.3927 27.7652 21.498 27.5 21.498Z" fill="white"/>
</svg>
