<svg width="40" height="40" viewBox="0 0 40 40" fill="none" xmlns="http://www.w3.org/2000/svg">
<circle cx="20" cy="20" r="20" fill="#FAEFE5"/>
<path d="M20 21.5C19.2583 21.5 18.5333 21.2801 17.9166 20.868C17.2999 20.456 16.8193 19.8703 16.5355 19.1851C16.2516 18.4998 16.1774 17.7458 16.3221 17.0184C16.4668 16.291 16.8239 15.6228 17.3484 15.0984C17.8728 14.5739 18.541 14.2168 19.2684 14.0721C19.9958 13.9274 20.7498 14.0016 21.4351 14.2855C22.1203 14.5693 22.706 15.0499 23.118 15.6666C23.5301 16.2833 23.75 17.0083 23.75 17.75C23.7488 18.7442 23.3533 19.6973 22.6503 20.4003C21.9473 21.1033 20.9942 21.4988 20 21.5ZM20 15.5C19.555 15.5 19.12 15.632 18.75 15.8792C18.38 16.1264 18.0916 16.4778 17.9213 16.889C17.751 17.3001 17.7064 17.7525 17.7932 18.189C17.8801 18.6254 18.0943 19.0263 18.409 19.341C18.7237 19.6557 19.1246 19.87 19.561 19.9568C19.9975 20.0436 20.4499 19.999 20.861 19.8287C21.2722 19.6584 21.6236 19.37 21.8708 19C22.118 18.63 22.25 18.195 22.25 17.75C22.2494 17.1534 22.0122 16.5815 21.5903 16.1597C21.1685 15.7378 20.5966 15.5006 20 15.5Z" fill="#D87B2F"/>
<path d="M20 30.5L13.673 23.0382C13.5851 22.9262 13.4981 22.8135 13.412 22.7C12.3318 21.276 11.748 19.5373 11.75 17.75C11.75 15.562 12.6192 13.4635 14.1664 11.9164C15.7135 10.3692 17.812 9.5 20 9.5C22.188 9.5 24.2865 10.3692 25.8336 11.9164C27.3808 13.4635 28.25 15.562 28.25 17.75C28.2517 19.5365 27.6682 21.2743 26.5888 22.6978L26.588 22.7C26.588 22.7 26.363 22.9955 26.3293 23.0353L20 30.5ZM14.6098 21.7963C14.6098 21.7963 14.7845 22.0272 14.8243 22.0767L20 28.181L25.1825 22.0685C25.2155 22.0272 25.391 21.7948 25.3918 21.794C26.2747 20.6309 26.7518 19.2103 26.75 17.75C26.75 15.9598 26.0388 14.2429 24.773 12.977C23.5071 11.7112 21.7902 11 20 11C18.2098 11 16.4929 11.7112 15.227 12.977C13.9612 14.2429 13.25 15.9598 13.25 17.75C13.2482 19.2112 13.7258 20.6327 14.6098 21.7963Z" fill="#D87B2F"/>
</svg>
