<svg width="40" height="40" viewBox="0 0 40 40" fill="none" xmlns="http://www.w3.org/2000/svg">
<circle cx="20" cy="20" r="20" fill="#FAE7E6"/>
<path d="M28.25 11.75H11.75C11.3522 11.75 10.9706 11.908 10.6893 12.1893C10.408 12.4706 10.25 12.8522 10.25 13.25V26.75C10.25 27.1478 10.408 27.5294 10.6893 27.8107C10.9706 28.092 11.3522 28.25 11.75 28.25H28.25C28.6478 28.25 29.0294 28.092 29.3107 27.8107C29.592 27.5294 29.75 27.1478 29.75 26.75V13.25C29.75 12.8522 29.592 12.4706 29.3107 12.1893C29.0294 11.908 28.6478 11.75 28.25 11.75ZM28.25 13.25V22.8828L25.8059 20.4397C25.6666 20.3004 25.5013 20.1898 25.3193 20.1144C25.1372 20.039 24.9422 20.0002 24.7452 20.0002C24.5481 20.0002 24.3531 20.039 24.1711 20.1144C23.989 20.1898 23.8237 20.3004 23.6844 20.4397L21.8094 22.3147L17.6844 18.1897C17.4031 17.9086 17.0217 17.7507 16.6241 17.7507C16.2264 17.7507 15.845 17.9086 15.5638 18.1897L11.75 22.0034V13.25H28.25ZM11.75 24.125L16.625 19.25L24.125 26.75H11.75V24.125ZM28.25 26.75H26.2466L22.8716 23.375L24.7466 21.5L28.25 25.0044V26.75ZM21.5 17.375C21.5 17.1525 21.566 16.935 21.6896 16.75C21.8132 16.565 21.9889 16.4208 22.1945 16.3356C22.4 16.2505 22.6262 16.2282 22.8445 16.2716C23.0627 16.315 23.2632 16.4222 23.4205 16.5795C23.5778 16.7368 23.685 16.9373 23.7284 17.1555C23.7718 17.3738 23.7495 17.6 23.6644 17.8055C23.5792 18.0111 23.435 18.1868 23.25 18.3104C23.065 18.434 22.8475 18.5 22.625 18.5C22.3266 18.5 22.0405 18.3815 21.8295 18.1705C21.6185 17.9595 21.5 17.6734 21.5 17.375Z" fill="#D74A43"/>
</svg>
