<svg width="24" height="24" viewBox="0 0 24 24" fill="none" xmlns="http://www.w3.org/2000/svg">
<path d="M5 19C4.71667 19 4.47933 18.904 4.288 18.712C4.09667 18.52 4.00067 18.2827 4 18C3.99933 17.7173 4.09533 17.48 4.288 17.288C4.48067 17.096 4.718 17 5 17H6V10C6 8.61667 6.41667 7.38767 7.25 6.313C8.08333 5.23834 9.16667 4.534 10.5 4.2V3.5C10.5 3.08334 10.646 2.72934 10.938 2.438C11.23 2.14667 11.584 2.00067 12 2C12.416 1.99934 12.7703 2.14534 13.063 2.438C13.3557 2.73067 13.5013 3.08467 13.5 3.5V4.2C14.8333 4.53334 15.9167 5.23767 16.75 6.313C17.5833 7.38834 18 8.61734 18 10V17H19C19.2833 17 19.521 17.096 19.713 17.288C19.905 17.48 20.0007 17.7173 20 18C19.9993 18.2827 19.9033 18.5203 19.712 18.713C19.5207 18.9057 19.2833 19.0013 19 19H5ZM12 22C11.45 22 10.9793 21.8043 10.588 21.413C10.1967 21.0217 10.0007 20.5507 10 20H14C14 20.55 13.8043 21.021 13.413 21.413C13.0217 21.805 12.5507 22.0007 12 22ZM3 10C2.71667 10 2.47933 9.89167 2.288 9.675C2.09667 9.45834 2.01733 9.20834 2.05 8.925C2.18333 7.675 2.53333 6.51234 3.1 5.437C3.66667 4.36167 4.39167 3.42434 5.275 2.625C5.49167 2.44167 5.73767 2.35834 6.013 2.375C6.28833 2.39167 6.509 2.51667 6.675 2.75C6.841 2.98334 6.90767 3.23334 6.875 3.5C6.84233 3.76667 6.71733 4 6.5 4.2C5.85 4.81667 5.31667 5.53334 4.9 6.35C4.48333 7.16667 4.20833 8.05 4.075 9C4.04167 9.28334 3.925 9.521 3.725 9.713C3.525 9.905 3.28333 10.0007 3 10ZM21 10C20.7167 10 20.475 9.904 20.275 9.712C20.075 9.52 19.9583 9.28267 19.925 9C19.7917 8.05 19.5167 7.16667 19.1 6.35C18.6833 5.53334 18.15 4.81667 17.5 4.2C17.2833 4 17.1583 3.76667 17.125 3.5C17.0917 3.23334 17.1583 2.98334 17.325 2.75C17.4917 2.51667 17.7127 2.39167 17.988 2.375C18.2633 2.35834 18.509 2.44167 18.725 2.625C19.6083 3.425 20.3333 4.36234 20.9 5.437C21.4667 6.51167 21.8167 7.67434 21.95 8.925C21.9833 9.20834 21.9043 9.45834 21.713 9.675C21.5217 9.89167 21.284 10 21 10Z" fill="#666666"/>
</svg>
