<svg width="54" height="72" viewBox="0 0 54 72" fill="none" xmlns="http://www.w3.org/2000/svg">
<g clip-path="url(#clip0_3739_20711)">
<path d="M40.4999 50.3859C42.4658 49.2486 42.965 46.1616 44.5611 44.5655C46.1572 42.9694 49.2439 42.473 50.3816 40.5056C51.5038 38.5664 50.4049 35.6484 50.9966 33.4336C51.5671 31.2891 53.8733 29.3203 53.8733 27C53.8733 24.6797 51.4447 22.7081 50.8724 20.5692C50.2808 18.3544 51.3803 15.4364 50.2586 13.4972C49.1215 11.5313 46.0356 11.0334 44.4395 9.43734C42.8434 7.84125 42.3456 4.75453 40.3797 3.61687C38.4404 2.49483 35.5225 3.59385 33.3076 3.00164C31.2889 2.42859 29.3202 0 26.9999 0C24.6796 0 22.7108 2.42859 20.5733 3.00094C18.3515 3.59156 15.4405 2.49328 13.4971 3.61406C11.5311 4.75172 11.0333 7.83844 9.43723 9.43313C7.84254 11.0292 4.75442 11.527 3.61676 13.493C2.49458 15.4266 3.59426 18.3516 3.00223 20.5594C2.42848 22.7109 0 24.6797 0 27C0 29.3203 2.42859 31.2919 3.00094 33.4308C3.59255 35.6456 2.49258 38.5636 3.6142 40.5028C4.75301 42.4688 7.83833 42.9609 9.43301 44.5641C11.0291 46.1602 11.5269 49.2469 13.4943 50.3859C15.4335 51.508 18.35 50.4082 20.5649 51.0003C22.7108 51.5672 24.6796 54 26.9999 54C29.3202 54 31.2918 51.5714 33.4321 50.9991C35.6483 50.4141 38.5593 51.5109 40.4999 50.3859ZM15.7499 27C15.7499 20.7745 20.7857 15.75 26.9999 15.75C33.2141 15.75 38.2499 20.7745 38.2499 27C38.2499 33.2114 33.2141 38.25 26.9999 38.25C20.7857 38.25 15.7499 33.2156 15.7499 27ZM0.241622 60.9188C-0.215409 62.0702 -0.00883131 63.3769 0.786544 64.3289C1.58192 65.2781 2.82983 65.7208 4.03779 65.4747L10.3926 64.2042L13.4062 70.1484C13.9865 71.2969 15.1311 72 16.4108 72C16.4592 72 16.5042 71.9984 16.5526 71.9962C17.8885 71.9434 19.0346 71.1409 19.5395 69.9037L24.2616 58.3612C16.7087 57.7088 9.91789 54.4068 4.82726 49.3682L0.241622 60.9188ZM49.1624 49.3734C44.0788 54.412 37.2866 57.7139 29.728 58.3664L34.4502 69.9089C34.9556 71.146 36.1011 71.948 37.4371 72.0014C37.4905 71.8734 37.4202 72 37.589 72C38.8678 72 40.0119 71.3007 40.5913 70.1522L43.6049 64.2066L49.9597 65.4771C51.1683 65.7232 52.4165 65.2805 53.211 64.3313C54.0064 63.3798 54.2129 62.0729 53.7559 60.9211L49.1624 49.3734Z" fill="#FFCD2E"/>
</g>
<defs>
<clipPath id="clip0_3739_20711">
<rect width="54" height="72" fill="white"/>
</clipPath>
</defs>
</svg>
