<svg width="24" height="24" viewBox="0 0 24 24" fill="none" xmlns="http://www.w3.org/2000/svg">
<path d="M2 12.0016C2.0005 9.80922 2.72148 7.67774 4.05199 5.93522C5.38249 4.19269 7.24877 2.9357 9.3636 2.3577C11.4784 1.77969 13.7246 1.91271 15.7565 2.73628C17.7883 3.55984 19.4932 5.02831 20.6087 6.91569C21.7243 8.80307 22.1886 11.0047 21.9304 13.1819C21.6721 15.359 20.7055 17.391 19.1794 18.965C17.6533 20.539 15.6521 21.5678 13.484 21.8932C11.3159 22.2185 9.10092 21.8224 7.18 20.7656L3.292 21.9496C3.11858 22.0024 2.93407 22.0071 2.75819 21.9632C2.58231 21.9192 2.42168 21.8283 2.2935 21.7001C2.16531 21.5719 2.07438 21.4113 2.03043 21.2354C1.98648 21.0596 1.99117 20.875 2.044 20.7016L3.228 16.8076C2.42153 15.3342 1.9992 13.6813 2 12.0016ZM8 11.0016C8 11.2668 8.10536 11.5212 8.29289 11.7087C8.48043 11.8963 8.73478 12.0016 9 12.0016H15C15.2652 12.0016 15.5196 11.8963 15.7071 11.7087C15.8946 11.5212 16 11.2668 16 11.0016C16 10.7364 15.8946 10.4821 15.7071 10.2945C15.5196 10.107 15.2652 10.0016 15 10.0016H9C8.73478 10.0016 8.48043 10.107 8.29289 10.2945C8.10536 10.4821 8 10.7364 8 11.0016ZM9 14.0016C8.73478 14.0016 8.48043 14.107 8.29289 14.2945C8.10536 14.4821 8 14.7364 8 15.0016C8 15.2668 8.10536 15.5212 8.29289 15.7087C8.48043 15.8963 8.73478 16.0016 9 16.0016H13C13.2652 16.0016 13.5196 15.8963 13.7071 15.7087C13.8946 15.5212 14 15.2668 14 15.0016C14 14.7364 13.8946 14.4821 13.7071 14.2945C13.5196 14.107 13.2652 14.0016 13 14.0016H9Z" fill="#666666"/>
</svg>
