<svg width="24" height="24" viewBox="0 0 24 24" fill="none" xmlns="http://www.w3.org/2000/svg">
<path d="M10.4992 4.5002C10.4992 3.62498 10.1515 2.78561 9.53267 2.16674C8.9138 1.54787 8.07443 1.2002 7.19922 1.2002C6.324 1.2002 5.48464 1.54787 4.86577 2.16674C4.2469 2.78561 3.89922 3.62498 3.89922 4.5002C3.89922 5.37541 4.2469 6.21478 4.86577 6.83365C5.48464 7.45252 6.324 7.8002 7.19922 7.8002C8.07443 7.8002 8.9138 7.45252 9.53267 6.83365C10.1515 6.21478 10.4992 5.37541 10.4992 4.5002ZM5.09922 4.5002C5.09922 4.22442 5.15354 3.95134 5.25907 3.69656C5.36461 3.44178 5.51929 3.21027 5.71429 3.01527C5.9093 2.82027 6.1408 2.66558 6.39558 2.56005C6.65037 2.45451 6.92344 2.4002 7.19922 2.4002C7.475 2.4002 7.74807 2.45451 8.00285 2.56005C8.25764 2.66558 8.48914 2.82027 8.68414 3.01527C8.87915 3.21027 9.03383 3.44178 9.13937 3.69656C9.2449 3.95134 9.29922 4.22442 9.29922 4.5002C9.29922 5.05715 9.07797 5.59129 8.68414 5.98512C8.29032 6.37895 7.75617 6.6002 7.19922 6.6002C6.64226 6.6002 6.10812 6.37895 5.71429 5.98512C5.32047 5.59129 5.09922 5.05715 5.09922 4.5002ZM2.99922 9.0002H8.01882C7.82202 9.3722 7.67562 9.7754 7.58922 10.2002H2.99922C2.84009 10.2002 2.68748 10.2634 2.57495 10.3759C2.46243 10.4885 2.39922 10.6411 2.39922 10.8002V11.4002C2.39922 12.9122 3.71802 14.537 6.11442 14.9162C5.72802 15.1802 5.40642 15.5318 5.17722 15.941C2.64522 15.2558 1.19922 13.3046 1.19922 11.4002V10.8002C1.19922 10.3228 1.38886 9.86497 1.72643 9.5274C2.06399 9.18984 2.52183 9.0002 2.99922 9.0002ZM9.45402 9.0002C10.0588 8.2682 10.9744 7.8002 11.9992 7.8002C12.7179 7.79894 13.4172 8.03282 13.9905 8.46616C14.5638 8.89949 14.9796 9.50847 15.1744 10.2002C15.3481 10.8176 15.3383 11.4722 15.1463 12.0841C14.9542 12.6961 14.5882 13.2388 14.0928 13.6463C13.5975 14.0537 12.9943 14.3081 12.3568 14.3785C11.7193 14.4488 11.0751 14.3321 10.5028 14.0426C10.0622 13.8183 9.67759 13.4979 9.37743 13.1051C9.07727 12.7122 8.86921 12.2569 8.76864 11.7729C8.66807 11.2888 8.67756 10.7883 8.7964 10.3084C8.91523 9.82848 9.13919 9.3814 9.45402 9.0002ZM10.1032 10.2002C9.98503 10.4495 9.9171 10.7196 9.90331 10.9952C9.88952 11.2707 9.93014 11.5463 10.0229 11.8062C10.2101 12.331 10.5981 12.7599 11.1016 12.9986C11.6051 13.2373 12.1828 13.2662 12.7076 13.079C13.2324 12.8917 13.6613 12.5037 13.9 12.0002C14.1387 11.4965 14.1676 10.9187 13.9802 10.3938C13.7929 9.86888 13.4047 9.43989 12.901 9.2012C12.3974 8.9625 11.8195 8.93365 11.2946 9.121C10.7697 9.30835 10.3407 9.69655 10.102 10.2002M18.8212 15.941C18.5931 15.5312 18.2721 15.1807 17.884 14.9174C20.2792 14.537 21.5992 12.911 21.5992 11.4002V10.8002C21.5992 10.6411 21.536 10.4885 21.4235 10.3759C21.311 10.2634 21.1583 10.2002 20.9992 10.2002H16.4092C16.3249 9.78168 16.1806 9.37752 15.9808 9.0002H20.9992C21.4766 9.0002 21.9344 9.18984 22.272 9.5274C22.6096 9.86497 22.7992 10.3228 22.7992 10.8002V11.4002C22.7992 13.3046 21.352 15.2546 18.8212 15.941ZM17.3836 16.0454C17.0557 15.7586 16.6349 15.6004 16.1992 15.6002H7.79922C7.56266 15.5996 7.32831 15.6457 7.10964 15.7359C6.89097 15.8262 6.69229 15.9587 6.52501 16.126C6.35774 16.2933 6.22518 16.4919 6.13495 16.7106C6.04471 16.9293 5.99859 17.1636 5.99922 17.4002V18.0002C5.99922 20.3654 8.23122 22.8002 11.9992 22.8002C15.7672 22.8002 17.9992 20.3654 17.9992 18.0002V17.4002C17.9992 16.8602 17.7616 16.3754 17.3836 16.0442M7.19922 17.4002C7.19922 17.2411 7.26243 17.0885 7.37496 16.9759C7.48748 16.8634 7.64009 16.8002 7.79922 16.8002H16.1992C16.3583 16.8002 16.511 16.8634 16.6235 16.9759C16.736 17.0885 16.7992 17.2411 16.7992 17.4002V18.0002C16.7992 19.7258 15.0808 21.6002 11.9992 21.6002C8.91762 21.6002 7.19922 19.7258 7.19922 18.0002V17.4002ZM16.7992 1.2002C17.6744 1.2002 18.5138 1.54787 19.1327 2.16674C19.7515 2.78561 20.0992 3.62498 20.0992 4.5002C20.0992 5.37541 19.7515 6.21478 19.1327 6.83365C18.5138 7.45252 17.6744 7.8002 16.7992 7.8002C15.924 7.8002 15.0846 7.45252 14.4658 6.83365C13.8469 6.21478 13.4992 5.37541 13.4992 4.5002C13.4992 3.62498 13.8469 2.78561 14.4658 2.16674C15.0846 1.54787 15.924 1.2002 16.7992 1.2002ZM16.7992 2.4002C16.2423 2.4002 15.7081 2.62144 15.3143 3.01527C14.9205 3.4091 14.6992 3.94324 14.6992 4.5002C14.6992 5.05715 14.9205 5.59129 15.3143 5.98512C15.7081 6.37895 16.2423 6.6002 16.7992 6.6002C17.3562 6.6002 17.8903 6.37895 18.2841 5.98512C18.678 5.59129 18.8992 5.05715 18.8992 4.5002C18.8992 3.94324 18.678 3.4091 18.2841 3.01527C17.8903 2.62144 17.3562 2.4002 16.7992 2.4002Z" fill="#0A0A0A"/>
</svg>
