<svg width="40" height="40" viewBox="0 0 40 40" fill="none" xmlns="http://www.w3.org/2000/svg">
<circle cx="20" cy="20" r="20" fill="#E2E0FF"/>
<g clip-path="url(#clip0_1957_42223)">
<path d="M16.5 18.7606H15.92C15.1285 18.732 14.3395 18.8664 13.6021 19.1554C12.8647 19.4444 12.1946 19.8818 11.6333 20.4406L11.4733 20.6273V26.1473H14.1933V23.0139L14.56 22.6006L14.7266 22.4073C15.5946 21.5156 16.6752 20.8595 17.8666 20.5006C17.2701 20.0467 16.7996 19.4477 16.5 18.7606Z" fill="#06007A"/>
<path d="M29.3934 20.4191C28.8321 19.8603 28.162 19.4229 27.4246 19.1339C26.6871 18.8449 25.8982 18.7105 25.1067 18.7391C24.864 18.7398 24.6214 18.7532 24.3801 18.7791C24.0748 19.4237 23.6172 19.9843 23.0467 20.4125C24.3187 20.7644 25.471 21.4557 26.3801 22.4125L26.5467 22.5991L26.9067 23.0125V26.1525H29.5334V20.6058L29.3934 20.4191Z" fill="#06007A"/>
<path d="M15.9001 17.4608H16.1067C16.0107 16.6363 16.1554 15.8017 16.5233 15.0576C16.8912 14.3135 17.4666 13.6918 18.1801 13.2675C17.9214 12.8724 17.5646 12.5513 17.1446 12.3355C16.7246 12.1197 16.2557 12.0167 15.7839 12.0366C15.3121 12.0565 14.8535 12.1986 14.4531 12.4489C14.0528 12.6992 13.7242 13.0493 13.4998 13.4647C13.2753 13.8802 13.1626 14.3468 13.1726 14.8189C13.1827 15.2911 13.3152 15.7525 13.5572 16.158C13.7991 16.5635 14.1423 16.8992 14.553 17.1323C14.9637 17.3653 15.4278 17.4878 15.9001 17.4875V17.4608Z" fill="#06007A"/>
<path d="M24.7867 16.96C24.7948 17.1133 24.7948 17.2668 24.7867 17.42C24.9146 17.4403 25.0438 17.4515 25.1733 17.4534H25.3C25.7701 17.4283 26.2258 17.2819 26.6226 17.0285C27.0193 16.7751 27.3437 16.4232 27.5642 16.0072C27.7846 15.5912 27.8935 15.1252 27.8804 14.6545C27.8673 14.1839 27.7325 13.7247 27.4892 13.3216C27.2459 12.9185 26.9024 12.5853 26.4921 12.3544C26.0819 12.1235 25.6188 12.0027 25.1479 12.0039C24.6771 12.0051 24.2147 12.1282 23.8055 12.3611C23.3964 12.5941 23.0546 12.9291 22.8133 13.3334C23.4167 13.7273 23.9129 14.2649 24.2573 14.8979C24.6017 15.5309 24.7836 16.2394 24.7867 16.96Z" fill="#06007A"/>
<path d="M20.4133 19.9473C22.0591 19.9473 23.3933 18.6131 23.3933 16.9673C23.3933 15.3215 22.0591 13.9873 20.4133 13.9873C18.7675 13.9873 17.4333 15.3215 17.4333 16.9673C17.4333 18.6131 18.7675 19.9473 20.4133 19.9473Z" fill="#06007A"/>
<path d="M20.5733 21.5333C19.7027 21.4982 18.8339 21.6395 18.0193 21.9489C17.2048 22.2582 16.4612 22.7291 15.8333 23.3333L15.6667 23.52V27.74C15.6693 27.8774 15.6989 28.013 15.7539 28.139C15.809 28.265 15.8883 28.379 15.9873 28.4743C16.0864 28.5696 16.2032 28.6445 16.3312 28.6947C16.4592 28.7449 16.5959 28.7693 16.7333 28.7667H24.3933C24.5308 28.7693 24.6674 28.7449 24.7954 28.6947C24.9234 28.6445 25.0403 28.5696 25.1393 28.4743C25.2384 28.379 25.3177 28.265 25.3727 28.139C25.4277 28.013 25.4574 27.8774 25.46 27.74V23.5333L25.3 23.3333C24.6762 22.7273 23.9352 22.255 23.1224 21.9455C22.3097 21.636 21.4422 21.4957 20.5733 21.5333Z" fill="#06007A"/>
</g>
<defs>
<clipPath id="clip0_1957_42223">
<rect width="24" height="24" fill="white" transform="translate(8.5 8)"/>
</clipPath>
</defs>
</svg>
