<svg width="40" height="40" viewBox="0 0 40 40" fill="none" xmlns="http://www.w3.org/2000/svg">
<circle cx="20" cy="20" r="20" fill="#F3E6FA"/>
<path d="M20 9.5C19.2044 9.5 18.4413 9.81607 17.8787 10.3787C17.3161 10.9413 17 11.7044 17 12.5V27.5C17 28.2956 17.3161 29.0587 17.8787 29.6213C18.4413 30.1839 19.2044 30.5 20 30.5C20.7956 30.5 21.5587 30.1839 22.1213 29.6213C22.6839 29.0587 23 28.2956 23 27.5V12.5C23 11.7044 22.6839 10.9413 22.1213 10.3787C21.5587 9.81607 20.7956 9.5 20 9.5ZM21.5 12.5V27.5C21.5 27.8978 21.342 28.2794 21.0607 28.5607C20.7794 28.842 20.3978 29 20 29C19.6022 29 19.2206 28.842 18.9393 28.5607C18.658 28.2794 18.5 27.8978 18.5 27.5V12.5C18.5 12.1022 18.658 11.7206 18.9393 11.4393C19.2206 11.158 19.6022 11 20 11C20.3978 11 20.7794 11.158 21.0607 11.4393C21.342 11.7206 21.5 12.1022 21.5 12.5ZM12.5 18.5C11.7044 18.5 10.9413 18.8161 10.3787 19.3787C9.81607 19.9413 9.5 20.7044 9.5 21.5V27.5C9.5 28.2956 9.81607 29.0587 10.3787 29.6213C10.9413 30.1839 11.7044 30.5 12.5 30.5C13.2956 30.5 14.0587 30.1839 14.6213 29.6213C15.1839 29.0587 15.5 28.2956 15.5 27.5V21.5C15.5 20.7044 15.1839 19.9413 14.6213 19.3787C14.0587 18.8161 13.2956 18.5 12.5 18.5ZM14 27.5C14 27.8978 13.842 28.2794 13.5607 28.5607C13.2794 28.842 12.8978 29 12.5 29C12.1022 29 11.7206 28.842 11.4393 28.5607C11.158 28.2794 11 27.8978 11 27.5V21.5C11 21.1022 11.158 20.7206 11.4393 20.4393C11.7206 20.158 12.1022 20 12.5 20C12.8978 20 13.2794 20.158 13.5607 20.4393C13.842 20.7206 14 21.1022 14 21.5V27.5ZM24.5 18.5C24.5 17.7044 24.8161 16.9413 25.3787 16.3787C25.9413 15.8161 26.7044 15.5 27.5 15.5C28.2956 15.5 29.0587 15.8161 29.6213 16.3787C30.1839 16.9413 30.5 17.7044 30.5 18.5V27.5C30.5 28.2956 30.1839 29.0587 29.6213 29.6213C29.0587 30.1839 28.2956 30.5 27.5 30.5C26.7044 30.5 25.9413 30.1839 25.3787 29.6213C24.8161 29.0587 24.5 28.2956 24.5 27.5V18.5ZM29 18.5C29 18.1022 28.842 17.7206 28.5607 17.4393C28.2794 17.158 27.8978 17 27.5 17C27.1022 17 26.7206 17.158 26.4393 17.4393C26.158 17.7206 26 18.1022 26 18.5V27.5C26 27.8978 26.158 28.2794 26.4393 28.5607C26.7206 28.842 27.1022 29 27.5 29C27.8978 29 28.2794 28.842 28.5607 28.5607C28.842 28.2794 29 27.8978 29 27.5V18.5Z" fill="#7821A1"/>
</svg>
