<svg width="40" height="40" viewBox="0 0 40 40" fill="none" xmlns="http://www.w3.org/2000/svg">
<circle cx="20" cy="20" r="20" fill="#E7F1F8"/>
<path d="M29 25V16H15V25H29ZM29 11C29.5304 11 30.0391 11.2107 30.4142 11.5858C30.7893 11.9609 31 12.4696 31 13V25C31 25.5304 30.7893 26.0391 30.4142 26.4142C30.0391 26.7893 29.5304 27 29 27H15C14.4696 27 13.9609 26.7893 13.5858 26.4142C13.2107 26.0391 13 25.5304 13 25V13C13 12.4696 13.2107 11.9609 13.5858 11.5858C13.9609 11.2107 14.4696 11 15 11H16V9H18V11H26V9H28V11H29ZM11 29H25V31H11C10.4696 31 9.96086 30.7893 9.58579 30.4142C9.21071 30.0391 9 29.5304 9 29V17H11V29ZM27 23H23V19H27V23Z" fill="#4C92CB"/>
</svg>
