<svg width="24" height="24" viewBox="0 0 24 24" fill="none" xmlns="http://www.w3.org/2000/svg">
<path d="M1.46094 8.88L2.88094 7.46L5.00094 9.59L7.12094 7.46L8.54094 8.88L6.41094 11L8.54094 13.12L7.12094 14.54L5.00094 12.41L2.88094 14.54L1.46094 13.12L3.59094 11L1.46094 8.88ZM15.0009 4C16.0618 4 17.0792 4.42143 17.8294 5.17157C18.5795 5.92172 19.0009 6.93913 19.0009 8C19.0009 9.06087 18.5795 10.0783 17.8294 10.8284C17.0792 11.5786 16.0618 12 15.0009 12C13.9401 12 12.9227 11.5786 12.1725 10.8284C11.4224 10.0783 11.0009 9.06087 11.0009 8C11.0009 6.93913 11.4224 5.92172 12.1725 5.17157C12.9227 4.42143 13.9401 4 15.0009 4ZM15.0009 5.9C14.444 5.9 13.9098 6.12125 13.516 6.51508C13.1222 6.9089 12.9009 7.44305 12.9009 8C12.9009 8.55695 13.1222 9.0911 13.516 9.48492C13.9098 9.87875 14.444 10.1 15.0009 10.1C15.5579 10.1 16.092 9.87875 16.4859 9.48492C16.8797 9.0911 17.1009 8.55695 17.1009 8C17.1009 7.44305 16.8797 6.9089 16.4859 6.51508C16.092 6.12125 15.5579 5.9 15.0009 5.9ZM15.0009 13C17.6709 13 23.0009 14.33 23.0009 17V20H7.00094V17C7.00094 14.33 12.3309 13 15.0009 13ZM15.0009 14.9C12.0009 14.9 8.90094 16.36 8.90094 17V18.1H21.1009V17C21.1009 16.36 17.9709 14.9 15.0009 14.9Z" fill="#FD1D1D"/>
</svg>
