<svg width="150" height="150" viewBox="0 0 150 150" fill="none" xmlns="http://www.w3.org/2000/svg">
<g clip-path="url(#clip0_2221_48087)">
<path d="M0 150H150V1.52588e-05H0V150Z" fill="white"/>
<path d="M11.3154 42.4756C10.2135 42.6493 9.4608 43.6831 9.63423 44.785L17.9662 97.7236C18.1397 98.8258 19.1737 99.5782 20.2756 99.4048L58.83 93.3367C59.9319 93.1633 60.6846 92.1295 60.5112 91.0276L53.5515 46.8094L40.7463 37.8436L11.3154 42.4756Z" fill="#F8F8F8"/>
<path d="M43.7374 48.3548L53.5513 46.8101L40.7461 37.8443L42.2275 47.2556C42.3409 47.9762 43.0168 48.4682 43.7374 48.3548Z" fill="#D8D7D5"/>
<path d="M40.7031 37.8506L42.1842 47.2619C42.2901 47.9333 42.8691 48.4121 43.5279 48.4121C43.5984 48.4121 43.6695 48.4067 43.7412 48.3953L53.5554 46.8509L53.5896 46.8038L53.5425 46.7696L43.7286 48.3143C43.6611 48.3248 43.5939 48.3299 43.5279 48.3299C42.909 48.3299 42.3648 47.8799 42.2655 47.2493L40.7844 37.838L40.7373 37.8038L40.7031 37.8506Z" fill="#232221"/>
<path d="M33.5064 80.375L32.7993 75.8831L37.4283 75.1544L38.1354 79.6463L33.5064 80.375ZM32.6016 73.7354C32.3895 72.3869 32.3214 71.2844 32.3976 70.4291C32.4738 69.5738 32.7549 68.7566 33.2415 67.9772C33.5199 67.5116 33.8523 67.0964 34.2402 66.7307C34.6275 66.3656 34.9779 65.9882 35.292 65.5988C35.6052 65.2103 35.8551 64.7897 36.0423 64.3388C36.2289 63.8876 36.2703 63.3308 36.1659 62.6675C35.9898 61.5479 35.5578 60.8132 34.8702 60.4643C34.1829 60.1157 33.4161 60.008 32.5704 60.1412C31.3584 60.332 30.5772 60.8009 30.2265 61.5467C29.8752 62.2934 29.7325 63.2471 29.7982 64.4078L25.375 65.1041C25.1987 63.9842 25.2212 62.9381 25.4432 61.9658C25.6648 60.9941 26.0626 60.1349 26.6364 59.3885C27.2098 58.6427 27.944 58.0232 28.839 57.5309C29.7332 57.0386 30.7521 56.7026 31.8954 56.5226C34.3644 56.1341 36.3921 56.3306 37.9794 57.1112C39.5664 57.8924 40.5381 59.4143 40.8945 61.6775C41.0097 62.4092 41.0358 63.0608 40.9737 63.6329C40.9113 64.2047 40.7664 64.7372 40.5399 65.2295C40.3128 65.7221 40.0125 66.197 39.6396 66.6539C39.2661 67.1114 38.838 67.5884 38.3541 68.0861C37.9122 68.5544 37.5633 68.9783 37.3068 69.3578C37.0503 69.7382 36.8703 70.124 36.7683 70.5143C36.666 70.9055 36.6234 71.3048 36.6405 71.7116C36.6576 72.1193 36.7062 72.5744 36.7854 73.0769L32.6016 73.7354Z" fill="#D8D7D5"/>
<path d="M55.2503 76.3908C60.3539 81.4074 66.2897 88.1763 71.8055 96.9222C75.6428 103.007 78.4874 108.796 80.6105 113.89C75.7187 116.092 70.8272 118.293 65.9354 120.494L53.3594 77.6973L55.2503 76.3908Z" fill="#FABA1A"/>
<path d="M45.9806 72.93L55.3889 75.8706C57.9668 79.959 59.4554 83.5806 60.3293 86.0991C64.4 97.8294 63.0944 108.564 62.7254 111.597C62.7254 111.597 62.7191 111.649 61.5332 120.494H18.5166C18.3742 117.288 18.4017 112.854 19.1587 107.653C20.0563 101.486 20.8896 95.7606 24.6205 89.4726C26.1377 86.9157 31.4162 78.7338 41.5382 74.4507C43.3433 73.6869 44.9042 73.2156 45.9806 72.93Z" fill="#FABA1A"/>
<path d="M23.8502 90.84C29.0869 92.52 35.7555 94.1688 43.5927 94.9719C50.8929 95.7201 57.3285 95.5419 62.5443 95.0523C62.6937 96.2826 62.8434 97.5129 62.9928 98.7432C57.4227 99.1977 50.7981 99.3348 43.3863 98.6865C35.0832 97.9605 27.89 96.4326 22.0469 94.7916C22.648 93.4743 23.2491 92.1573 23.8502 90.84Z" fill="#F25D26"/>
<path d="M63.1651 101.35C63.0658 99.0426 62.8192 96.4806 62.3281 93.7635L63.6832 89.3085C64.4167 89.5068 65.1655 89.6676 65.9275 89.7891L63.1651 101.35Z" fill="#F0AD0E"/>
<path d="M58.5879 120.494H54.1953L60.7626 98.9031C61.5228 98.856 62.2662 98.802 62.9913 98.7429C62.8419 97.5126 62.6922 96.2823 62.5428 95.052C62.3361 95.0712 62.1273 95.0901 61.9167 95.1087L62.3259 93.7632C62.817 96.4803 63.0636 99.0423 63.1629 101.349L58.5879 120.494Z" fill="#F0AD0E"/>
<path d="M60.7617 98.9043L61.9158 95.1099C62.1264 95.0913 62.3352 95.0724 62.5419 95.0532C62.6913 96.2835 62.841 97.5138 62.9904 98.7441C62.2653 98.8032 61.5219 98.8572 60.7617 98.9043Z" fill="#F27E14"/>
<path d="M46.8112 114.275L48.6361 113.707L52.8187 115.869L53.8735 113.311L48.5653 111.27L46.3984 112.285L46.8112 114.275Z" fill="#E4A012"/>
<path d="M18.4736 115.639C18.4655 115.637 18.4573 115.635 18.4492 115.633L18.4927 115.028C18.4853 115.234 18.479 115.438 18.4736 115.639Z" fill="#F1D066"/>
<path d="M41.0003 118.412C38.6741 118.412 36.2018 118.325 33.6029 118.117C27.8215 117.656 22.7322 116.704 18.4727 115.64C18.4781 115.439 18.4844 115.235 18.4918 115.029L18.7429 111.532C18.8979 111.584 19.0554 111.637 19.2152 111.69C21.2333 112.363 25.7096 114.197 30.7802 114.9C41.3537 116.368 47.2238 116.735 47.2238 116.735L47.2436 116.27C47.2436 116.914 47.2436 117.558 47.2436 118.202C45.3059 118.333 43.2194 118.412 41.0003 118.412Z" fill="#F0AD0E"/>
<path d="M49.7807 79.6907H49.7804C47.1206 79.2347 45.3338 76.7084 45.7898 74.0486L47.5667 63.6833L57.1997 65.3348L55.4228 75.6998C54.9668 78.3599 52.4405 80.1467 49.7807 79.6907Z" fill="#F79994"/>
<path d="M55.9191 72.7988L50.2143 68.4785C50.1825 69.0326 50.0931 71.6378 52.0212 73.7861C53.2524 75.1577 54.7083 75.677 55.3887 75.8711L55.9191 72.7988Z" fill="#F35B5F"/>
<path d="M47.8949 60.434C47.8919 60.2723 47.5211 59.9636 47.4083 59.8604C47.2184 59.6861 47.006 59.5361 46.7777 59.4158C46.3346 59.1824 45.8246 59.0567 45.3227 59.0828C44.3243 59.1344 43.3322 59.792 42.9992 60.7514C42.8057 61.3088 42.8342 61.9253 42.9878 62.495C43.2185 63.3518 43.7288 64.127 44.4095 64.6958C44.9738 65.1674 45.6518 65.4971 46.3661 65.6666C46.5092 65.7008 47.9945 65.9258 47.9936 65.8673C47.9606 64.0562 47.9276 62.2451 47.8949 60.434Z" fill="#F79994"/>
<path d="M46.5546 60.3018C46.533 61.0947 46.4976 65.2899 49.6668 68.8143C50.2506 69.4635 54.1317 73.7796 58.5507 72.7803C64.2288 71.496 65.1753 62.7054 65.2206 62.2284C65.3736 60.6156 65.8239 55.8648 62.3817 52.6842C59.5725 50.0886 56.0091 50.2371 55.5024 50.2662C54.9687 50.2971 51.5571 50.5485 48.9963 53.4009C46.6722 55.9899 46.59 59.0043 46.5546 60.3018Z" fill="#F79994"/>
<path d="M62.2206 61.7087C62.1867 62.402 62.6235 62.9867 63.1959 63.0146C63.7683 63.0425 64.2597 62.5031 64.2933 61.8098C64.3272 61.1165 63.8904 60.5318 63.318 60.5039C62.7456 60.476 62.2542 61.0154 62.2206 61.7087Z" fill="#232221"/>
<path d="M59.9663 62.5149L60.6815 63.945C60.6995 63.981 60.7073 64.0173 60.7076 64.0539C60.707 64.1511 60.6497 64.2438 60.5522 64.2816L59.6 64.6545C59.4686 64.7061 59.4038 64.8546 59.4551 64.986C59.5067 65.1174 59.6552 65.1822 59.7866 65.1309L60.7388 64.7577C61.0388 64.6398 61.2194 64.3536 61.2191 64.0539C61.2191 63.9405 61.193 63.8241 61.139 63.7161L60.4238 62.286C60.3605 62.1597 60.2069 62.1087 60.0806 62.1717C59.9543 62.235 59.9033 62.3886 59.9663 62.5149Z" fill="#232221"/>
<path d="M53.3611 64.2399C53.3233 65.0178 53.9233 65.6793 54.7012 65.7171C55.4791 65.7549 56.1403 65.1549 56.1784 64.377C56.2162 63.5991 55.6162 62.9379 54.8383 62.8998C54.0604 62.862 53.3989 63.462 53.3611 64.2399Z" fill="#F35B5F"/>
<path d="M46.8875 63.8524C46.9016 63.7843 46.9412 63.5761 46.9412 63.2917C46.9412 62.839 46.8407 62.176 46.3652 61.5688C45.7571 60.7957 44.939 60.6118 44.7107 60.5668C44.5721 60.5398 44.4377 60.6304 44.411 60.7693C44.384 60.9079 44.4746 61.042 44.6132 61.069C44.7956 61.1035 45.476 61.2613 45.9626 61.8844C46.3457 62.3725 46.4294 62.9104 46.4297 63.2917C46.4297 63.5299 46.3967 63.7003 46.3865 63.7492C46.358 63.8875 46.4471 64.0228 46.5854 64.0513C46.724 64.0798 46.859 63.9907 46.8875 63.8524Z" fill="#232221"/>
<path d="M46.2923 61.704C46.2521 61.6905 46.0766 61.6341 45.8318 61.6335C45.5963 61.6329 45.2879 61.6896 45.0056 61.905C44.7698 62.0844 44.6381 62.3088 44.5661 62.4939C44.4941 62.679 44.4782 62.8314 44.4737 62.8797C44.4611 63.0204 44.5649 63.1446 44.7056 63.1572C44.8463 63.1698 44.9705 63.066 44.9831 62.9253C44.9852 62.9013 44.9954 62.8014 45.0428 62.6796C45.0905 62.5581 45.1715 62.4216 45.3155 62.3115C45.4877 62.1807 45.6725 62.1456 45.8318 62.145C45.9947 62.1447 46.1219 62.1858 46.1273 62.1882C46.2608 62.2335 46.4063 62.1621 46.4519 62.0286C46.4975 61.8948 46.4261 61.7496 46.2923 61.704Z" fill="#232221"/>
<path d="M64.1898 63.8759C64.4589 63.8888 64.704 63.9806 64.9116 64.1219C64.7541 64.8629 64.5237 65.7548 64.1916 66.6857C64.1451 66.6881 64.1001 66.6953 64.0527 66.6929C63.2745 66.6551 62.6748 65.9939 62.7126 65.216C62.7504 64.4378 63.4119 63.8378 64.1898 63.8759Z" fill="#F35B5F"/>
<path d="M56.4929 60.3874L57.4163 61.4353L56.0927 61.9015C55.9595 61.9483 55.8896 62.0944 55.9364 62.2276C55.9835 62.3608 56.1296 62.4307 56.2628 62.3839L57.9437 61.7917C58.0235 61.7638 58.085 61.6969 58.1063 61.615C58.1276 61.5331 58.1066 61.4449 58.0508 61.3816L56.8769 60.0493C56.7833 59.9434 56.6216 59.9332 56.5157 60.0265C56.4098 60.1198 56.3996 60.2815 56.4929 60.3874Z" fill="#232221"/>
<path d="M56.1797 67.7333L60.4061 68.2148C60.3947 68.1284 60.2096 66.8801 59.2064 66.4265C58.223 65.9813 56.8373 66.4739 56.1797 67.7333Z" fill="white"/>
<path d="M46.6031 59.3311C46.8359 59.4217 47.3849 59.671 47.8217 60.2581C48.224 60.7993 48.3206 61.3445 48.3491 61.5938C52.7327 61.1777 55.2632 59.9458 56.7872 58.8364C56.7872 58.8364 56.8985 58.7555 60.1121 56.3144C60.6299 56.8727 61.4408 57.6208 62.5886 58.2631C63.629 58.8457 64.5926 59.1427 65.2979 59.3023C67.6016 58.7662 69.2078 57.0451 69.2612 55.2478C69.3173 53.3552 67.6349 51.9224 66.4409 51.3269C65.4119 50.8139 64.6763 50.8876 63.7907 50.9617C62.999 51.0277 62.0873 51.0938 60.7391 50.7407C58.4363 50.1374 58.5221 49.2706 56.363 48.7474C55.7105 48.589 52.9994 47.932 50.2751 49.3663C47.9774 50.5762 46.157 53.0173 45.9758 55.8325C45.8765 57.3733 46.2944 58.6159 46.6031 59.3311Z" fill="#232221"/>
<path d="M45.9806 72.9308C42.1148 73.8122 34.8833 76.0385 28.147 82.0643C28.147 82.0643 21.3581 88.1375 16.7279 99.3992C16.3178 100.397 15.8589 101.45 15.3521 103.664C14.9593 105.381 14.7825 106.963 14.7247 108.345C14.6815 109.378 15.318 110.318 16.29 110.671C17.1436 110.981 18.1267 111.327 19.2161 111.69C21.2342 112.363 25.7105 114.196 30.7811 114.9C41.3546 116.367 47.2247 116.734 47.2247 116.734L47.9936 98.4821L34.0172 96.7127L45.9806 72.9308Z" fill="#FABA1A"/>
<path d="M57.1308 82.357C58.8849 88.4914 59.9715 93.6265 60.6588 97.3711C60.6738 97.4527 60.7521 97.5064 60.8334 97.4917C60.915 97.4767 60.969 97.3984 60.954 97.3171C60.2652 93.565 59.1765 88.4197 57.4191 82.2745C57.3963 82.195 57.3132 82.1488 57.2337 82.1716C57.1539 82.1944 57.108 82.2775 57.1308 82.357Z" fill="#232221"/>
<path d="M36.7474 94.0234C36.322 93.949 35.9008 93.8722 35.4844 93.7936L37.4845 89.8177L36.7474 94.0234Z" fill="#F0AD0E"/>
<path d="M36.2269 96.9922L34.0156 96.712L35.4841 93.793C35.9005 93.8716 36.3217 93.9484 36.7471 94.0228L36.2269 96.9922Z" fill="#F27E14"/>
<path d="M35.895 98.8809H31.1484L38.9904 81.2148L37.4832 89.8167L35.4831 93.7926L34.0146 96.7116L36.2259 96.9918L35.895 98.8809Z" fill="#F0AD0E"/>
<path d="M56.0837 120.494L51.8477 119.294L61.0925 86.6649L65.3285 87.8652L56.0837 120.494Z" fill="#4E52AD"/>
<path d="M47.6856 102.779C47.6856 102.779 55.6329 101.988 56.4801 102.249C57.3273 102.511 60.2271 104.152 60.6369 104.62C61.0467 105.089 61.1931 105.528 61.1346 105.967C61.0761 106.406 60.4905 106.904 60.4905 106.904C60.9495 107.618 60.9651 108.108 60.8673 108.439C60.693 109.03 59.9994 109.648 59.9928 109.655C60.0441 109.838 60.1017 110.101 60.1173 110.42C60.1323 110.723 60.1623 111.334 59.8608 111.892C59.4132 112.72 58.4919 112.956 58.2903 113.003C58.2903 113.003 58.6464 113.666 58.1781 114.222C57.7095 114.778 56.3046 115.481 54.636 115.247C52.9674 115.012 48.6348 112.876 48.6348 112.876L47.2422 113.311L47.6856 102.779Z" fill="#F79994"/>
<path d="M69.3968 86.4961C67.3805 86.4961 65.441 86.17 63.6269 85.567C61.9841 83.5588 60.3572 81.7093 58.7774 80.0137L57.6602 72.9145C57.9551 72.8929 58.2533 72.8497 58.5542 72.7816C64.2323 71.4973 65.1788 62.7067 65.2241 62.2297C65.282 61.6189 65.3825 60.5578 65.2982 59.3023C67.6016 58.7662 69.2078 57.0451 69.2612 55.2478C69.3173 53.3551 67.6349 51.9223 66.4409 51.3268C65.777 50.9959 65.2352 50.9092 64.6964 50.9092C64.4003 50.9092 64.1051 50.9353 63.7907 50.9617C63.6092 50.9767 63.4214 50.992 63.2237 51.0019C65.1518 50.3104 67.2308 49.9333 69.3968 49.9333C79.2812 49.9333 87.3335 57.778 87.6674 67.5814H85.1552C84.9767 67.5814 84.8036 67.6057 84.6395 67.6513C83.8265 67.8766 83.2295 68.6221 83.2295 69.5071V80.1676C79.8773 84.0433 74.9234 86.4961 69.3968 86.4961Z" fill="#EAF8FB"/>
<path d="M58.7743 80.0117C57.9652 79.1432 57.1684 78.3149 56.3881 77.5262C56.074 76.9844 55.7407 76.4315 55.3867 75.8705C55.3987 75.8138 55.4095 75.7562 55.4194 75.6986L55.915 72.8078L55.9162 72.7997C56.3356 72.8828 56.7667 72.929 57.2062 72.929C57.3556 72.929 57.5056 72.9236 57.6571 72.9125L58.7743 80.0117Z" fill="#E4F4F7"/>
<path d="M63.6263 85.5664C62.0957 85.0576 60.6551 84.3523 59.3342 83.4799C58.6142 81.7387 57.6602 79.7185 56.3906 77.5276C57.1709 78.3163 57.9677 79.1446 58.7768 80.0131C60.3566 81.7087 61.9835 83.5582 63.6263 85.5664Z" fill="#E2D87C"/>
<path d="M59.3351 83.4805C57.266 82.1137 55.4903 80.3368 54.125 78.2668C54.7454 77.6242 55.1963 76.8055 55.3901 75.8725C55.7441 76.4335 56.0774 76.9864 56.3915 77.5282C57.6611 79.7191 58.6151 81.7393 59.3351 83.4805Z" fill="#E2D87C"/>
<path d="M54.1212 78.2656C53.2002 76.8694 52.4658 75.3394 51.9531 73.7113C51.9747 73.7362 51.9966 73.7608 52.0185 73.7854C53.2497 75.157 54.7056 75.6763 55.386 75.8704L55.9146 72.8086L55.419 75.6994C55.4091 75.757 55.3983 75.8146 55.3863 75.8713C55.1925 76.8043 54.7416 77.623 54.1212 78.2656Z" fill="#E4C6C8"/>
<path d="M55.3897 75.8711C54.7093 75.677 53.2534 75.1577 52.0222 73.7861C52.0003 73.7615 51.9784 73.7369 51.9568 73.712C51.6154 72.6287 51.3727 71.5031 51.2383 70.343C52.3798 71.3117 54.0313 72.4277 55.9195 72.8012L55.9183 72.8093L55.3897 75.8711Z" fill="#E7A6AA"/>
<path d="M57.2072 72.9297C56.7677 72.9297 56.3366 72.8835 55.9172 72.8004C54.029 72.4269 52.3775 71.3109 51.236 70.3422C51.155 69.6441 51.1133 68.9334 51.1133 68.2134C51.1133 65.5698 51.6749 63.0567 52.6844 60.7878C54.5531 60.2331 55.8563 59.5113 56.7851 58.8351C56.7851 58.8351 56.8964 58.7541 60.11 56.313C60.6278 56.8713 61.4387 57.6195 62.5865 58.2618C63.6269 58.8444 64.5905 59.1414 65.2958 59.301C65.3804 60.5565 65.2799 61.6176 65.222 62.2284C65.1767 62.7054 64.2302 71.496 58.5521 72.7803C58.2512 72.8484 57.953 72.8916 57.6581 72.9132C57.5066 72.9243 57.3566 72.9297 57.2072 72.9297ZM58.4348 66.2643C57.5924 66.2643 56.6768 66.7782 56.1788 67.7319L60.4052 68.2134C60.3938 68.127 60.2087 66.8787 59.2055 66.4251C58.967 66.3171 58.7045 66.2643 58.4348 66.2643ZM64.1207 63.8727C63.3734 63.8727 62.75 64.4598 62.7134 65.2146C62.6756 65.9925 63.2753 66.6537 64.0535 66.6915C64.0598 66.6918 64.0661 66.6921 64.0724 66.6921C64.1129 66.6921 64.1522 66.6864 64.1924 66.6843C64.5245 65.7534 64.7549 64.8615 64.9124 64.1205C64.7048 63.9792 64.4597 63.8874 64.1906 63.8745C64.1672 63.8733 64.1441 63.8727 64.1207 63.8727ZM54.7673 62.898C54.02 62.898 53.3966 63.4851 53.36 64.2396C53.3222 65.0175 53.9222 65.679 54.7001 65.7168C54.7232 65.718 54.7466 65.7186 54.7697 65.7186C55.5173 65.7186 56.1404 65.1315 56.1773 64.3767C56.2151 63.5988 55.6151 62.9376 54.8372 62.8995C54.8138 62.8983 54.7904 62.898 54.7673 62.898ZM60.1946 62.1438C60.1562 62.1438 60.1172 62.1525 60.0803 62.1708C59.954 62.2341 59.903 62.3877 59.966 62.514L60.6812 63.9441C60.6992 63.9801 60.707 64.0164 60.7073 64.053C60.7067 64.1502 60.6494 64.2429 60.5519 64.2807L59.5997 64.6536C59.4683 64.7052 59.4035 64.8537 59.4548 64.9851C59.4944 65.0859 59.591 65.1477 59.693 65.1477C59.7242 65.1477 59.7557 65.142 59.7863 65.13L60.7385 64.7568C61.0385 64.6389 61.2191 64.3527 61.2188 64.053C61.2188 63.9396 61.1927 63.8232 61.1387 63.7152L60.4235 62.2851C60.3788 62.1957 60.2885 62.1438 60.1946 62.1438ZM63.2735 60.5022C62.7194 60.5022 62.2514 61.032 62.2184 61.7079C62.1845 62.4012 62.6213 62.9859 63.1937 63.0138C63.2078 63.0144 63.2219 63.0147 63.236 63.0147C63.7901 63.015 64.2581 62.4852 64.2911 61.809C64.325 61.1157 63.8882 60.531 63.3158 60.5031C63.3017 60.5025 63.2876 60.5022 63.2735 60.5022ZM56.4941 60.3867L57.4175 61.4346L56.0939 61.9008C55.9607 61.9476 55.8908 62.0937 55.9376 62.2269C55.9748 62.3319 56.0735 62.3979 56.1788 62.3979C56.207 62.3979 56.2358 62.3931 56.264 62.3832L57.9449 61.791C58.0247 61.7631 58.0862 61.6962 58.1075 61.6143C58.1288 61.5324 58.1078 61.4442 58.052 61.3809L56.8781 60.0486C56.8274 59.9913 56.7569 59.9619 56.6861 59.9619C56.6258 59.9619 56.5655 59.9829 56.5169 60.0258C56.411 60.1191 56.4008 60.2808 56.4941 60.3867Z" fill="#E4C6C8"/>
<path d="M63.2382 63.0156C63.2241 63.0156 63.21 63.0153 63.1959 63.0147C62.6235 62.9868 62.1867 62.4021 62.2206 61.7088C62.2536 61.0329 62.7216 60.5031 63.2757 60.5031C63.2898 60.5031 63.3039 60.5034 63.318 60.504C63.8904 60.5319 64.3272 61.1166 64.2933 61.8099C64.2603 62.4861 63.7923 63.0159 63.2382 63.0156Z" fill="#74878C"/>
<path d="M59.6933 65.1484C59.5913 65.1484 59.4947 65.0866 59.4551 64.9858C59.4038 64.8544 59.4686 64.7059 59.6 64.6543L60.5522 64.2814C60.6497 64.2436 60.707 64.1509 60.7076 64.0537C60.7073 64.0171 60.6995 63.9808 60.6815 63.9448L59.9663 62.5147C59.9033 62.3884 59.9543 62.2348 60.0806 62.1715C60.1175 62.1532 60.1565 62.1445 60.1949 62.1445C60.2888 62.1445 60.3791 62.1964 60.4238 62.2858L61.139 63.7159C61.193 63.8239 61.2191 63.9403 61.2191 64.0537C61.2194 64.3534 61.0388 64.6396 60.7388 64.7575L59.7866 65.1307C59.756 65.1427 59.7245 65.1484 59.6933 65.1484Z" fill="#74878C"/>
<path d="M54.7708 65.7188C54.7477 65.7188 54.7243 65.7182 54.7012 65.717C53.9233 65.6792 53.3233 65.0177 53.3611 64.2398C53.3977 63.4853 54.0211 62.8982 54.7684 62.8982C54.7915 62.8982 54.8149 62.8985 54.8383 62.8997C55.6162 62.9378 56.2162 63.599 56.1784 64.3769C56.1415 65.1317 55.5184 65.7188 54.7708 65.7188Z" fill="#E7A6AA"/>
<path d="M64.0716 66.6934C64.0653 66.6934 64.059 66.6931 64.0527 66.6928C63.2745 66.655 62.6748 65.9938 62.7126 65.2159C62.7492 64.4611 63.3726 63.874 64.1199 63.874C64.1433 63.874 64.1664 63.8746 64.1898 63.8758C64.4589 63.8887 64.704 63.9805 64.9116 64.1218C64.7541 64.8628 64.5237 65.7547 64.1916 66.6856C64.1514 66.6877 64.1121 66.6934 64.0716 66.6934Z" fill="#E7A6AA"/>
<path d="M56.1776 62.3984C56.0723 62.3984 55.9736 62.3324 55.9364 62.2274C55.8896 62.0942 55.9595 61.9481 56.0927 61.9013L57.4163 61.4351L56.4929 60.3872C56.3996 60.2813 56.4098 60.1196 56.5157 60.0263C56.5643 59.9834 56.6246 59.9624 56.6849 59.9624C56.7557 59.9624 56.8262 59.9918 56.8769 60.0491L58.0508 61.3814C58.1066 61.4447 58.1276 61.5329 58.1063 61.6148C58.085 61.6967 58.0235 61.7636 57.9437 61.7915L56.2628 62.3837C56.2346 62.3936 56.2058 62.3984 56.1776 62.3984Z" fill="#74878C"/>
<path d="M60.4061 68.2148L56.1797 67.7333C56.6777 66.7796 57.5933 66.2657 58.4357 66.2657C58.7054 66.2657 58.9679 66.3185 59.2064 66.4265C60.2096 66.8801 60.3947 68.1284 60.4061 68.2148Z" fill="#EAF8FB"/>
<path d="M52.6836 60.7891C54.7029 56.2516 58.5147 52.6897 63.2208 51.0019C63.4185 50.992 63.6063 50.9767 63.7878 50.9617C64.1022 50.9353 64.3974 50.9092 64.6935 50.9092C65.2323 50.9092 65.7741 50.9959 66.438 51.3268C67.632 51.9223 69.3144 53.3551 69.2583 55.2478C69.2049 57.0451 67.5987 58.7662 65.295 59.3023C64.5897 59.1427 63.6261 58.8457 62.5857 58.2631C61.4379 57.6208 60.627 56.8726 60.1092 56.3143C56.8956 58.7554 56.7843 58.8364 56.7843 58.8364C55.8555 59.5126 54.5523 60.2344 52.6836 60.7891Z" fill="#74878C"/>
<path d="M69.3959 86.4949C59.2994 86.4949 51.1145 78.31 51.1145 68.2135C51.1145 58.117 59.2994 49.9321 69.3959 49.9321C79.4924 49.9321 87.6773 58.117 87.6773 68.2135C87.6773 78.31 79.4924 86.4949 69.3959 86.4949ZM69.3959 46.3645C57.329 46.3645 47.5469 56.1466 47.5469 68.2135C47.5469 80.2804 57.329 90.0625 69.3959 90.0625C81.4628 90.0625 91.2449 80.2804 91.2449 68.2135C91.2449 56.1466 81.4628 46.3645 69.3959 46.3645Z" fill="#4E52AD"/>
<path d="M60.5333 106.683C60.533 106.683 60.4889 106.674 60.4067 106.658C60.1193 106.602 59.3768 106.451 58.5482 106.24C57.7202 106.029 56.8025 105.756 56.1812 105.466C55.4465 105.124 54.944 104.86 54.6269 104.683C54.4685 104.594 54.3563 104.527 54.2846 104.483C54.2486 104.46 54.2228 104.444 54.2066 104.433L54.1889 104.421L54.1844 104.419C54.0821 104.348 53.942 104.374 53.8718 104.477C53.8013 104.579 53.8271 104.719 53.9297 104.79C53.9423 104.798 54.5033 105.182 55.9916 105.874C56.7599 106.231 57.8669 106.539 58.7906 106.764C59.7134 106.988 60.4481 107.124 60.4508 107.125C60.5729 107.148 60.6905 107.067 60.7133 106.945C60.7361 106.823 60.6554 106.705 60.5333 106.683Z" fill="#232221"/>
<path d="M60.0157 109.432C60.0157 109.432 59.9647 109.427 59.8702 109.416C59.5402 109.379 58.6912 109.274 57.7798 109.093C56.8705 108.914 55.8919 108.651 55.3378 108.33C54.658 107.94 54.1996 107.619 53.9134 107.397C53.77 107.286 53.6698 107.201 53.6065 107.144C53.575 107.115 53.5525 107.094 53.5384 107.081L53.5234 107.066L53.5207 107.063L53.5117 107.072L53.5207 107.063V107.063L53.5117 107.072L53.5207 107.063C53.4349 106.973 53.2924 106.97 53.2027 107.055C53.1127 107.141 53.1091 107.284 53.1949 107.374C53.2114 107.391 53.7211 107.92 55.1134 108.72C55.4854 108.934 55.9684 109.106 56.4904 109.252C58.0525 109.689 59.9644 109.879 59.971 109.88C60.0946 109.892 60.2047 109.802 60.2173 109.678C60.2296 109.555 60.1393 109.444 60.0157 109.432Z" fill="#232221"/>
<path d="M58.886 112.572C57.4625 112.516 56.3993 112.199 55.6574 111.895C55.0382 111.641 54.3296 111.266 53.7794 110.955C53.504 110.8 53.2676 110.66 53.1008 110.56C53.0171 110.51 52.9508 110.469 52.9055 110.441C52.8602 110.414 52.8368 110.399 52.8365 110.399C52.7312 110.333 52.5923 110.365 52.5266 110.47C52.4606 110.575 52.4924 110.714 52.5977 110.78C52.6034 110.783 54.1892 111.778 55.4867 112.311C56.2673 112.631 57.3869 112.963 58.8683 113.021C58.9925 113.026 59.0972 112.93 59.102 112.805C59.1068 112.681 59.0102 112.576 58.886 112.572Z" fill="#232221"/>
<path d="M47.6856 102.78L47.2422 113.312L48.6348 112.877L48.1884 102.731L47.6856 102.78Z" fill="#F35B5F"/>
<path d="M38.3037 82.2549C38.3037 82.2552 36.5313 86.1516 34.7589 90.1524C33.8724 92.1531 32.9862 94.1793 32.3208 95.7588C31.9884 96.5484 31.7109 97.2261 31.5162 97.7343C31.4187 97.9887 31.3419 98.2002 31.2885 98.364C31.2618 98.4462 31.2411 98.5161 31.2264 98.5752C31.212 98.6352 31.2021 98.6805 31.2015 98.7315C31.2024 98.7552 31.2015 98.7816 31.2216 98.8245C31.2471 98.8728 31.2774 98.8911 31.3002 98.9052C31.3443 98.9295 31.3827 98.9391 31.431 98.9502C31.5945 98.985 31.869 99.0051 32.2539 99.0195C32.637 99.0333 33.1242 99.0396 33.6888 99.0396C38.2761 99.0396 47.9964 98.6325 47.9976 98.6325L47.9913 98.4825L47.8413 98.4762L47.0727 116.728L47.2224 116.735L47.232 116.585C47.2314 116.585 47.0319 116.572 46.6716 116.548C45.4104 116.461 42.1863 116.229 38.724 115.88C35.2629 115.532 31.5594 115.066 29.3558 114.519C26.8231 113.89 24.107 113.083 22.0249 112.432C20.9838 112.107 20.1012 111.821 19.479 111.617C18.8568 111.412 18.4963 111.29 18.4952 111.289C18.4168 111.263 18.3316 111.305 18.3049 111.383C18.2782 111.461 18.3202 111.547 18.3985 111.574C18.4007 111.574 24.1997 113.548 29.2835 114.81C31.8396 115.444 36.315 115.96 40.1601 116.321C44.004 116.682 47.2122 116.884 47.2131 116.884C47.253 116.887 47.2932 116.873 47.3229 116.846C47.3526 116.819 47.3706 116.781 47.3724 116.741L48.141 98.4888C48.1428 98.4471 48.1269 98.406 48.0972 98.3766C48.0678 98.3469 48.0267 98.331 47.985 98.3325C47.9832 98.3328 47.3775 98.358 46.3947 98.3961C43.4469 98.5107 37.1187 98.7396 33.6888 98.7396C33.0033 98.7396 32.4333 98.7303 32.0325 98.7096C31.8324 98.6991 31.674 98.6856 31.569 98.67C31.5168 98.6625 31.4775 98.6538 31.4583 98.6475L31.4484 98.6442L31.4478 98.6439L31.4001 98.7357L31.4901 98.6907C31.4676 98.6502 31.4493 98.646 31.4478 98.6439L31.4001 98.7357L31.4901 98.6907L31.4082 98.7315H31.5015C31.5006 98.7312 31.5042 98.7222 31.4901 98.6907L31.4082 98.7315H31.5015C31.5009 98.7309 31.5051 98.6952 31.5174 98.6478C31.5645 98.4564 31.7136 98.0439 31.9344 97.4877C32.7081 95.5347 34.3698 91.755 35.8365 88.467C36.5703 86.8224 37.2552 85.3005 37.7571 84.1896C38.0079 83.634 38.2128 83.1816 38.355 82.8678C38.4975 82.554 38.5767 82.3794 38.577 82.3791C38.6112 82.3035 38.5779 82.2147 38.5026 82.1805C38.427 82.146 38.3382 82.1793 38.3037 82.2549Z" fill="#232221"/>
<path d="M70.3922 55.2697C70.2791 55.5217 70.2618 55.8166 70.3665 56.0956C70.5771 56.6572 71.2028 56.9416 71.7644 56.731C72.7847 56.3482 73.8896 56.1868 74.96 56.2642C76.1561 56.3509 77.072 56.7103 77.5115 56.917C78.0329 57.1621 79.1177 57.6721 79.9265 58.7851C81.0524 60.3352 80.9585 62.149 80.8658 62.857C80.7878 63.4516 81.2069 63.9967 81.8015 64.0747C82.3961 64.1524 82.9418 63.7327 83.0192 63.139C83.1761 61.939 83.2115 59.6122 81.6836 57.5086C80.5469 55.9438 79.0673 55.2484 78.4355 54.9514C77.732 54.6208 76.5854 54.2047 75.1169 54.0982C73.7363 53.9983 72.3131 54.2053 71.0015 54.6976C70.7189 54.8035 70.5065 55.0147 70.3922 55.2697Z" fill="white"/>
<path d="M32.2662 80.5757C29.6069 82.94 26.1917 86.4704 23.0744 91.3628C19.8735 96.3857 18.1009 101.096 17.0881 104.562C17.0649 104.641 17.1105 104.725 17.1899 104.748C17.2695 104.771 17.3528 104.725 17.376 104.646C18.3829 101.2 20.1453 96.5177 23.3274 91.5239C26.4265 86.6603 29.8217 83.1503 32.4654 80.8001C32.5272 80.7449 32.5329 80.6501 32.478 80.5883C32.4228 80.5262 32.328 80.5208 32.2662 80.5757Z" fill="white"/>
<path d="M83.7267 120.494H51.258C49.9914 120.494 48.9648 119.468 48.9648 118.201V116.734H83.7267V120.494Z" fill="#4381CB"/>
<path d="M107.95 120.494H72.5268C71.1357 120.494 70.146 119.305 70.3158 117.838L72.993 94.7397C73.1631 93.273 74.4285 92.0838 75.8196 92.0838H111.243C112.634 92.0838 113.624 93.273 113.454 94.7397L110.777 117.838C110.607 119.305 109.341 120.494 107.95 120.494Z" fill="#4381CB"/>
<path d="M111.372 120.494H75.9487C74.5576 120.494 73.5679 119.305 73.7377 117.838L76.4149 94.7397C76.585 93.273 77.8504 92.0838 79.2415 92.0838H114.665C116.056 92.0838 117.046 93.273 116.876 94.7397L114.198 117.838C114.029 119.305 112.763 120.494 111.372 120.494Z" fill="#5891D4"/>
<path d="M116.875 96.0678L114.197 117.975C114.197 117.975 114.317 120.494 110.19 120.494C106.063 120.494 87.0078 120.494 87.0078 120.494C89.5032 120.478 98.2419 120.119 106.269 113.546C114.28 106.987 116.363 98.514 116.875 96.0678Z" fill="#7CBAE8"/>
<path d="M115.993 98.8375C115.195 101.421 113.255 106.481 108.607 111.206C104.022 115.868 99.0737 117.893 96.5129 118.745C96.4343 118.771 96.3917 118.856 96.4178 118.934C96.4442 119.013 96.5291 119.056 96.6077 119.029C99.1943 118.169 104.19 116.124 108.82 111.417C113.515 106.645 115.473 101.536 116.279 98.926C116.304 98.8468 116.259 98.7628 116.18 98.7385C116.101 98.7139 116.017 98.7583 115.993 98.8375Z" fill="#232221"/>
<path d="M95.3123 108.602H94.0742L94.8632 103.58H96.1016L95.3123 108.602Z" fill="#FABA1A"/>
<path d="M96.9373 108.602H95.6992L96.2431 105.139H97.4815L96.9373 108.602Z" fill="#FABA1A"/>
<path d="M60.6333 49.3199C58.8342 50.3351 54.294 53.21 51.3135 59.0114C49.1763 63.1721 48.7305 67.1081 48.7305 69.7544C48.7305 70.7879 48.7986 71.6249 48.8604 72.2021C48.8691 72.2843 48.9432 72.344 49.0254 72.335C49.1079 72.3263 49.1676 72.2525 49.1586 72.17C49.0977 71.6006 49.0305 70.7747 49.0305 69.7544C49.0305 67.1411 49.4709 63.2552 51.5805 59.1485C54.5214 53.4227 59.0061 50.5823 60.7809 49.5812C60.8529 49.5404 60.8784 49.4489 60.8376 49.3769C60.7971 49.3046 60.7056 49.2791 60.6333 49.3199Z" fill="#232221"/>
<path d="M63.042 110.294L62.3454 105.382C62.3337 105.3 62.2578 105.243 62.1759 105.254C62.0937 105.266 62.0367 105.342 62.0484 105.424L62.7447 110.336C62.7564 110.418 62.8323 110.475 62.9145 110.463C62.9964 110.452 63.0534 110.376 63.042 110.294Z" fill="#232221"/>
<path d="M131.563 105.41H85.1523C84.0888 105.41 83.2266 104.548 83.2266 103.484V69.5061C83.2266 68.4426 84.0888 67.5805 85.1523 67.5805H131.563C132.627 67.5805 133.489 68.4426 133.489 69.5061V103.484C133.489 104.548 132.627 105.41 131.563 105.41Z" fill="#F8F8F8"/>
<path d="M133.489 71.957H83.2266V69.506C83.2266 68.621 83.8236 67.8755 84.6366 67.6502C84.8007 67.6046 84.9738 67.5803 85.1523 67.5803H131.563C131.742 67.5803 131.915 67.6046 132.079 67.6502C132.892 67.8755 133.489 68.621 133.489 69.506V71.957Z" fill="#E7E7E6"/>
<path d="M85.8409 69.9977C85.8409 70.3268 85.5739 70.5938 85.2445 70.5938C84.9154 70.5938 84.6484 70.3268 84.6484 69.9977C84.6484 69.6683 84.9154 69.4013 85.2445 69.4013C85.5739 69.4013 85.8409 69.6683 85.8409 69.9977Z" fill="#F8F8F8"/>
<path d="M87.7277 69.9977C87.7277 70.3268 87.4607 70.5938 87.1313 70.5938C86.8022 70.5938 86.5352 70.3268 86.5352 69.9977C86.5352 69.6683 86.8022 69.4013 87.1313 69.4013C87.4607 69.4013 87.7277 69.6683 87.7277 69.9977Z" fill="#F8F8F8"/>
<path d="M89.6534 69.9977C89.6534 70.3268 89.3864 70.5938 89.0573 70.5938C88.7279 70.5938 88.4609 70.3268 88.4609 69.9977C88.4609 69.6683 88.7279 69.4013 89.0573 69.4013C89.3864 69.4013 89.6534 69.6683 89.6534 69.9977Z" fill="#F8F8F8"/>
<path d="M120.865 98.7441H98.0974C97.2928 98.7441 96.6406 98.0919 96.6406 97.2873V80.9469V78.4941C96.6406 77.6895 97.2928 77.0373 98.0974 77.0373H112.335C113.14 77.0373 113.792 77.6895 113.792 78.4941V80.9469H120.865C121.67 80.9469 122.322 81.5991 122.322 82.4034V97.2873C122.322 98.0919 121.67 98.7441 120.865 98.7441Z" fill="#E7E7E6"/>
<path d="M112.351 84.3714L109.482 87.2397L106.614 84.3714L104.883 86.1024L107.751 88.9707L104.883 91.8393L106.614 93.5703L109.482 90.7017L112.351 93.5703L114.082 91.8393L111.213 88.9707L114.082 86.1024L112.351 84.3714Z" fill="#D8D7D5"/>
<path d="M85.1544 67.6217H131.566C132.086 67.6217 132.557 67.8326 132.898 68.1737C133.239 68.5148 133.45 68.9858 133.45 69.5063V103.484L133.491 103.525L133.532 103.484V69.5063C133.532 68.42 132.652 67.5395 131.566 67.5395H85.1544L85.1133 67.5806L85.1544 67.6217Z" fill="#232221"/>
<path d="M137.251 126.891H12.8074C11.0412 126.891 9.60938 125.459 9.60938 123.693C9.60938 121.927 11.0412 120.495 12.8074 120.495H137.251C139.018 120.495 140.449 121.927 140.449 123.693C140.449 125.459 139.018 126.891 137.251 126.891Z" fill="#F8A2D5"/>
<path d="M130.023 84.9727L129.288 79.1227L135.317 78.3658L136.051 84.2158L130.023 84.9727ZM129.119 76.3315C128.898 74.5753 128.855 73.144 128.988 72.0388C129.122 70.9333 129.519 69.8857 130.181 68.8951C130.56 68.3032 131.008 67.7785 131.526 67.3201C132.043 66.8626 132.512 66.3877 132.935 65.896C133.356 65.4049 133.697 64.8703 133.958 64.2931C134.218 63.7162 134.294 62.9962 134.186 62.1325C134.002 60.6742 133.473 59.7046 132.596 59.2249C131.719 58.7455 130.729 58.5748 129.628 58.7131C128.05 58.9114 127.019 59.4874 126.534 60.4399C126.048 61.393 125.825 62.6233 125.863 64.1302L120.103 64.8538C119.92 63.3952 119.991 62.0404 120.318 60.7897C120.644 59.5393 121.195 58.4419 121.968 57.4978C122.742 56.5543 123.718 55.7812 124.898 55.1794C126.077 54.5776 127.411 54.1834 128.9 53.9962C132.115 53.5924 134.735 53.929 136.761 55.0051C138.785 56.0818 139.983 58.093 140.353 61.0405C140.473 61.9936 140.481 62.839 140.377 63.5776C140.273 64.3165 140.064 65.0005 139.75 65.6296C139.436 66.2587 139.028 66.862 138.526 67.4389C138.024 68.0164 137.449 68.6176 136.802 69.2431C136.211 69.832 135.741 70.3672 135.393 70.8487C135.046 71.3311 134.797 71.824 134.649 72.3259C134.5 72.8284 134.429 73.3444 134.435 73.8721C134.441 74.401 134.485 74.9929 134.568 75.6475L129.119 76.3315Z" fill="#F25D26"/>
<path d="M119.551 36.7656C119.551 45.2862 112.644 52.1934 104.123 52.1934C95.6028 52.1934 88.6953 45.2862 88.6953 36.7656C88.6953 28.245 95.6028 21.3378 104.123 21.3378C112.644 21.3378 119.551 28.245 119.551 36.7656Z" fill="#F8F8F8"/>
<path d="M104.121 49.2852C97.2068 49.2852 91.6016 43.6797 91.6016 36.7653C91.6016 29.8509 97.2068 24.2454 104.121 24.2454C111.036 24.2454 116.641 29.8509 116.641 36.7653C116.641 43.6797 111.036 49.2852 104.121 49.2852Z" fill="#E7E7E6"/>
<path d="M104.536 38.1406H103.711V27.9535H104.536V38.1406Z" fill="#D8D7D5"/>
<path d="M109.84 40.6816L109.427 41.3965L103.711 38.0962L104.124 37.3813L109.84 40.6816Z" fill="#D8D7D5"/>
</g>
<defs>
<clipPath id="clip0_2221_48087">
<path d="M0 36C0 19.0294 0 10.5442 5.27208 5.27208C10.5442 0 19.0294 0 36 0H114C130.971 0 139.456 0 144.728 5.27208C150 10.5442 150 19.0294 150 36V114C150 130.971 150 139.456 144.728 144.728C139.456 150 130.971 150 114 150H36C19.0294 150 10.5442 150 5.27208 144.728C0 139.456 0 130.971 0 114V36Z" fill="white"/>
</clipPath>
</defs>
</svg>
