<svg width="32" height="32" viewBox="0 0 32 32" fill="none" xmlns="http://www.w3.org/2000/svg">
<circle cx="16" cy="16" r="16" fill="#ECEBFF"/>
<path d="M23.31 22.9C23.75 22.21 24 21.38 24 20.5C24 18 22 16 19.5 16C17 16 15 18 15 20.5C15 23 17 25 19.5 25C20.37 25 21.19 24.75 21.88 24.32L25 27.39L26.39 26L23.31 22.9ZM19.5 23C18.837 23 18.2011 22.7366 17.7322 22.2678C17.2634 21.7989 17 21.163 17 20.5C17 19.837 17.2634 19.2011 17.7322 18.7322C18.2011 18.2634 18.837 18 19.5 18C20.163 18 20.7989 18.2634 21.2678 18.7322C21.7366 19.2011 22 19.837 22 20.5C22 21.163 21.7366 21.7989 21.2678 22.2678C20.7989 22.7366 20.163 23 19.5 23ZM9 24V16H6L16 7L26 16H24.18C23.3186 15.0982 22.2139 14.466 21 14.18L16 9.69L11 14.19V22H13.18C13.35 22.72 13.64 23.39 14.03 24H9Z" fill="#635BFF"/>
</svg>
