<svg width="20" height="20" viewBox="0 0 20 20" fill="none" xmlns="http://www.w3.org/2000/svg">
<g clip-path="url(#clip0_713_6781)">
<path d="M10.2146 3.95485C10.1564 3.89921 10.079 3.86816 9.99855 3.86816C9.91807 3.86816 9.84069 3.89921 9.78253 3.95485L2.59113 10.8248C2.56058 10.854 2.53629 10.8891 2.5197 10.928C2.50312 10.9668 2.49459 11.0087 2.49464 11.0509L2.49347 17.4986C2.49347 17.8301 2.62517 18.1481 2.85959 18.3825C3.09401 18.6169 3.41195 18.7486 3.74347 18.7486H7.49738C7.66314 18.7486 7.82211 18.6827 7.93932 18.5655C8.05653 18.4483 8.12238 18.2894 8.12238 18.1236V12.8111C8.12238 12.7282 8.1553 12.6487 8.2139 12.5901C8.27251 12.5315 8.35199 12.4986 8.43488 12.4986H11.5599C11.6428 12.4986 11.7222 12.5315 11.7808 12.5901C11.8395 12.6487 11.8724 12.7282 11.8724 12.8111V18.1236C11.8724 18.2894 11.9382 18.4483 12.0554 18.5655C12.1726 18.6827 12.3316 18.7486 12.4974 18.7486H16.2497C16.5812 18.7486 16.8992 18.6169 17.1336 18.3825C17.368 18.1481 17.4997 17.8301 17.4997 17.4986V11.0509C17.4998 11.0087 17.4912 10.9668 17.4747 10.928C17.4581 10.8891 17.4338 10.854 17.4032 10.8248L10.2146 3.95485Z" fill="white"/>
<path d="M19.1762 9.54004L16.2543 6.74473V2.50293C16.2543 2.33717 16.1885 2.1782 16.0713 2.06099C15.9541 1.94378 15.7951 1.87793 15.6293 1.87793H13.7543C13.5886 1.87793 13.4296 1.94378 13.3124 2.06099C13.1952 2.1782 13.1293 2.33717 13.1293 2.50293V3.75293L10.8668 1.58965C10.6551 1.37559 10.3403 1.25293 10 1.25293C9.66098 1.25293 9.34692 1.37559 9.1352 1.59004L0.826608 9.53926C0.583639 9.77363 0.55317 10.1592 0.774264 10.4131C0.829784 10.4772 0.897765 10.5293 0.974068 10.5663C1.05037 10.6033 1.1334 10.6243 1.21811 10.6282C1.30281 10.6321 1.38742 10.6187 1.46678 10.5888C1.54614 10.5589 1.6186 10.5132 1.67973 10.4545L9.7852 2.70918C9.84336 2.65355 9.92074 2.6225 10.0012 2.6225C10.0817 2.6225 10.1591 2.65355 10.2172 2.70918L18.3235 10.4545C18.4429 10.569 18.6028 10.6315 18.7682 10.6283C18.9337 10.6251 19.091 10.5564 19.2059 10.4373C19.4458 10.1889 19.4258 9.77871 19.1762 9.54004Z" fill="white"/>
</g>
<defs>
<clipPath id="clip0_713_6781">
<rect width="20" height="20" fill="white" transform="translate(3.05176e-05 0.00292969)"/>
</clipPath>
</defs>
</svg>
