<svg width="10" height="14" viewBox="0 0 10 14" fill="none" xmlns="http://www.w3.org/2000/svg">
<path d="M3.46663 6.53272C3.87296 6.93904 4.42406 7.16732 4.9987 7.16732C5.28323 7.16732 5.56497 7.11128 5.82785 7.00239C6.09072 6.8935 6.32957 6.73391 6.53076 6.53272C6.73196 6.33152 6.89155 6.09267 7.00044 5.8298C7.10932 5.56693 7.16536 5.28518 7.16536 5.00065C7.16536 4.42601 6.93709 3.87491 6.53076 3.46859C6.12443 3.06226 5.57333 2.83398 4.9987 2.83398C4.42406 2.83398 3.87296 3.06226 3.46663 3.46859C3.0603 3.87491 2.83203 4.42601 2.83203 5.00065C2.83203 5.57529 3.0603 6.12639 3.46663 6.53272ZM4.9987 12.9028C4.90028 12.7859 4.78538 12.6475 4.65776 12.4903C4.2267 11.9591 3.65278 11.216 3.07985 10.3668C2.50595 9.51624 1.93923 8.56832 1.5175 7.62696C1.09283 6.67904 0.832031 5.77448 0.832031 5.00065C0.832031 3.89558 1.27102 2.83577 2.05242 2.05437C2.83382 1.27297 3.89363 0.833984 4.9987 0.833984C6.10377 0.833984 7.16357 1.27297 7.94498 2.05437C8.72638 2.83577 9.16536 3.89558 9.16536 5.00065C9.16536 5.77448 8.90456 6.67904 8.4799 7.62696C8.05817 8.56832 7.49144 9.51624 6.91755 10.3668C6.34462 11.216 5.77069 11.9591 5.33964 12.4903C5.21202 12.6475 5.09711 12.7859 4.9987 12.9028Z" stroke="#3D3D3D"/>
</svg>
