<svg width="150" height="150" viewBox="0 0 150 150" fill="none" xmlns="http://www.w3.org/2000/svg">
<path d="M74.8899 -0.0916612C75.1881 -0.0910299 75.4863 -0.0903985 75.7936 -0.0897479C80.0736 -0.075196 84.2724 -0.00169107 88.4763 0.878798C88.7619 0.937004 89.0475 0.99521 89.3418 1.05518C99.2875 3.13565 108.785 6.83485 117.187 12.5975C117.699 11.9173 118.206 11.2345 118.707 10.5468C119.849 9.21998 121.05 8.59706 122.79 8.38383C124.756 8.31559 126.459 8.39594 128.027 9.66786C129.562 11.22 130.328 12.829 130.389 15.0065C130.25 17.5396 128.909 19.0876 127.148 20.8007C127.273 20.9212 127.398 21.0417 127.527 21.1659C130.271 23.8224 132.8 26.5091 135.058 29.5897C135.183 29.7565 135.307 29.9233 135.435 30.0951C137.345 32.6564 139.046 35.3097 140.625 38.0858C140.732 38.2709 140.838 38.456 140.948 38.6467C147.256 49.6671 150.135 62.1833 150.11 74.7985C150.109 75.2421 150.109 75.2421 150.109 75.6947C150.097 80.5315 149.831 85.1946 148.828 89.9413C148.764 90.2465 148.699 90.5518 148.633 90.8663C144.916 107.908 135.209 123.82 121.289 134.473C120.972 134.724 120.655 134.976 120.339 135.229C118.778 136.462 117.272 137.543 115.522 138.489C114.865 138.855 114.235 139.247 113.603 139.656C102.284 146.911 88.5541 150.137 75.2195 150.11C74.7747 150.11 74.7747 150.11 74.321 150.109C69.4787 150.097 64.8106 149.833 60.0583 148.828C59.7531 148.764 59.4479 148.699 59.1334 148.633C47.0478 145.997 35.746 140.512 26.3669 132.422C26.1487 132.236 25.9304 132.05 25.7055 131.859C21.7489 128.398 18.0366 124.663 14.9412 120.41C14.6902 120.073 14.4392 119.736 14.1881 119.4C12.4184 117 10.8484 114.505 9.37475 111.914C9.26797 111.729 9.16119 111.544 9.05117 111.353C4.67675 103.71 1.90136 95.1166 0.585692 86.4257C0.533741 86.0979 0.481789 85.7701 0.428264 85.4324C-0.0643366 81.9982 -0.104936 78.5932 -0.0917985 75.1281C-0.0908514 74.6796 -0.0908514 74.6796 -0.0898852 74.2222C-0.0753435 69.9368 -0.00294025 65.7325 0.878661 61.5233C0.936867 61.2377 0.995073 60.9521 1.05504 60.6579C4.02007 46.4835 10.4409 33.5963 20.5076 23.1444C20.6928 22.9513 20.878 22.7581 21.0688 22.5591C23.7478 19.7793 26.4716 17.2188 29.5896 14.9413C29.9268 14.6899 30.264 14.4385 30.6013 14.1871C33.0006 12.4183 35.4916 10.8413 38.0857 9.37489C38.2929 9.25706 38.5001 9.13923 38.7135 9.01784C45.4915 5.20179 52.8659 2.63866 60.4795 1.08021C60.6901 1.03704 60.9007 0.993872 61.1177 0.949394C65.7016 0.0781461 70.2348 -0.109387 74.8899 -0.0916612Z" fill="#513D88"/>
</svg>
