<svg width="150" height="150" viewBox="0 0 150 150" fill="none" xmlns="http://www.w3.org/2000/svg">
<g clip-path="url(#clip0_2221_44512)">
<path d="M74.8899 -0.0916612C75.1881 -0.0910299 75.4863 -0.0903985 75.7936 -0.0897479C80.0736 -0.075196 84.2724 -0.00169107 88.4763 0.878798C88.7619 0.937004 89.0475 0.99521 89.3418 1.05518C99.2875 3.13565 108.785 6.83485 117.187 12.5975C117.699 11.9173 118.206 11.2345 118.707 10.5468C119.849 9.21998 121.05 8.59706 122.79 8.38383C124.756 8.31559 126.459 8.39594 128.027 9.66786C129.562 11.22 130.328 12.829 130.389 15.0065C130.25 17.5396 128.909 19.0876 127.148 20.8007C127.273 20.9212 127.398 21.0417 127.527 21.1659C130.271 23.8224 132.8 26.5091 135.058 29.5897C135.183 29.7565 135.307 29.9233 135.435 30.0951C137.345 32.6564 139.046 35.3097 140.625 38.0858C140.732 38.2709 140.838 38.456 140.948 38.6467C147.256 49.6671 150.135 62.1833 150.11 74.7985C150.109 75.2421 150.109 75.2421 150.109 75.6947C150.097 80.5315 149.831 85.1946 148.828 89.9413C148.764 90.2465 148.699 90.5518 148.633 90.8663C144.916 107.908 135.209 123.82 121.289 134.473C120.972 134.724 120.655 134.976 120.339 135.229C118.778 136.462 117.272 137.543 115.522 138.489C114.865 138.855 114.235 139.247 113.603 139.656C102.284 146.911 88.5541 150.137 75.2195 150.11C74.7747 150.11 74.7747 150.11 74.321 150.109C69.4787 150.097 64.8106 149.833 60.0583 148.828C59.7531 148.764 59.4479 148.699 59.1334 148.633C47.0478 145.997 35.746 140.512 26.3669 132.422C26.1487 132.236 25.9304 132.05 25.7055 131.859C21.7489 128.398 18.0366 124.663 14.9412 120.41C14.6902 120.073 14.4392 119.736 14.1881 119.4C12.4184 117 10.8484 114.505 9.37475 111.914C9.26797 111.729 9.16119 111.544 9.05117 111.353C4.67675 103.71 1.90136 95.1166 0.585692 86.4257C0.533741 86.0979 0.481789 85.7701 0.428264 85.4324C-0.0643366 81.9982 -0.104936 78.5932 -0.0917985 75.1281C-0.0908514 74.6796 -0.0908514 74.6796 -0.0898852 74.2222C-0.0753435 69.9368 -0.00294025 65.7325 0.878661 61.5233C0.936867 61.2377 0.995073 60.9521 1.05504 60.6579C4.02007 46.4835 10.4409 33.5963 20.5076 23.1444C20.6928 22.9513 20.878 22.7581 21.0688 22.5591C23.7478 19.7793 26.4716 17.2188 29.5896 14.9413C29.9268 14.6899 30.264 14.4385 30.6013 14.1871C33.0006 12.4183 35.4916 10.8413 38.0857 9.37489C38.2929 9.25706 38.5001 9.13923 38.7135 9.01784C45.4915 5.20179 52.8659 2.63866 60.4795 1.08021C60.6901 1.03704 60.9007 0.993872 61.1177 0.949394C65.7016 0.0781461 70.2348 -0.109387 74.8899 -0.0916612Z" fill="#513D88"/>
<path d="M94.1711 5.12695C95.2148 5.27344 95.2148 5.27344 95.8569 5.72548C96.5796 6.70734 96.5624 7.56073 96.5332 8.73413C96.5303 8.96172 96.5274 9.1893 96.5244 9.42378C96.4317 12.4794 95.8296 15.4706 95.2148 18.457C95.1151 18.9538 95.1151 18.9538 95.0134 19.4607C94.0208 23.8469 92.3309 28.0694 90.2075 32.0219C89.9706 32.4648 89.7425 32.9125 89.5157 33.3607C88.5187 35.2888 87.3178 37.0529 86.0689 38.8241C85.9344 39.0152 85.7999 39.2063 85.6613 39.4032C85.4802 39.6578 85.4802 39.6578 85.2954 39.9175C84.9408 40.4606 84.6543 41.0167 84.375 41.6016C84.6125 41.7825 84.8501 41.9634 85.0948 42.1497C88.059 44.414 90.9642 46.7363 93.75 49.2188C94.8777 48.2129 95.5804 47.0685 96.3318 45.7764C96.4601 45.556 96.5884 45.3356 96.7206 45.1085C98.5896 41.8364 99.9574 38.4441 101.062 34.845C101.724 32.7343 101.724 32.7343 102.539 31.9336C103.684 31.767 104.323 31.7733 105.322 32.373C106.105 33.6772 105.612 34.8757 105.266 36.2629C103.8 41.4757 101.259 46.9945 97.8962 51.2547C97.5048 51.8274 97.5048 51.8274 97.5849 52.4517C97.9191 53.1731 98.3328 53.5833 98.9136 54.126C100.55 55.7004 102.02 57.3906 103.418 59.1797C104.458 58.8018 105.277 58.355 106.165 57.6965C111.862 53.6423 118.24 50.4256 124.805 48.0469C125.043 47.96 125.282 47.8731 125.528 47.7835C126.231 47.5303 126.936 47.2834 127.643 47.0398C127.953 46.9311 127.953 46.9311 128.27 46.8202C129.699 46.3455 131.198 45.9404 132.715 45.9961C133.63 46.6003 133.63 46.6003 134.18 47.4609C134.198 48.3765 134.198 48.3765 133.887 49.2188C132.992 50.0413 132.076 50.3569 130.925 50.7111C130.568 50.8237 130.212 50.9364 129.844 51.0525C129.655 51.1115 129.467 51.1706 129.272 51.2314C121.53 53.6715 114.177 57.1438 107.608 61.9492C106.934 62.4023 106.934 62.4023 106.348 62.4023C107.264 63.7813 108.185 65.1577 109.113 66.5291C109.46 67.0456 109.808 67.5621 110.156 68.0786C110.329 68.3332 110.502 68.5877 110.68 68.8499C113.965 73.7405 113.965 73.7405 113.965 75.293C112.805 75.7764 111.645 76.2598 110.449 76.7578C110.208 76.3613 109.967 75.9647 109.719 75.5562C107.822 72.4518 105.867 69.4339 103.711 66.5039C103.518 66.2139 103.324 65.9238 103.125 65.625C97.5956 67.991 92.1657 74.8711 88.7535 79.652C87.258 81.6808 87.258 81.6808 85.9131 81.9946C84.8362 81.7047 84.4124 81.489 83.7891 80.5664C83.6533 79.6111 83.7408 79.1841 84.2319 78.344C84.4423 78.0743 84.6527 77.8047 84.8694 77.5269C84.987 77.3761 85.1047 77.2252 85.2259 77.0699C85.6203 76.5705 86.0217 76.0776 86.4258 75.5859C86.5639 75.4173 86.7019 75.2486 86.8442 75.0748C90.0976 71.1368 93.6896 67.4934 97.5586 64.1602C98.1022 63.6796 98.6442 63.1973 99.1859 62.7148C99.6094 62.4023 99.6094 62.4023 100.195 62.4023C98.5546 60.0585 96.5913 58.03 94.6289 55.957C93.4952 56.9085 92.404 57.863 91.3879 58.9417C88.4082 61.9467 84.5067 65.1572 80.5664 66.7969C79.55 66.7554 79.0108 66.6927 78.2593 65.9912C77.8453 65.1633 77.7295 64.7791 77.9297 63.8672C78.9493 62.8192 80.1544 62.0888 81.3721 61.2854C84.3823 59.2984 87.0326 56.9623 89.6484 54.4922C89.8818 54.2913 90.1152 54.0904 90.3557 53.8834C90.8715 53.3697 90.8715 53.3697 90.8581 52.7618C90.3488 51.8172 89.5669 51.2091 88.7512 50.5371C88.5713 50.3861 88.3915 50.2351 88.2061 50.0796C86.7933 48.9067 85.3453 47.7807 83.8806 46.6736C83.6806 46.5221 83.4806 46.3707 83.2746 46.2147C83.0867 46.0749 82.8989 45.9352 82.7053 45.7912C82.5396 45.6679 82.374 45.5445 82.2033 45.4174C81.6961 45.0626 81.6961 45.0626 80.8594 44.8242C80.7906 44.9889 80.7219 45.1535 80.6511 45.3232C80.1836 46.1562 79.6028 46.7229 78.9185 47.3877C78.5593 47.7389 78.5593 47.7389 78.1929 48.0972C78.0094 48.274 77.8258 48.4507 77.6367 48.6328C76.9531 47.2656 76.2695 45.8984 75.5859 44.5312C76.2627 43.7578 76.9395 42.9844 77.6367 42.1875C77.4278 42.1068 77.2189 42.0261 77.0037 41.943C76.1759 41.6032 75.3822 41.2253 74.5811 40.8268C65.88 36.3983 65.88 36.3983 56.3335 36.2366C54.8155 36.8428 53.9245 37.6055 53.0273 38.9648C51.6016 42.4863 52.4795 46.3365 53.6133 49.8047C53.7194 50.1419 53.8255 50.4792 53.9349 50.8266C54.8446 53.5496 56.0746 56.0671 57.4219 58.5938C57.6028 58.9348 57.7837 59.2758 57.97 59.6272C60.9463 65.029 64.7868 70.0172 68.9987 74.5113C69.5999 75.157 70.18 75.8118 70.752 76.4832C76.5246 83.1279 83.7999 88.5162 91.4062 92.8711C91.5809 92.9726 91.7555 93.0742 91.9354 93.1788C94.9473 94.9189 98.0678 96.1742 101.367 97.2656C101.684 97.3721 102.001 97.4786 102.327 97.5883C105.034 98.3828 108.539 98.6969 111.255 97.7966C112.82 96.9238 113.834 95.9619 114.402 94.2192C115.242 89.9157 114.181 85.3271 112.422 81.3824C112.207 80.8594 112.207 80.8594 112.207 80.2734C112.724 80.0197 113.243 79.7703 113.763 79.5227C114.052 79.3834 114.341 79.244 114.639 79.1004C115.43 78.8086 115.43 78.8086 116.309 79.1016C116.65 79.8429 116.929 80.5468 117.188 81.3171C117.264 81.5415 117.34 81.7658 117.419 81.997C118.89 86.4708 120.215 92.4983 118.066 96.9727C116.145 100.487 113.368 101.909 109.687 103.136C107.158 104.002 104.65 104.919 102.148 105.86C101.961 105.93 101.775 106 101.583 106.072C100.609 106.439 99.6348 106.805 98.661 107.173C96.5882 107.954 94.5145 108.733 92.4408 109.512C92.2339 109.59 92.0271 109.667 91.814 109.747C87.3578 111.422 82.8935 113.074 78.4248 114.714C78.1737 114.807 77.9226 114.899 77.6639 114.994C77.1793 115.172 76.6945 115.35 76.2094 115.527C75.0188 115.964 73.8409 116.42 72.6713 116.911C72.4355 117.008 72.1998 117.105 71.9569 117.205C71.5151 117.389 71.0753 117.577 70.6379 117.77C68.7231 118.56 67.0767 118.35 65.1512 117.643C64.2754 117.332 63.3991 117.04 62.5099 116.769C49.0374 112.515 37.8947 103.664 28.125 93.75C28.7935 90.828 29.8925 88.0596 30.9547 85.2645C31.425 84.0268 31.892 82.788 32.3592 81.5492C32.6098 80.885 32.8605 80.2209 33.1114 79.5568C34.4261 76.0757 35.7263 72.5892 37.0251 69.102C37.428 68.0203 37.8312 66.9386 38.2345 65.857C39.435 62.637 40.6348 59.4166 41.8327 56.1956C42.4217 54.6121 43.011 53.0287 43.6004 51.4454C43.9504 50.5052 44.3002 49.5649 44.6495 48.6245C49.829 34.6824 49.829 34.6824 53.4302 32.7278C58.2951 30.5034 64.1122 31.595 68.9713 33.3744C72.3914 34.6971 75.6462 36.3119 78.8528 38.0853C79.4179 38.3916 79.99 38.6803 80.5664 38.9648C87.5239 30.0264 91.9646 19.4448 92.1487 8.02109C92.1754 7.13737 92.2474 6.51516 92.6708 5.7312C93.1641 5.27344 93.1641 5.27344 94.1711 5.12695Z" fill="#F32A51"/>
<path d="M77.6352 42.1877C77.1624 43.1845 76.5846 43.9758 75.8774 44.8245C75.9798 45.0046 76.0821 45.1847 76.1875 45.3703C76.3209 45.6071 76.4542 45.8439 76.5915 46.0879C76.7241 46.3224 76.8566 46.5569 76.9932 46.7986C77.3423 47.4612 77.3423 47.4612 77.6352 48.3401C78.1183 47.8649 78.6003 47.3886 79.0818 46.9119C79.3503 46.6467 79.6188 46.3816 79.8954 46.1085C80.5684 45.4758 80.5684 45.4758 80.8579 44.8245C82.0217 45.0005 82.7375 45.5822 83.6594 46.2893C83.8892 46.4651 83.8892 46.4651 84.1237 46.6445C86.5241 48.4921 88.8505 50.4266 91.1118 52.4416C90.9773 53.7054 90.1657 54.4001 89.299 55.2432C89.1426 55.3968 88.9862 55.5505 88.825 55.7088C86.0381 58.3945 82.9219 60.5963 79.6814 62.6967C78.8163 63.2343 78.8163 63.2343 78.2212 63.8674C78.2468 64.9013 78.2468 64.9013 78.5141 65.9182C79.3316 66.5904 79.3316 66.5904 80.2159 66.4572C85.5268 65.0596 90.6272 59.4558 94.3344 55.6643C95.6927 56.7509 96.9044 57.9275 98.0881 59.1982C98.2287 59.3466 98.3693 59.4949 98.5142 59.6477C99.3095 60.5142 99.8372 61.279 100.194 62.4026C100.012 62.5453 99.8305 62.6881 99.6434 62.8352C97.17 64.8153 94.8635 66.9502 92.5766 69.1409C92.4223 69.2884 92.2679 69.4359 92.1089 69.5879C90.1504 71.47 88.387 73.4453 86.7173 75.5862C86.4674 75.8971 86.2176 76.208 85.9677 76.5189C85.7228 76.8302 85.4782 77.1419 85.2341 77.4538C85.0132 77.7341 84.7922 78.0143 84.5646 78.303C84.0371 79.1734 83.9491 79.5714 84.0805 80.5666C84.1772 80.8567 84.2739 81.1467 84.3735 81.4455C85.4267 81.6294 85.9979 81.7145 87.0102 81.4455C88.0569 80.5041 88.8246 79.3602 89.6469 78.2229C91.5944 75.7501 93.7276 73.496 95.9458 71.2649C96.1995 71.0085 96.4532 70.7521 96.7145 70.488C101.6 65.6252 101.6 65.6252 103.416 65.6252C104.015 66.3216 104.519 66.9907 105.028 67.7493C105.179 67.9681 105.329 68.1869 105.485 68.4124C107.258 71.0223 108.862 73.7388 110.448 76.4651C109.71 77.2403 109.018 77.666 108.049 78.1313C107.785 78.2594 107.521 78.3874 107.249 78.5193C107.048 78.6148 106.847 78.7104 106.639 78.8088C106.601 78.5222 106.601 78.5222 106.562 78.2298C106.272 76.4221 105.922 75.3918 104.588 74.1213C103.216 73.2709 101.757 73.3539 100.194 73.5354C98.7703 74.2083 97.947 75.0468 97.2641 76.4651C97.0327 77.8937 97.0708 79.2194 97.7219 80.53C98.5722 81.6201 99.2532 82.0243 100.487 82.6174C100.043 83.7099 99.3991 84.2936 98.5092 85.0527C96.6577 86.5871 96.6577 86.5871 95.2133 88.4768C95.1335 89.5812 95.1335 89.5812 95.5063 90.5276C96.3223 91.1875 96.3223 91.1875 97.2012 91.1204C98.5044 90.7055 99.1258 89.9479 100.029 88.9529C102.938 85.9063 107.886 81.274 112.206 80.5666C114.433 84.5444 115.599 89.6927 114.687 94.232C114.132 95.8074 113.353 96.9381 111.913 97.7786C108.282 99.2911 104.078 98.4693 100.487 97.2659C100.303 97.2062 100.119 97.1465 99.9302 97.085C95.3381 95.5749 90.9909 93.2575 87.0102 90.5276C86.8269 90.403 86.6435 90.2785 86.4546 90.1502C83.566 88.1817 80.8434 86.0994 78.2212 83.7893C78.0059 83.6031 77.7906 83.4169 77.5688 83.2251C77.0015 82.7335 76.4389 82.2369 75.8774 81.7385C75.6531 81.5414 75.4288 81.3442 75.1976 81.1411C72.5197 78.7654 69.9879 76.2687 67.6743 73.5354C67.4409 73.2695 67.2075 73.0037 66.967 72.7297C60.3101 65.0975 55.0525 56.4053 52.4399 46.5823C52.3829 46.3965 52.3259 46.2107 52.2671 46.0192C51.8053 43.6794 51.7769 40.7512 52.9286 38.6229C58.4469 31.0332 71.6415 38.9075 77.6352 42.1877Z" fill="#523D88"/>
<path d="M35.4492 73.2422C36.5345 73.7496 37.2203 74.3637 38.063 75.2232C38.1989 75.3605 38.3347 75.4979 38.4747 75.6394C38.9081 76.078 39.3394 76.5184 39.7705 76.9592C41.5935 78.8171 43.4142 80.6491 45.4102 82.3242C45.6886 82.5615 45.6886 82.5615 45.9726 82.8037C55.2155 90.6478 65.5 96.8724 76.7578 101.367C76.9545 101.448 77.1512 101.529 77.3539 101.612C84.0431 104.359 91.2713 106.045 98.4375 106.934C97.7759 107.595 97.3124 107.763 96.4381 108.081C95.9928 108.245 95.9928 108.245 95.5385 108.412C95.2134 108.529 94.8883 108.647 94.5534 108.768C94.2149 108.892 93.8764 109.016 93.5276 109.144C92.798 109.411 92.0681 109.677 91.3379 109.943C89.6235 110.566 87.9108 111.194 86.1979 111.822C85.6222 112.032 85.0463 112.243 84.4705 112.454C80.5898 113.874 76.7218 115.327 72.8569 116.79C72.6305 116.875 72.4041 116.961 72.1708 117.049C71.7558 117.205 71.3411 117.363 70.9266 117.52C68.39 118.477 68.39 118.477 66.8152 118.022C66.5319 117.941 66.2487 117.859 65.9568 117.776C65.6539 117.684 65.3511 117.593 65.0391 117.499C64.7243 117.405 64.4096 117.31 64.0853 117.213C57.1228 115.083 50.5272 111.957 44.5312 107.812C44.369 107.702 44.2067 107.591 44.0396 107.477C38.2072 103.485 33.0745 98.7725 28.125 93.75C28.6908 91.5276 29.385 89.3916 30.2021 87.2498C30.3151 86.9498 30.4282 86.6499 30.5446 86.3409C30.9025 85.3921 31.2623 84.4441 31.6223 83.4961C31.9808 82.5479 32.3389 81.5996 32.6969 80.6513C32.9186 80.0645 33.1406 79.4778 33.3631 78.8913C34.0745 77.014 34.7676 75.1306 35.4492 73.2422Z" fill="#EEEEEE"/>
<path d="M27.8328 93.75C28.8044 94.1719 29.4257 94.6947 30.1594 95.454C30.377 95.6766 30.5946 95.8992 30.8188 96.1285C31.048 96.3648 31.2771 96.6011 31.5132 96.8445C33.4285 98.7881 35.3415 100.577 37.5008 102.246C37.8407 102.523 38.1797 102.801 38.5182 103.08C47.216 110.222 57.3248 115.398 68.2625 118.066C67.8888 118.814 67.6481 118.829 66.8758 119.111C66.6415 119.198 66.4072 119.284 66.1658 119.373C65.9079 119.466 65.65 119.559 65.3843 119.655C65.1161 119.753 64.8479 119.852 64.5716 119.953C63.6847 120.278 62.7967 120.601 61.9088 120.923C61.2887 121.15 60.6687 121.377 60.0487 121.604C58.7904 122.065 57.5316 122.525 56.2725 122.984C54.0694 123.787 51.8687 124.596 49.6685 125.408C49.0151 125.648 48.3614 125.888 47.7076 126.127C45.2776 127.019 42.8531 127.924 40.4333 128.844C39.058 129.366 37.6817 129.886 36.3053 130.406C35.6288 130.662 34.9528 130.92 34.2773 131.179C33.3324 131.541 32.3858 131.899 31.4389 132.256C31.013 132.421 31.013 132.421 30.5786 132.59C30.1833 132.738 30.1833 132.738 29.78 132.888C29.5514 132.975 29.3228 133.062 29.0872 133.152C28.272 133.333 27.7499 133.249 26.9539 133.008C26.3475 132.537 25.8166 132.075 25.2693 131.543C25.1091 131.391 24.9488 131.238 24.7836 131.082C24.2336 130.556 23.6892 130.024 23.1453 129.492C22.9328 129.286 22.7204 129.079 22.5014 128.866C21.8285 128.211 21.1588 127.552 20.4903 126.892C20.2776 126.683 20.0649 126.474 19.8457 126.259C19.5433 125.957 19.5433 125.957 19.2349 125.649C19.0566 125.472 18.8783 125.295 18.6946 125.113C18.5198 124.914 18.345 124.716 18.1649 124.512C17.9228 124.279 17.6808 124.046 17.4314 123.806C16.693 122.034 17.6001 120.542 18.2827 118.841C18.4326 118.451 18.5817 118.061 18.7301 117.67C19.1282 116.628 19.5357 115.59 19.9452 114.552C20.3641 113.485 20.774 112.415 21.1844 111.345C21.7523 109.867 22.3228 108.389 22.897 106.913C24.0032 104.069 25.0768 101.214 26.1302 98.351C26.4349 97.5233 26.7416 96.6963 27.0483 95.8694C27.3102 95.1631 27.5716 94.4565 27.8328 93.75Z" fill="#FE4863"/>
<path d="M94.1711 5.12695C95.2148 5.27344 95.2148 5.27344 95.8569 5.72548C96.5796 6.70734 96.5624 7.56073 96.5332 8.73413C96.5303 8.96172 96.5274 9.1893 96.5244 9.42378C96.4317 12.4794 95.8296 15.4706 95.2148 18.457C95.1484 18.7882 95.0819 19.1194 95.0134 19.4607C94.0208 23.8469 92.3309 28.0694 90.2075 32.0219C89.9706 32.4648 89.7425 32.9125 89.5157 33.3607C88.5187 35.2888 87.3178 37.0529 86.0689 38.8241C85.9344 39.0152 85.7999 39.2063 85.6613 39.4032C85.5406 39.5729 85.4198 39.7426 85.2954 39.9175C84.9408 40.4606 84.6543 41.0167 84.375 41.6016C84.7313 41.8729 84.7313 41.8729 85.0948 42.1497C88.059 44.414 90.9642 46.7363 93.75 49.2188C94.8777 48.2129 95.5804 47.0686 96.3318 45.7764C96.4601 45.556 96.5884 45.3356 96.7206 45.1085C98.5896 41.8364 99.9574 38.4441 101.062 34.845C101.724 32.7343 101.724 32.7343 102.539 31.9336C103.684 31.767 104.323 31.7733 105.322 32.373C106.105 33.6772 105.612 34.8757 105.266 36.2629C103.8 41.4757 101.259 46.9945 97.8962 51.2547C97.5048 51.8274 97.5048 51.8274 97.5849 52.4517C97.9191 53.1731 98.3328 53.5833 98.9136 54.126C100.55 55.7004 102.02 57.3906 103.418 59.1797C104.458 58.8018 105.277 58.355 106.165 57.6965C111.862 53.6423 118.24 50.4256 124.805 48.0469C125.043 47.96 125.282 47.8731 125.528 47.7835C126.231 47.5303 126.936 47.2834 127.643 47.0398C127.953 46.9311 127.953 46.9311 128.27 46.8202C129.699 46.3455 131.198 45.9404 132.715 45.9961C133.63 46.6003 133.63 46.6003 134.18 47.4609C134.198 48.3765 134.198 48.3765 133.887 49.2188C132.992 50.0413 132.076 50.3569 130.925 50.7111C130.568 50.8237 130.212 50.9364 129.844 51.0525C129.655 51.1115 129.467 51.1706 129.272 51.2314C121.53 53.6715 114.177 57.1438 107.608 61.9492C106.934 62.4023 106.934 62.4023 106.348 62.4023C107.264 63.7813 108.185 65.1577 109.113 66.5291C109.46 67.0456 109.808 67.5621 110.156 68.0786C110.329 68.3332 110.502 68.5877 110.68 68.8499C113.965 73.7405 113.965 73.7405 113.965 75.293C112.805 75.7764 111.645 76.2598 110.449 76.7578C110.208 76.3613 109.967 75.9647 109.719 75.5562C107.822 72.4518 105.867 69.4339 103.711 66.5039C103.518 66.2139 103.324 65.9238 103.125 65.625C97.5956 67.991 92.1657 74.8711 88.7535 79.652C87.258 81.6808 87.258 81.6808 85.9131 81.9946C84.8362 81.7047 84.4124 81.489 83.7891 80.5664C83.6533 79.6111 83.7408 79.1841 84.2319 78.344C84.4423 78.0743 84.6527 77.8047 84.8694 77.5269C85.0458 77.3007 85.0458 77.3007 85.2259 77.0699C85.6203 76.5705 86.0217 76.0776 86.4258 75.5859C86.5639 75.4173 86.7019 75.2486 86.8442 75.0748C90.0976 71.1368 93.6896 67.4934 97.5586 64.1602C98.1022 63.6796 98.6442 63.1973 99.1859 62.7148C99.6094 62.4023 99.6094 62.4023 100.195 62.4023C98.5546 60.0585 96.5913 58.03 94.6289 55.957C93.4952 56.9085 92.404 57.863 91.3879 58.9417C88.4082 61.9467 84.5067 65.1572 80.5664 66.7969C79.55 66.7554 79.0108 66.6927 78.2593 65.9912C77.8453 65.1633 77.7295 64.7791 77.9297 63.8672C78.9493 62.8192 80.1544 62.0888 81.3721 61.2854C84.3823 59.2984 87.0326 56.9623 89.6484 54.4922C89.8818 54.2913 90.1152 54.0904 90.3557 53.8834C90.8715 53.3697 90.8715 53.3697 90.8581 52.7618C90.3488 51.8172 89.5669 51.2091 88.7512 50.5371C88.4814 50.3106 88.4814 50.3106 88.2061 50.0796C86.7934 48.9067 85.3453 47.7807 83.8806 46.6736C83.5806 46.4464 83.5806 46.4464 83.2746 46.2147C83.0867 46.0749 82.8989 45.9352 82.7053 45.7912C82.5396 45.6679 82.374 45.5445 82.2033 45.4174C81.6961 45.0626 81.6961 45.0626 80.8594 44.8242C80.7906 44.9889 80.7219 45.1535 80.6511 45.3232C80.1836 46.1562 79.6028 46.7229 78.9185 47.3877C78.5593 47.7389 78.5593 47.7389 78.1929 48.0972C78.0094 48.274 77.8258 48.4507 77.6367 48.6328C76.9531 47.2656 76.2695 45.8984 75.5859 44.5312C75.7457 44.3783 75.9054 44.2253 76.07 44.0678C85.0971 35.2568 91.4706 22.8282 92.0609 10.1051C92.0766 9.76808 92.0766 9.76808 92.0927 9.42421C92.1107 8.98644 92.1246 8.54847 92.1337 8.11043C92.167 7.20041 92.2382 6.53288 92.672 5.72433C93.1641 5.27344 93.1641 5.27344 94.1711 5.12695Z" fill="#FCD94B"/>
<path d="M61.2305 72.3633C61.4238 72.3633 61.6172 72.3633 61.8164 72.3633C62.273 72.8806 62.273 72.8806 62.8235 73.6084C64.0065 75.1257 65.2776 76.5397 66.5863 77.9469C67.3008 78.7152 67.992 79.502 68.6829 80.2917C70.046 81.8069 71.5252 83.1792 73.0489 84.5295C73.3777 84.8212 73.7052 85.1142 74.0317 85.4084C84.1303 94.5059 96.5193 102.387 110.449 102.539C109.459 103.199 108.439 103.596 107.334 104.015C107.114 104.099 106.894 104.183 106.667 104.269C106.201 104.445 105.735 104.621 105.268 104.796C104.56 105.063 103.855 105.336 103.15 105.608C102.696 105.78 102.241 105.951 101.786 106.121C101.578 106.203 101.37 106.284 101.156 106.368C98.8647 107.21 96.7254 107.023 94.3542 106.567C94.1411 106.528 93.928 106.488 93.7084 106.447C93.038 106.32 92.3686 106.188 91.6992 106.055C91.4887 106.014 91.2781 105.973 91.0612 105.931C87.2743 105.188 83.6279 104.085 79.9805 102.832C79.7333 102.748 79.4861 102.663 79.2315 102.576C69.7493 99.2834 57.2984 93.9797 50.3906 86.4258C50.624 86.2122 50.624 86.2122 50.8621 85.9943C51.8084 84.9939 52.5875 83.8967 53.3936 82.782C55.5169 79.8712 57.6951 77.0043 59.8866 74.1446C60.2054 73.7268 60.5144 73.3014 60.8148 72.8702C61.0206 72.6193 61.0206 72.6193 61.2305 72.3633Z" fill="#FE4863"/>
<path d="M80.8596 44.8242C82.0234 45.0003 82.7392 45.582 83.6611 46.2891C83.8909 46.4649 83.8909 46.4649 84.1254 46.6443C86.5257 48.4918 88.8522 50.4263 91.1135 52.4414C90.979 53.7052 90.1674 54.3999 89.3007 55.2429C89.1443 55.3966 88.9879 55.5502 88.8267 55.7086C86.0397 58.3943 82.9235 60.5961 79.6831 62.6965C78.818 63.2341 78.818 63.2341 78.2228 63.8672C78.2485 64.9011 78.2485 64.9011 78.5158 65.918C79.3332 66.5901 79.3332 66.5901 80.2176 66.457C85.5285 65.0594 90.6289 59.4556 94.3361 55.6641C95.6944 56.7507 96.9061 57.9273 98.0898 59.198C98.2304 59.3463 98.371 59.4946 98.5159 59.6475C99.3112 60.5139 99.8388 61.2788 100.196 62.4023C100.014 62.5451 99.8322 62.6879 99.645 62.8349C97.1717 64.8151 94.8652 66.9499 92.5783 69.1406C92.3468 69.3619 92.3468 69.3619 92.1105 69.5877C90.3575 71.2723 88.7645 73.02 87.2683 74.9371C86.7189 75.5859 86.7189 75.5859 85.84 76.1719C85.5076 75.8098 85.1753 75.4477 84.843 75.0855C84.5525 74.7688 84.2617 74.4522 83.9709 74.1358C83.2532 73.3541 82.5385 72.5704 81.8335 71.7773C80.6086 70.4058 79.3859 69.1074 77.9768 67.9253C77.2105 67.2685 76.4847 66.5742 75.7509 65.8813C73.7557 64.0261 71.5986 62.3932 69.411 60.7731C68.9146 60.4015 68.4267 60.0186 67.9403 59.634C66.6111 58.5444 66.6111 58.5444 64.9843 58.3923C64.5403 58.6588 64.0972 58.9269 63.6602 59.2049C62.7669 59.7537 62.2203 60.0586 61.1574 60.0586C60.3518 59.7656 60.3518 59.7656 59.7841 59.2896C59.3038 58.2159 59.4221 57.6687 59.7658 56.543C60.5878 55.7565 61.5192 55.1996 62.4941 54.6204C62.7484 54.457 63.0028 54.2937 63.2648 54.1254C64.6798 53.2556 64.6798 53.2556 65.3322 53.0273C65.9635 53.2574 65.9635 53.2574 66.5041 53.6133C66.7009 53.7345 66.8976 53.8557 67.1003 53.9806C67.4972 54.2368 67.8939 54.4931 68.2905 54.7497C69.5996 55.5212 70.89 55.5615 72.3635 55.3711C74.1471 54.8462 75.3254 54.0668 76.3369 52.4963C76.952 51.3567 77.0773 50.5593 77.1276 49.2634C77.5788 47.9481 78.8377 47.0139 79.8433 46.0899C80.5722 45.4833 80.5722 45.4833 80.8596 44.8242Z" fill="#63519D"/>
<path d="M77.6349 42.1877C77.1621 43.1845 76.5843 43.9758 75.8771 44.8245C75.9828 44.974 76.0886 45.1236 76.1975 45.2776C77.3925 47.1498 77.74 48.7773 77.3419 50.9768C76.5357 53.0876 75.287 54.4331 73.2403 55.3713C71.4022 55.984 69.8903 55.8353 68.15 54.9868C67.2686 54.5209 66.5876 54.0592 65.9161 53.3205C64.7013 53.7381 63.7479 54.3585 62.7118 55.1001C61.9007 55.4642 61.4947 55.3027 60.6427 55.0784C59.984 54.7808 59.984 54.7808 59.3232 54.4192C58.9615 54.2243 58.9615 54.2243 58.5925 54.0255C58.3445 53.8895 58.0966 53.7536 57.8412 53.6135C57.347 53.3438 56.8523 53.0752 56.3569 52.8079C56.1391 52.6885 55.9214 52.5692 55.6971 52.4462C55.0996 52.1599 54.5512 51.9903 53.9044 51.8557C53.6662 51.0013 53.4282 50.1468 53.1903 49.2922C53.1229 49.0505 53.0555 48.8088 52.986 48.5598C52.9209 48.3257 52.8557 48.0915 52.7886 47.8503C52.7288 47.6355 52.6689 47.4207 52.6073 47.1994C52.5519 46.9957 52.4966 46.7921 52.4396 46.5823C52.3855 46.3844 52.3314 46.1864 52.2756 45.9825C51.7589 43.6915 51.8001 40.7078 52.9282 38.6229C58.4465 31.0332 71.6411 38.9075 77.6349 42.1877Z" fill="#63509D"/>
<path d="M133.3 46.2893C133.886 46.7837 133.886 46.7837 134.179 47.4612C134.16 48.3584 134.16 48.3584 133.886 49.219C132.995 50.0443 132.074 50.3576 130.924 50.7113C130.567 50.824 130.211 50.9367 129.843 51.0528C129.654 51.1118 129.466 51.1708 129.271 51.2317C121.529 53.6718 114.176 57.1441 107.607 61.9494C106.933 62.4026 106.933 62.4026 106.347 62.4026C107.263 63.7815 108.184 65.1579 109.112 66.5294C109.459 67.0459 109.807 67.5624 110.155 68.0789C110.328 68.3334 110.501 68.588 110.679 68.8502C113.964 73.7407 113.964 73.7407 113.964 75.2932C112.804 75.7766 111.644 76.26 110.448 76.7581C110.207 76.3615 109.966 75.965 109.718 75.5565C107.821 72.4521 105.866 69.4342 103.71 66.5042C103.517 66.2141 103.323 65.9241 103.124 65.6253C97.5946 67.9912 92.1647 74.8714 88.7525 79.6523C87.257 81.6811 87.257 81.6811 85.9121 81.9949C84.8352 81.705 84.4115 81.4893 83.7881 80.5667C83.6523 79.6113 83.7398 79.1844 84.231 78.3442C84.4413 78.0746 84.6517 77.8049 84.8684 77.5271C84.986 77.3763 85.1037 77.2255 85.2249 77.0702C85.6193 76.5708 86.0207 76.0778 86.4248 75.5862C86.6319 75.3332 86.6319 75.3332 86.8432 75.0751C90.0966 71.1371 93.6886 67.4936 97.5576 64.1604C98.1012 63.6799 98.6432 63.1976 99.185 62.715C99.6084 62.4026 99.6084 62.4026 100.194 62.4026C98.994 60.7287 97.6955 59.2059 96.2759 57.7151C96.0882 57.5161 95.9005 57.3171 95.7071 57.112C95.2508 56.6284 94.7934 56.1459 94.335 55.6643C94.6128 55.2885 94.8914 54.9133 95.1704 54.5382C95.3254 54.3292 95.4805 54.1202 95.6403 53.9048C96.1358 53.265 96.6701 52.6975 97.2646 52.1487C97.3719 52.2737 97.4791 52.3987 97.5897 52.5275C98.9045 54.0458 100.26 55.5227 101.633 56.9881C102.292 57.6951 102.88 58.374 103.417 59.18C104.457 58.8021 105.276 58.3553 106.164 57.6968C112.26 53.3591 125.451 44.4341 133.3 46.2893Z" fill="#FB4763"/>
<path d="M141.797 70.6051C141.996 70.6115 142.196 70.6178 142.401 70.6244C142.998 70.6454 143.594 70.6728 144.191 70.7024C144.54 70.7185 144.889 70.7347 145.249 70.7514C146.345 70.922 147.158 71.2784 147.949 72.0699C148.059 73.0404 148.059 73.0404 147.949 74.1207C147.157 74.9736 146.724 75.2797 145.551 75.3429C144.998 75.2818 144.998 75.2818 144.434 75.2193C129.757 73.9358 115.145 76.8675 103.418 86.1324C101.958 87.3599 100.584 88.6807 99.2283 90.0223C97.7871 91.3929 97.7871 91.3929 96.5881 91.4608C95.6722 91.0561 95.3321 90.858 94.9219 89.941C94.9392 88.634 95.1421 87.851 96.0251 86.9083C96.361 86.5841 96.7014 86.2644 97.0459 85.9493C97.214 85.7892 97.382 85.6291 97.5552 85.4641C97.8852 85.1498 98.2169 84.8373 98.5502 84.5265C99.2116 83.9047 99.85 83.2623 100.488 82.6168C100.325 82.5926 100.162 82.5685 99.9939 82.5436C98.7683 82.1461 98.0439 81.4305 97.3206 80.3829C96.85 79.0457 96.7671 77.8671 96.9727 76.4645C97.7031 75.0035 98.7286 73.9752 100.195 73.2418C101.735 73.0883 103.021 73.047 104.425 73.7362C105.65 74.8413 106.337 75.6203 106.673 77.2484C106.722 77.4857 106.772 77.723 106.823 77.9674C106.86 78.1482 106.896 78.329 106.934 78.5152C107.264 78.331 107.594 78.1467 107.935 77.9568C118.592 72.118 129.743 70.1846 141.797 70.6051Z" fill="#81C14F"/>
<path d="M20.8008 112.793C21.9286 113.626 23.0506 114.461 24.1287 115.358C30.2065 120.41 36.8687 124.072 44.2383 126.855C44.2383 127.049 44.2383 127.242 44.2383 127.441C43.8944 127.567 43.5504 127.692 43.1961 127.822C41.9024 128.294 40.609 128.766 39.3155 129.238C38.759 129.442 38.2024 129.645 37.6458 129.848C37.1051 130.045 36.5645 130.242 36.0239 130.44C35.4938 130.634 34.9634 130.827 34.433 131.02C33.2942 131.436 32.16 131.857 31.038 132.316C30.7032 132.453 30.3685 132.589 30.0236 132.73C29.7434 132.848 29.4633 132.967 29.1746 133.089C28.2977 133.334 27.8142 133.287 26.9531 133.008C26.3467 132.537 25.8158 132.075 25.2686 131.543C25.1083 131.391 24.948 131.238 24.7828 131.082C24.2328 130.556 23.6884 130.024 23.1445 129.492C22.9321 129.286 22.7196 129.079 22.5007 128.866C21.8277 128.211 21.158 127.552 20.4895 126.892C20.2768 126.683 20.0641 126.474 19.8449 126.259C19.6433 126.058 19.4418 125.857 19.2341 125.649C19.0558 125.472 18.8775 125.295 18.6939 125.113C18.0065 124.333 17.4582 123.692 16.9922 122.754C17.1656 121.862 17.3604 121.222 17.7109 120.403C17.7971 120.185 17.8833 119.966 17.9721 119.741C18.2484 119.045 18.5355 118.355 18.8232 117.664C19.0128 117.192 19.2016 116.72 19.3897 116.248C19.8517 115.093 20.3235 113.942 20.8008 112.793Z" fill="#EEEDEE"/>
<path d="M133.3 79.6871C134.094 80.5591 134.594 81.5951 135.023 82.6866C135.492 83.8984 135.492 83.8984 136.503 84.6309C137.193 84.784 137.872 84.8798 138.574 84.9605C140.937 85.3532 140.937 85.3532 141.961 86.0775C142.5 86.8968 142.547 87.215 142.382 88.1832C141.664 88.9585 140.923 89.6347 140.116 90.3146C139.156 91.189 138.886 91.5126 138.744 92.8604C138.776 93.2553 138.816 93.6496 138.867 94.0425C138.898 94.3794 138.929 94.7163 138.962 95.0634C139.033 95.7044 139.106 96.3453 139.181 96.986C139.156 97.987 138.994 98.3339 138.281 99.023C136.464 99.4016 135.334 98.6041 133.812 97.6497C132.856 97.1929 132.298 97.1341 131.25 97.2652C130.431 97.6377 130.431 97.6377 129.656 98.1441C128.313 98.9172 127.512 99.311 125.976 99.023C125.486 98.6671 125.486 98.6671 125.097 98.1441C125.001 97.446 125.001 97.446 125.024 96.6426C125.029 96.356 125.034 96.0694 125.039 95.774C125.091 95.0051 125.219 94.3014 125.372 93.5482C125.482 92.7049 125.453 92.3871 125.004 91.6519C124.224 90.7496 123.378 89.9743 122.479 89.1903C121.875 88.4761 121.875 88.4761 121.691 87.4324C121.875 86.4254 121.875 86.4254 122.489 85.7948C123.765 84.9824 125 84.9954 126.481 84.869C127.608 84.6324 127.922 84.403 128.613 83.4957C128.985 82.8527 129.338 82.1986 129.675 81.5364C130.662 79.5986 131.061 79.0418 133.3 79.6871Z" fill="#FDDA4A"/>
<path d="M70.4243 8.44141C71.733 8.8701 71.9813 9.30448 72.625 10.4682C72.8395 10.9054 73.048 11.3456 73.2499 11.7888C73.3447 11.9954 73.4394 12.202 73.5371 12.4148C73.6157 12.6044 73.6942 12.794 73.7751 12.9893C74.2792 13.6956 74.7626 13.8174 75.5879 14.0627C76.557 14.2122 77.5257 14.3207 78.5004 14.4267C79.5344 14.6828 79.9299 14.9782 80.5684 15.8206C80.5928 16.9674 80.4019 17.4375 79.6345 18.2925C79.3626 18.5402 79.0907 18.788 78.8105 19.0432C77.7597 20.0448 77.0999 20.6962 76.9246 22.1743C76.956 22.5965 77.0003 23.0177 77.0527 23.4377C77.1234 24.0477 77.1903 24.6581 77.2542 25.2688C77.2915 25.5603 77.3289 25.8519 77.3674 26.1523C77.3413 27.1141 77.1464 27.4566 76.4668 28.1252C74.6498 28.5038 73.52 27.7063 71.9979 26.752C71.032 26.2903 70.4958 26.2258 69.4355 26.3674C68.4279 26.8525 67.4981 27.4201 66.5413 27.9982C65.627 28.4182 65.627 28.4182 64.8316 28.3896C64.0946 28.0986 63.737 27.8961 63.2832 27.2463C63.1871 26.6226 63.1871 26.6226 63.21 25.9097C63.2149 25.6502 63.2198 25.3908 63.2248 25.1235C63.2832 24.3167 63.2832 24.3167 63.424 23.5556C63.6993 22.0896 63.6993 22.0896 63.1905 20.7335C62.4113 19.8365 61.5596 19.0731 60.6648 18.2925C60.0605 17.5784 60.0605 17.5784 59.9141 16.5164C60.0605 15.5276 60.0605 15.5276 60.3638 15.0538C61.2431 14.435 62.2235 14.3603 63.2649 14.2092C65.2174 13.9672 65.2174 13.9672 66.7988 12.8909C67.2855 12.0615 67.2855 12.0615 67.696 11.1331C68.9005 8.52606 68.9005 8.52606 70.4243 8.44141Z" fill="#FDDA4A"/>
<path d="M123.596 23.9141C124.747 24.0521 124.942 24.3237 125.683 25.1958C126.062 25.8382 126.422 26.4923 126.764 27.155C127.292 28.2962 127.292 28.2962 128.027 29.2974C129.074 29.4804 130.122 29.6481 131.174 29.8009C131.395 29.8364 131.615 29.8719 131.843 29.9085C132.045 29.9388 132.247 29.9692 132.455 30.0005C133.144 30.2198 133.444 30.4875 133.886 31.0552C134.051 32.0256 134.051 32.0256 133.886 33.106C133.264 33.9707 132.431 34.6092 131.621 35.2918C130.707 36.1143 130.396 36.4135 130.243 37.6836C130.34 38.4376 130.464 39.1155 130.664 39.8442C130.704 40.3376 130.728 40.8325 130.737 41.3274C130.748 41.7041 130.748 41.7041 130.76 42.0884C130.664 42.7739 130.664 42.7739 130.33 43.3038C129.518 43.824 128.976 43.7645 128.027 43.6528C127.109 43.2511 126.263 42.7707 125.39 42.2795C124.401 41.8466 123.822 41.7599 122.754 41.895C121.935 42.2675 121.935 42.2675 121.161 42.7739C119.822 43.5426 119.01 43.9716 117.48 43.6528C116.885 43.0418 116.609 42.6976 116.58 41.8343C116.636 41.4876 116.636 41.4876 116.693 41.134C117.166 38.3887 117.166 38.3887 116.6 35.7544C115.952 34.9482 115.246 34.3878 114.415 33.7663C113.672 33.106 113.672 33.106 113.367 32.2168C113.379 31.3481 113.379 31.3481 113.632 30.6764C114.465 30.0104 115.153 29.9964 116.196 29.8797C118.435 29.656 118.435 29.656 120.304 28.5322C121.145 27.3186 121.643 25.9812 122.168 24.6099C122.754 24.0239 122.754 24.0239 123.596 23.9141Z" fill="#FDDA4A"/>
<path d="M111.621 80.5664C112.5 80.8594 112.5 80.8594 112.801 81.3538C114.388 85.3853 115.928 90.5511 114.478 94.8303C113.496 96.6888 112.564 97.6419 110.537 98.3082C107.099 98.9678 103.758 98.3359 100.488 97.2656C100.167 97.1807 99.8455 97.0957 99.5144 97.0081C98.7305 96.6797 98.7305 96.6797 98.4077 96.1384C98.3318 95.8172 98.3318 95.8172 98.2544 95.4895C97.8652 94.054 97.3067 92.7525 96.6797 91.4062C96.9338 91.2975 97.188 91.1887 97.4499 91.0767C98.5609 90.4587 99.324 89.6894 100.177 88.7695C103.434 85.3984 107.429 82.6627 111.621 80.5664Z" fill="#63509D"/>
<path d="M27.832 93.75C28.7927 94.2057 29.4167 94.6861 30.1586 95.454C30.4855 95.7882 30.4855 95.7882 30.8189 96.1292C31.1622 96.4833 31.1622 96.4833 31.5125 96.8445C33.2446 98.6073 34.9709 100.279 36.9232 101.797C37.5 102.246 37.5 102.246 38.0859 102.832C37.9901 103.882 37.4553 104.537 36.8214 105.351C36.6228 105.608 36.4242 105.866 36.2196 106.131C35.9017 106.537 35.9017 106.537 35.5774 106.952C35.1453 107.511 34.7135 108.071 34.2819 108.631C34.0759 108.897 33.8699 109.164 33.6576 109.438C32.8619 110.473 32.0948 111.526 31.3328 112.586C30.5632 113.655 29.7834 114.716 29.0039 115.778C28.8591 115.975 28.7144 116.172 28.5652 116.375C28.2232 116.841 27.8812 117.307 27.5391 117.773C26.1407 117.332 25.2297 116.546 24.1516 115.594C23.8219 115.308 23.4919 115.021 23.1617 114.735C23.0079 114.601 22.8542 114.468 22.6958 114.33C22.1788 113.891 21.6437 113.483 21.0938 113.086C21.2631 111.221 21.8592 109.613 22.5277 107.872C22.6985 107.42 22.6985 107.42 22.8727 106.958C23.236 105.997 23.6022 105.037 23.9685 104.077C24.331 103.121 24.693 102.165 25.0549 101.209C25.2797 100.615 25.505 100.022 25.7309 99.4292C26.449 97.5424 27.1472 95.6491 27.832 93.75Z" fill="#F32A51"/>
<path d="M94.1711 5.12695C95.2148 5.27344 95.2148 5.27344 95.8569 5.72548C96.5796 6.70734 96.5624 7.56073 96.5332 8.73413C96.5303 8.96172 96.5274 9.1893 96.5244 9.42378C96.4317 12.4794 95.8296 15.4706 95.2148 18.457C95.1484 18.7882 95.0819 19.1194 95.0134 19.4607C94.0208 23.8469 92.3309 28.0694 90.2075 32.0219C89.9706 32.4648 89.7425 32.9125 89.5157 33.3607C87.6022 37.0612 85.0985 40.3901 82.3586 43.5127C81.7385 44.179 81.7385 44.179 81.4453 44.8242C81.252 44.8242 81.0586 44.8242 80.8594 44.8242C80.7906 44.9889 80.7219 45.1535 80.6511 45.3232C80.1836 46.1562 79.6028 46.7229 78.9185 47.3877C78.5593 47.7389 78.5593 47.7389 78.1929 48.0972C78.0094 48.274 77.8258 48.4507 77.6367 48.6328C76.9531 47.2656 76.2695 45.8984 75.5859 44.5312C75.7457 44.3783 75.9054 44.2253 76.07 44.0678C85.0971 35.2568 91.4706 22.8282 92.0609 10.1051C92.0766 9.76808 92.0766 9.76808 92.0927 9.42421C92.1107 8.98644 92.1246 8.54847 92.1337 8.11043C92.167 7.20041 92.2382 6.53288 92.672 5.72433C93.1641 5.27344 93.1641 5.27344 94.1711 5.12695Z" fill="#81C14F"/>
<path d="M102.539 65.332C103.804 65.7537 104.281 66.7108 105.011 67.7673C105.163 67.9848 105.315 68.2023 105.472 68.4264C107.262 71.0246 108.863 73.7388 110.449 76.4648C109.711 77.2401 109.019 77.6657 108.051 78.1311C107.787 78.2591 107.523 78.3872 107.251 78.5191C106.949 78.6624 106.949 78.6624 106.641 78.8086C106.615 78.6175 106.59 78.4264 106.564 78.2295C106.273 76.4219 105.924 75.3916 104.59 74.1211C103.217 73.2706 101.759 73.3537 100.195 73.5352C98.7718 74.2081 97.9485 75.0465 97.2656 76.4648C97.0342 77.8935 97.0723 79.2191 97.7234 80.5298C98.5737 81.6199 99.2547 82.0241 100.488 82.6172C100.044 83.7097 99.4006 84.2934 98.5107 85.0525C97.2884 86.1225 96.2352 87.2146 95.2148 88.4766C94.0031 87.3982 93.1971 86.0906 92.3218 84.7412C91.1934 83.0098 90.0308 81.3254 88.7695 79.6875C90.3139 76.438 93.4691 73.7575 95.9656 71.2463C96.218 70.9913 96.4704 70.7362 96.7304 70.4734C98.4825 68.7296 100.316 67.1675 102.246 65.625C102.343 65.5283 102.439 65.4316 102.539 65.332Z" fill="#63519D"/>
<path d="M126.985 8.93541C128.577 9.8915 129.674 11.3943 130.207 13.1652C130.555 15.0173 130.378 16.6307 129.402 18.2555C129.145 18.6201 128.884 18.9809 128.614 19.3358C128.451 19.5594 128.288 19.7829 128.12 20.0133C126.423 21.2514 124.357 21.5972 122.303 21.2996C120.638 20.8232 119.204 19.8265 118.214 18.402C117.225 16.5477 117.283 14.6561 117.481 12.5975C118.112 10.772 119.392 9.7697 120.997 8.78893C122.838 8.17528 125.189 8.1456 126.985 8.93541Z" fill="#FE4762"/>
<path d="M73.8827 43.3592C75.5938 44.2921 76.7266 45.6106 77.3434 47.4608C77.6143 49.7139 77.4126 51.385 76.1291 53.2813C75.0036 54.575 73.5207 55.4982 71.8033 55.744C69.6882 55.8438 67.897 55.1813 66.3067 53.7619C64.7968 52.0478 64.5775 50.346 64.6175 48.1337C64.8544 46.349 65.7097 45.153 67.1112 44.055C69.3289 42.6121 71.4215 42.2513 73.8827 43.3592Z" fill="#FD4863"/>
<path d="M70.9004 8.49597C70.7625 8.76146 70.6247 9.02695 70.4827 9.30049C69.4895 11.2348 68.5365 13.1244 67.9707 15.2342C67.8684 15.5806 67.766 15.9269 67.6606 16.2837C67.2941 17.7679 67.2969 19.224 67.3115 20.7457C67.3132 21.1715 67.3132 21.1715 67.315 21.6059C67.3383 23.5299 67.4705 25.3792 67.9707 27.246C65.9321 28.4246 65.9321 28.4246 64.803 28.3995C64.0935 28.0955 63.7634 27.8472 63.2832 27.246C63.1871 26.6223 63.1871 26.6223 63.21 25.9093C63.2149 25.6498 63.2198 25.3904 63.2248 25.1231C63.2832 24.3163 63.2832 24.3163 63.424 23.5552C63.6993 22.0893 63.6993 22.0893 63.1905 20.7331C62.4113 19.8361 61.5596 19.0727 60.6648 18.2921C60.0605 17.578 60.0605 17.578 59.9141 16.516C60.0605 15.5272 60.0605 15.5272 60.3638 15.0534C61.2431 14.4346 62.2235 14.3599 63.2649 14.2089C65.2174 13.9668 65.2174 13.9668 66.7988 12.8905C67.2855 12.0611 67.2855 12.0611 67.696 11.1327C68.986 8.34074 68.986 8.34074 70.9004 8.49597Z" fill="#FBC172"/>
<path d="M132.714 79.3943C132.521 79.491 132.328 79.5877 132.128 79.6873C131.919 80.2683 131.727 80.8556 131.542 81.4451C131.179 82.3521 130.81 83.2562 130.432 84.1573C129.407 86.6635 129.105 88.8565 129.125 91.5525C129.123 91.8437 129.121 92.1348 129.119 92.4348C129.123 94.1538 129.316 95.614 129.785 97.2654C129.785 97.5554 129.785 97.8455 129.785 98.1443C128.461 98.9191 127.511 99.197 125.976 99.0232C125.481 98.6707 125.481 98.6707 125.097 98.1443C125.001 97.4462 125.001 97.4462 125.024 96.6428C125.029 96.3562 125.034 96.0696 125.039 95.7742C125.091 95.0053 125.219 94.3016 125.372 93.5483C125.482 92.7051 125.453 92.3873 125.004 91.6521C124.224 90.7498 123.378 89.9745 122.479 89.1904C121.875 88.4763 121.875 88.4763 121.691 87.4326C121.875 86.4255 121.875 86.4255 122.489 85.795C123.765 84.9826 125 84.9956 126.481 84.8692C127.608 84.6326 127.922 84.4032 128.613 83.4959C128.985 82.8529 129.338 82.1988 129.675 81.5366C130.792 79.3437 130.792 79.3437 132.714 79.3943Z" fill="#FCC172"/>
<path d="M123.669 23.9863C123.947 23.9984 124.225 24.0105 124.511 24.0229C124.3 24.3311 124.088 24.6393 123.871 24.9568C122.849 26.5981 122.203 28.3508 121.582 30.1753C121.487 30.4529 121.392 30.7304 121.295 31.0164C120.304 34.3698 120.157 38.8405 121.289 42.187C121.482 42.2837 121.676 42.3804 121.875 42.48C120.404 43.3357 119.232 43.9266 117.48 43.6519C116.88 43.0429 116.609 42.698 116.58 41.8333C116.636 41.4867 116.636 41.4867 116.693 41.133C117.166 38.3877 117.166 38.3877 116.6 35.7534C115.952 34.9472 115.246 34.3868 114.415 33.7653C113.672 33.105 113.672 33.105 113.367 32.2158C113.379 31.3472 113.379 31.3472 113.632 30.6754C114.465 30.0094 115.153 29.9955 116.196 29.8787C118.435 29.655 118.435 29.655 120.304 28.5312C121.145 27.3176 121.643 25.9803 122.168 24.6089C122.754 24.0229 122.754 24.0229 123.669 23.9863Z" fill="#FCC172"/>
<path d="M109.931 18.7121C111.32 19.5053 112.303 20.4256 112.794 21.9725C113.046 23.6327 112.877 24.9562 111.915 26.367C110.761 27.4716 109.728 28.4024 108.077 28.427C106.53 28.3235 105.488 28.004 104.298 26.953C103.153 25.4762 102.939 24.2978 103.013 22.4371C103.232 20.9745 103.986 20.2033 105.049 19.2442C106.504 18.2369 108.28 18.066 109.931 18.7121Z" fill="#EAEAEB"/>
<path d="M135.352 106.641C136.946 107.172 137.924 108.218 138.868 109.57C139.359 111.043 139.33 112.291 138.703 113.708C138.012 114.937 137.268 115.787 135.938 116.309C134.156 116.63 132.61 116.604 131.086 115.558C129.772 114.395 129.273 113.196 129.09 111.456C129.304 109.49 130.181 108.492 131.654 107.285C132.814 106.427 133.958 106.516 135.352 106.641Z" fill="#EAEAEB"/>
<path d="M103.419 73.2422C104.884 73.9616 105.908 74.9991 106.641 76.4648C106.805 78.2118 106.788 79.6666 105.762 81.1523C104.305 82.4976 103.134 83.0514 101.166 83.0028C99.7038 82.8027 98.7404 82.0643 97.7424 80.9875C96.7972 79.5697 96.7877 78.1177 96.9733 76.4648C98.3943 73.6228 100.433 72.9381 103.419 73.2422Z" fill="#ECECEC"/>
<path d="M123.835 8.47825C124.353 8.48221 124.353 8.48221 124.882 8.48626C125.147 8.48966 125.412 8.49305 125.684 8.49656C125.684 8.7866 125.684 9.07663 125.684 9.37546C125.418 9.5507 125.153 9.72593 124.879 9.90647C123.527 10.8163 122.775 11.8819 122.462 13.477C122.27 15.3261 122.427 16.6733 123.377 18.2835C123.634 18.7505 123.634 18.7505 123.634 19.3364C123.896 19.4633 123.896 19.4633 124.165 19.5927C124.805 19.9223 124.805 19.9223 125.684 20.5083C125.684 20.7016 125.684 20.895 125.684 21.0942C123.148 21.5256 121.594 21.3044 119.459 19.8674C117.875 18.2477 117.407 16.9274 117.316 14.6489C117.375 12.8206 117.661 11.5807 118.946 10.2544C120.523 8.88075 121.76 8.45771 123.835 8.47825Z" fill="#F32B51"/>
<path d="M71.0621 42.7367C71.2921 42.7359 71.5221 42.7352 71.7591 42.7344C72.3622 42.7733 72.3622 42.7733 72.9481 43.0663C72.9481 43.2596 72.9481 43.453 72.9481 43.6522C72.6883 43.8033 72.4285 43.9543 72.1608 44.11C70.8808 44.94 70.2284 46.0369 69.7255 47.4608C69.3171 49.7421 69.7246 51.3657 70.9557 53.303C71.5489 53.9811 72.1767 54.3316 72.9481 54.785C72.9481 54.9784 72.9481 55.1717 72.9481 55.3709C71.9127 55.8886 70.8559 55.8146 69.7255 55.6639C67.8145 55.0081 66.4508 54.121 65.3309 52.4413C64.5147 50.7271 64.4979 49.03 64.745 47.1678C65.5338 45.1844 66.9502 43.972 68.8466 43.0663C69.6748 42.7902 70.2035 42.7338 71.0621 42.7367Z" fill="#F22B52"/>
<path d="M106.055 62.6953C107.629 64.0888 108.694 65.8203 109.845 67.5659C110.047 67.8677 110.249 68.1694 110.458 68.4803C113.965 73.7658 113.965 73.7658 113.965 75.293C112.225 76.0181 112.225 76.0181 110.449 76.7578C110.208 76.3613 109.967 75.9647 109.719 75.5562C107.996 72.7379 106.256 69.9728 104.275 67.3279C103.711 66.5039 103.711 66.5039 103.125 65.0391C104.092 64.2656 105.059 63.4922 106.055 62.6953Z" fill="#F02B52"/>
<path d="M83.7891 41.6016C87.498 43.314 90.7246 46.5228 93.75 49.2188C93.5785 50.2912 93.1397 50.8434 92.4133 51.6357C92.2256 51.8427 92.0379 52.0497 91.8446 52.2629C91.6276 52.4963 91.6276 52.4963 91.4062 52.7344C90.1777 51.8506 89.0044 50.9403 87.8906 49.9146C87.0348 49.1327 86.1532 48.4227 85.2161 47.7425C84.8958 47.5094 84.8958 47.5094 84.569 47.2717C84.1388 46.9615 83.7062 46.6546 83.2712 46.3513C83.0731 46.2084 82.8751 46.0655 82.671 45.9183C82.4914 45.792 82.3118 45.6658 82.1267 45.5358C81.7383 45.1172 81.7383 45.1172 81.7383 43.9453C82.1869 43.3182 82.1869 43.3182 82.7637 42.7002C82.954 42.4932 83.1443 42.2863 83.3405 42.0731C83.5625 41.8397 83.5625 41.8397 83.7891 41.6016Z" fill="#F12B52"/>
<path d="M29.005 45.9965C29.7959 46.5239 30.3356 46.9 30.7628 47.7543C30.8493 48.8511 30.8442 49.9505 30.8543 51.0502C30.8628 51.3543 30.8713 51.6583 30.8801 51.9715C30.8951 53.7818 30.8258 54.885 29.5909 56.2504C28.7446 56.6736 28.1857 56.6538 27.2471 56.5434C26.4925 56.058 26.2007 55.8442 25.7823 55.0786C25.5614 53.8064 25.578 52.5581 25.5992 51.27C25.5935 50.9256 25.5879 50.5811 25.582 50.2263C25.598 47.4226 25.598 47.4226 26.4712 46.5012C27.4307 45.8771 27.8813 45.7858 29.005 45.9965Z" fill="#61509D"/>
<path d="M98.7286 120.996C99.7213 121.432 100.638 121.976 101.567 122.534C101.817 122.678 102.067 122.822 102.325 122.97C104.433 124.212 104.433 124.212 105.174 125.39C105.335 126.471 105.242 127.011 104.753 127.99C103.799 128.781 103.291 128.751 102.089 128.721C100.814 128.531 99.8394 127.904 98.7652 127.221C98.5469 127.091 98.3286 126.962 98.1037 126.828C96.0966 125.6 96.0966 125.6 95.5059 124.511C95.317 123.212 95.3519 122.674 96.1285 121.6C97.1683 120.854 97.4676 120.828 98.7286 120.996Z" fill="#61509D"/>
<path d="M120.996 120.996C121.833 121.579 122.326 122.028 122.633 123.019C122.708 123.7 122.678 124.153 122.46 124.805C121.795 125.578 120.987 126.044 120.117 126.563C119.834 126.749 119.552 126.935 119.261 127.127C116.25 129.033 116.25 129.033 114.257 128.614C113.249 127.899 112.862 127.483 112.609 126.27C112.886 124.942 113.723 124.301 114.816 123.534C115.446 123.131 116.084 122.748 116.729 122.37C117.054 122.17 117.054 122.17 117.384 121.966C118.619 121.237 119.519 120.763 120.996 120.996Z" fill="#61509D"/>
<path d="M103.709 131.25C104.7 131.966 105.106 132.39 105.357 133.594C105.037 135.13 103.815 135.901 102.559 136.732C102.132 136.994 101.703 137.254 101.274 137.512C101.062 137.648 100.851 137.783 100.633 137.923C99.0736 138.86 98.1602 139.015 96.3848 138.574C95.5509 137.897 95.5145 137.461 95.3594 136.395C95.5484 135.048 95.9532 134.772 96.9707 133.887C97.7162 133.371 98.4881 132.92 99.2778 132.477C99.4776 132.357 99.6774 132.238 99.8832 132.116C101.198 131.37 102.16 131.057 103.709 131.25Z" fill="#61509D"/>
<path d="M40.1371 52.4412C40.9794 52.8807 40.9794 52.8807 41.602 53.6131C41.8497 55.1742 41.8497 55.1742 41.602 55.9569C40.5299 57.2418 39.2683 58.0238 37.83 58.8316C37.5303 59.0104 37.5303 59.0104 37.2246 59.1927C35.9126 59.9362 34.9441 60.2635 33.3988 60.0584C32.5199 59.3077 32.5199 59.3077 31.934 58.3006C31.8974 57.2386 31.8974 57.2386 32.227 56.2498C33.365 55.1997 34.6789 54.4494 36.0172 53.6864C36.2195 53.5659 36.4217 53.4454 36.6301 53.3213C37.8403 52.6307 38.7051 52.2489 40.1371 52.4412Z" fill="#61509D"/>
<path d="M17.8702 52.4417C18.8051 52.8256 19.6684 53.3117 20.5436 53.815C20.7773 53.9425 21.0111 54.0699 21.2519 54.2013C22.5317 54.9223 23.5156 55.5635 24.3155 56.8363C24.4803 57.7152 24.4803 57.7152 24.3155 58.5941C23.7113 59.4364 23.7113 59.4364 22.8507 60.0589C20.8479 60.3621 19.5722 59.5064 17.9252 58.5025C17.6738 58.3562 17.4225 58.2098 17.1635 58.0591C15.3177 56.9626 15.3177 56.9626 14.6476 55.9574C14.4804 54.6678 14.4989 54.1121 15.2701 53.046C16.3042 52.3041 16.6173 52.2858 17.8702 52.4417Z" fill="#61509D"/>
<path d="M28.6824 65.998C29.7219 66.3581 30.2888 67.0107 30.7618 67.9687C30.9585 69.1037 30.9401 70.2074 30.9083 71.3562C30.9094 71.8079 30.9094 71.8079 30.9106 72.2688C30.8749 75.0218 30.8749 75.0218 29.8829 76.1718C28.966 76.6303 27.9461 76.669 26.9532 76.4648C26.1404 75.8282 25.8152 75.481 25.6297 74.4524C25.6284 74.1346 25.627 73.8168 25.6257 73.4893C25.6242 73.1415 25.6227 72.7937 25.6211 72.4353C25.6256 72.0732 25.6302 71.711 25.6348 71.3379C25.6303 70.9757 25.6258 70.6135 25.6211 70.2404C25.6226 69.8926 25.6241 69.5447 25.6257 69.1864C25.627 68.8686 25.6283 68.5508 25.6297 68.2234C25.9481 66.4584 26.9973 66.0851 28.6824 65.998Z" fill="#61509D"/>
<path d="M23.1464 62.6949C23.9913 63.4531 24.2741 63.924 24.4831 65.0386C24.2361 66.356 23.4133 66.9912 22.3315 67.747C21.7511 68.1125 21.1617 68.4547 20.5647 68.7923C20.2687 68.971 20.2687 68.971 19.9667 69.1533C18.5126 69.9813 17.4936 70.1839 15.8222 70.0191C15.0898 69.5613 15.0898 69.5613 14.6503 68.8472C14.4861 67.7183 14.477 67.0759 15.0841 66.0972C16.0732 65.0713 17.1642 64.4437 18.404 63.7569C18.6331 63.6213 18.8621 63.4857 19.0981 63.346C20.5516 62.5325 21.4739 62.1918 23.1464 62.6949Z" fill="#61509D"/>
<path d="M109.864 114.551C110.623 115.035 110.911 115.246 111.329 116.016C111.551 117.343 111.533 118.647 111.512 119.989C111.521 120.531 111.521 120.531 111.529 121.083C111.528 121.429 111.526 121.776 111.524 122.133C111.522 122.449 111.52 122.765 111.519 123.09C111.329 123.926 111.329 123.926 110.64 124.614C109.68 125.213 109.219 125.306 108.107 125.098C107.359 124.612 107.061 124.392 106.642 123.633C106.42 122.361 106.437 121.113 106.459 119.824C106.453 119.48 106.447 119.136 106.441 118.781C106.457 115.977 106.457 115.977 107.331 115.057C108.295 114.428 108.736 114.316 109.864 114.551Z" fill="#61509D"/>
<path d="M96.9727 52.1484C98.2336 53.3972 99.4666 54.6711 100.69 55.957C100.888 56.1617 101.086 56.3664 101.29 56.5773C101.575 56.8775 101.575 56.8775 101.865 57.1838C102.037 57.3632 102.208 57.5426 102.385 57.7274C102.888 58.3731 103.148 58.9965 103.418 59.7656C103.007 60.118 102.591 60.4649 102.173 60.8093C101.826 61.0999 101.826 61.0999 101.472 61.3964C100.781 61.8164 100.781 61.8164 100.164 61.7935C99.4968 61.4687 99.1794 61.1301 98.7122 60.553C97.7765 59.4314 96.8091 58.3487 95.8191 57.2754C95.6735 57.117 95.5279 56.9587 95.3779 56.7955C95.0308 56.4181 94.6834 56.0411 94.3359 55.6641C95.2148 54.4922 96.0938 53.3203 96.9727 52.1484Z" fill="#F12B52"/>
<path d="M65.9572 53.2523C66.2277 53.4308 66.2277 53.4308 66.5037 53.6129C66.7318 53.7586 66.9599 53.9044 67.1949 54.0546C67.426 54.211 67.6572 54.3673 67.8953 54.5284C68.1294 54.6863 68.3636 54.8441 68.6048 55.0068C68.8699 55.1869 68.8699 55.1869 69.1404 55.3707C68.0633 56.5962 66.7471 57.368 65.3684 58.2088C65.1369 58.3548 64.9054 58.5007 64.6669 58.6511C63.4472 59.399 62.4088 60.034 60.9373 60.0582C60.0767 59.4722 60.0767 59.4722 59.4724 58.5933C59.4106 57.6332 59.4106 57.6332 59.7654 56.5426C60.5889 55.7575 61.5186 55.1993 62.4937 54.62C62.748 54.4566 63.0024 54.2933 63.2644 54.125C65.1546 52.9631 65.1546 52.9631 65.9572 53.2523Z" fill="#81C04F"/>
<path d="M109.863 134.765C110.841 135.396 111.25 135.704 111.621 136.816C111.641 137.518 111.645 138.22 111.639 138.922C111.636 139.295 111.634 139.667 111.631 140.052C111.627 140.337 111.624 140.623 111.621 140.918C110.846 141.309 110.071 141.7 109.295 142.09C109.074 142.201 108.853 142.313 108.625 142.428C108.415 142.534 108.204 142.64 107.987 142.749C107.792 142.847 107.597 142.945 107.397 143.046C106.933 143.262 106.933 143.262 106.64 143.262C106.597 142.12 106.572 140.979 106.549 139.838C106.536 139.514 106.524 139.191 106.511 138.858C106.475 136.459 106.475 136.459 107.323 135.283C108.286 134.646 108.73 134.553 109.863 134.765Z" fill="#61509D"/>
<path d="M116.602 131.25C117.5 131.644 118.285 132.162 119.092 132.715C119.411 132.925 119.411 132.925 119.737 133.139C120.258 133.481 120.774 133.83 121.289 134.18C120.438 135.047 119.591 135.884 118.634 136.634C118.348 136.864 118.348 136.864 118.056 137.098C117.48 137.403 117.48 137.403 116.916 137.356C116.172 137.054 115.499 136.694 114.807 136.286C114.553 136.139 114.298 135.992 114.036 135.841C113.334 135.319 113.072 135.001 112.793 134.18C112.83 133.112 112.863 132.405 113.544 131.562C114.57 131.114 115.511 131.079 116.602 131.25Z" fill="#61509D"/>
<path d="M35.7405 62.6952C36.7511 63.2315 37.7147 63.8243 38.6702 64.453C38.48 66.2122 37.8329 67.793 37.2054 69.4334C36.5439 69.0771 35.8854 68.7165 35.2279 68.3531C35.042 68.2536 34.8562 68.1541 34.6648 68.0516C33.4955 67.3999 32.6641 66.7831 31.932 65.6248C31.91 64.3755 32.035 63.7975 32.8475 62.8416C34.0096 62.2353 34.4814 62.3236 35.7405 62.6952Z" fill="#62509D"/>
</g>
<defs>
<clipPath id="clip0_2221_44512">
<rect width="150" height="150" fill="white"/>
</clipPath>
</defs>
</svg>
