<svg width="16" height="16" viewBox="0 0 16 16" fill="none" xmlns="http://www.w3.org/2000/svg">
<g clip-path="url(#clip0_2281_25225)">
<path d="M8.24025 0.0308485C8.30589 0.0876238 8.3566 0.144217 8.41212 0.210536C8.56697 0.392514 8.75779 0.510368 8.96071 0.633143C9.00313 0.65891 9.04552 0.684709 9.0879 0.710536C9.11988 0.729981 9.11988 0.729981 9.15251 0.74982C9.32133 0.854921 9.47132 0.974291 9.61724 1.10925C9.71191 1.19494 9.77721 1.24433 9.90626 1.2496C9.98155 1.23763 10.0564 1.22291 10.1309 1.20663C10.4056 1.15105 10.678 1.142 10.9578 1.1392C11.2181 1.13422 11.4417 1.08155 11.6875 0.999599C11.8441 0.984547 11.948 1.00152 12.0781 1.08578C12.2022 1.18852 12.2232 1.33043 12.2559 1.48007C12.3163 1.73569 12.4404 1.9566 12.5625 2.1871C12.9063 2.8374 12.9063 2.8374 12.9063 3.09335C12.9393 3.10024 12.9393 3.10024 12.9729 3.10726C13.3632 3.19593 13.6993 3.35988 14.043 3.55828C14.2146 3.65627 14.3786 3.72733 14.5739 3.76315C14.7694 3.79931 14.8617 3.85999 14.9785 4.02694C15.0336 4.19709 14.9989 4.33906 14.9298 4.49679C14.8575 4.69739 14.8675 4.91411 14.8613 5.1246C14.8388 5.78609 14.8388 5.78609 14.7593 6.03793C14.7362 6.1078 14.7362 6.1078 14.75 6.21835C14.8186 6.30843 14.8947 6.38653 14.9743 6.46701C15.0656 6.56153 15.1358 6.6637 15.2051 6.77499C15.2223 6.80241 15.2223 6.80241 15.2399 6.83039C15.2867 6.9056 15.3328 6.98122 15.3783 7.05722C15.5187 7.29113 15.6573 7.48651 15.8729 7.66C15.9614 7.73997 15.9946 7.80032 16.0094 7.91842C16.0107 8.19137 16.0107 8.19137 15.9063 8.3121C15.8675 8.34564 15.8284 8.3788 15.7891 8.41171C15.6075 8.56621 15.4895 8.75634 15.3676 8.95919C15.3421 9.00133 15.3166 9.04344 15.291 9.08554C15.2782 9.10684 15.2654 9.12815 15.2521 9.1501C15.142 9.32766 15.0129 9.48145 14.8647 9.62872C14.8028 9.6945 14.7522 9.74984 14.7457 9.84256C14.7533 9.90699 14.7658 9.96789 14.7813 10.0308C14.834 10.3433 14.8543 10.6469 14.8588 10.9638C14.8652 11.2209 14.919 11.4441 15 11.6871C15.0151 11.8436 14.9982 11.9477 14.9137 12.0777C14.8066 12.2074 14.66 12.224 14.5036 12.2542C14.2676 12.3079 14.0735 12.41 13.8633 12.5269C13.1637 12.9058 13.1637 12.9058 12.9063 12.9058C12.9031 12.9253 12.9 12.9448 12.8967 12.9648C12.817 13.3562 12.6198 13.7118 12.4342 14.0623C12.3233 14.2738 12.257 14.4615 12.2106 14.6956C12.1705 14.8437 12.0953 14.8923 11.9727 14.9781C11.8025 15.0332 11.6606 14.9984 11.5028 14.9294C11.3042 14.8577 11.0912 14.8682 10.8828 14.8629C10.6103 14.8545 10.3476 14.8334 10.0804 14.7786C9.96067 14.7547 9.86645 14.7396 9.75001 14.7808C9.6874 14.8274 9.6874 14.8274 9.62892 14.8883C9.50768 15.0009 9.38193 15.0945 9.24415 15.1851C9.22422 15.1983 9.20428 15.2114 9.18375 15.2249C9.08329 15.2904 8.98211 15.3547 8.88026 15.4181C8.6806 15.5427 8.50057 15.6653 8.34376 15.8433C8.22726 15.963 8.17415 16.0044 8.00587 16.0074C7.87069 16.0051 7.79272 15.9968 7.68751 15.9058C7.65398 15.8671 7.62082 15.828 7.5879 15.7887C7.43306 15.6067 7.24224 15.4888 7.03932 15.3661C6.9969 15.3403 6.9545 15.3145 6.91212 15.2887C6.8908 15.2757 6.86948 15.2627 6.84752 15.2494C6.6787 15.1443 6.5287 15.0249 6.38279 14.8899C6.28791 14.8041 6.22302 14.7548 6.09376 14.7496C6.01191 14.7617 5.93248 14.776 5.85158 14.7926C5.57873 14.8441 5.30964 14.8571 5.03227 14.86C4.78909 14.8649 4.53336 14.8892 4.31251 14.9996C4.15615 15.0149 4.05175 14.9976 3.92189 14.9133C3.79257 14.8065 3.77615 14.6613 3.74647 14.5053C3.68987 14.2566 3.57749 14.0484 3.45509 13.8277C3.09376 13.1727 3.09376 13.1727 3.09376 12.9058C3.06603 12.9007 3.06603 12.9007 3.03773 12.8955C2.89441 12.8667 2.77557 12.8391 2.65626 12.7496C2.60796 12.653 2.61584 12.5748 2.62501 12.4683C2.67189 12.3922 2.67189 12.3922 2.75001 12.3433C2.88389 12.3302 2.97172 12.3345 3.09962 12.3746C3.32674 12.4342 3.59635 12.4467 3.8152 12.349C3.99664 12.2371 4.15064 12.1117 4.21876 11.9058C4.19794 11.8861 4.17711 11.8664 4.15565 11.846C3.79868 11.4995 3.50404 11.1146 3.25001 10.6871C3.23935 10.6692 3.22868 10.6513 3.2177 10.6329C3.07572 10.3906 2.96402 10.1405 2.8633 9.8785C2.85286 9.85139 2.84242 9.82428 2.83167 9.79634C2.76836 9.62619 2.72312 9.45889 2.68751 9.28085C2.40545 9.32706 2.18503 9.40039 1.96876 9.59335C1.69464 9.99569 1.6815 10.4567 1.66923 10.9253C1.66058 11.2069 1.62262 11.4748 1.56251 11.7496C1.60098 11.7535 1.63946 11.7575 1.67909 11.7616C1.77836 11.774 1.85819 11.7919 1.94728 11.8394C1.96714 11.8497 1.987 11.8599 2.00746 11.8704C2.06674 11.9086 2.11118 11.9454 2.15626 11.9996C2.16924 12.1216 2.16248 12.209 2.09376 12.3121C1.9753 12.3713 1.83731 12.3586 1.71217 12.3245C1.66523 12.3082 1.61847 12.2914 1.57191 12.274C1.49852 12.2491 1.42786 12.2354 1.35158 12.2223C1.19081 12.1886 1.11432 12.1049 1.0215 11.9723C0.964124 11.7949 1.00752 11.6427 1.0702 11.4749C1.11552 11.3421 1.12903 11.2152 1.13161 11.0753C1.13244 11.0418 1.13327 11.0083 1.13412 10.9739C1.13498 10.9385 1.13585 10.9032 1.13673 10.8668C1.14535 10.5731 1.17092 10.2957 1.23366 10.0088C1.24994 9.90629 1.25344 9.84673 1.21876 9.7496C1.16704 9.68409 1.16704 9.68409 1.09962 9.62069C0.959891 9.47227 0.85323 9.3134 0.746108 9.14022C0.7219 9.10119 0.7219 9.10119 0.697204 9.06137C0.666065 9.01104 0.634966 8.96068 0.603911 8.91029C0.464494 8.68485 0.32953 8.50427 0.122451 8.33676C0.0383175 8.25828 0.00564921 8.19556 -0.0104838 8.08187C-0.0133027 7.9009 0.000214607 7.79625 0.125014 7.65585C0.163231 7.62436 0.201665 7.59314 0.240249 7.5621C0.4476 7.38789 0.572724 7.13871 0.710586 6.90914C0.826576 6.72007 0.955626 6.55381 1.10492 6.39028C1.19136 6.29315 1.24521 6.22494 1.25001 6.09335C1.23805 6.01807 1.22333 5.94321 1.20705 5.86874C1.15147 5.594 1.14241 5.32161 1.13962 5.04181C1.13463 4.78149 1.08197 4.55795 1.00001 4.3121C0.98765 4.14827 1.00514 4.04511 1.09376 3.90585C1.19631 3.81066 1.29469 3.78906 1.4297 3.75936C1.70413 3.69287 1.93986 3.56955 2.18751 3.4371C2.83612 3.09335 2.83612 3.09335 3.09376 3.09335C3.09836 3.07135 3.10295 3.04936 3.10768 3.0267C3.19634 2.63638 3.3603 2.30033 3.55869 1.95665C3.65668 1.78504 3.72774 1.621 3.76356 1.42575C3.79973 1.23019 3.8604 1.13795 4.02736 1.02108C4.2047 0.963708 4.35692 1.00711 4.52467 1.06979C4.65756 1.1151 4.78444 1.12862 4.92433 1.13119C4.9578 1.13202 4.99127 1.13285 5.02575 1.13371C5.06108 1.13457 5.09642 1.13543 5.13283 1.13632C5.4265 1.14494 5.70396 1.17051 5.99086 1.23324C6.09363 1.24958 6.15266 1.2533 6.25001 1.21835C6.32088 1.16358 6.32088 1.16358 6.38869 1.09335C6.50943 0.980292 6.63368 0.884429 6.77345 0.796474C6.79185 0.784869 6.81024 0.773265 6.82919 0.76131C6.92399 0.702071 7.01952 0.644146 7.11537 0.586635C7.32862 0.456714 7.50203 0.323572 7.66041 0.126674C7.81013 -0.0390111 8.03831 -0.0442908 8.24025 0.0308485ZM7.92772 0.601848C7.91145 0.620071 7.89519 0.638294 7.87843 0.657069C7.73282 0.806822 7.5612 0.904956 7.38283 1.01132C7.00029 1.24503 7.00029 1.24503 6.65626 1.53085C6.63508 1.55079 6.61389 1.57073 6.59206 1.59127C6.40408 1.78509 6.30869 2.01863 6.29884 2.28866C6.30446 2.42934 6.34147 2.53166 6.40626 2.65585C6.45314 2.64741 6.50002 2.63894 6.54689 2.63046C6.57811 2.62482 6.60933 2.61918 6.64149 2.61337C6.71882 2.5991 6.79601 2.58449 6.87318 2.56942C6.89449 2.56531 6.9158 2.56119 6.93776 2.55695C6.99926 2.54504 7.06073 2.53301 7.12221 2.52096C7.87709 2.38731 8.68395 2.44173 9.42201 2.64169C9.50345 2.65647 9.54896 2.65656 9.62501 2.6246C9.73184 2.41628 9.71055 2.17263 9.64455 1.95468C9.4488 1.4721 8.94117 1.196 8.51108 0.947833C8.35137 0.853438 8.22204 0.743855 8.08925 0.613734C8.02188 0.553741 7.99538 0.536321 7.92772 0.601848ZM4.25001 1.5621C4.24357 1.58642 4.23713 1.61074 4.2305 1.63579C4.15249 1.91073 4.0392 2.14987 3.90236 2.39999C3.72656 2.71687 3.72656 2.71687 3.62501 3.0621C3.65821 3.07346 3.6914 3.08482 3.7256 3.09652C3.97002 3.18253 4.17833 3.26421 4.37501 3.4371C4.41367 3.47034 4.45237 3.50355 4.4911 3.53671C4.51044 3.55326 4.52977 3.56982 4.54969 3.58688C4.56423 3.59933 4.57878 3.61177 4.59376 3.6246C4.62333 3.60341 4.6529 3.58222 4.68336 3.56039C4.91216 3.39858 5.14348 3.24685 5.38869 3.11093C5.41118 3.09842 5.43367 3.08592 5.45685 3.07304C5.61345 2.98775 5.77364 2.91357 5.93751 2.84335C5.93075 2.82063 5.92398 2.79791 5.91701 2.7745C5.81515 2.40667 5.83458 2.09008 5.90626 1.71835C5.66094 1.66603 5.42429 1.64547 5.17384 1.64022C4.9409 1.63533 4.71888 1.61926 4.48975 1.57522C4.40829 1.56242 4.33232 1.55979 4.25001 1.5621ZM11.421 1.59237C11.1898 1.63257 10.9613 1.63739 10.7271 1.6423C10.5106 1.64848 10.3057 1.67316 10.0938 1.71835C10.0986 1.74359 10.1034 1.76883 10.1083 1.79484C10.1784 2.17091 10.1613 2.47346 10.0625 2.84335C10.0996 2.86003 10.1366 2.8767 10.1748 2.89389C10.6145 3.09498 11.0263 3.32378 11.4063 3.6246C11.4372 3.59753 11.4681 3.57046 11.5 3.54257C11.5416 3.50727 11.5832 3.47212 11.625 3.4371C11.6446 3.42066 11.6641 3.40423 11.6842 3.38729C11.8918 3.22155 12.1237 3.14146 12.375 3.0621C12.3039 2.77166 12.1695 2.52682 12.0258 2.26651C11.9028 2.03793 11.8174 1.81276 11.75 1.5621C11.6358 1.55889 11.5331 1.57084 11.421 1.59237ZM6.93751 3.03085C6.90354 3.03839 6.90354 3.03839 6.86888 3.04609C5.98946 3.24765 5.21451 3.69416 4.56251 4.3121C4.54718 4.32625 4.53184 4.34041 4.51604 4.35499C3.82781 4.9924 3.41289 5.79264 3.15626 6.6871C3.14709 6.71903 3.14709 6.71903 3.13774 6.7516C2.80326 7.96664 3.0564 9.33086 3.66701 10.4137C4.34648 11.5673 5.45772 12.4147 6.7509 12.7624C8.09045 13.0951 9.45077 12.8633 10.6329 12.1666C10.9645 11.9638 11.2508 11.7042 11.5313 11.4371C11.5537 11.4163 11.5761 11.3955 11.5993 11.3741C12.5013 10.5137 12.9586 9.22307 13 7.9996C13.0065 7.33152 12.8664 6.72389 12.6563 6.09335C12.6416 5.97423 12.6307 5.8771 12.7051 5.7789C12.8154 5.73649 12.8871 5.75006 13 5.78085C13.1141 5.89144 13.1452 6.049 13.1895 6.19686C13.1975 6.22279 13.2055 6.24871 13.2137 6.27542C13.2589 6.42255 13.302 6.57021 13.3438 6.71835C13.611 6.70598 13.8386 6.62977 14.0313 6.4371C14.3133 6.05864 14.344 5.61466 14.3574 5.1578C14.3678 4.85164 14.391 4.55242 14.4375 4.2496C14.4127 4.24303 14.388 4.23647 14.3624 4.2297C14.0461 4.13567 13.7659 3.99429 13.4773 3.83466C13.1164 3.63865 12.7577 3.50618 12.3438 3.5621C12.1207 3.63097 11.9639 3.76318 11.8125 3.9371C11.8595 4.04967 11.9247 4.11447 12.0137 4.19686C12.1472 4.32787 12.2634 4.46473 12.375 4.61483C12.397 4.64376 12.397 4.64376 12.4194 4.67328C12.5113 4.79964 12.5639 4.90805 12.5938 5.0621C12.5625 5.15194 12.5625 5.15194 12.5 5.21835C12.3922 5.25585 12.3392 5.26244 12.2356 5.21261C12.1469 5.14916 12.0998 5.08789 12.0391 4.99765C11.9317 4.84412 11.8153 4.70618 11.6882 4.56869C11.638 4.51377 11.591 4.45839 11.5449 4.39999C10.7965 3.53638 9.58062 3.05525 8.46876 2.9371C8.31563 2.92843 8.16313 2.92664 8.00978 2.92733C7.96884 2.92749 7.9279 2.92764 7.88573 2.9278C7.56161 2.93169 7.25332 2.95834 6.93751 3.03085ZM2.31251 3.9371C2.06869 4.06483 1.83178 4.18445 1.56251 4.2496C1.56666 4.27888 1.57081 4.30817 1.57509 4.33834C1.60756 4.5823 1.62805 4.82303 1.6342 5.06918C1.64665 5.8006 1.64665 5.8006 1.96876 6.4371C2.18199 6.6222 2.37199 6.72188 2.65626 6.71835C2.66204 6.6975 2.66781 6.67665 2.67376 6.65517C2.8703 5.95624 3.1263 5.30367 3.56251 4.71835C3.57654 4.69939 3.59056 4.68043 3.60501 4.6609C3.78269 4.42272 3.96976 4.20284 4.18751 3.9996C4.10676 3.81309 3.94634 3.70007 3.77736 3.5953C3.27584 3.41489 2.74438 3.70929 2.31251 3.9371ZM1.45351 6.73239C1.29985 6.92092 1.17442 7.11973 1.04884 7.32772C0.905869 7.56453 0.763245 7.77592 0.562514 7.96835C0.604582 8.06167 0.652089 8.12707 0.72267 8.20077C0.844464 8.33666 0.934134 8.48536 1.0276 8.64157C1.16884 8.87551 1.32729 9.10048 1.50001 9.3121C1.59736 9.28764 1.59736 9.28764 1.66017 9.21249C1.91759 8.94898 2.23835 8.84733 2.59376 8.78085C2.58867 8.74079 2.58358 8.70073 2.57833 8.65946C2.56103 8.50311 2.55851 8.34902 2.55946 8.19186C2.55951 8.16382 2.55955 8.13578 2.5596 8.10689C2.55977 8.01839 2.56016 7.92989 2.56056 7.8414C2.56072 7.78095 2.56086 7.72051 2.56099 7.66006C2.56133 7.51282 2.56187 7.36559 2.56251 7.21835C2.51806 7.20604 2.51806 7.20604 2.47272 7.19348C2.43363 7.18251 2.39454 7.17154 2.35426 7.16024C2.31561 7.14946 2.27695 7.13867 2.23712 7.12756C1.97593 7.04785 1.79545 6.93932 1.61232 6.73629C1.54598 6.67076 1.52097 6.66669 1.45351 6.73239ZM14.3923 6.72946C14.375 6.74835 14.3577 6.76724 14.3399 6.78671C14.0822 7.05021 13.7854 7.1317 13.4375 7.21835C13.4377 7.25569 13.4378 7.29303 13.438 7.3315C13.4386 7.4711 13.4389 7.6107 13.4392 7.75031C13.4394 7.81053 13.4396 7.87075 13.4399 7.93097C13.4403 8.01793 13.4404 8.1049 13.4406 8.19186C13.4407 8.21843 13.4409 8.24501 13.4411 8.27239C13.4411 8.44425 13.4279 8.61032 13.4063 8.78085C13.4387 8.7877 13.4712 8.79455 13.5047 8.8016C13.7863 8.86436 14.0613 8.93138 14.2699 9.14596C14.3101 9.19433 14.3101 9.19433 14.375 9.1871C14.3956 9.22835 14.4163 9.2696 14.4375 9.3121C14.5679 9.26863 14.6183 9.17568 14.6953 9.06796C14.7106 9.04684 14.726 9.02573 14.7417 9.00398C14.8527 8.84886 14.9497 8.68858 15.0431 8.5223C15.1521 8.33893 15.2852 8.17954 15.4375 8.03085C15.3948 7.936 15.3455 7.86875 15.2743 7.7933C15.1469 7.65088 15.0522 7.49557 14.9551 7.33163C14.7543 6.98956 14.7543 6.98956 14.5 6.6871C14.4348 6.67997 14.4348 6.67997 14.3923 6.72946ZM13.3125 9.28085C13.3064 9.29951 13.3003 9.31818 13.294 9.33741C12.9653 10.3342 12.5014 11.1668 11.75 11.9058C11.8054 12.1088 11.9704 12.2507 12.1465 12.3551C12.4137 12.4861 12.7112 12.4682 12.9922 12.3844C13.2546 12.29 13.4979 12.1568 13.7416 12.0222C13.967 11.8996 14.1898 11.8163 14.4375 11.7496C14.433 11.7192 14.4286 11.6889 14.424 11.6576C14.3855 11.391 14.369 11.1282 14.3613 10.859C14.3402 10.1384 14.3402 10.1384 13.9966 9.52499C13.7797 9.34548 13.5926 9.27514 13.3125 9.28085ZM4.62501 12.2496C4.60852 12.2734 4.60852 12.2734 4.59169 12.2977C4.34018 12.6484 4.03377 12.8129 3.62501 12.9371C3.69618 13.2275 3.83054 13.4724 3.9742 13.7327C4.09719 13.9613 4.18266 14.1864 4.25001 14.4371C4.28038 14.4326 4.31075 14.4282 4.34203 14.4235C4.64313 14.3801 4.9417 14.3636 5.2458 14.3568C5.47049 14.3504 5.68552 14.3231 5.90626 14.2808C5.90146 14.2556 5.89665 14.2304 5.8917 14.2043C5.83024 13.8746 5.82238 13.5996 5.91395 13.2754C5.93837 13.1839 5.95453 13.0931 5.96876 12.9996C5.94945 12.9908 5.93013 12.982 5.91022 12.973C5.54802 12.8073 5.19919 12.6397 4.87379 12.4088C4.79272 12.3514 4.71086 12.2994 4.62501 12.2496ZM11.3438 12.2496C11.3205 12.2678 11.2973 12.286 11.2733 12.3048C10.8973 12.5902 10.4719 12.8291 10.0313 12.9996C10.0503 13.1245 10.077 13.2433 10.1113 13.3648C10.1909 13.6812 10.1541 13.9639 10.0938 14.2808C10.3476 14.3294 10.5935 14.3532 10.8516 14.359C11.155 14.3682 11.4498 14.3929 11.75 14.4371C11.7565 14.4128 11.7629 14.3885 11.7695 14.3634C11.8475 14.0885 11.9608 13.8493 12.0977 13.5992C12.2735 13.2823 12.2735 13.2823 12.375 12.9371C12.3422 12.9261 12.3094 12.9151 12.2755 12.9038C11.9313 12.7844 11.6758 12.6475 11.4435 12.3584C11.404 12.3076 11.404 12.3076 11.3438 12.2496ZM6.41408 13.2672C6.29757 13.4944 6.27444 13.7372 6.3307 13.9864C6.50374 14.4889 7.03792 14.7958 7.47731 15.0427C7.66069 15.1517 7.82008 15.2848 7.96876 15.4371C8.06209 15.395 8.12749 15.3475 8.20119 15.2769C8.33727 15.155 8.48633 15.0653 8.64259 14.9714C9.05595 14.7216 9.45694 14.4535 9.66603 14.0055C9.72559 13.7293 9.69101 13.5004 9.56251 13.2496C9.54705 13.2341 9.54705 13.2341 9.53126 13.2183C9.33827 13.2201 9.14626 13.2617 8.95705 13.2965C8.22936 13.428 7.46865 13.4136 6.7494 13.2367C6.56981 13.197 6.56981 13.197 6.41408 13.2672Z" fill="#3D3D3D"/>
<path d="M9 3.75027C9.02099 3.7553 9.04199 3.76033 9.06361 3.76552C9.72511 3.92615 10.2934 4.25296 10.8125 4.68777C10.8347 4.7061 10.8569 4.72443 10.8798 4.74332C11.276 5.07872 11.5729 5.5119 11.8125 5.96902C11.8223 5.98751 11.832 6.00599 11.8421 6.02504C12.3529 7.00901 12.4076 8.18823 12.0816 9.23943C11.726 10.3114 10.9521 11.2404 9.939 11.7512C8.85398 12.2648 7.63422 12.3417 6.5 11.9378C5.43572 11.5456 4.57823 10.7265 4.09758 9.70488C3.92337 9.30956 3.8108 8.89605 3.75 8.46902C3.74593 8.44139 3.74186 8.41375 3.73767 8.38528C3.60789 7.32969 3.91725 6.20393 4.56116 5.35953C4.71815 5.16772 4.88491 4.98569 5.0625 4.81277C5.07583 4.79767 5.08917 4.78256 5.10291 4.767C6.02433 3.76029 7.71995 3.42399 9 3.75027ZM5.73633 4.88504C5.71876 4.89818 5.70119 4.91132 5.68308 4.92486C5.62923 4.96605 5.62923 4.96605 5.5625 5.03152C5.55221 5.13239 5.55221 5.13239 5.63709 5.2105C5.67123 5.24463 5.70563 5.2785 5.74023 5.31216C5.75827 5.33007 5.7763 5.34797 5.79488 5.36641C5.85262 5.42362 5.91068 5.4805 5.96875 5.53738C6.00792 5.57608 6.04706 5.61479 6.08618 5.65353C6.18221 5.74853 6.27853 5.84323 6.375 5.93777C6.39482 5.93085 6.41463 5.92392 6.43505 5.91679C6.60851 5.85982 6.73988 5.83845 6.92383 5.8577C7.09473 5.86333 7.09473 5.86333 7.23779 5.7803C7.30722 5.69972 7.30722 5.69972 7.36194 5.61514C7.4375 5.53152 7.4375 5.53152 7.75 5.37527C7.75 4.97309 7.75 4.5709 7.75 4.15652C7.03188 4.15652 6.30529 4.45614 5.73633 4.88504ZM8.25 4.15652C8.25 4.55871 8.25 4.9609 8.25 5.37527C8.35313 5.42684 8.45625 5.4784 8.5625 5.53152C8.67542 5.63386 8.76008 5.71852 8.84375 5.84402C8.95732 5.85084 9.06806 5.84375 9.18164 5.83816C9.3125 5.84402 9.3125 5.84402 9.625 5.93777C9.90344 5.65934 10.1819 5.3809 10.4688 5.09402C9.93425 4.55952 9.21343 4.25605 8.46875 4.15652C8.39656 4.15652 8.32438 4.15652 8.25 4.15652ZM5.11414 5.47818C4.59041 6.05678 4.25 6.8765 4.25 7.65652C4.65219 7.65652 5.05438 7.65652 5.46875 7.65652C5.52031 7.5534 5.57188 7.45027 5.625 7.34402C5.69044 7.21314 5.69245 7.20949 5.8125 7.15652C5.88278 7.12529 5.88278 7.12529 5.9375 7.06277C5.94435 6.97925 5.94504 6.90725 5.93945 6.82449C5.92991 6.67547 5.93459 6.55605 5.98467 6.4138C5.99333 6.3889 6.00199 6.36401 6.01091 6.33835C6.02098 6.31022 6.02098 6.31022 6.03125 6.28152C5.91176 6.16126 5.79217 6.0411 5.67248 5.92104C5.63174 5.88014 5.59103 5.83921 5.55035 5.79826C5.49201 5.73955 5.43358 5.68094 5.37512 5.62234C5.35683 5.60389 5.33853 5.58543 5.31968 5.56642C5.27621 5.52294 5.23194 5.48026 5.1875 5.43777C5.15028 5.43417 5.15028 5.43417 5.11414 5.47818ZM10.8125 5.43777C10.5341 5.71621 10.2556 5.99465 9.96875 6.28152C9.99969 6.37434 10.0306 6.46715 10.0625 6.56277C10.0646 6.67244 10.0608 6.77621 10.0506 6.88504C10.0462 6.97367 10.0456 7.04164 10.1025 7.11264C10.1952 7.19486 10.1952 7.19486 10.3125 7.21902C10.3854 7.36486 10.4583 7.51069 10.5313 7.65652C10.9334 7.65652 11.3356 7.65652 11.75 7.65652C11.75 7.4317 11.7372 7.27166 11.6855 7.06082C11.6786 7.03231 11.6717 7.00379 11.6646 6.97441C11.5965 6.70759 11.4973 6.46505 11.375 6.21902C11.3603 6.18837 11.3455 6.15771 11.3303 6.12613C11.2225 5.91439 11.0331 5.54806 10.8125 5.43777ZM7.65625 5.96902C7.58238 6.08031 7.53769 6.20216 7.49023 6.32645C7.4375 6.40652 7.4375 6.40652 7.33789 6.44168C7.20541 6.43734 7.14327 6.40476 7.03052 6.34207C6.93296 6.2958 6.85569 6.29907 6.75 6.31277C6.58321 6.37491 6.48583 6.46611 6.40625 6.62527C6.38897 6.81305 6.39633 6.9342 6.5 7.09402C6.51189 7.23193 6.51512 7.29009 6.4375 7.40652C6.37537 7.43069 6.37537 7.43069 6.30273 7.44949C6.12606 7.50346 6.03906 7.59793 5.9375 7.75027C5.89564 7.90375 5.90606 8.01024 5.96875 8.15652C6.08966 8.30004 6.24014 8.37624 6.41187 8.44522C6.46875 8.46902 6.46875 8.46902 6.5 8.50027C6.51508 8.7264 6.51508 8.7264 6.45313 8.82449C6.37987 8.95269 6.38267 9.07508 6.40625 9.21902C6.46352 9.35571 6.54003 9.42421 6.66602 9.50027C6.81008 9.53934 6.88579 9.53312 7.03125 9.50027C7.08344 9.46921 7.13554 9.43797 7.1875 9.40652C7.28754 9.39427 7.35069 9.39611 7.44336 9.43582C7.50464 9.50555 7.51642 9.54702 7.54102 9.63504C7.58989 9.79525 7.66447 9.88888 7.8125 9.96902C7.95122 10.0117 8.05742 10.0122 8.19531 9.96707C8.34509 9.86154 8.42859 9.75662 8.48828 9.58621C8.53125 9.46902 8.53125 9.46902 8.625 9.40652C8.74936 9.4137 8.83823 9.43517 8.95117 9.48855C9.08628 9.5407 9.17496 9.54137 9.3125 9.50027C9.4479 9.42874 9.53738 9.36308 9.59375 9.21902C9.61632 9.02907 9.60238 8.91238 9.5 8.75027C9.48432 8.65945 9.48939 8.59423 9.5 8.50027C9.55431 8.43465 9.60218 8.41386 9.68237 8.38809C9.85943 8.33077 9.96349 8.25402 10.0625 8.09402C10.1126 7.94366 10.0896 7.83366 10.0313 7.68777C9.92406 7.55302 9.81544 7.49856 9.65625 7.43777C9.53549 7.38375 9.53549 7.38375 9.5 7.31277C9.49058 7.19036 9.4895 7.11414 9.54688 7.00418C9.6091 6.87455 9.61682 6.76674 9.59375 6.62527C9.51083 6.46535 9.4209 6.36974 9.25 6.31277C9.10771 6.29855 9.01491 6.31549 8.88867 6.37723C8.79973 6.41897 8.7461 6.43814 8.64648 6.44754C8.52943 6.39037 8.51213 6.31699 8.46631 6.19888C8.41196 6.06002 8.35009 5.9634 8.22656 5.87918C8.0161 5.80633 7.82418 5.81566 7.65625 5.96902ZM4.25 8.15652C4.24477 8.39879 4.24477 8.39879 4.27649 8.62552C4.2824 8.65156 4.28832 8.6776 4.29441 8.70443C4.30103 8.73116 4.30764 8.75789 4.31445 8.78543C4.32141 8.81387 4.32837 8.84231 4.33553 8.87162C4.47768 9.42445 4.75143 9.94408 5.125 10.3753C5.30778 10.2997 5.44377 10.1391 5.5833 10.0031C5.61889 9.96867 5.65485 9.93464 5.69115 9.90099C5.90142 9.72313 5.90142 9.72313 6.00842 9.48543C5.9926 9.41451 5.9926 9.41451 5.96364 9.34777C5.93412 9.27296 5.93336 9.22206 5.93799 9.14224C5.93904 9.11974 5.94008 9.09725 5.94116 9.07407C5.94397 9.02814 5.94724 8.98224 5.95093 8.93637C5.95592 8.86005 5.95592 8.86005 5.9375 8.75027C5.85172 8.67513 5.85172 8.67513 5.75 8.62527C5.69397 8.574 5.69397 8.574 5.65039 8.52371C5.63577 8.50744 5.62115 8.49116 5.60608 8.47439C5.5625 8.40652 5.5625 8.40652 5.46875 8.15652C5.06656 8.15652 4.66438 8.15652 4.25 8.15652ZM10.5313 8.15652C10.49 8.24934 10.4488 8.34215 10.4063 8.43777C10.3506 8.51773 10.3506 8.51773 10.2969 8.57645C10.2792 8.59639 10.2614 8.61633 10.2432 8.63687C10.1861 8.6891 10.1331 8.71945 10.0625 8.75027C10.0632 8.78536 10.064 8.82045 10.0647 8.8566C10.0653 8.90384 10.0659 8.95108 10.0664 8.99832C10.0672 9.03279 10.0672 9.03279 10.068 9.06796C10.0691 9.19477 10.0591 9.29727 10.0201 9.4183C9.99624 9.52105 9.99624 9.52105 10.026 9.61889C10.0711 9.67368 10.1189 9.72043 10.1716 9.76797C10.1898 9.78561 10.2079 9.80325 10.2265 9.82142C10.2844 9.87734 10.3433 9.93195 10.4023 9.9866C10.4419 10.0244 10.4813 10.0622 10.5206 10.1002C10.6171 10.1928 10.7145 10.2843 10.8125 10.3753C11.17 10.2091 11.4407 9.54888 11.572 9.19087C11.6158 9.05875 11.6504 8.92446 11.6836 8.78934C11.6903 8.76236 11.6971 8.73539 11.704 8.7076C11.7101 8.68124 11.7162 8.65488 11.7224 8.62772C11.7278 8.60464 11.7331 8.58157 11.7386 8.5578C11.7556 8.42507 11.75 8.29034 11.75 8.15652C11.3478 8.15652 10.9456 8.15652 10.5313 8.15652ZM6.25143 9.97756C6.21739 10.0116 6.18386 10.0462 6.15076 10.0812C6.12404 10.1083 6.12404 10.1083 6.09678 10.136C6.03998 10.1938 5.98386 10.2523 5.92773 10.3108C5.88935 10.3501 5.85092 10.3894 5.81244 10.4287C5.7182 10.525 5.62458 10.6218 5.53125 10.719C5.592 10.8573 5.68831 10.9233 5.81055 11.0061C5.84363 11.0286 5.84363 11.0286 5.87739 11.0515C6.42089 11.4098 7.09048 11.6878 7.75 11.6878C7.75 11.2856 7.75 10.8834 7.75 10.469C7.63656 10.4071 7.52313 10.3453 7.40625 10.2815C7.32632 10.1979 7.25709 10.1216 7.1875 10.0315C7.16688 10.0109 7.14625 9.99027 7.125 9.96902C7.05077 9.97083 7.05077 9.97083 6.9668 9.98465C6.77395 10.0064 6.61014 9.98122 6.42989 9.91012C6.33574 9.89695 6.33574 9.89695 6.25143 9.97756ZM9.48901 9.93643C9.2851 10.0167 9.05602 10.0115 8.84375 9.96902C8.83348 9.9849 8.82321 10.0008 8.81262 10.0171C8.6625 10.2344 8.4839 10.3521 8.25 10.469C8.25 10.8712 8.25 11.2734 8.25 11.6878C8.58746 11.6598 8.58746 11.6598 8.91211 11.5901C8.93725 11.5833 8.9624 11.5764 8.9883 11.5694C9.55053 11.4105 10.0177 11.1526 10.4688 10.7815C10.4186 10.6575 10.3324 10.5731 10.2394 10.4803C10.223 10.4638 10.2067 10.4473 10.1899 10.4303C10.1554 10.3957 10.1209 10.3611 10.0863 10.3267C10.0332 10.2737 9.98062 10.2204 9.92804 10.167C9.89448 10.1334 9.86089 10.0998 9.82727 10.0662C9.81155 10.0502 9.79582 10.0342 9.77962 10.0177C9.67708 9.91647 9.62985 9.87911 9.48901 9.93643Z" fill="#3D3D3D"/>
<path d="M8.60157 7.05386C8.84803 7.2566 9.00891 7.47508 9.04322 7.79996C9.05309 8.12634 9.00115 8.36018 8.79688 8.61636C8.57743 8.84557 8.30994 8.96041 7.99414 8.9711C7.68023 8.95977 7.42662 8.84643 7.20899 8.61832C6.99872 8.36273 6.94662 8.12941 6.95691 7.79984C6.98625 7.51945 7.10612 7.3135 7.3125 7.12418C7.68741 6.82074 8.19478 6.76463 8.60157 7.05386ZM7.53748 7.63602C7.43635 7.77272 7.4521 7.92937 7.46875 8.09293C7.54962 8.25765 7.66348 8.35495 7.82032 8.44644C7.99006 8.48888 8.13752 8.46308 8.29102 8.38199C8.40944 8.28284 8.52281 8.17768 8.5387 8.01822C8.54365 7.8276 8.5398 7.70928 8.40625 7.56168C8.25923 7.42079 8.14719 7.36352 7.93909 7.36771C7.75194 7.3866 7.65006 7.49862 7.53748 7.63602Z" fill="#3D3D3D"/>
</g>
<defs>
<clipPath id="clip0_2281_25225">
<rect width="16" height="16" fill="white"/>
</clipPath>
</defs>
</svg>
