<svg width="64" height="64" viewBox="0 0 64 64" fill="none" xmlns="http://www.w3.org/2000/svg">
<g clip-path="url(#clip0_1950_35349)">
<path d="M32.9612 0.125347C33.2238 0.352448 33.4266 0.57882 33.6487 0.844097C34.2681 1.57201 35.0314 2.04342 35.8431 2.53453C36.0127 2.63759 36.1823 2.74079 36.3519 2.8441C36.4798 2.92188 36.4798 2.92188 36.6103 3.00123C37.2856 3.42164 37.8855 3.89912 38.4692 4.43895C38.8479 4.7817 39.1091 4.97929 39.6253 5.00035C39.9264 4.95248 40.2259 4.8936 40.5237 4.82847C41.6227 4.60616 42.7122 4.56994 43.8314 4.55876C44.8727 4.53881 45.7669 4.32815 46.7503 4.00035C47.3764 3.94014 47.7921 4.00802 48.3128 4.34507C48.8091 4.75604 48.8932 5.32366 49.0237 5.92222C49.2654 6.94472 49.7617 7.82836 50.2503 8.75035C51.6253 11.3516 51.6253 11.3516 51.6253 12.3753C51.7573 12.4029 51.7573 12.4029 51.8919 12.431C53.4532 12.7857 54.7974 13.4415 56.1721 14.2351C56.8585 14.627 57.5147 14.9113 58.2957 15.0545C59.0779 15.1992 59.4469 15.4419 59.9144 16.1097C60.1345 16.7903 59.9957 17.3582 59.7195 17.9891C59.4301 18.7915 59.4701 19.6584 59.4456 20.5003C59.3555 23.1463 59.3555 23.1463 59.0374 24.1537C58.9449 24.4331 58.9449 24.4331 59.0003 24.8753C59.2745 25.2357 59.5789 25.5481 59.8973 25.87C60.2625 26.2481 60.5434 26.6567 60.8206 27.1019C60.8895 27.2116 60.8895 27.2116 60.9597 27.3235C61.1469 27.6244 61.3313 27.9268 61.5134 28.2308C62.0749 29.1665 62.6293 29.948 63.492 30.6419C63.846 30.9618 63.9787 31.2032 64.0379 31.6756C64.0429 32.7674 64.0429 32.7674 63.6253 33.2503C63.4702 33.3845 63.3138 33.5171 63.1566 33.6488C62.4303 34.2668 61.9583 35.0273 61.4705 35.8387C61.3686 36.0073 61.2665 36.1757 61.1644 36.3441C61.113 36.4293 61.0617 36.5146 61.0088 36.6024C60.5683 37.3126 60.0517 37.9278 59.4592 38.5168C59.2113 38.7799 59.009 39.0013 58.9829 39.3722C59.0135 39.6299 59.0633 39.8735 59.1253 40.1253C59.3361 41.3752 59.4176 42.5896 59.4356 43.857C59.4609 44.8857 59.6763 45.7784 60.0003 46.7503C60.0605 47.3764 59.993 47.7926 59.6551 48.3128C59.2267 48.8317 58.6402 48.898 58.0145 49.0189C57.0708 49.2337 56.2943 49.6421 55.4534 50.1097C52.6551 51.6253 52.6551 51.6253 51.6253 51.6253C51.6127 51.7032 51.6002 51.781 51.5872 51.8612C51.2684 53.4268 50.4794 54.849 49.7371 56.2513C49.2933 57.0973 49.0283 57.848 48.8426 58.7845C48.6823 59.3766 48.3813 59.5712 47.8909 59.9144C47.2104 60.1346 46.6425 59.9957 46.0115 59.7196C45.217 59.4329 44.365 59.4749 43.5316 59.4535C42.4415 59.4199 41.3908 59.3356 40.3217 59.1164C39.8429 59.0206 39.4661 58.9602 39.0003 59.1253C38.7498 59.3115 38.7498 59.3115 38.5159 59.555C38.031 60.0054 37.528 60.3798 36.9769 60.7425C36.8971 60.795 36.8174 60.8475 36.7352 60.9016C36.3334 61.1637 35.9287 61.4208 35.5213 61.6742C34.7227 62.1729 34.0025 62.663 33.3753 63.3753C32.9093 63.854 32.6969 64.0195 32.0237 64.0316C31.483 64.0223 31.1711 63.9893 30.7503 63.6253C30.6162 63.4702 30.4835 63.3138 30.3519 63.1566C29.7325 62.4287 28.9692 61.9573 28.1575 61.4662C27.9879 61.3631 27.8183 61.2599 27.6487 61.1566C27.5635 61.1047 27.4782 61.0529 27.3903 60.9995C26.715 60.5791 26.1151 60.1016 25.5314 59.5617C25.1519 59.2183 24.8923 59.0212 24.3753 59.0003C24.0479 59.0487 23.7302 59.1058 23.4066 59.1722C22.3152 59.3785 21.2388 59.4302 20.1293 59.4419C19.1566 59.4616 18.1337 59.5587 17.2503 60.0003C16.6248 60.0617 16.2072 59.9925 15.6878 59.6551C15.1705 59.2281 15.1049 58.6472 14.9861 58.0233C14.7597 57.0284 14.3102 56.1957 13.8206 55.3128C12.3753 52.6929 12.3753 52.6929 12.3753 51.6253C12.2644 51.6048 12.2644 51.6048 12.1512 51.5838C11.5779 51.4688 11.1025 51.3583 10.6253 51.0003C10.4321 50.6139 10.4636 50.3011 10.5003 49.8753C10.6878 49.5707 10.6878 49.5707 11.0003 49.3753C11.5358 49.3227 11.8871 49.3398 12.3987 49.5003C13.3072 49.7386 14.3857 49.7889 15.261 49.3978C15.9868 48.9505 16.6028 48.4486 16.8753 47.6253C16.792 47.5464 16.7087 47.4674 16.6229 47.3861C15.195 46.0001 14.0164 44.4602 13.0003 42.7503C12.9576 42.6788 12.915 42.6072 12.871 42.5334C12.3031 41.5645 11.8563 40.5639 11.4534 39.516C11.4117 39.4075 11.3699 39.2991 11.3269 39.1873C11.0737 38.5067 10.8927 37.8375 10.7503 37.1253C9.62203 37.3102 8.74035 37.6035 7.8753 38.3753C6.77881 39.9847 6.72623 41.8289 6.67718 43.703C6.64257 44.8295 6.49074 45.901 6.2503 47.0003C6.40418 47.0161 6.55806 47.0319 6.71661 47.0482C7.1137 47.0981 7.43302 47.1694 7.78936 47.3597C7.8688 47.4007 7.94824 47.4416 8.03009 47.4837C8.26719 47.6362 8.44498 47.7834 8.6253 48.0003C8.67722 48.4884 8.65015 48.8381 8.3753 49.2503C7.90146 49.4873 7.34949 49.4363 6.84893 49.3002C6.66116 49.2349 6.47414 49.1675 6.2879 49.098C5.99433 48.9983 5.7117 48.9436 5.40655 48.891C4.76349 48.7563 4.45754 48.4214 4.08624 47.891C3.85674 47.1816 4.03034 46.5727 4.28106 45.9017C4.46231 45.3702 4.51638 44.8626 4.52667 44.3031C4.52999 44.1692 4.53331 44.0353 4.53674 43.8974C4.54018 43.7561 4.54363 43.6147 4.54718 43.4691C4.58165 42.2944 4.68394 41.1846 4.93487 40.037C5.00002 39.6271 5.01401 39.3889 4.8753 39.0003C4.66842 38.7383 4.66842 38.7383 4.39874 38.4847C3.83981 37.891 3.41316 37.2556 2.98468 36.5628C2.88785 36.4067 2.88785 36.4067 2.78906 36.2474C2.66451 36.0461 2.54011 35.8447 2.41589 35.6431C1.85822 34.7413 1.31837 34.019 0.490047 33.349C0.153514 33.0351 0.022841 32.7842 -0.0416911 32.3294C-0.0529667 31.6056 0.00110257 31.1869 0.500301 30.6253C0.653168 30.4994 0.806902 30.3745 0.961239 30.2503C1.79065 29.5535 2.29114 28.5568 2.84259 27.6385C3.30655 26.8822 3.82275 26.2172 4.41992 25.5631C4.76569 25.1746 4.98107 24.9017 5.0003 24.3753C4.95243 24.0742 4.89356 23.7748 4.82843 23.4769C4.60611 22.3779 4.56989 21.2884 4.55871 20.1692C4.53877 19.1279 4.3281 18.2338 4.0003 17.2503C3.95084 16.595 4.02081 16.1824 4.3753 15.6253C4.78547 15.2446 5.179 15.1582 5.71905 15.0394C6.81676 14.7734 7.75967 14.2802 8.7503 13.7503C11.3447 12.3753 11.3447 12.3753 12.3753 12.3753C12.3937 12.2874 12.412 12.1994 12.431 12.1087C12.7856 10.5475 13.4414 9.20328 14.235 7.82856C14.627 7.14211 14.9112 6.48594 15.0545 5.70494C15.1992 4.92272 15.4418 4.55376 16.1097 4.08628C16.819 3.85679 17.4279 4.03039 18.0989 4.28111C18.6305 4.46236 19.138 4.51642 19.6976 4.52671C19.8314 4.53004 19.9653 4.53336 20.1032 4.53679C20.2446 4.54023 20.3859 4.54367 20.5316 4.54722C21.7063 4.5817 22.8161 4.68398 23.9637 4.93492C24.3748 5.00026 24.6109 5.01517 25.0003 4.87535C25.2838 4.65629 25.2838 4.65629 25.555 4.37535C26.038 3.92312 26.535 3.53967 27.0941 3.18785C27.1676 3.14143 27.2412 3.09501 27.317 3.04719C27.6962 2.81024 28.0783 2.57854 28.4617 2.34849C29.3147 1.82881 30.0084 1.29624 30.6419 0.508648C31.2407 -0.154091 32.1535 -0.17521 32.9612 0.125347ZM31.7111 2.40934C31.6461 2.48224 31.581 2.55513 31.514 2.63023C30.9315 3.22924 30.245 3.62178 29.5316 4.04722C28.0014 4.98207 28.0014 4.98207 26.6253 6.12535C26.5405 6.20511 26.4558 6.28487 26.3685 6.36705C25.6166 7.14233 25.235 8.07646 25.1956 9.1566C25.2181 9.7193 25.3661 10.1286 25.6253 10.6253C25.8128 10.5916 26.0003 10.5577 26.1878 10.5238C26.3127 10.5012 26.4376 10.4787 26.5662 10.4554C26.8755 10.3984 27.1843 10.3399 27.493 10.2796C27.5782 10.2632 27.6635 10.2467 27.7513 10.2297C27.9973 10.1821 28.2432 10.134 28.4891 10.0858C31.5086 9.55118 34.736 9.76889 37.6883 10.5687C38.014 10.6278 38.1961 10.6282 38.5003 10.5003C38.9276 9.66709 38.8425 8.69246 38.5784 7.82066C37.7954 5.89036 35.7649 4.78593 34.0446 3.79329C33.4057 3.4157 32.8884 2.97737 32.3572 2.45689C32.0878 2.21692 31.9818 2.14724 31.7111 2.40934ZM17.0003 6.25035C16.9745 6.34762 16.9488 6.44489 16.9222 6.54512C16.6102 7.64489 16.157 8.60142 15.6097 9.60191C14.9065 10.8694 14.9065 10.8694 14.5003 12.2503C14.6331 12.2958 14.7658 12.3412 14.9026 12.388C15.8803 12.7321 16.7136 13.0588 17.5003 13.7503C17.6549 13.8833 17.8097 14.0161 17.9647 14.1488C18.042 14.215 18.1193 14.2812 18.199 14.3495C18.2572 14.3993 18.3154 14.449 18.3753 14.5003C18.4936 14.4156 18.6118 14.3308 18.7337 14.2435C19.6489 13.5963 20.5742 12.9894 21.555 12.4457C21.645 12.3956 21.7349 12.3456 21.8276 12.2941C22.454 11.9529 23.0948 11.6562 23.7503 11.3753C23.7232 11.2845 23.6962 11.1936 23.6683 11.1C23.2608 9.62865 23.3386 8.36227 23.6253 6.87535C22.644 6.66607 21.6974 6.58383 20.6956 6.56285C19.7638 6.54326 18.8758 6.47898 17.9593 6.30284C17.6334 6.25162 17.3295 6.2411 17.0003 6.25035ZM45.6844 6.37144C44.7594 6.53224 43.8454 6.55153 42.9087 6.57115C42.0426 6.59588 41.2229 6.69458 40.3753 6.87535C40.3945 6.97632 40.4138 7.07729 40.4336 7.18132C40.7139 8.68558 40.6455 9.8958 40.2503 11.3753C40.3985 11.4421 40.5468 11.5088 40.6995 11.5775C42.4583 12.3819 44.1054 13.2971 45.6253 14.5003C45.7491 14.3921 45.8728 14.2838 46.0003 14.1722C46.1665 14.031 46.3332 13.8904 46.5003 13.7503C46.5784 13.6846 46.6566 13.6189 46.7371 13.5511C47.5675 12.8881 48.4951 12.5678 49.5003 12.2503C49.2156 11.0886 48.6782 10.1093 48.1036 9.06797C47.6116 8.15367 47.2697 7.25299 47.0003 6.25035C46.5435 6.23751 46.1326 6.2853 45.6844 6.37144ZM27.7503 12.1253C27.6144 12.1555 27.6144 12.1555 27.4758 12.1863C23.9581 12.9926 20.8583 14.7786 18.2503 17.2503C18.1889 17.307 18.1276 17.3636 18.0644 17.4219C15.3115 19.9716 13.6518 23.1725 12.6253 26.7503C12.5886 26.8781 12.5886 26.8781 12.5512 27.0083C11.2133 31.8685 12.2259 37.3254 14.6683 41.6566C17.3862 46.271 21.8311 49.6607 27.0038 51.0514C32.3621 52.3822 37.8033 51.4553 42.532 48.6683C43.8582 47.857 45.0036 46.8187 46.1253 45.7503C46.2151 45.6672 46.3048 45.5841 46.3973 45.4984C50.0054 42.0566 51.8348 36.8942 52.0003 32.0003C52.0264 29.328 51.466 26.8975 50.6253 24.3753C50.5667 23.8989 50.523 23.5103 50.8206 23.1175C51.2617 22.9479 51.5488 23.0022 52.0003 23.1253C52.4567 23.5677 52.5809 24.198 52.7581 24.7894C52.7901 24.8931 52.8221 24.9968 52.855 25.1036C53.0357 25.6922 53.2082 26.2828 53.3753 26.8753C54.4441 26.8259 55.3546 26.521 56.1253 25.7503C57.2535 24.2365 57.3762 22.4606 57.43 20.6332C57.4715 19.4085 57.5644 18.2116 57.7503 17.0003C57.6512 16.9741 57.5521 16.9478 57.45 16.9208C56.1846 16.5446 55.0638 15.9791 53.9095 15.3406C52.4658 14.5565 51.0312 14.0267 49.3753 14.2503C48.483 14.5258 47.8558 15.0547 47.2503 15.7503C47.4383 16.2006 47.6992 16.4598 48.055 16.7894C48.5891 17.3134 49.0539 17.8609 49.5003 18.4613C49.5881 18.577 49.5881 18.577 49.6778 18.6951C50.0454 19.2005 50.2558 19.6342 50.3753 20.2503C50.2503 20.6097 50.2503 20.6097 50.0003 20.8753C49.569 21.0254 49.3571 21.0517 48.9427 20.8524C48.5879 20.5986 48.3996 20.3535 48.1566 19.9925C47.7268 19.3784 47.2616 18.8267 46.7532 18.2767C46.5522 18.057 46.3641 17.8355 46.18 17.6019C43.1861 14.1475 38.3227 12.223 33.8753 11.7503C33.2628 11.7157 32.6528 11.7085 32.0394 11.7113C31.8756 11.7119 31.7119 11.7125 31.5431 11.7131C30.2467 11.7287 29.0135 11.8353 27.7503 12.1253ZM9.2503 15.7503C8.275 16.2613 7.32736 16.7398 6.2503 17.0003C6.2669 17.1175 6.28349 17.2346 6.30059 17.3553C6.43047 18.3312 6.51243 19.2941 6.53704 20.2787C6.58685 23.2044 6.58685 23.2044 7.8753 25.7503C8.7282 26.4907 9.4882 26.8895 10.6253 26.8753C10.6484 26.792 10.6715 26.7086 10.6953 26.6226C11.4815 23.8269 12.5054 21.2166 14.2503 18.8753C14.3064 18.7995 14.3625 18.7237 14.4203 18.6455C15.131 17.6928 15.8793 16.8133 16.7503 16.0003C16.4273 15.2543 15.7856 14.8022 15.1097 14.3832C13.1036 13.6615 10.9778 14.8391 9.2503 15.7503ZM5.81427 26.9315C5.19965 27.6856 4.69791 28.4809 4.19561 29.3128C3.62372 30.2601 3.05322 31.1056 2.2503 31.8753C2.41857 32.2486 2.6086 32.5102 2.89093 32.805C3.3781 33.3486 3.73678 33.9434 4.11065 34.5682C4.67559 35.504 5.30942 36.4039 6.0003 37.2503C6.38967 37.1525 6.38967 37.1525 6.64093 36.8519C7.67059 35.7979 8.95363 35.3913 10.3753 35.1253C10.3549 34.9651 10.3346 34.8049 10.3136 34.6398C10.2444 34.0144 10.2343 33.398 10.2381 32.7694C10.2383 32.6572 10.2384 32.5451 10.2386 32.4295C10.2393 32.0755 10.2409 31.7215 10.2425 31.3675C10.2431 31.1258 10.2437 30.884 10.2442 30.6422C10.2456 30.0532 10.2477 29.4643 10.2503 28.8753C10.0725 28.8261 10.0725 28.8261 9.89111 28.7759C9.73475 28.732 9.57839 28.6881 9.41729 28.6429C9.26267 28.5998 9.10804 28.5566 8.94873 28.5122C7.90397 28.1934 7.18206 27.7592 6.44952 26.9471C6.18415 26.685 6.08412 26.6687 5.81427 26.9315ZM57.5696 26.9198C57.5004 26.9954 57.4311 27.0709 57.3597 27.1488C56.3291 28.2028 55.1419 28.5288 53.7503 28.8753C53.751 29.0247 53.7516 29.1741 53.7523 29.328C53.7546 29.8864 53.756 30.4448 53.7572 31.0032C53.7578 31.2441 53.7586 31.485 53.7597 31.7258C53.7613 32.0737 53.762 32.4215 53.7625 32.7694C53.7632 32.8757 53.7638 32.982 53.7645 33.0915C53.7645 33.779 53.712 34.4432 53.6253 35.1253C53.7552 35.1527 53.885 35.1801 54.0189 35.2084C55.1454 35.4594 56.2455 35.7275 57.0799 36.5858C57.2408 36.7793 57.2408 36.7793 57.5003 36.7503C57.5828 36.9153 57.6653 37.0803 57.7503 37.2503C58.272 37.0765 58.4734 36.7047 58.7816 36.2738C58.8428 36.1893 58.9041 36.1049 58.9672 36.0179C59.4111 35.3974 59.7989 34.7563 60.1727 34.0912C60.6088 33.3577 61.1409 32.7201 61.7503 32.1253C61.5796 31.7459 61.3822 31.477 61.0975 31.1752C60.588 30.6055 60.209 29.9842 59.8206 29.3285C59.0173 27.9602 59.0173 27.9602 58.0003 26.7503C57.7394 26.7218 57.7394 26.7218 57.5696 26.9198ZM53.2503 37.1253C53.2259 37.2 53.2015 37.2747 53.1764 37.3516C51.8615 41.3387 50.006 44.6692 47.0003 47.6253C47.2217 48.4372 47.882 49.0048 48.5862 49.4222C49.655 49.9465 50.8452 49.8749 51.9691 49.5394C53.0185 49.1619 53.9918 48.6292 54.9665 48.0906C55.8682 47.6003 56.7594 47.2672 57.7503 47.0003C57.7324 46.8789 57.7145 46.7575 57.6961 46.6324C57.5423 45.566 57.4764 44.5148 57.4456 43.4378C57.361 40.5556 57.361 40.5556 55.9866 38.1019C55.119 37.3839 54.3707 37.1025 53.2503 37.1253ZM18.5003 49.0003C18.4343 49.0956 18.4343 49.0956 18.367 49.1927C17.361 50.5954 16.1353 51.2536 14.5003 51.7503C14.785 52.9121 15.3224 53.8914 15.897 54.9327C16.389 55.847 16.7309 56.7477 17.0003 57.7503C17.1218 57.7325 17.2432 57.7146 17.3684 57.6961C18.5728 57.5225 19.767 57.4565 20.9834 57.4291C21.8822 57.4038 22.7423 57.2943 23.6253 57.1253C23.6061 57.0244 23.5869 56.9234 23.567 56.8193C23.3212 55.5005 23.2898 54.4004 23.6561 53.1034C23.7537 52.7376 23.8184 52.3745 23.8753 52.0003C23.798 51.9652 23.7208 51.9301 23.6411 51.894C22.1923 51.2311 20.797 50.5609 19.4954 49.6371C19.1711 49.4077 18.8437 49.1995 18.5003 49.0003ZM45.3753 49.0003C45.2823 49.0732 45.1894 49.146 45.0936 49.2211C43.5895 50.3626 41.8878 51.3184 40.1253 52.0003C40.2013 52.5 40.3084 52.9753 40.4456 53.4613C40.7639 54.7266 40.6167 55.8577 40.3753 57.1253C41.3906 57.3196 42.3741 57.4146 43.4066 57.4378C44.6203 57.4747 45.7994 57.5734 47.0003 57.7503C47.0261 57.6531 47.0518 57.5558 47.0784 57.4556C47.3904 56.3558 47.8436 55.3993 48.3909 54.3988C49.0941 53.1313 49.0941 53.1313 49.5003 51.7503C49.369 51.7064 49.2377 51.6624 49.1024 51.617C47.7254 51.1395 46.7033 50.5921 45.7742 49.4354C45.6164 49.2324 45.6164 49.2324 45.3753 49.0003ZM25.6566 53.0707C25.1905 53.9794 25.098 54.9508 25.3231 55.9476C26.0152 57.9577 28.1519 59.185 29.9095 60.1727C30.643 60.6088 31.2805 61.141 31.8753 61.7503C32.2486 61.5821 32.5102 61.3921 32.805 61.1097C33.3493 60.6218 33.9455 60.263 34.5706 59.8876C36.2241 58.8884 37.828 57.816 38.6644 56.0238C38.9026 54.9192 38.7643 54.0035 38.2503 53.0003C38.1884 52.9385 38.1884 52.9385 38.1253 52.8753C37.3533 52.8825 36.5853 53.0489 35.8284 53.1878C32.9177 53.714 29.8748 53.6564 26.9979 52.9486C26.2795 52.7898 26.2795 52.7898 25.6566 53.0707Z" fill="#0A0A0A"/>
<path d="M36.0017 15.0011C36.0857 15.0212 36.1697 15.0413 36.2562 15.0621C38.9021 15.7046 41.1751 17.0118 43.2517 18.7511C43.3405 18.8244 43.4293 18.8977 43.5208 18.9733C45.1058 20.3149 46.2934 22.0476 47.2517 23.8761C47.2907 23.95 47.3297 24.024 47.3699 24.1002C49.4132 28.036 49.632 32.7529 48.328 36.9577C46.9057 41.2456 43.8102 44.9617 39.7577 47.0049C35.4176 49.0591 30.5386 49.3668 26.0017 47.7511C21.7446 46.1825 18.3146 42.9061 16.392 38.8195C15.6952 37.2382 15.2449 35.5842 15.0017 33.8761C14.9854 33.7656 14.9692 33.655 14.9524 33.5411C14.4332 29.3188 15.6707 24.8157 18.2463 21.4381C18.8743 20.6709 19.5414 19.9428 20.2517 19.2511C20.305 19.1907 20.3584 19.1302 20.4133 19.068C24.099 15.0412 30.8815 13.6959 36.0017 15.0011ZM22.947 19.5402C22.8767 19.5927 22.8065 19.6453 22.734 19.6995C22.5186 19.8642 22.5186 19.8642 22.2517 20.1261C22.2106 20.5296 22.2106 20.5296 22.5501 20.842C22.6866 20.9785 22.8242 21.114 22.9626 21.2487C23.0348 21.3203 23.1069 21.3919 23.1812 21.4656C23.4122 21.6945 23.6444 21.922 23.8767 22.1495C24.0334 22.3043 24.1899 22.4592 24.3464 22.6141C24.7306 22.9941 25.1158 23.3729 25.5017 23.7511C25.581 23.7234 25.6602 23.6957 25.7419 23.6671C26.4357 23.4393 26.9612 23.3538 27.697 23.4308C28.3806 23.4533 28.3806 23.4533 28.9529 23.1212C29.2306 22.7989 29.2306 22.7989 29.4495 22.4606C29.7517 22.1261 29.7517 22.1261 31.0017 21.5011C31.0017 19.8923 31.0017 18.2836 31.0017 16.6261C28.1292 16.6261 25.2229 17.8246 22.947 19.5402ZM33.0017 16.6261C33.0017 18.2348 33.0017 19.8436 33.0017 21.5011C33.4142 21.7073 33.8267 21.9136 34.2517 22.1261C34.7034 22.5354 35.042 22.8741 35.3767 23.3761C35.831 23.4034 36.2739 23.375 36.7283 23.3527C37.2517 23.3761 37.2517 23.3761 38.5017 23.7511C39.6155 22.6373 40.7292 21.5236 41.8767 20.3761C39.7387 18.2381 36.8554 17.0242 33.8767 16.6261C33.588 16.6261 33.2992 16.6261 33.0017 16.6261ZM20.4583 21.9127C18.3634 24.2271 17.0017 27.506 17.0017 30.6261C18.6105 30.6261 20.2192 30.6261 21.8767 30.6261C22.083 30.2136 22.2892 29.8011 22.5017 29.3761C22.7635 28.8525 22.7715 28.838 23.2517 28.6261C23.5328 28.5012 23.5328 28.5012 23.7517 28.2511C23.7791 27.917 23.7819 27.629 23.7595 27.298C23.7213 26.7019 23.7401 26.2242 23.9404 25.6552C23.975 25.5556 24.0097 25.456 24.0453 25.3534C24.0856 25.2409 24.0856 25.2409 24.1267 25.1261C23.6487 24.645 23.1704 24.1644 22.6916 23.6841C22.5287 23.5206 22.3658 23.3569 22.2031 23.1931C21.9698 22.9582 21.736 22.7238 21.5022 22.4894C21.429 22.4156 21.3558 22.3417 21.2804 22.2657C21.1066 22.0918 20.9295 21.9211 20.7517 21.7511C20.6028 21.7367 20.6028 21.7367 20.4583 21.9127ZM43.2517 21.7511C42.138 22.8648 41.0242 23.9786 39.8767 25.1261C40.0005 25.4973 40.1242 25.8686 40.2517 26.2511C40.2603 26.6898 40.2449 27.1049 40.2041 27.5402C40.1866 27.8947 40.184 28.1666 40.4116 28.4506C40.7826 28.7795 40.7826 28.7795 41.2517 28.8761C41.5434 29.4594 41.835 30.0428 42.1267 30.6261C43.7355 30.6261 45.3442 30.6261 47.0017 30.6261C47.0017 29.7268 46.9505 29.0867 46.7439 28.2433C46.7163 28.1292 46.6886 28.0152 46.6601 27.8976C46.3878 26.8304 45.991 25.8602 45.5017 24.8761C45.4427 24.7535 45.3838 24.6309 45.323 24.5045C44.8916 23.6576 44.134 22.1922 43.2517 21.7511ZM30.6267 23.8761C30.3312 24.3212 30.1525 24.8086 29.9626 25.3058C29.7517 25.6261 29.7517 25.6261 29.3533 25.7667C28.8233 25.7493 28.5748 25.619 28.1238 25.3683C27.7335 25.1832 27.4245 25.1963 27.0017 25.2511C26.3345 25.4997 25.945 25.8644 25.6267 26.5011C25.5576 27.2522 25.587 27.7368 26.0017 28.3761C26.0493 28.9277 26.0622 29.1604 25.7517 29.6261C25.5032 29.7228 25.5032 29.7228 25.2126 29.798C24.506 30.0138 24.158 30.3917 23.7517 31.0011C23.5843 31.615 23.6259 32.041 23.8767 32.6261C24.3604 33.2002 24.9623 33.505 25.6492 33.7809C25.8767 33.8761 25.8767 33.8761 26.0017 34.0011C26.062 34.9056 26.062 34.9056 25.8142 35.298C25.5212 35.8108 25.5324 36.3003 25.6267 36.8761C25.8558 37.4229 26.1618 37.6968 26.6658 38.0011C27.242 38.1574 27.5449 38.1325 28.1267 38.0011C28.3355 37.8768 28.5439 37.7519 28.7517 37.6261C29.1519 37.5771 29.4045 37.5844 29.7751 37.7433C30.0203 38.0222 30.0674 38.1881 30.1658 38.5402C30.3613 39.181 30.6596 39.5555 31.2517 39.8761C31.8066 40.0469 32.2314 40.0486 32.783 39.8683C33.3821 39.4462 33.7161 39.0265 33.9548 38.3448C34.1267 37.8761 34.1267 37.8761 34.5017 37.6261C34.9992 37.6548 35.3546 37.7407 35.8064 37.9542C36.3468 38.1628 36.7016 38.1655 37.2517 38.0011C37.7933 37.715 38.1512 37.4523 38.3767 36.8761C38.467 36.1163 38.4112 35.6495 38.0017 35.0011C37.939 34.6378 37.9593 34.3769 38.0017 34.0011C38.219 33.7386 38.4104 33.6554 38.7312 33.5524C39.4394 33.3231 39.8557 33.0161 40.2517 32.3761C40.4522 31.7746 40.3601 31.3347 40.1267 30.7511C39.6979 30.2121 39.2635 29.9942 38.6267 29.7511C38.1437 29.535 38.1437 29.535 38.0017 29.2511C37.964 28.7614 37.9597 28.4566 38.1892 28.0167C38.4381 27.4982 38.469 27.067 38.3767 26.5011C38.045 25.8614 37.6853 25.479 37.0017 25.2511C36.4326 25.1942 36.0613 25.262 35.5564 25.5089C35.2006 25.6759 34.9861 25.7526 34.5876 25.7902C34.1194 25.5615 34.0502 25.268 33.8669 24.7955C33.6496 24.2401 33.4021 23.8536 32.908 23.5167C32.0661 23.2253 31.2984 23.2626 30.6267 23.8761ZM17.0017 32.6261C16.9808 33.5952 16.9808 33.5952 17.1077 34.5021C17.1313 34.6062 17.155 34.7104 17.1794 34.8177C17.2058 34.9246 17.2323 35.0316 17.2595 35.1417C17.2873 35.2555 17.3152 35.3693 17.3438 35.4865C17.9124 37.6978 19.0074 39.7763 20.5017 41.5011C21.2328 41.1988 21.7768 40.5564 22.3349 40.0123C22.4773 39.8747 22.6211 39.7386 22.7663 39.604C23.6074 38.8925 23.6074 38.8925 24.0354 37.9417C23.9721 37.6581 23.9721 37.6581 23.8563 37.3911C23.7382 37.0918 23.7352 36.8883 23.7537 36.569C23.7579 36.479 23.762 36.389 23.7664 36.2963C23.7776 36.1125 23.7907 35.9289 23.8054 35.7455C23.8254 35.4402 23.8254 35.4402 23.7517 35.0011C23.4086 34.7005 23.4086 34.7005 23.0017 34.5011C22.7776 34.296 22.7776 34.296 22.6033 34.0948C22.5448 34.0297 22.4863 33.9646 22.426 33.8976C22.2517 33.6261 22.2517 33.6261 21.8767 32.6261C20.268 32.6261 18.6592 32.6261 17.0017 32.6261ZM42.1267 32.6261C41.9617 32.9973 41.7967 33.3686 41.6267 33.7511C41.4041 34.0709 41.4041 34.0709 41.1892 34.3058C41.1183 34.3855 41.0474 34.4653 40.9744 34.5475C40.7459 34.7564 40.5342 34.8778 40.2517 35.0011C40.2546 35.1414 40.2575 35.2818 40.2605 35.4264C40.2628 35.6154 40.2651 35.8043 40.2673 35.9933C40.2705 36.1312 40.2705 36.1312 40.2737 36.2718C40.2781 36.7791 40.2383 37.1891 40.0823 37.6732C39.9867 38.0842 39.9867 38.0842 40.1056 38.4756C40.2861 38.6947 40.4774 38.8817 40.6882 39.0719C40.7607 39.1424 40.8332 39.213 40.9079 39.2857C41.1393 39.5094 41.3749 39.7278 41.6111 39.9464C41.7691 40.0975 41.9268 40.249 42.0842 40.4008C42.4699 40.7713 42.8596 41.1373 43.2517 41.5011C44.6816 40.8366 45.7645 38.1955 46.2896 36.7635C46.465 36.235 46.6031 35.6978 46.7361 35.1573C46.763 35.0495 46.79 34.9416 46.8177 34.8304C46.842 34.725 46.8663 34.6195 46.8914 34.5109C46.9128 34.4186 46.9342 34.3263 46.9562 34.2312C47.0242 33.7003 47.0017 33.1613 47.0017 32.6261C45.393 32.6261 43.7842 32.6261 42.1267 32.6261ZM25.0074 39.9102C24.8713 40.0465 24.7371 40.1849 24.6047 40.3248C24.4979 40.4333 24.4979 40.4333 24.3888 40.544C24.1616 40.7754 23.9371 41.0092 23.7126 41.2433C23.5591 41.4006 23.4054 41.5577 23.2515 41.7147C22.8745 42.0999 22.5 42.4874 22.1267 42.8761C22.3697 43.4291 22.7549 43.6933 23.2439 44.0245C23.3762 44.1144 23.3762 44.1144 23.5113 44.206C25.6853 45.6392 28.3636 46.7511 31.0017 46.7511C31.0017 45.1423 31.0017 43.5336 31.0017 41.8761C30.548 41.6286 30.0942 41.3811 29.6267 41.1261C29.307 40.7916 29.0301 40.4864 28.7517 40.1261C28.6692 40.0436 28.5867 39.9611 28.5017 39.8761C28.2048 39.8833 28.2048 39.8833 27.8689 39.9386C27.0975 40.0255 26.4423 39.9249 25.7213 39.6405C25.3447 39.5878 25.3447 39.5878 25.0074 39.9102ZM37.9578 39.7457C37.1421 40.0669 36.2258 40.0459 35.3767 39.8761C35.3356 39.9396 35.2945 40.0031 35.2522 40.0685C34.6517 40.9375 33.9373 41.4083 33.0017 41.8761C33.0017 43.4848 33.0017 45.0936 33.0017 46.7511C34.3516 46.6392 34.3516 46.6392 35.6501 46.3605C35.7507 46.3331 35.8513 46.3058 35.9549 46.2776C38.2038 45.642 40.0726 44.6105 41.8767 43.1261C41.6762 42.6302 41.3313 42.2924 40.9592 41.921C40.8939 41.8551 40.8285 41.7893 40.7612 41.7214C40.6234 41.5828 40.4852 41.4446 40.3467 41.3066C40.1346 41.0949 39.9242 40.8816 39.7139 40.6681C39.5796 40.5335 39.4453 40.3991 39.3108 40.2648C39.2479 40.2007 39.185 40.1367 39.1202 40.0707C38.71 39.6659 38.5211 39.5165 37.9578 39.7457Z" fill="#0A0A0A"/>
<path d="M34.4077 28.2194C35.3936 29.0303 36.0371 29.9042 36.1743 31.2037C36.2138 32.5092 36.006 33.4446 35.189 34.4694C34.3112 35.3862 33.2412 35.8455 31.978 35.8883C30.7224 35.843 29.7079 35.3896 28.8374 34.4772C27.9964 33.4548 27.788 32.5215 27.8291 31.2033C27.9465 30.0817 28.4259 29.2579 29.2515 28.5006C30.7511 27.2869 32.7806 27.0624 34.4077 28.2194ZM30.1514 30.548C29.7469 31.0948 29.8099 31.7214 29.8765 32.3756C30.1999 33.0345 30.6554 33.4237 31.2827 33.7897C31.9617 33.9594 32.5516 33.8562 33.1655 33.5319C33.6392 33.1353 34.0927 32.7146 34.1563 32.0768C34.1761 31.3143 34.1607 30.841 33.6265 30.2506C33.0384 29.6871 32.5902 29.458 31.7578 29.4747C31.0092 29.5503 30.6017 29.9984 30.1514 30.548Z" fill="#0A0A0A"/>
</g>
<defs>
<clipPath id="clip0_1950_35349">
<rect width="64" height="64" fill="white"/>
</clipPath>
</defs>
</svg>
