<svg width="21" height="21" viewBox="0 0 21 21" fill="none" xmlns="http://www.w3.org/2000/svg">
<path d="M10.3333 18.6667C9.18056 18.6667 8.09722 18.4478 7.08334 18.01C6.06945 17.5722 5.1875 16.9786 4.4375 16.2292C3.6875 15.4797 3.09389 14.5978 2.65667 13.5833C2.21945 12.5689 2.00056 11.4856 2 10.3333C1.99945 9.18111 2.21833 8.09778 2.65667 7.08333C3.095 6.06889 3.68861 5.18695 4.4375 4.4375C5.18639 3.68806 6.06834 3.09444 7.08334 2.65667C8.09834 2.21889 9.18167 2 10.3333 2C11.485 2 12.5683 2.21889 13.5833 2.65667C14.5983 3.09444 15.4803 3.68806 16.2292 4.4375C16.9781 5.18695 17.5719 6.06889 18.0108 7.08333C18.4497 8.09778 18.6683 9.18111 18.6667 10.3333C18.665 11.4856 18.4461 12.5689 18.01 13.5833C17.5739 14.5978 16.9803 15.4797 16.2292 16.2292C15.4781 16.9786 14.5961 17.5725 13.5833 18.0108C12.5706 18.4492 11.4872 18.6678 10.3333 18.6667ZM10.3333 14.9167C10.9583 14.2917 11.5139 13.6458 12 12.9792C12.4167 12.4097 12.7986 11.7847 13.1458 11.1042C13.4931 10.4236 13.6667 9.75 13.6667 9.08334C13.6667 8.16667 13.3403 7.38195 12.6875 6.72917C12.0347 6.07639 11.25 5.75 10.3333 5.75C9.41667 5.75 8.63195 6.07639 7.97917 6.72917C7.32639 7.38195 7 8.16667 7 9.08334C7 9.75 7.17361 10.4236 7.52084 11.1042C7.86806 11.7847 8.25 12.4097 8.66667 12.9792C9.15278 13.6458 9.70834 14.2917 10.3333 14.9167ZM10.3333 10.3333C9.98611 10.3333 9.69111 10.2119 9.44833 9.96917C9.20556 9.72639 9.08389 9.43111 9.08333 9.08334C9.08278 8.73556 9.20445 8.44056 9.44833 8.19833C9.69222 7.95611 9.98722 7.83445 10.3333 7.83333C10.6794 7.83222 10.9747 7.95389 11.2192 8.19833C11.4636 8.44278 11.585 8.73778 11.5833 9.08334C11.5817 9.42889 11.4603 9.72417 11.2192 9.96917C10.9781 10.2142 10.6828 10.3356 10.3333 10.3333Z" fill="white"/>
</svg>
