<svg width="24" height="26" viewBox="0 0 24 26" fill="none" xmlns="http://www.w3.org/2000/svg">
<path d="M17.7802 12.8363C17.7102 19.0826 21.041 18.5285 22.563 17.5237C23.3005 18.5514 22.4295 20.6256 21.6992 21.4703C20.969 22.315 18.4409 24.0986 15.8114 23.5218C13.3999 22.9929 12.716 20.9547 12.1825 18.9879C11.7557 17.4145 11.8095 14.3958 11.7188 12.865C11.61 11.028 11.2104 7.20216 9.21542 7.31396C7.22046 7.42576 6.10297 9.85457 6.074 11.1146L6.07801 5.83542C7.05952 4.1509 9.7766 1.73672 12.6381 1.7813C15.4996 1.82587 16.4745 3.53471 16.6363 3.99914C16.6363 3.99914 17.8502 6.58996 17.7802 12.8363Z" fill="#635BFF"/>
<rect y="1.4043" width="6.08196" height="22.4717" rx="3.04098" fill="#635BFF"/>
</svg>
