<svg width="18" height="18" viewBox="0 0 18 18" fill="none" xmlns="http://www.w3.org/2000/svg">
<path d="M18 6.24121C17.801 6.4402 17.608 6.62111 17.4211 6.78392C17.2342 6.94673 17.0382 7.08844 16.8332 7.20905C16.6281 7.32965 16.408 7.41709 16.1729 7.47136C15.9377 7.52563 15.6663 7.55879 15.3588 7.57085C15.1538 7.57085 14.9578 7.55276 14.7709 7.51658L11.3427 10.9447C11.4211 11.1739 11.4784 11.409 11.5146 11.6503C11.5508 11.8915 11.5688 12.1327 11.5688 12.3739C11.5688 12.7658 11.5296 13.1216 11.4513 13.4412C11.3729 13.7608 11.2613 14.0623 11.1166 14.3457C10.9719 14.6291 10.791 14.8975 10.5739 15.1508C10.3568 15.404 10.1186 15.6663 9.8593 15.9377L6.36784 12.4462L1.23015 17.593L0 18L0.407035 16.7698L5.55377 11.6322L2.06231 8.1407L2.46935 7.73367C2.89146 7.31156 3.37387 6.98895 3.91658 6.76583C4.4593 6.54271 5.03216 6.43116 5.63518 6.43116C6.12965 6.43116 6.60302 6.50653 7.05528 6.65729L10.4834 3.22915C10.4472 3.04221 10.4291 2.84623 10.4291 2.64121C10.4291 2.34573 10.4593 2.0804 10.5196 1.84523C10.5799 1.61005 10.6704 1.38693 10.791 1.17588C10.9116 0.964824 11.0503 0.768844 11.207 0.58794C11.3638 0.407035 11.5477 0.211055 11.7588 0L18 6.24121ZM15.3588 6.41307C15.6905 6.41307 16.004 6.33467 16.2995 6.17789L11.8221 1.7005C11.6653 1.99598 11.5869 2.30955 11.5869 2.64121C11.5869 2.81005 11.605 2.96683 11.6412 3.11156C11.6774 3.25628 11.7226 3.41005 11.7769 3.57286L7.32663 8.01407C7.17588 7.95377 7.03417 7.89648 6.90151 7.84221C6.76884 7.78794 6.63618 7.74271 6.50352 7.70653C6.37085 7.67035 6.23518 7.64322 6.09648 7.62513C5.95779 7.60704 5.80402 7.59497 5.63518 7.58894C5.29146 7.58894 4.9598 7.63719 4.6402 7.73367C4.3206 7.83015 4.0191 7.97789 3.73568 8.17688L9.82312 14.2643C10.0161 13.9869 10.1638 13.6884 10.2663 13.3688C10.3688 13.0492 10.4201 12.7176 10.4201 12.3739C10.4201 12.2111 10.4111 12.0603 10.393 11.9216C10.3749 11.7829 10.3447 11.6442 10.3025 11.5055C10.2603 11.3668 10.2121 11.2312 10.1578 11.0985C10.1035 10.9658 10.0462 10.8241 9.98593 10.6734L14.4271 6.22312C14.5839 6.27136 14.7347 6.31357 14.8794 6.34975C15.0241 6.38593 15.1839 6.40704 15.3588 6.41307Z" fill="#0A0A0A"/>
</svg>
