<svg width="23" height="18" viewBox="0 0 23 18" fill="none" xmlns="http://www.w3.org/2000/svg">
<path d="M11 0.750496V17.2505C11.0001 17.3959 10.9579 17.5382 10.8786 17.6601C10.7993 17.7819 10.6863 17.8781 10.5533 17.9369C10.4204 17.9957 10.2732 18.0146 10.1296 17.9913C9.98613 17.9679 9.8525 17.9034 9.745 17.8055L4.46 13.0005H1.75C1.28587 13.0005 0.840752 12.8161 0.512563 12.4879C0.184374 12.1597 0 11.7146 0 11.2505V6.7505C0 5.7845 0.784 5.0005 1.75 5.0005H4.46L9.745 0.195496C9.8525 0.0975954 9.98613 0.0330518 10.1296 0.00971994C10.2732 -0.013612 10.4204 0.00527387 10.5533 0.0640794C10.6863 0.122885 10.7993 0.219074 10.8786 0.340942C10.9579 0.462809 11.0001 0.605099 11 0.750496ZM5.255 6.3055C5.11681 6.4311 4.93674 6.50063 4.75 6.5005H1.75C1.6837 6.5005 1.62011 6.52684 1.57322 6.57372C1.52634 6.6206 1.5 6.68419 1.5 6.7505V11.2505C1.5 11.3885 1.612 11.5005 1.75 11.5005H4.75C4.937 11.5005 5.117 11.5695 5.255 11.6955L9.5 15.5555V2.4455L5.255 6.3055ZM15.28 5.2205C15.2113 5.14681 15.1285 5.08771 15.0365 5.04672C14.9445 5.00572 14.8452 4.98368 14.7445 4.9819C14.6438 4.98013 14.5438 4.99865 14.4504 5.03637C14.357 5.07409 14.2722 5.13024 14.201 5.20146C14.1297 5.27268 14.0736 5.35751 14.0359 5.4509C13.9982 5.54429 13.9796 5.64432 13.9814 5.74502C13.9832 5.84572 14.0052 5.94503 14.0462 6.03703C14.0872 6.12903 14.1463 6.21183 14.22 6.2805L16.94 9.0005L14.22 11.7205C14.1463 11.7892 14.0872 11.872 14.0462 11.964C14.0052 12.056 13.9832 12.1553 13.9814 12.256C13.9796 12.3567 13.9982 12.4567 14.0359 12.5501C14.0736 12.6435 14.1297 12.7283 14.201 12.7995C14.2722 12.8708 14.357 12.9269 14.4504 12.9646C14.5438 13.0023 14.6438 13.0209 14.7445 13.0191C14.8452 13.0173 14.9445 12.9953 15.0365 12.9543C15.1285 12.9133 15.2113 12.8542 15.28 12.7805L18 10.0605L20.72 12.7805C20.7887 12.8542 20.8715 12.9133 20.9635 12.9543C21.0555 12.9953 21.1548 13.0173 21.2555 13.0191C21.3562 13.0209 21.4562 13.0023 21.5496 12.9646C21.643 12.9269 21.7278 12.8708 21.799 12.7995C21.8703 12.7283 21.9264 12.6435 21.9641 12.5501C22.0018 12.4567 22.0204 12.3567 22.0186 12.256C22.0168 12.1553 21.9948 12.056 21.9538 11.964C21.9128 11.872 21.8537 11.7892 21.78 11.7205L19.06 9.0005L21.78 6.2805C21.9125 6.13832 21.9846 5.95028 21.9812 5.75597C21.9777 5.56167 21.899 5.37629 21.7616 5.23887C21.6242 5.10146 21.4388 5.02275 21.2445 5.01932C21.0502 5.01589 20.8622 5.08802 20.72 5.2205L18 7.9405L15.28 5.2205Z" fill="#0A0A0A"/>
</svg>
