<svg width="24" height="24" viewBox="0 0 24 24" fill="none" xmlns="http://www.w3.org/2000/svg">
<path d="M9.7019 11.2981C10.3114 11.9076 11.138 12.25 12 12.25C12.4268 12.25 12.8494 12.1659 13.2437 12.0026C13.638 11.8393 13.9963 11.5999 14.2981 11.2981C14.5999 10.9963 14.8393 10.638 15.0026 10.2437C15.1659 9.84941 15.25 9.4268 15.25 9C15.25 8.13805 14.9076 7.3114 14.2981 6.7019C13.6886 6.09241 12.862 5.75 12 5.75C11.138 5.75 10.3114 6.09241 9.7019 6.7019C9.09241 7.3114 8.75 8.13805 8.75 9C8.75 9.86195 9.09241 10.6886 9.7019 11.2981ZM12 20.8532C11.8524 20.6779 11.68 20.4703 11.4886 20.2344C10.842 19.4377 9.98112 18.323 9.12172 17.0493C8.26088 15.7734 7.4108 14.3515 6.7782 12.9395C6.1412 11.5176 5.75 10.1607 5.75 9C5.75 7.3424 6.40848 5.75268 7.58058 4.58058C8.75268 3.40848 10.3424 2.75 12 2.75C13.6576 2.75 15.2473 3.40848 16.4194 4.58058C17.5915 5.75268 18.25 7.3424 18.25 9C18.25 10.1607 17.8588 11.5176 17.2218 12.9395C16.5892 14.3515 15.7391 15.7734 14.8783 17.0493C14.0189 18.323 13.158 19.4377 12.5114 20.2344C12.32 20.4703 12.1476 20.6779 12 20.8532Z" stroke="#0A0A0A" stroke-width="1.5"/>
</svg>
