<svg width="24" height="24" viewBox="0 0 24 24" fill="none" xmlns="http://www.w3.org/2000/svg">
<path d="M10.5 4.49922C10.5 3.624 10.1523 2.78464 9.53345 2.16577C8.91458 1.5469 8.07521 1.19922 7.2 1.19922C6.32478 1.19922 5.48542 1.5469 4.86655 2.16577C4.24768 2.78464 3.9 3.624 3.9 4.49922C3.9 5.37443 4.24768 6.2138 4.86655 6.83267C5.48542 7.45154 6.32478 7.79922 7.2 7.79922C8.07521 7.79922 8.91458 7.45154 9.53345 6.83267C10.1523 6.2138 10.5 5.37443 10.5 4.49922ZM5.1 4.49922C5.1 4.22344 5.15432 3.95037 5.25985 3.69558C5.36539 3.4408 5.52007 3.2093 5.71508 3.01429C5.91008 2.81929 6.14158 2.66461 6.39636 2.55907C6.65115 2.45354 6.92422 2.39922 7.2 2.39922C7.47578 2.39922 7.74885 2.45354 8.00363 2.55907C8.25842 2.66461 8.48992 2.81929 8.68492 3.01429C8.87993 3.2093 9.03461 3.4408 9.14015 3.69558C9.24568 3.95037 9.3 4.22344 9.3 4.49922C9.3 5.05617 9.07875 5.59032 8.68492 5.98414C8.2911 6.37797 7.75695 6.59922 7.2 6.59922C6.64304 6.59922 6.1089 6.37797 5.71508 5.98414C5.32125 5.59032 5.1 5.05617 5.1 4.49922ZM3 8.99922H8.0196C7.8228 9.37122 7.6764 9.77442 7.59 10.1992H3C2.84087 10.1992 2.68826 10.2624 2.57573 10.375C2.46321 10.4875 2.4 10.6401 2.4 10.7992V11.3992C2.4 12.9112 3.7188 14.536 6.1152 14.9152C5.7288 15.1792 5.4072 15.5308 5.178 15.94C2.646 15.2548 1.2 13.3036 1.2 11.3992V10.7992C1.2 10.3218 1.38964 9.86399 1.72721 9.52643C2.06477 9.18886 2.52261 8.99922 3 8.99922ZM9.4548 8.99922C10.0596 8.26722 10.9752 7.79922 12 7.79922C12.7186 7.79797 13.418 8.03185 13.9913 8.46518C14.5646 8.89851 14.9803 9.5075 15.1752 10.1992C15.3489 10.8166 15.3391 11.4712 15.147 12.0831C14.955 12.6951 14.5889 13.2379 14.0936 13.6453C13.5983 14.0527 12.995 14.3071 12.3576 14.3775C11.7201 14.4479 11.0759 14.3312 10.5036 14.0416C10.063 13.8174 9.67837 13.497 9.37821 13.1041C9.07805 12.7112 8.86999 12.256 8.76942 11.7719C8.66885 11.2878 8.67834 10.7873 8.79718 10.3074C8.91601 9.82751 9.13997 9.38043 9.4548 8.99922ZM10.104 10.1992C9.98581 10.4485 9.91788 10.7187 9.90409 10.9942C9.8903 11.2698 9.93092 11.5453 10.0236 11.8052C10.2109 12.33 10.5989 12.7589 11.1024 12.9976C11.6059 13.2363 12.1836 13.2652 12.7084 13.078C13.2332 12.8908 13.6621 12.5027 13.9008 11.9992C14.1395 11.4956 14.1683 10.9177 13.981 10.3928C13.7936 9.86791 13.4054 9.43891 12.9018 9.20022C12.3982 8.96152 11.8203 8.93268 11.2954 9.12003C10.7705 9.30738 10.3415 9.69557 10.1028 10.1992M18.822 15.94C18.5939 15.5303 18.2729 15.1797 17.8848 14.9164C20.28 14.536 21.6 12.91 21.6 11.3992V10.7992C21.6 10.6401 21.5368 10.4875 21.4243 10.375C21.3117 10.2624 21.1591 10.1992 21 10.1992H16.41C16.3256 9.7807 16.1814 9.37654 15.9816 8.99922H21C21.4774 8.99922 21.9352 9.18886 22.2728 9.52643C22.6104 9.86399 22.8 10.3218 22.8 10.7992V11.3992C22.8 13.3036 21.3528 15.2536 18.822 15.94ZM17.3844 16.0444C17.0565 15.7576 16.6357 15.5994 16.2 15.5992H7.8C7.56344 15.5986 7.32909 15.6447 7.11042 15.7349C6.89175 15.8252 6.69307 15.9577 6.52579 16.125C6.35852 16.2923 6.22596 16.491 6.13573 16.7096C6.04549 16.9283 5.99937 17.1627 6 17.3992V17.9992C6 20.3644 8.232 22.7992 12 22.7992C15.768 22.7992 18 20.3644 18 17.9992V17.3992C18 16.8592 17.7624 16.3744 17.3844 16.0432M7.2 17.3992C7.2 17.2401 7.26321 17.0875 7.37574 16.975C7.48826 16.8624 7.64087 16.7992 7.8 16.7992H16.2C16.3591 16.7992 16.5117 16.8624 16.6243 16.975C16.7368 17.0875 16.8 17.2401 16.8 17.3992V17.9992C16.8 19.7248 15.0816 21.5992 12 21.5992C8.9184 21.5992 7.2 19.7248 7.2 17.9992V17.3992ZM16.8 1.19922C17.6752 1.19922 18.5146 1.5469 19.1335 2.16577C19.7523 2.78464 20.1 3.624 20.1 4.49922C20.1 5.37443 19.7523 6.2138 19.1335 6.83267C18.5146 7.45154 17.6752 7.79922 16.8 7.79922C15.9248 7.79922 15.0854 7.45154 14.4665 6.83267C13.8477 6.2138 13.5 5.37443 13.5 4.49922C13.5 3.624 13.8477 2.78464 14.4665 2.16577C15.0854 1.5469 15.9248 1.19922 16.8 1.19922ZM16.8 2.39922C16.243 2.39922 15.7089 2.62047 15.3151 3.01429C14.9212 3.40812 14.7 3.94226 14.7 4.49922C14.7 5.05617 14.9212 5.59032 15.3151 5.98414C15.7089 6.37797 16.243 6.59922 16.8 6.59922C17.357 6.59922 17.8911 6.37797 18.2849 5.98414C18.6788 5.59032 18.9 5.05617 18.9 4.49922C18.9 3.94226 18.6788 3.40812 18.2849 3.01429C17.8911 2.62047 17.357 2.39922 16.8 2.39922Z" fill="#0A0A0A"/>
</svg>
