<svg width="16" height="13" viewBox="0 0 16 13" fill="none" xmlns="http://www.w3.org/2000/svg">
<path d="M1.921 6.5001L5.667 10.2461C5.765 10.3434 5.816 10.4581 5.82 10.5901C5.82466 10.7228 5.772 10.8441 5.662 10.9541C5.55133 11.0608 5.43333 11.1148 5.308 11.1161C5.182 11.1181 5.064 11.0641 4.954 10.9541L0.564998 6.5651C0.403665 6.40376 0.322998 6.21543 0.322998 6.0001C0.322998 5.78476 0.403998 5.59643 0.565998 5.4351L4.954 1.0461C5.04733 0.952763 5.161 0.902763 5.295 0.896096C5.429 0.889429 5.551 0.939429 5.661 1.0461C5.77167 1.1561 5.827 1.2751 5.827 1.4031C5.827 1.5311 5.772 1.6501 5.662 1.7601L1.922 5.5001H11.5C12.7427 5.5001 13.8033 5.93943 14.682 6.8181C15.5607 7.69676 16 8.75743 16 10.0001V12.5001C16 12.6428 15.9523 12.7618 15.857 12.8571C15.7617 12.9524 15.6427 13.0001 15.5 13.0001C15.3573 13.0001 15.2383 12.9524 15.143 12.8571C15.0477 12.7618 15 12.6428 15 12.5001V10.0001C15 9.03876 14.657 8.2151 13.971 7.5291C13.285 6.8431 12.4613 6.5001 11.5 6.5001H1.921Z" fill="black"/>
</svg>
