<svg width="16" height="16" viewBox="0 0 16 16" fill="none" xmlns="http://www.w3.org/2000/svg">
<path d="M2 6.33366C2 6.14956 2.14924 6.00033 2.33333 6.00033H4.5286C4.617 6.00033 4.70179 5.96521 4.7643 5.90269L7.43096 3.23603C7.64095 3.02604 8 3.17476 8 3.47173V12.5289C8 12.8259 7.64095 12.9746 7.43096 12.7646L4.7643 10.098C4.70179 10.0354 4.617 10.0003 4.5286 10.0003H2.33333C2.14924 10.0003 2 9.85109 2 9.66699V6.33366ZM10.8243 8.23603C10.9545 8.10585 10.9545 7.8948 10.8243 7.76462L9.56904 6.50936C9.43886 6.37919 9.43886 6.16813 9.56904 6.03796L10.0376 5.56936C10.1678 5.43919 10.3789 5.43919 10.509 5.56936L11.7643 6.82462C11.8945 6.9548 12.1055 6.9548 12.2357 6.82462L13.491 5.56936C13.6211 5.43919 13.8322 5.43919 13.9624 5.56936L14.431 6.03796C14.5611 6.16813 14.5611 6.37919 14.431 6.50936L13.1757 7.76462C13.0455 7.8948 13.0455 8.10585 13.1757 8.23603L14.431 9.49129C14.5611 9.62147 14.5611 9.83252 14.431 9.96269L13.9624 10.4313C13.8322 10.5615 13.6211 10.5615 13.491 10.4313L12.2357 9.17603C12.1055 9.04585 11.8945 9.04585 11.7643 9.17603L10.509 10.4313C10.3789 10.5615 10.1678 10.5615 10.0376 10.4313L9.56904 9.96269C9.43886 9.83252 9.43886 9.62147 9.56904 9.49129L10.8243 8.23603Z" fill="#7A7A7A"/>
</svg>
