<svg width="94" height="106" viewBox="0 0 94 106" fill="none" xmlns="http://www.w3.org/2000/svg">
<g clip-path="url(#clip0_3632_10296)">
<path d="M53.2889 81.6748C75.7729 81.6748 93.9997 63.3913 93.9997 40.8374C93.9997 18.2835 75.7729 0 53.2889 0C30.805 0 12.5781 18.2835 12.5781 40.8374C12.5781 63.3913 30.805 81.6748 53.2889 81.6748Z" fill="#CAC7C7"/>
<path d="M79.8932 18.2626H5.31664C5.15672 18.2591 5.02985 18.1263 5.03327 17.9659C5.03659 17.8103 5.16154 17.685 5.31664 17.6816H79.8932C80.0531 17.6851 80.18 17.8179 80.1765 17.9783C80.1732 18.1339 80.0483 18.2592 79.8932 18.2626Z" fill="#CACACA"/>
<path d="M54.4773 28.0508H33.8614C32.3129 28.0508 31.0576 29.31 31.0576 30.8633V30.8633C31.0576 32.4166 32.3129 33.6758 33.8614 33.6758H54.4773C56.0257 33.6758 57.281 32.4166 57.281 30.8633C57.281 29.31 56.0257 28.0508 54.4773 28.0508Z" fill="white"/>
<path d="M20.544 39.3008H67.7958C69.3443 39.3008 70.5996 40.56 70.5996 42.1133C70.5996 43.6666 69.3443 44.9258 67.7958 44.9258H20.544C18.9955 44.9258 17.7402 43.6666 17.7402 42.1133C17.7402 40.56 18.9955 39.3008 20.544 39.3008Z" fill="white"/>
<path d="M20.544 50.5508H67.7958C69.3443 50.5508 70.5996 51.81 70.5996 53.3633C70.5996 54.9166 69.3443 56.1758 67.7958 56.1758H20.544C18.9955 56.1758 17.7402 54.9166 17.7402 53.3633C17.7402 51.81 18.9955 50.5508 20.544 50.5508Z" fill="white"/>
<path d="M14.6879 105.753L14.5767 105.742C10.8037 105.352 7.39283 103.316 5.25037 100.176C4.66353 99.3013 4.18885 98.3558 3.83751 97.3619L3.80374 97.2671L3.90372 97.259C5.09731 97.1627 6.3235 96.9595 6.86821 96.8628L3.35574 95.6691L3.33403 95.5645C3.12578 94.5831 3.53375 93.5733 4.36438 93.0143C5.19725 92.4283 6.30172 92.4096 7.15388 92.9669C7.5363 93.212 7.9363 93.4546 8.32309 93.6894C9.65232 94.4959 11.0268 95.3299 12.0573 96.4711C13.6199 98.236 14.3049 100.614 13.9213 102.943L14.6879 105.753Z" fill="#F2F2F2"/>
<path d="M27.4556 104L29.1866 104L30.0102 97.3018L27.4551 97.3019L27.4556 104Z" fill="#A0616A"/>
<path d="M27.3946 105.812L32.7182 105.812V105.744C32.7181 104.596 31.7904 103.666 30.6461 103.666L29.6736 102.926L27.8592 103.666L27.3945 103.666L27.3946 105.812Z" fill="#2F2E41"/>
<path d="M13.582 99.1911L14.9667 100.233L19.6329 95.371L17.589 93.833L13.582 99.1911Z" fill="#A0616A"/>
<path d="M12.4492 100.603L16.7077 103.808L16.7481 103.754C17.4347 102.836 17.2494 101.533 16.3341 100.844L15.9989 99.6666L14.1048 99.1665L13.7331 98.8867L12.4492 100.603Z" fill="#2F2E41"/>
<path d="M19.3366 72.5675C19.3366 72.5675 19.4322 75.1824 19.5527 77.2795C19.5725 77.6234 18.7692 77.997 18.79 78.3712C18.8038 78.6194 18.9548 78.8607 18.9689 79.1195C18.9837 79.3927 18.7752 79.6345 18.79 79.917C18.8046 80.193 19.0424 80.5095 19.0567 80.792C19.2111 83.8322 19.7707 87.4717 19.2103 88.4891C18.9342 88.9905 15.4141 95.937 15.4141 95.937C15.4141 95.937 17.3753 98.8881 17.9357 97.9044C18.6758 96.6051 24.3799 90.5267 24.3799 89.366C24.3799 88.2066 25.6995 79.5178 25.6995 79.5178L26.6197 84.6598L27.0416 85.6785L26.909 86.2766L27.1817 87.0838L27.1964 87.8826L27.4619 89.366C27.4619 89.366 26.6634 100.923 27.1131 101.245C27.5642 101.568 29.7482 102.148 30.0059 101.568C30.2623 100.988 31.931 89.5065 31.931 89.5065C31.931 89.5065 32.2 84.2452 32.4914 79.3548C32.5082 79.071 32.7071 78.7281 32.7225 78.4484C32.7408 78.1238 32.6147 77.7023 32.6315 77.3875C32.6497 77.0263 32.8094 76.772 32.8248 76.4263C32.9439 73.7549 32.2754 70.5018 32.0625 70.1814C31.4195 69.2145 30.8409 68.4416 30.8409 68.4416C30.8409 68.4416 22.1801 65.5872 19.8658 68.4877L19.3366 72.5675Z" fill="#2F2E41"/>
<path d="M27.975 45.6771L24.5417 44.9883L22.9395 47.1695C19.9499 50.1182 19.9048 52.7207 20.4385 56.8923V62.7471L20.0523 66.6719C20.0523 66.6719 18.6848 69.541 20.0952 70.209C21.5055 70.877 30.7695 70.8201 31.654 70.5534C32.5385 70.2868 31.7718 69.9594 31.5396 68.7166C31.1033 66.3823 31.3951 67.5083 31.4251 66.765C31.8556 56.1033 30.8529 51.7263 30.7511 50.5758L29.005 47.3991L27.975 45.6771Z" fill="#3F3D56"/>
<path d="M46.0708 54.2733C45.713 54.9534 44.8733 55.2138 44.1953 54.8548C44.123 54.8166 44.0542 54.772 43.9898 54.7215L36.5752 59.4441L36.5966 56.8729L43.7992 52.68C44.3123 52.103 45.1945 52.0525 45.7697 52.5671C46.251 52.9977 46.3755 53.7031 46.0708 54.2733Z" fill="#A0616A"/>
<path d="M25.2635 48.6554L24.4194 48.5657C23.6394 48.4845 22.8741 48.8196 22.4032 49.4485C22.2228 49.687 22.0932 49.9602 22.0225 50.2511L22.022 50.2534C21.8103 51.1289 22.1424 52.0464 22.8647 52.5816L25.7803 54.7378C27.8263 57.5111 31.6716 59.3509 36.1821 60.8457L43.1931 56.4779L40.7133 53.4652L35.9044 56.0505L28.7562 50.4998L28.7521 50.4965L26.0315 48.7383L25.2635 48.6554Z" fill="#3F3D56"/>
<path d="M26.8143 43.9865C29.0255 43.9865 30.818 42.1884 30.818 39.9703C30.818 37.7522 29.0255 35.9541 26.8143 35.9541C24.6031 35.9541 22.8105 37.7522 22.8105 39.9703C22.8105 42.1884 24.6031 43.9865 26.8143 43.9865Z" fill="#A0616A"/>
<path d="M26.9076 43.9873C26.8753 43.9884 26.8429 43.9891 26.8106 43.99C26.7968 44.026 26.7819 44.0616 26.7646 44.0967L26.9076 43.9873Z" fill="#2F2E41"/>
<path d="M28.0059 40.0811C28.0121 40.1206 28.0217 40.1596 28.0346 40.1975C28.0293 40.1578 28.0197 40.1187 28.0059 40.0811Z" fill="#2F2E41"/>
<path d="M30.8697 36.1258C30.7049 36.6391 30.5579 35.988 30.0157 36.1051C29.3636 36.246 28.6047 36.1976 28.0706 35.7966C27.2749 35.2109 26.2436 35.0533 25.3101 35.3745C24.3962 35.6988 22.8653 35.9275 22.6272 36.8701C22.5444 37.1977 22.5115 37.5533 22.3109 37.8248C22.1355 38.0622 21.8586 38.1976 21.6271 38.3803C20.8454 38.9972 21.4429 40.7501 21.8129 41.6763C22.1829 42.6025 23.0316 43.2772 23.9647 43.6228C24.8675 43.9572 25.8473 44.0161 26.8104 43.9899C26.978 43.5541 26.9056 43.0507 26.7674 42.5989C26.6177 42.1098 26.3962 41.6378 26.3337 41.1301C26.2712 40.6223 26.4084 40.0456 26.8329 39.7619C27.223 39.5011 27.8578 39.66 28.0062 40.0816C27.9196 39.5545 28.4519 39.0444 29.0007 38.9547C29.59 38.8584 30.1792 39.0718 30.7668 39.178C31.3544 39.2842 31.1458 36.8029 30.8697 36.1258Z" fill="#2F2E41"/>
<path d="M53.2618 46.6141C53.635 42.0904 50.2817 38.1197 45.772 37.7453C41.2623 37.3709 37.3039 40.7346 36.9307 45.2583C36.5574 49.782 39.9107 53.7527 44.4204 54.1271C48.9301 54.5015 52.8885 51.1378 53.2618 46.6141Z" fill="#6C63FF"/>
<path d="M47.2484 42.5111L45.0961 44.6701L42.9439 42.5111C42.5955 42.1617 42.0306 42.1617 41.6822 42.5111C41.3338 42.8606 41.3338 43.4273 41.6822 43.7767L43.8345 45.9357L41.6822 48.0947C41.3341 48.4445 41.3346 49.0111 41.6834 49.3603C42.0316 49.709 42.5956 49.709 42.9439 49.3603L45.0961 47.2013L47.2484 49.3603C47.5971 49.7094 48.162 49.7089 48.5101 49.3591C48.8577 49.0097 48.8577 48.444 48.5101 48.0947L46.3578 45.9357L48.5101 43.7767C48.8585 43.4273 48.8585 42.8606 48.5101 42.5111C48.1617 42.1617 47.5968 42.1617 47.2484 42.5111Z" fill="white"/>
<path d="M41.8667 39.0281C42.1083 39.7579 41.7142 40.546 40.9866 40.7883C40.9091 40.8141 40.8294 40.833 40.7485 40.8447L39.0126 49.4812L37.1777 47.6857L39.148 39.5693C39.0881 38.7985 39.6625 38.1249 40.4309 38.0648C41.0739 38.0145 41.6675 38.4128 41.8667 39.0281Z" fill="#A0616A"/>
<path d="M23.4204 50.1982L22.7714 50.7471C22.1731 51.2555 21.8843 52.0415 22.0107 52.8178C22.0574 53.1135 22.1642 53.3964 22.3245 53.6489L22.3258 53.6509C22.809 54.4103 23.6989 54.805 24.5841 54.6527L28.1536 54.0351C31.5651 54.474 35.5507 52.9643 39.7487 50.7342L41.4604 42.6354L37.5764 42.3447L36.1069 47.6154L27.1652 48.9469L27.16 48.9476L24.0116 49.6996L23.4204 50.1982Z" fill="#3F3D56"/>
<path d="M43.7459 105.95L0.190225 106C0.0848269 105.999 -0.000340371 105.913 1.02278e-06 105.808C0.000339211 105.702 0.0853061 105.617 0.190225 105.617L43.7459 105.567C43.8513 105.568 43.9365 105.654 43.9362 105.759C43.9358 105.865 43.8509 105.95 43.7459 105.95Z" fill="#CACACA"/>
<path d="M9.10053 14.5826C9.84911 14.5826 10.4559 13.9603 10.4559 13.1927C10.4559 12.425 9.84911 11.8027 9.10053 11.8027C8.35196 11.8027 7.74512 12.425 7.74512 13.1927C7.74512 13.9603 8.35196 14.5826 9.10053 14.5826Z" fill="#3F3D56"/>
<path d="M13.7831 14.5826C14.5317 14.5826 15.1386 13.9603 15.1386 13.1927C15.1386 12.425 14.5317 11.8027 13.7831 11.8027C13.0346 11.8027 12.4277 12.425 12.4277 13.1927C12.4277 13.9603 13.0346 14.5826 13.7831 14.5826Z" fill="#3F3D56"/>
<path d="M18.4648 14.5826C19.2134 14.5826 19.8202 13.9603 19.8202 13.1927C19.8202 12.425 19.2134 11.8027 18.4648 11.8027C17.7162 11.8027 17.1094 12.425 17.1094 13.1927C17.1094 13.9603 17.7162 14.5826 18.4648 14.5826Z" fill="#3F3D56"/>
<path d="M23.8043 14.2908C23.7627 14.2908 23.7212 14.2746 23.6898 14.2424L22.7752 13.3046C22.7143 13.2421 22.7143 13.1423 22.7752 13.0798L23.6898 12.142C23.7518 12.0786 23.8534 12.0776 23.9164 12.1395C23.9797 12.2016 23.9808 12.3034 23.9189 12.3669L23.114 13.1922L23.9189 14.0176C23.9808 14.081 23.9797 14.1828 23.9164 14.2449C23.8853 14.2755 23.8448 14.2908 23.8043 14.2908Z" fill="#3F3D56"/>
<path d="M25.341 14.2909C25.3005 14.2909 25.26 14.2757 25.2289 14.245C25.1656 14.1829 25.1645 14.0812 25.2264 14.0177L26.0312 13.1923L25.2264 12.367C25.1645 12.3036 25.1656 12.2017 25.2289 12.1396C25.292 12.0775 25.3936 12.0786 25.4555 12.1421L26.37 13.0799C26.431 13.1424 26.431 13.2422 26.37 13.3047L25.4555 14.2425C25.4241 14.2747 25.3826 14.2909 25.341 14.2909Z" fill="#3F3D56"/>
<path d="M73.1863 11.9639H71.4858C71.2918 11.9639 71.1348 12.1214 71.1348 12.316V14.0234C71.1348 14.218 71.2918 14.3755 71.4858 14.3755H73.1863C73.3803 14.3755 73.5389 14.218 73.5389 14.0234V12.316C73.5389 12.1214 73.3803 11.9639 73.1863 11.9639Z" fill="#3F3D56"/>
<path d="M69.0184 11.9639H67.3178C67.1239 11.9639 66.9668 12.1214 66.9668 12.316V14.0234C66.9668 14.218 67.1239 14.3755 67.3178 14.3755H69.0184C69.2123 14.3755 69.371 14.218 69.371 14.0234V12.316C69.371 12.1214 69.2123 11.9639 69.0184 11.9639Z" fill="#3F3D56"/>
<path d="M77.1131 12.0439H75.4125C75.2186 12.0439 75.0615 12.2015 75.0615 12.396V14.1035C75.0615 14.298 75.2186 14.4556 75.4125 14.4556H77.1131C77.307 14.4556 77.4657 14.298 77.4657 14.1035V12.396C77.4657 12.2015 77.307 12.0439 77.1131 12.0439Z" fill="#3F3D56"/>
<path d="M51.4811 12.6934H37.8879C37.6507 12.6934 37.46 12.8863 37.46 13.1226C37.46 13.359 37.6507 13.5519 37.8879 13.5519H51.4811C51.7168 13.5519 51.9091 13.359 51.9091 13.1226C51.9091 12.8863 51.7168 12.6934 51.4811 12.6934Z" fill="#3F3D56"/>
</g>
<defs>
<clipPath id="clip0_3632_10296">
<rect width="94" height="106" fill="white"/>
</clipPath>
</defs>
</svg>
