<svg width="150" height="150" viewBox="0 0 150 150" fill="none" xmlns="http://www.w3.org/2000/svg">
<path d="M135.405 83.9039C135.305 83.3819 135.2 82.8659 135.09 82.3559C132.342 69.4289 126.807 56.0789 116.94 46.9559C112.665 43.0109 107.496 39.9959 101.736 38.9099C94.7041 37.5869 87.3931 39.4199 80.9311 42.5099C74.4691 45.5999 68.6701 49.8659 62.6821 53.7839C58.8151 56.3129 54.7261 58.7489 50.1631 59.4839C44.7001 60.3629 39.1111 58.7129 33.6001 59.2379C24.9601 60.0599 17.3461 66.5039 14.2321 74.6069C11.1181 82.7099 12.2461 92.1149 16.3501 99.7649C20.4541 107.415 27.3001 113.373 35.0521 117.3C45.7771 122.748 58.4521 124.452 70.1221 121.5C75.8221 120.06 81.3241 117.54 87.1921 117.435C94.4701 117.306 101.292 120.906 108.492 121.902C115.26 122.835 122.478 121.302 127.863 117.102C137.85 109.302 137.568 95.1419 135.405 83.9039Z" fill="#635BFF"/>
<path opacity="0.7" d="M135.405 83.9039C135.305 83.3819 135.2 82.8659 135.09 82.3559C132.342 69.4289 126.807 56.0789 116.94 46.9559C112.665 43.0109 107.496 39.9959 101.736 38.9099C94.7041 37.5869 87.3931 39.4199 80.9311 42.5099C74.4691 45.5999 68.6701 49.8659 62.6821 53.7839C58.8151 56.3129 54.7261 58.7489 50.1631 59.4839C44.7001 60.3629 39.1111 58.7129 33.6001 59.2379C24.9601 60.0599 17.3461 66.5039 14.2321 74.6069C11.1181 82.7099 12.2461 92.1149 16.3501 99.7649C20.4541 107.415 27.3001 113.373 35.0521 117.3C45.7771 122.748 58.4521 124.452 70.1221 121.5C75.8221 120.06 81.3241 117.54 87.1921 117.435C94.4701 117.306 101.292 120.906 108.492 121.902C115.26 122.835 122.478 121.302 127.863 117.102C137.85 109.302 137.568 95.1419 135.405 83.9039Z" fill="white"/>
<path d="M114.363 52.1999C113.388 51.6659 112.944 52.1099 112.59 51.6659C112.236 51.2219 113.565 50.0699 110.904 48.9179C110.904 48.9179 110.727 46.4339 107.091 46.3469C103.455 46.2599 104.43 48.8279 103.455 49.4489C102.48 50.0699 102.213 49.0949 101.238 49.7159C100.263 50.3369 100.707 51.5789 99.9087 51.7559C99.1107 51.9329 98.0457 50.9579 97.0707 51.5789C96.0957 52.1999 96.0957 52.7309 95.6517 52.7309C95.2077 52.7309 94.3197 52.3769 93.7887 52.7309C93.2577 53.0849 92.6367 53.5289 92.6367 53.5289H115.074C115.074 53.5289 115.338 52.7159 114.363 52.1999Z" fill="white"/>
<path opacity="0.5" d="M114.363 52.1999C113.388 51.6659 112.944 52.1099 112.59 51.6659C112.236 51.2219 113.565 50.0699 110.904 48.9179C110.904 48.9179 110.727 46.4339 107.091 46.3469C103.455 46.2599 104.43 48.8279 103.455 49.4489C102.48 50.0699 102.213 49.0949 101.238 49.7159C100.263 50.3369 100.707 51.5789 99.9087 51.7559C99.1107 51.9329 98.0457 50.9579 97.0707 51.5789C96.0957 52.1999 96.0957 52.7309 95.6517 52.7309C95.2077 52.7309 94.3197 52.3769 93.7887 52.7309C93.2577 53.0849 92.6367 53.5289 92.6367 53.5289H115.074C115.074 53.5289 115.338 52.7159 114.363 52.1999Z" fill="white"/>
<path d="M76.3647 111C75.3867 110.466 74.9457 110.91 74.5887 110.466C74.2317 110.022 75.5637 108.87 72.9057 107.718C72.9057 107.718 72.7287 105.234 69.0927 105.147C65.4567 105.06 66.4317 107.628 65.4567 108.249C64.4817 108.87 64.2147 107.895 63.2397 108.516C62.2647 109.137 62.7057 110.379 61.9077 110.556C61.1097 110.733 60.0447 109.758 59.0697 110.379C58.0947 111 58.0947 111.531 57.6507 111.531C57.2067 111.531 56.3217 111.177 55.7877 111.531C55.2537 111.885 54.6357 112.329 54.6357 112.329H77.0727C77.0727 112.329 77.3397 111.516 76.3647 111Z" fill="white"/>
<path opacity="0.5" d="M76.3647 111C75.3867 110.466 74.9457 110.91 74.5887 110.466C74.2317 110.022 75.5637 108.87 72.9057 107.718C72.9057 107.718 72.7287 105.234 69.0927 105.147C65.4567 105.06 66.4317 107.628 65.4567 108.249C64.4817 108.87 64.2147 107.895 63.2397 108.516C62.2647 109.137 62.7057 110.379 61.9077 110.556C61.1097 110.733 60.0447 109.758 59.0697 110.379C58.0947 111 58.0947 111.531 57.6507 111.531C57.2067 111.531 56.3217 111.177 55.7877 111.531C55.2537 111.885 54.6357 112.329 54.6357 112.329H77.0727C77.0727 112.329 77.3397 111.516 76.3647 111Z" fill="white"/>
<path d="M58.2359 101.1C56.7089 100.269 56.0159 100.962 55.4609 100.269C54.9059 99.5759 56.9849 97.7699 52.8239 95.9669C52.8239 95.9669 52.5479 92.0819 46.8569 91.9439C41.1659 91.8059 42.6959 95.8289 41.1569 96.8009C39.6179 97.7729 39.2159 96.2459 37.6889 97.2149C36.1619 98.1839 36.8549 100.131 35.6069 100.407C34.3589 100.683 32.6939 99.1589 31.1669 100.131C29.6399 101.103 29.6399 101.931 28.9469 101.931C28.2539 101.931 26.8649 101.376 26.0339 101.931C25.2029 102.486 24.2339 103.179 24.2339 103.179H59.3339C59.3339 103.179 59.7599 101.943 58.2359 101.1Z" fill="white"/>
<path opacity="0.5" d="M58.2359 101.1C56.7089 100.269 56.0159 100.962 55.4609 100.269C54.9059 99.5759 56.9849 97.7699 52.8239 95.9669C52.8239 95.9669 52.5479 92.0819 46.8569 91.9439C41.1659 91.8059 42.6959 95.8289 41.1569 96.8009C39.6179 97.7729 39.2159 96.2459 37.6889 97.2149C36.1619 98.1839 36.8549 100.131 35.6069 100.407C34.3589 100.683 32.6939 99.1589 31.1669 100.131C29.6399 101.103 29.6399 101.931 28.9469 101.931C28.2539 101.931 26.8649 101.376 26.0339 101.931C25.2029 102.486 24.2339 103.179 24.2339 103.179H59.3339C59.3339 103.179 59.7599 101.943 58.2359 101.1Z" fill="white"/>
<path d="M74.256 21.4717C63.783 21.4717 55.266 29.1127 54.969 38.6377L46.716 43.1587L42.378 39.0367L36.114 48.5467L31.752 48.3607L33.99 57.0397L34.185 49.8967L37.272 50.4757L42.372 45.1087L47.577 49.2307L55.734 44.1307C58.086 51.4627 65.481 56.8207 74.25 56.8207C84.909 56.8207 93.5519 48.9067 93.5519 39.1447C93.5519 29.3827 84.915 21.4717 74.256 21.4717Z" fill="#263238" stroke="#263238" stroke-width="0.3" stroke-linecap="round" stroke-linejoin="round"/>
<path d="M91.3531 27.6548H56.5351C55.5692 27.6548 54.7861 28.4378 54.7861 29.4038V49.2158C54.7861 50.1817 55.5692 50.9648 56.5351 50.9648H91.3531C92.3191 50.9648 93.1021 50.1817 93.1021 49.2158V29.4038C93.1021 28.4378 92.3191 27.6548 91.3531 27.6548Z" fill="#635BFF" stroke="#263238" stroke-width="0.6" stroke-linecap="round" stroke-linejoin="round"/>
<path d="M75.4741 38.7274L93.1021 29.8084V29.4004C93.1021 28.9365 92.9179 28.4916 92.5899 28.1636C92.2619 27.8356 91.817 27.6514 91.3531 27.6514H56.5351C56.0713 27.6514 55.6264 27.8356 55.2984 28.1636C54.9704 28.4916 54.7861 28.9365 54.7861 29.4004V29.8834L72.0931 38.7664C72.621 39.023 73.2014 39.1531 73.7882 39.1463C74.3751 39.1396 74.9524 38.9961 75.4741 38.7274Z" fill="white" stroke="#263238" stroke-width="0.6" stroke-linecap="round" stroke-linejoin="round"/>
<path d="M92.4253 36.3376C94.5692 35.9881 96.0237 33.9669 95.6742 31.823C95.3247 29.6792 93.3034 28.2246 91.1596 28.5742C89.0158 28.9237 87.5612 30.9449 87.9107 33.0888C88.2602 35.2326 90.2815 36.6872 92.4253 36.3376Z" fill="#263238"/>
<path d="M91.5567 34.7196C91.4562 34.5966 91.4058 34.4401 91.4157 34.2816V30.7806L90.7257 31.2006C90.6716 31.2367 90.6078 31.2555 90.5427 31.2546C90.4969 31.2556 90.4514 31.2462 90.4098 31.2269C90.3682 31.2077 90.3316 31.1792 90.3027 31.1436C90.2697 31.1099 90.2437 31.07 90.2262 31.0263C90.2087 30.9825 90.2 30.9357 90.2007 30.8886C90.2018 30.8264 90.2197 30.7658 90.2524 30.713C90.2852 30.6602 90.3316 30.6172 90.3867 30.5886L91.6437 29.8476C91.7337 29.7905 91.8372 29.7584 91.9437 29.7546C92.009 29.7527 92.0739 29.7655 92.1335 29.792C92.1932 29.8185 92.2463 29.858 92.2887 29.9076C92.3831 30.0311 92.43 30.1844 92.4207 30.3396V34.3056C92.4282 34.4574 92.3779 34.6064 92.2797 34.7226C92.2347 34.7732 92.1792 34.8134 92.117 34.8404C92.0548 34.8673 91.9875 34.8804 91.9197 34.8786C91.851 34.882 91.7825 34.8694 91.7195 34.8418C91.6565 34.8142 91.6008 34.7724 91.5567 34.7196Z" fill="#635BFF"/>
<path d="M55.0493 84.5276C55.0493 84.5276 66.8993 102.378 69.7493 102.678C72.5993 102.978 81.5993 93.6776 81.5993 93.6776L79.0493 93.0776L70.5563 98.8196C70.5563 98.8196 63.2993 89.9096 56.9213 83.0996L55.0493 84.5276Z" fill="white" stroke="#263238" stroke-width="0.6" stroke-linecap="round" stroke-linejoin="round"/>
<path d="M57.1583 79.1992C57.1583 79.1992 59.5343 79.3012 59.4323 80.3362C59.3303 81.3712 59.4323 84.1612 58.8113 84.6802C58.1903 85.1992 57.2603 85.4032 57.0533 84.3802C56.8463 83.3572 57.1583 79.1992 57.1583 79.1992Z" fill="white" stroke="#263238" stroke-width="0.6" stroke-linecap="round" stroke-linejoin="round"/>
<path d="M56.5372 84.0684C56.5372 84.0684 56.4322 87.1704 56.2372 87.4794C56.0422 87.7884 54.5812 88.9284 53.6512 88.7214C52.7212 88.5144 53.0302 87.5844 53.0302 87.0684V78.8994H56.5462L56.5372 84.0684Z" fill="#263238" stroke="#263238" stroke-width="0.3" stroke-linecap="round" stroke-linejoin="round"/>
<path d="M51.6776 85.1994C51.6776 85.1994 50.9546 86.5434 51.5726 87.5784C52.1906 88.6134 53.9516 88.6134 54.6776 88.0944C55.4036 87.5754 54.8816 86.8554 54.2636 86.6484C53.6456 86.4414 52.8146 85.9224 52.8146 85.3044C52.8146 84.6864 51.9866 84.7914 51.6776 85.1994Z" fill="white" stroke="#263238" stroke-width="0.6" stroke-linecap="round" stroke-linejoin="round"/>
<path d="M51.1162 83.2372C51.1162 83.9452 51.2362 85.1332 51.7942 85.6372C52.4242 86.1922 55.3222 86.2372 56.5942 85.3882C57.8662 84.5392 57.0202 83.0782 56.0572 83.1712C55.2592 83.2492 54.4042 83.0542 53.5942 82.9522C53.1382 82.8952 51.5302 82.5382 51.2152 82.8712C51.1436 82.9756 51.1127 83.1026 51.1282 83.2282L51.1162 83.2372Z" fill="white" stroke="#263238" stroke-width="0.6" stroke-linecap="round" stroke-linejoin="round"/>
<path d="M50.7594 80.6753C50.6604 81.3893 50.6154 82.5953 51.2004 83.1173C51.8634 83.7173 55.2984 83.8853 56.9214 83.0933C58.5444 82.3013 57.7734 80.7803 56.6214 80.8313C55.6644 80.8703 54.6774 80.6303 53.7354 80.4893C53.2044 80.4113 51.3354 79.9763 50.9244 80.2973C50.8277 80.3916 50.7708 80.5194 50.7654 80.6543L50.7594 80.6753Z" fill="white" stroke="#263238" stroke-width="0.6" stroke-linecap="round" stroke-linejoin="round"/>
<path d="M50.9602 77.1413C50.7052 77.8163 50.3932 78.9833 50.8492 79.6223C51.3682 80.3453 54.6772 81.2753 56.4322 80.8613C58.1872 80.4473 57.7792 78.7943 56.6392 78.5873C55.6972 78.4163 54.7882 77.9633 53.9002 77.6183C53.3992 77.4233 51.6862 76.5893 51.2002 76.8083C51.0884 76.8759 51.006 76.9829 50.9692 77.1083L50.9602 77.1413Z" fill="white" stroke="#263238" stroke-width="0.6" stroke-linecap="round" stroke-linejoin="round"/>
<path d="M78.4702 128.988L87.9202 93.6597H91.1182L81.0862 129.279" fill="#263238"/>
<path d="M78.4702 128.988L87.9202 93.6597H91.1182L81.0862 129.279" stroke="#263238" stroke-width="0.3" stroke-linecap="round" stroke-linejoin="round"/>
<path d="M84.7284 125.609L93.8814 93.5151L91.1184 93.6591L81.0864 129.278" fill="white"/>
<path d="M84.7284 125.609L93.8814 93.5151L91.1184 93.6591L81.0864 129.278" stroke="#263238" stroke-width="0.6" stroke-linecap="round" stroke-linejoin="round"/>
<path d="M83.8496 128.696L84.2726 127.214" stroke="#263238" stroke-width="0.6" stroke-linecap="round" stroke-linejoin="round"/>
<path d="M72.1494 101.957C72.1494 101.957 73.1844 103.508 74.4264 103.715C75.6684 103.922 88.7994 93.5811 88.7994 93.5811L83.4204 94.1991L72.1494 101.957Z" fill="white" stroke="#263238" stroke-width="0.6" stroke-linecap="round" stroke-linejoin="round"/>
<path d="M63.8125 85.3735C63.8125 85.3735 66.2845 64.8745 71.8105 57.7495C77.8495 49.9495 89.9845 56.2975 87.5125 68.7985C85.6165 78.3985 80.0965 95.5495 80.0965 95.5495L63.8125 85.3735Z" fill="#635BFF" stroke="#263238" stroke-width="0.6" stroke-linecap="round" stroke-linejoin="round"/>
<path d="M81.5516 55.1333L113.856 65.3333C114.913 65.6619 115.88 66.2307 116.682 66.9953C118.719 68.9573 121.758 73.1783 119.205 79.4033C117.138 84.301 114.344 88.8591 110.919 92.9243L80.0996 95.5493L86.3516 71.4143C86.3516 71.4143 89.2556 60.8033 81.5516 55.1333Z" fill="white"/>
<mask id="mask0_2198_41299" style="mask-type:luminance" maskUnits="userSpaceOnUse" x="80" y="55" width="41" height="41">
<path d="M81.5521 55.1343L113.856 65.3343C114.914 65.6629 115.881 66.2317 116.682 66.9963C118.719 68.9583 121.758 73.1793 119.205 79.4043C117.138 84.3019 114.345 88.8601 110.919 92.9253L80.1001 95.5503L86.3521 71.4153C86.3521 71.4153 89.2561 60.8043 81.5521 55.1343Z" fill="white"/>
</mask>
<g mask="url(#mask0_2198_41299)">
<path d="M96.6991 83.5295C88.9291 87.1715 84.7741 86.5295 82.7071 85.4795L80.1001 95.5505L110.922 92.9345C114.348 88.8693 117.141 84.3111 119.208 79.4135C119.544 78.6024 119.799 77.7604 119.97 76.8995C112.479 75.1355 106.539 78.9185 96.6991 83.5295Z" fill="#635BFF"/>
<path opacity="0.5" d="M96.6991 83.5295C88.9291 87.1715 84.7741 86.5295 82.7071 85.4795L80.1001 95.5505L110.922 92.9345C114.348 88.8693 117.141 84.3111 119.208 79.4135C119.544 78.6024 119.799 77.7604 119.97 76.8995C112.479 75.1355 106.539 78.9185 96.6991 83.5295Z" fill="white"/>
</g>
<path d="M81.5516 55.1333L113.856 65.3333C114.913 65.6619 115.88 66.2307 116.682 66.9953C118.719 68.9573 121.758 73.1783 119.205 79.4033C117.138 84.301 114.344 88.8591 110.919 92.9243L80.0996 95.5493L86.3516 71.4143C86.3516 71.4143 89.2556 60.8033 81.5516 55.1333Z" stroke="#263238" stroke-width="0.6" stroke-linecap="round" stroke-linejoin="round"/>
<path d="M99.7072 58.1753L94.6492 73.9613C93.7882 74.1023 92.9483 74.8133 92.5313 75.8603C91.9553 77.3063 92.4022 78.8453 93.5302 79.2953C94.6582 79.7453 96.0412 78.9353 96.6172 77.4953C97.0912 76.2953 96.8722 75.0533 96.1492 74.3963L99.7072 62.2403L104.669 63.9323L106.025 60.4373L99.7072 58.1753Z" fill="#263238" stroke="#263238" stroke-width="0.3" stroke-linecap="round" stroke-linejoin="round"/>
<path d="M68.7983 72.1612C68.7983 72.1612 71.0543 74.6452 71.1683 75.8842C71.2823 77.1232 69.2513 80.3842 69.2513 80.3842C69.2513 80.3842 73.4243 82.9792 77.3723 81.1732C81.3203 79.3672 83.2373 71.6992 83.2373 71.6992C83.2373 71.6992 78.5003 73.9552 76.6943 73.9552C74.8883 73.9552 68.7983 72.1612 68.7983 72.1612Z" fill="#263238" stroke="#263238" stroke-width="0.3" stroke-linecap="round" stroke-linejoin="round"/>
<path d="M77.3723 81.1853C78.4613 80.6873 79.3943 79.7423 80.1773 78.6383C80.1214 78.4 79.9971 78.1833 79.8196 78.0149C79.6421 77.8464 79.4191 77.7336 79.1783 77.6903C76.8083 77.2373 74.3273 79.8323 74.3273 79.8323C74.105 80.4712 73.9697 81.1372 73.9253 81.8123C75.1081 81.8848 76.2908 81.6697 77.3723 81.1853Z" fill="#635BFF" stroke="#263238" stroke-width="0.3" stroke-linecap="round" stroke-linejoin="round"/>
<path d="M74.0995 79.1573C72.8284 79.1082 71.5859 78.7653 70.4695 78.1553C69.9205 79.3133 69.2485 80.3963 69.2485 80.3963C69.2485 80.3963 73.4215 82.9913 77.3695 81.1853C78.435 80.6402 79.3468 79.8367 80.0215 78.8483C79.0975 78.9503 76.0855 79.2503 74.0995 79.1573Z" fill="white" stroke="#263238" stroke-width="0.3" stroke-linecap="round" stroke-linejoin="round"/>
<path d="M76.6943 73.9672C74.8943 73.9672 68.7983 72.1672 68.7983 72.1672C69.5364 72.9862 70.1954 73.8731 70.7663 74.8162C72.2663 75.4162 74.9033 76.3432 77.0333 76.3432C78.8658 76.3262 80.6563 75.7928 82.1993 74.8042C82.6092 73.7917 82.9558 72.7547 83.2373 71.6992C83.2373 71.6992 78.5003 73.9672 76.6943 73.9672Z" fill="white" stroke="#263238" stroke-width="0.3" stroke-linecap="round" stroke-linejoin="round"/>
<path d="M76.2441 68.7771C76.2441 68.7771 76.9221 66.4101 78.8391 66.1821C80.7561 65.9541 81.3201 67.3101 81.3201 67.3101C81.3201 67.3101 77.6991 67.3101 76.2441 68.7771Z" fill="#263238"/>
<path d="M81.77 71.0337L84.59 72.0507" stroke="#263238" stroke-width="0.3" stroke-linecap="round" stroke-linejoin="round"/>
<path d="M73.0763 66.5093C72.9353 67.3043 72.5723 67.9073 72.2633 67.8533C71.9543 67.7993 71.8253 67.1093 71.9633 66.3113C72.1013 65.5133 72.4703 64.9103 72.7763 64.9643C73.0823 65.0183 73.2203 65.6993 73.0763 66.5093Z" fill="#263238"/>
<path d="M76.6944 65.9572C76.6944 65.9572 76.5834 64.6042 79.5144 64.6042C82.4454 64.6042 83.0124 64.2652 81.8844 62.8042C80.7564 61.3432 76.0194 62.1232 76.6944 65.9572Z" fill="#263238"/>
<path d="M75.5662 61.8983C75.5662 61.8983 75.3412 59.9783 73.5382 59.9783C71.7352 59.9783 70.7152 62.1233 70.6042 61.4453C70.4932 60.7673 71.1682 58.4003 73.6492 58.1753C76.1302 57.9503 75.5662 61.8983 75.5662 61.8983Z" fill="#263238"/>
<path d="M88.2954 60.3325C88.7792 61.5472 89.0726 62.8293 89.1654 64.1335C89.8854 72.3625 82.5654 94.7935 82.5654 94.7935" stroke="#263238" stroke-width="0.3" stroke-linecap="round" stroke-linejoin="round"/>
<path d="M85.4604 57.0327C86.1127 57.331 86.6823 57.7841 87.1194 58.3527" stroke="#263238" stroke-width="0.3" stroke-linecap="round" stroke-linejoin="round"/>
<path d="M110.945 90.8394C110.231 91.9134 109.745 92.6394 109.745 92.6394" stroke="#263238" stroke-width="0.3" stroke-linecap="round" stroke-linejoin="round"/>
<path d="M112.109 65.1626C112.109 65.1626 117.563 68.2496 118.283 72.7766C119.003 77.3036 117.254 79.6766 116.225 82.1396C115.625 83.5526 113.594 86.7896 111.959 89.2976" stroke="#263238" stroke-width="0.3" stroke-linecap="round" stroke-linejoin="round"/>
<path d="M69.5273 82.6973C69.5273 82.6973 71.1593 84.3263 74.8253 83.9183C74.8253 83.9183 71.1593 85.5473 69.5273 82.6973Z" fill="#263238"/>
<path d="M36.5811 81.3804C36.5811 81.3804 46.1301 76.3734 63.5601 79.4424C64.3615 79.583 65.186 79.4001 65.8528 78.934C66.5197 78.4678 66.9747 77.7564 67.1181 76.9554L67.3701 75.5484C67.4912 74.8732 67.383 74.1769 67.0628 73.5703C66.7427 72.9636 66.2288 72.4814 65.6031 72.2004C60.9741 70.1214 50.2041 64.3554 44.5431 53.6694L36.5811 81.3804Z" fill="#635BFF" stroke="#263238" stroke-width="0.6" stroke-linecap="round" stroke-linejoin="round"/>
<path d="M45.1104 59.4717C45.1104 59.4717 49.7724 66.7857 57.5124 69.4347" stroke="white" stroke-width="0.6" stroke-linecap="round" stroke-linejoin="round"/>
<path d="M65.6032 72.2003C62.8949 70.9751 60.2947 69.524 57.8302 67.8623C58.6432 70.4603 58.8772 74.3873 55.5142 78.5243C58.2127 78.6623 60.8999 78.9689 63.5602 79.4423C64.3616 79.5828 65.1861 79.4 65.853 78.9339C66.5198 78.4677 66.9748 77.7562 67.1182 76.9553L67.3702 75.5483C67.4913 74.8731 67.3831 74.1768 67.0629 73.5702C66.7428 72.9635 66.2289 72.4813 65.6032 72.2003Z" fill="#263238" stroke="#263238" stroke-width="0.3" stroke-linecap="round" stroke-linejoin="round"/>
<path d="M44.2308 68.689C46.9498 59.9914 46.4362 52.091 43.0836 51.0429C39.7311 49.9949 34.8092 56.1961 32.0902 64.8937C29.3712 73.5913 29.8848 81.4917 33.2373 82.5398C36.5898 83.5878 41.5118 77.3866 44.2308 68.689Z" fill="#263238" stroke="#263238" stroke-width="0.3" stroke-linecap="round" stroke-linejoin="round"/>
<path d="M42.8759 68.2673C45.322 60.4427 45.0269 53.3873 42.2168 52.5089C39.4067 51.6304 35.1457 57.2614 32.6996 65.0861C30.2535 72.9107 30.5486 79.9661 33.3587 80.8445C36.1688 81.723 40.4298 76.092 42.8759 68.2673Z" fill="white" stroke="#263238" stroke-width="0.3" stroke-linecap="round" stroke-linejoin="round"/>
<path d="M44.0062 63.7881L41.2162 63.6411L39.1162 70.7871L41.3332 72.3861C41.9199 71.0442 42.4327 69.6711 42.8692 68.2731C43.3337 66.8011 43.7133 65.3036 44.0062 63.7881Z" fill="#263238" stroke="#263238" stroke-width="0.3" stroke-linecap="round" stroke-linejoin="round"/>
<path d="M41.3753 67.5652C40.7993 69.5392 39.7943 70.9822 39.1283 70.7872C38.4623 70.5922 38.3933 68.8372 38.9693 66.8632C39.5453 64.8892 40.5533 63.4462 41.2163 63.6412C41.8793 63.8362 41.9513 65.5942 41.3753 67.5652Z" fill="white" stroke="#263238" stroke-width="0.3" stroke-linecap="round" stroke-linejoin="round"/>
<path d="M73.2894 103.301C71.7384 102.578 59.0184 79.9314 58.2894 78.7014C57.5604 77.4714 57.7734 75.7014 58.4964 74.0484C59.2194 72.3954 59.2194 69.2904 58.7964 68.6694C58.3734 68.0484 57.1074 67.4154 57.1074 67.4154C57.1074 67.4154 57.3504 67.1154 57.8664 66.5004C58.3824 65.8854 59.6244 66.2934 59.6244 66.2934C60.5544 65.5674 61.3854 66.7494 61.3854 66.7494C62.4204 66.1284 62.9334 67.3254 62.9334 67.3254C63.2967 67.3457 63.6506 67.4483 63.9684 67.6254C64.8294 68.1834 64.6914 70.6254 64.6914 70.6254C64.6914 70.6254 65.6214 70.8324 65.8284 71.4534C66.0603 72.4517 65.9882 73.4965 65.6214 74.4534C65.2074 75.4884 62.6214 78.5904 62.6214 78.5904L75.4434 100.616" fill="white"/>
<path d="M73.2894 103.301C71.7384 102.578 59.0184 79.9314 58.2894 78.7014C57.5604 77.4714 57.7734 75.7014 58.4964 74.0484C59.2194 72.3954 59.2194 69.2904 58.7964 68.6694C58.3734 68.0484 57.1074 67.4154 57.1074 67.4154C57.1074 67.4154 57.3504 67.1154 57.8664 66.5004C58.3824 65.8854 59.6244 66.2934 59.6244 66.2934C60.5544 65.5674 61.3854 66.7494 61.3854 66.7494C62.4204 66.1284 62.9334 67.3254 62.9334 67.3254C63.2967 67.3457 63.6506 67.4483 63.9684 67.6254C64.8294 68.1834 64.6914 70.6254 64.6914 70.6254C64.6914 70.6254 65.6214 70.8324 65.8284 71.4534C66.0603 72.4517 65.9882 73.4965 65.6214 74.4534C65.2074 75.4884 62.6214 78.5904 62.6214 78.5904L75.4434 100.616" stroke="#263238" stroke-width="0.6" stroke-linecap="round" stroke-linejoin="round"/>
<path d="M59.6392 66.2993C59.6392 66.2993 61.1242 67.2563 61.1242 68.0993C61.1401 68.75 61.1952 69.3992 61.2892 70.0433" stroke="#263238" stroke-width="0.3" stroke-linecap="round" stroke-linejoin="round"/>
<path d="M61.4004 66.7402C61.4004 66.7402 62.3004 67.6852 62.3454 68.2402C62.3904 68.7952 62.5134 70.5172 62.5134 70.5172" stroke="#263238" stroke-width="0.3" stroke-linecap="round" stroke-linejoin="round"/>
<path d="M62.9482 67.3164C63.2571 67.7711 63.4327 68.3032 63.4552 68.8524C63.4614 69.428 63.4985 70.0028 63.5662 70.5744" stroke="#263238" stroke-width="0.3" stroke-linecap="round" stroke-linejoin="round"/>
<path d="M64.7061 70.6255C64.7061 70.6255 65.1231 73.2955 64.9551 73.8535" stroke="#263238" stroke-width="0.3" stroke-linecap="round" stroke-linejoin="round"/>
</svg>
