<svg width="24" height="24" viewBox="0 0 24 24" fill="none" xmlns="http://www.w3.org/2000/svg">
<path d="M23.3203 8.26562C23.0625 8.52344 22.8125 8.75781 22.5703 8.96875C22.3281 9.17969 22.0703 9.36328 21.7969 9.51953C21.5234 9.67578 21.2383 9.78906 20.9414 9.85938C20.6445 9.92969 20.2969 9.97266 19.8984 9.98828C19.6328 9.98828 19.3789 9.96484 19.1367 9.91797L14.6953 14.3594C14.7969 14.6562 14.8711 14.9609 14.918 15.2734C14.9648 15.5859 14.9883 15.8984 14.9883 16.2109C14.9883 16.7188 14.9375 17.1797 14.8359 17.5938C14.7344 18.0078 14.5898 18.3984 14.4023 18.7656C14.2148 19.1328 13.9805 19.4805 13.6992 19.8086C13.418 20.1367 13.1094 20.4766 12.7734 20.8281L8.25 16.3047L1.59375 22.9727L0 23.5L0.527344 21.9062L7.19531 15.25L2.67188 10.7266C3.01562 10.3828 3.35156 10.0742 3.67969 9.80078C4.00781 9.52734 4.35547 9.29688 4.72266 9.10938C5.08984 8.92188 5.48047 8.77344 5.89453 8.66406C6.30859 8.55469 6.77344 8.50391 7.28906 8.51172C7.60156 8.51172 7.91406 8.53516 8.22656 8.58203C8.53906 8.62891 8.84375 8.70312 9.14062 8.80469L13.582 4.36328C13.5352 4.12109 13.5117 3.86719 13.5117 3.60156C13.5117 3.21875 13.5508 2.875 13.6289 2.57031C13.707 2.26562 13.8242 1.97656 13.9805 1.70312C14.1367 1.42969 14.3164 1.17578 14.5195 0.941406C14.7227 0.707031 14.9609 0.453125 15.2344 0.179688L23.3203 8.26562Z" fill="#0A0A0A"/>
</svg>
