<svg width="24" height="24" viewBox="0 0 24 24" fill="none" xmlns="http://www.w3.org/2000/svg">
<g clip-path="url(#clip0_1971_5667)">
<path d="M19 18.5H18.5V19V19.966C18.5 20.6023 17.7584 20.9492 17.2703 20.542L17.27 20.5418L14.958 18.6158L14.819 18.5H14.638H12C11.337 18.5 10.7011 18.2366 10.2322 17.7678C9.76339 17.2989 9.5 16.663 9.5 16V13C9.5 12.337 9.76339 11.7011 10.2322 11.2322C10.7011 10.7634 11.337 10.5 12 10.5H19C19.663 10.5 20.2989 10.7634 20.7678 11.2322C21.2366 11.7011 21.5 12.337 21.5 13V16C21.5 16.663 21.2366 17.2989 20.7678 17.7678C20.2989 18.2366 19.663 18.5 19 18.5ZM5.5 17V16.5H5C4.33696 16.5 3.70107 16.2366 3.23223 15.7678C2.76339 15.2989 2.5 14.663 2.5 14V7C2.5 6.33696 2.76339 5.70107 3.23223 5.23223C3.70107 4.76339 4.33696 4.5 5 4.5H16C16.663 4.5 17.2989 4.76339 17.7678 5.23223C18.2366 5.70107 18.5 6.33696 18.5 7V7.5H11C9.80653 7.5 8.66193 7.97411 7.81802 8.81802C6.97411 9.66193 6.5 10.8065 6.5 12V16C6.5 16.9762 6.81135 17.8817 7.3405 18.6196L6.7 19.1C6.20562 19.4708 5.5 19.118 5.5 18.5V17Z" stroke="#666666"/>
</g>
<defs>
<clipPath id="clip0_1971_5667">
<rect width="24" height="24" fill="white"/>
</clipPath>
</defs>
</svg>
