<svg width="25" height="24" viewBox="0 0 25 24" fill="none" xmlns="http://www.w3.org/2000/svg">
<path d="M13.2755 11.4557C12.509 12.2222 11.641 11.8052 11.2405 11.4612M7.38003 10.7682L6.95203 11.2132M8.23703 10.8357L7.80853 11.2922M9.03703 10.9257L8.60903 11.4047M15.4735 10.9707L15.93 11.4217M16.2625 10.8527L16.7135 11.2867M17.08 10.7232L17.525 11.1402M15.0225 7.87669C15.361 8.24319 15.1185 8.76719 14.549 8.58669C14.5265 8.75019 14.5325 8.90819 14.6055 9.10519C15.1015 10.3117 16.567 9.84369 16.7135 9.07169C17.012 7.78669 15.5355 7.34669 15.0225 7.87669ZM8.29353 7.84319C8.62603 8.19819 8.38903 8.71069 7.83103 8.53619C7.81403 8.69419 7.81403 8.85169 7.89303 9.04369C8.37203 10.2157 9.79803 9.76469 9.94453 9.00969C10.232 7.75869 8.79453 7.32969 8.29353 7.84319Z" stroke="#666666" stroke-width="0.5" stroke-linecap="round" stroke-linejoin="round"/>
<path d="M17.0065 20.3209C22.609 22.7159 18.861 15.3444 19.4245 12.3179C21.0085 -1.07361 3.98749 -1.07361 5.27249 12.3739C4.75399 17.1649 2.76399 22.8009 7.88749 20.2139C9.97249 19.5374 11.472 22.7954 13.225 21.4539C15.231 20.2984 15.9355 19.7519 17.0065 20.3209Z" stroke="#666666" stroke-width="0.5" stroke-linecap="round" stroke-linejoin="round"/>
</svg>
