<svg width="25" height="24" viewBox="0 0 25 24" fill="none" xmlns="http://www.w3.org/2000/svg">
<path fill-rule="evenodd" clip-rule="evenodd" d="M12.5 6.25C11.638 6.25 10.8114 6.59241 10.2019 7.2019C9.59241 7.8114 9.25 8.63805 9.25 9.5C9.25 10.362 9.59241 11.1886 10.2019 11.7981C10.8114 12.4076 11.638 12.75 12.5 12.75C13.362 12.75 14.1886 12.4076 14.7981 11.7981C15.4076 11.1886 15.75 10.362 15.75 9.5C15.75 8.63805 15.4076 7.8114 14.7981 7.2019C14.1886 6.59241 13.362 6.25 12.5 6.25ZM10.75 9.5C10.75 9.03587 10.9344 8.59075 11.2626 8.26256C11.5908 7.93437 12.0359 7.75 12.5 7.75C12.9641 7.75 13.4092 7.93437 13.7374 8.26256C14.0656 8.59075 14.25 9.03587 14.25 9.5C14.25 9.96413 14.0656 10.4092 13.7374 10.7374C13.4092 11.0656 12.9641 11.25 12.5 11.25C12.0359 11.25 11.5908 11.0656 11.2626 10.7374C10.9344 10.4092 10.75 9.96413 10.75 9.5Z" fill="#666666"/>
<path fill-rule="evenodd" clip-rule="evenodd" d="M12.5 2.25C11.1923 2.24991 9.909 2.60349 8.78592 3.27329C7.66283 3.94309 6.74181 4.90418 6.12041 6.05475C5.499 7.20532 5.20035 8.50253 5.25608 9.809C5.31181 11.1155 5.71986 12.3825 6.43699 13.476L3.84999 17.956C3.77817 18.0808 3.74378 18.2236 3.75092 18.3673C3.75806 18.5111 3.80643 18.6498 3.89026 18.7669C3.97408 18.8839 4.08982 18.9743 4.22365 19.0274C4.35748 19.0804 4.50375 19.0938 4.64499 19.066L7.25899 18.552L8.11999 21.072C8.16639 21.2085 8.25117 21.3288 8.36416 21.4184C8.47716 21.5079 8.61359 21.5631 8.7571 21.5771C8.90061 21.5911 9.04513 21.5635 9.17334 21.4975C9.30155 21.4315 9.40802 21.33 9.47999 21.205L12.06 16.737C12.3531 16.7547 12.6469 16.7547 12.94 16.737L15.52 21.205C15.592 21.3299 15.6986 21.4314 15.8269 21.4973C15.9551 21.5633 16.0997 21.5908 16.2432 21.5767C16.3867 21.5625 16.5231 21.5073 16.6361 21.4176C16.749 21.3279 16.8337 21.2076 16.88 21.071L17.738 18.545L20.354 19.065C20.4953 19.0931 20.6417 19.0798 20.7757 19.0269C20.9097 18.9739 21.0256 18.8835 21.1096 18.7664C21.1936 18.6494 21.242 18.5106 21.2492 18.3667C21.2563 18.2228 21.2219 18.0798 21.15 17.955L18.564 13.476C19.2812 12.3825 19.6892 11.1153 19.7449 9.80875C19.8006 8.5022 19.5019 7.20491 18.8803 6.05431C18.2588 4.90371 17.3376 3.94264 16.2144 3.27291C15.0912 2.60318 13.8077 2.24973 12.5 2.25ZM6.74999 9.5C6.74999 7.97501 7.35579 6.51247 8.43413 5.43414C9.51246 4.3558 10.975 3.75 12.5 3.75C14.025 3.75 15.4875 4.3558 16.5659 5.43414C17.6442 6.51247 18.25 7.97501 18.25 9.5C18.25 11.025 17.6442 12.4875 16.5659 13.5659C15.4875 14.6442 14.025 15.25 12.5 15.25C10.975 15.25 9.51246 14.6442 8.43413 13.5659C7.35579 12.4875 6.74999 11.025 6.74999 9.5ZM10.484 16.466C9.34653 16.1366 8.30719 15.5333 7.45699 14.709L5.97499 17.276L7.61199 16.954C7.78988 16.9191 7.9744 16.9498 8.1314 17.0404C8.2884 17.1311 8.40726 17.2755 8.46599 17.447L9.00599 19.026L10.484 16.466ZM15.992 19.022L14.516 16.466C15.6534 16.1366 16.6928 15.5333 17.543 14.709L19.023 17.272L17.385 16.946C17.2065 16.9107 17.0213 16.9414 16.8639 17.0325C16.7064 17.1235 16.5874 17.2687 16.529 17.441L15.992 19.022Z" fill="#666666"/>
</svg>
