<svg width="150" height="150" viewBox="0 0 150 150" fill="none" xmlns="http://www.w3.org/2000/svg">
<g clip-path="url(#clip0_1476_35894)">
<path d="M0 150H150V1.52588e-05H0V150Z" fill="white"/>
<path d="M11.3134 42.4756C10.2115 42.6493 9.45885 43.6831 9.63228 44.785L17.9643 97.7236C18.1378 98.8258 19.1717 99.5782 20.2736 99.4048L58.828 93.3367C59.9299 93.1633 60.6826 92.1295 60.5092 91.0276L53.5495 46.8094L40.7443 37.8436L11.3134 42.4756Z" fill="#F8F8F8"/>
<path d="M43.7354 48.3548L53.5493 46.8101L40.7441 37.8443L42.2255 47.2556C42.3389 47.9762 43.0148 48.4682 43.7354 48.3548Z" fill="#D8D7D5"/>
<path d="M40.7031 37.8506L42.1842 47.2619C42.2901 47.9333 42.8691 48.4121 43.5279 48.4121C43.5984 48.4121 43.6695 48.4067 43.7412 48.3953L53.5554 46.8509L53.5896 46.8038L53.5425 46.7696L43.7286 48.3143C43.6611 48.3248 43.5939 48.3299 43.5279 48.3299C42.909 48.3299 42.3648 47.8799 42.2655 47.2493L40.7844 37.838L40.7373 37.8038L40.7031 37.8506Z" fill="#232221"/>
<path d="M33.5055 80.375L32.7984 75.8831L37.4274 75.1544L38.1345 79.6463L33.5055 80.375ZM32.6007 73.7354C32.3886 72.3869 32.3205 71.2844 32.3967 70.4291C32.4729 69.5738 32.754 68.7566 33.2406 67.9772C33.519 67.5116 33.8514 67.0964 34.2393 66.7307C34.6266 66.3656 34.977 65.9882 35.2911 65.5988C35.6043 65.2103 35.8542 64.7897 36.0414 64.3388C36.228 63.8876 36.2694 63.3308 36.165 62.6675C35.9889 61.5479 35.5569 60.8132 34.8693 60.4643C34.182 60.1157 33.4152 60.008 32.5695 60.1412C31.3575 60.332 30.5763 60.8009 30.2256 61.5467C29.8742 62.2934 29.7315 63.2471 29.7972 64.4078L25.374 65.1041C25.1977 63.9842 25.2202 62.9381 25.4422 61.9658C25.6638 60.9941 26.0617 60.1349 26.6354 59.3885C27.2088 58.6427 27.943 58.0232 28.8381 57.5309C29.7322 57.0386 30.7512 56.7026 31.8945 56.5226C34.3635 56.1341 36.3912 56.3306 37.9785 57.1112C39.5655 57.8924 40.5372 59.4143 40.8936 61.6775C41.0088 62.4092 41.0349 63.0608 40.9728 63.6329C40.9104 64.2047 40.7655 64.7372 40.539 65.2295C40.3119 65.7221 40.0116 66.197 39.6387 66.6539C39.2652 67.1114 38.8371 67.5884 38.3532 68.0861C37.9113 68.5544 37.5624 68.9783 37.3059 69.3578C37.0494 69.7382 36.8694 70.124 36.7674 70.5143C36.6651 70.9055 36.6225 71.3048 36.6396 71.7116C36.6567 72.1193 36.7053 72.5744 36.7845 73.0769L32.6007 73.7354Z" fill="#D8D7D5"/>
<path d="M55.2493 76.3908C60.3529 81.4074 66.2887 88.1763 71.8045 96.9222C75.6418 103.007 78.4864 108.796 80.6095 113.89C75.7177 116.092 70.8262 118.293 65.9344 120.494L53.3584 77.6973L55.2493 76.3908Z" fill="#FABA1A"/>
<path d="M45.9796 72.93L55.3879 75.8706C57.9658 79.959 59.4544 83.5806 60.3283 86.0991C64.399 97.8294 63.0934 108.564 62.7244 111.597C62.7244 111.597 62.7181 111.649 61.5322 120.494H18.5156C18.3733 117.288 18.4007 112.854 19.1577 107.653C20.0554 101.486 20.8887 95.7606 24.6196 89.4726C26.1367 86.9157 31.4152 78.7338 41.5372 74.4507C43.3423 73.6869 44.9032 73.2156 45.9796 72.93Z" fill="#FABA1A"/>
<path d="M23.8492 90.84C29.0859 92.52 35.7545 94.1688 43.5917 94.9719C50.8919 95.7201 57.3275 95.5419 62.5433 95.0523C62.6927 96.2826 62.8424 97.5129 62.9918 98.7432C57.4217 99.1977 50.7971 99.3348 43.3853 98.6865C35.0822 97.9605 27.889 96.4326 22.0459 94.7916C22.6471 93.4743 23.2481 92.1573 23.8492 90.84Z" fill="#F25D26"/>
<path d="M63.1632 101.35C63.0639 99.0426 62.8173 96.4806 62.3262 93.7635L63.6813 89.3085C64.4148 89.5068 65.1636 89.6676 65.9256 89.7891L63.1632 101.35Z" fill="#F0AD0E"/>
<path d="M58.5889 120.494H54.1963L60.7636 98.9031C61.5238 98.856 62.2672 98.802 62.9923 98.7429C62.8429 97.5126 62.6932 96.2823 62.5438 95.052C62.3371 95.0712 62.1283 95.0901 61.9177 95.1087L62.3269 93.7632C62.818 96.4803 63.0646 99.0423 63.1639 101.349L58.5889 120.494Z" fill="#F0AD0E"/>
<path d="M60.7637 98.9033L61.9178 95.1089C62.1284 95.0903 62.3372 95.0714 62.5439 95.0522C62.6933 96.2825 62.843 97.5128 62.9924 98.7431C62.2673 98.8022 61.5239 98.8562 60.7637 98.9033Z" fill="#F27E14"/>
<path d="M46.8112 114.275L48.6361 113.707L52.8187 115.869L53.8735 113.311L48.5653 111.27L46.3984 112.285L46.8112 114.275Z" fill="#E4A012"/>
<path d="M18.4726 115.639C18.4645 115.637 18.4563 115.635 18.4482 115.633L18.4917 115.028C18.4843 115.234 18.478 115.438 18.4726 115.639Z" fill="#F1D066"/>
<path d="M41.0003 118.411C38.6741 118.411 36.2018 118.324 33.6029 118.116C27.8215 117.655 22.7322 116.703 18.4727 115.639C18.4781 115.438 18.4844 115.234 18.4918 115.028L18.7429 111.531C18.8979 111.583 19.0554 111.636 19.2152 111.689C21.2333 112.362 25.7096 114.196 30.7802 114.899C41.3537 116.367 47.2238 116.734 47.2238 116.734L47.2436 116.269C47.2436 116.913 47.2436 117.557 47.2436 118.201C45.3059 118.332 43.2194 118.411 41.0003 118.411Z" fill="#F0AD0E"/>
<path d="M49.7787 79.6907H49.7784C47.1186 79.2347 45.3318 76.7084 45.7878 74.0486L47.5647 63.6833L57.1977 65.3348L55.4208 75.6998C54.9648 78.3599 52.4385 80.1467 49.7787 79.6907Z" fill="#F79994"/>
<path d="M55.9182 72.7988L50.2134 68.4785C50.1816 69.0326 50.0922 71.6378 52.0203 73.7861C53.2515 75.1577 54.7074 75.677 55.3878 75.8711L55.9182 72.7988Z" fill="#F35B5F"/>
<path d="M47.8939 60.433C47.8909 60.2713 47.5201 59.9626 47.4073 59.8594C47.2174 59.6851 47.005 59.5351 46.7767 59.4148C46.3336 59.1814 45.8236 59.0557 45.3217 59.0818C44.3233 59.1334 43.3312 59.791 42.9982 60.7504C42.8047 61.3078 42.8332 61.9243 42.9868 62.494C43.2175 63.3508 43.7278 64.126 44.4085 64.6948C44.9728 65.1664 45.6508 65.4961 46.3651 65.6656C46.5082 65.6998 47.9935 65.9248 47.9926 65.8663C47.9596 64.0552 47.9266 62.2441 47.8939 60.433Z" fill="#F79994"/>
<path d="M46.5566 60.3027C46.535 61.0956 46.4996 65.2908 49.6688 68.8152C50.2526 69.4644 54.1337 73.7805 58.5527 72.7812C64.2308 71.4969 65.1773 62.7063 65.2226 62.2293C65.3756 60.6165 65.8259 55.8657 62.3837 52.6851C59.5745 50.0895 56.0111 50.238 55.5044 50.2671C54.9707 50.298 51.5591 50.5494 48.9983 53.4018C46.6742 55.9908 46.592 59.0052 46.5566 60.3027Z" fill="#F79994"/>
<path d="M62.2186 61.7087C62.1847 62.402 62.6215 62.9867 63.1939 63.0146C63.7663 63.0425 64.2577 62.5031 64.2913 61.8098C64.3252 61.1165 63.8884 60.5318 63.316 60.5039C62.7436 60.476 62.2522 61.0154 62.2186 61.7087Z" fill="#232221"/>
<path d="M59.9663 62.5149L60.6815 63.945C60.6995 63.981 60.7073 64.0173 60.7076 64.0539C60.707 64.1511 60.6497 64.2438 60.5522 64.2816L59.6 64.6545C59.4686 64.7061 59.4038 64.8546 59.4551 64.986C59.5067 65.1174 59.6552 65.1822 59.7866 65.1309L60.7388 64.7577C61.0388 64.6398 61.2194 64.3536 61.2191 64.0539C61.2191 63.9405 61.193 63.8241 61.139 63.7161L60.4238 62.286C60.3605 62.1597 60.2069 62.1087 60.0806 62.1717C59.9543 62.235 59.9033 62.3886 59.9663 62.5149Z" fill="#232221"/>
<path d="M53.3601 64.2399C53.3223 65.0178 53.9223 65.6793 54.7002 65.7171C55.4781 65.7549 56.1393 65.1549 56.1774 64.377C56.2152 63.5991 55.6152 62.9379 54.8373 62.8998C54.0594 62.862 53.3979 63.462 53.3601 64.2399Z" fill="#F35B5F"/>
<path d="M46.8875 63.8524C46.9016 63.7843 46.9412 63.5761 46.9412 63.2917C46.9412 62.839 46.8407 62.176 46.3652 61.5688C45.7571 60.7957 44.939 60.6118 44.7107 60.5668C44.5721 60.5398 44.4377 60.6304 44.411 60.7693C44.384 60.9079 44.4746 61.042 44.6132 61.069C44.7956 61.1035 45.476 61.2613 45.9626 61.8844C46.3457 62.3725 46.4294 62.9104 46.4297 63.2917C46.4297 63.5299 46.3967 63.7003 46.3865 63.7492C46.358 63.8875 46.4471 64.0228 46.5854 64.0513C46.724 64.0798 46.859 63.9907 46.8875 63.8524Z" fill="#232221"/>
<path d="M46.2913 61.703C46.2511 61.6895 46.0756 61.6331 45.8308 61.6325C45.5953 61.6319 45.2869 61.6886 45.0046 61.904C44.7688 62.0834 44.6371 62.3078 44.5651 62.4929C44.4931 62.678 44.4772 62.8304 44.4727 62.8787C44.4601 63.0194 44.5639 63.1436 44.7046 63.1562C44.8453 63.1688 44.9695 63.065 44.9821 62.9243C44.9842 62.9003 44.9944 62.8004 45.0418 62.6786C45.0895 62.5571 45.1705 62.4206 45.3145 62.3105C45.4867 62.1797 45.6715 62.1446 45.8308 62.144C45.9937 62.1437 46.1209 62.1848 46.1263 62.1872C46.2598 62.2325 46.4053 62.1611 46.4509 62.0276C46.4965 61.8938 46.4251 61.7486 46.2913 61.703Z" fill="#232221"/>
<path d="M64.1908 63.8759C64.4599 63.8888 64.705 63.9806 64.9126 64.1219C64.7551 64.8629 64.5247 65.7548 64.1926 66.6857C64.1461 66.6881 64.1011 66.6953 64.0537 66.6929C63.2755 66.6551 62.6758 65.9939 62.7136 65.216C62.7514 64.4378 63.4129 63.8378 64.1908 63.8759Z" fill="#F35B5F"/>
<path d="M56.4949 60.3874L57.4183 61.4353L56.0947 61.9015C55.9615 61.9483 55.8916 62.0944 55.9384 62.2276C55.9855 62.3608 56.1316 62.4307 56.2648 62.3839L57.9457 61.7917C58.0255 61.7638 58.087 61.6969 58.1083 61.615C58.1296 61.5331 58.1086 61.4449 58.0528 61.3816L56.8789 60.0493C56.7853 59.9434 56.6236 59.9332 56.5177 60.0265C56.4118 60.1198 56.4016 60.2815 56.4949 60.3874Z" fill="#232221"/>
<path d="M56.1787 67.7324L60.4051 68.2139C60.3937 68.1275 60.2086 66.8792 59.2054 66.4256C58.222 65.9804 56.8363 66.473 56.1787 67.7324Z" fill="white"/>
<path d="M46.6012 59.3302C46.834 59.4208 47.383 59.6701 47.8198 60.2572C48.2221 60.7984 48.3187 61.3435 48.3472 61.5928C52.7308 61.1767 55.2613 59.9449 56.7853 58.8355C56.7853 58.8355 56.8966 58.7545 60.1102 56.3134C60.628 56.8717 61.4389 57.6199 62.5867 58.2622C63.6271 58.8448 64.5907 59.1418 65.296 59.3014C67.5997 58.7653 69.2059 57.0442 69.2593 55.2469C69.3154 53.3542 67.633 51.9214 66.439 51.3259C65.41 50.8129 64.6744 50.8867 63.7888 50.9608C62.9971 51.0268 62.0854 51.0928 60.7372 50.7397C58.4344 50.1364 58.5202 49.2697 56.3611 48.7465C55.7086 48.5881 52.9975 47.9311 50.2732 49.3654C47.9755 50.5753 46.1551 53.0164 45.9739 55.8316C45.8746 57.3724 46.2925 58.615 46.6012 59.3302Z" fill="#232221"/>
<path d="M45.9796 72.9308C42.1138 73.8122 34.8823 76.0385 28.1461 82.0643C28.1461 82.0643 21.3571 88.1375 16.727 99.3992C16.3168 100.397 15.8579 101.45 15.3512 103.664C14.9584 105.381 14.7815 106.963 14.7238 108.345C14.6805 109.378 15.3171 110.318 16.289 110.671C17.1426 110.981 18.1257 111.327 19.2151 111.69C21.2332 112.363 25.7095 114.196 30.7801 114.9C41.3536 116.367 47.2237 116.734 47.2237 116.734L47.9926 98.4821L34.0162 96.7127L45.9796 72.9308Z" fill="#FABA1A"/>
<path d="M57.1308 82.357C58.8849 88.4914 59.9715 93.6265 60.6588 97.3711C60.6738 97.4527 60.7521 97.5064 60.8334 97.4917C60.915 97.4767 60.969 97.3984 60.954 97.3171C60.2652 93.565 59.1765 88.4197 57.4191 82.2745C57.3963 82.195 57.3132 82.1488 57.2337 82.1716C57.1539 82.1944 57.108 82.2775 57.1308 82.357Z" fill="#232221"/>
<path d="M36.7474 94.0234C36.322 93.949 35.9008 93.8722 35.4844 93.7936L37.4845 89.8177L36.7474 94.0234Z" fill="#F0AD0E"/>
<path d="M36.2269 96.9922L34.0156 96.712L35.4841 93.793C35.9005 93.8716 36.3217 93.9484 36.7471 94.0228L36.2269 96.9922Z" fill="#F27E14"/>
<path d="M35.897 98.8818H31.1504L38.9924 81.2157L37.4852 89.8176L35.4851 93.7935L34.0166 96.7125L36.2279 96.9927L35.897 98.8818Z" fill="#F0AD0E"/>
<path d="M56.0837 120.494L51.8477 119.294L61.0925 86.6649L65.3285 87.8652L56.0837 120.494Z" fill="#4E52AD"/>
<path d="M47.6866 102.779C47.6866 102.779 55.6339 101.988 56.4811 102.249C57.3283 102.511 60.2281 104.152 60.6379 104.62C61.0477 105.089 61.1941 105.528 61.1356 105.967C61.0771 106.406 60.4915 106.904 60.4915 106.904C60.9505 107.618 60.9661 108.108 60.8683 108.439C60.694 109.03 60.0004 109.648 59.9938 109.655C60.0451 109.838 60.1027 110.101 60.1183 110.42C60.1333 110.723 60.1633 111.334 59.8618 111.892C59.4142 112.72 58.4929 112.956 58.2913 113.003C58.2913 113.003 58.6474 113.666 58.1791 114.222C57.7105 114.778 56.3056 115.481 54.637 115.247C52.9684 115.012 48.6358 112.876 48.6358 112.876L47.2432 113.311L47.6866 102.779Z" fill="#F79994"/>
<path d="M69.3948 86.4951C67.3785 86.4951 65.439 86.169 63.6249 85.566C61.9821 83.5578 60.3552 81.7083 58.7754 80.0127L57.6582 72.9135C57.9531 72.8919 58.2513 72.8487 58.5522 72.7806C64.2303 71.4963 65.1768 62.7057 65.2221 62.2287C65.28 61.6179 65.3805 60.5568 65.2962 59.3013C67.5996 58.7652 69.2058 57.0441 69.2592 55.2468C69.3153 53.3541 67.6329 51.9213 66.4389 51.3258C65.775 50.9949 65.2332 50.9082 64.6944 50.9082C64.3983 50.9082 64.1031 50.9343 63.7887 50.9607C63.6072 50.9757 63.4194 50.991 63.2217 51.0009C65.1498 50.3094 67.2288 49.9323 69.3948 49.9323C79.2792 49.9323 87.3315 57.777 87.6654 67.5804H85.1532C84.9747 67.5804 84.8016 67.6047 84.6375 67.6503C83.8245 67.8756 83.2275 68.6211 83.2275 69.5061V80.1666C79.8753 84.0423 74.9214 86.4951 69.3948 86.4951Z" fill="#EAF8FB"/>
<path d="M58.7753 80.0127C57.9662 79.1442 57.1694 78.3159 56.3891 77.5272C56.075 76.9854 55.7417 76.4325 55.3877 75.8715C55.3997 75.8148 55.4105 75.7572 55.4204 75.6996L55.916 72.8088L55.9172 72.8007C56.3366 72.8838 56.7677 72.93 57.2072 72.93C57.3566 72.93 57.5066 72.9246 57.6581 72.9135L58.7753 80.0127Z" fill="#E4F4F7"/>
<path d="M63.6244 85.5664C62.0938 85.0576 60.6532 84.3523 59.3323 83.4799C58.6123 81.7387 57.6583 79.7185 56.3887 77.5276C57.169 78.3163 57.9658 79.1446 58.7749 80.0131C60.3547 81.7087 61.9816 83.5582 63.6244 85.5664Z" fill="#E2D87C"/>
<path d="M59.3331 83.4805C57.264 82.1137 55.4883 80.3368 54.123 78.2668C54.7434 77.6242 55.1943 76.8055 55.3881 75.8725C55.7421 76.4335 56.0754 76.9864 56.3895 77.5282C57.6591 79.7191 58.6131 81.7393 59.3331 83.4805Z" fill="#E2D87C"/>
<path d="M54.1232 78.2656C53.2022 76.8694 52.4678 75.3394 51.9551 73.7113C51.9767 73.7362 51.9986 73.7608 52.0205 73.7854C53.2517 75.157 54.7076 75.6763 55.388 75.8704L55.9166 72.8086L55.421 75.6994C55.4111 75.757 55.4003 75.8146 55.3883 75.8713C55.1945 76.8043 54.7436 77.623 54.1232 78.2656Z" fill="#E4C6C8"/>
<path d="M55.3877 75.8711C54.7073 75.677 53.2514 75.1577 52.0202 73.7861C51.9983 73.7615 51.9764 73.7369 51.9548 73.712C51.6134 72.6287 51.3707 71.5031 51.2363 70.343C52.3778 71.3117 54.0293 72.4277 55.9175 72.8012L55.9163 72.8093L55.3877 75.8711Z" fill="#E7A6AA"/>
<path d="M57.2072 72.9307C56.7677 72.9307 56.3366 72.8845 55.9172 72.8014C54.029 72.4279 52.3775 71.3119 51.236 70.3432C51.155 69.6451 51.1133 68.9344 51.1133 68.2144C51.1133 65.5708 51.6749 63.0577 52.6844 60.7888C54.5531 60.2341 55.8563 59.5123 56.7851 58.8361C56.7851 58.8361 56.8964 58.7551 60.11 56.314C60.6278 56.8723 61.4387 57.6205 62.5865 58.2628C63.6269 58.8454 64.5905 59.1424 65.2958 59.302C65.3804 60.5575 65.2799 61.6186 65.222 62.2294C65.1767 62.7064 64.2302 71.497 58.5521 72.7813C58.2512 72.8494 57.953 72.8926 57.6581 72.9142C57.5066 72.9253 57.3566 72.9307 57.2072 72.9307ZM58.4348 66.2653C57.5924 66.2653 56.6768 66.7792 56.1788 67.7329L60.4052 68.2144C60.3938 68.128 60.2087 66.8797 59.2055 66.4261C58.967 66.3181 58.7045 66.2653 58.4348 66.2653ZM64.1207 63.8737C63.3734 63.8737 62.75 64.4608 62.7134 65.2156C62.6756 65.9935 63.2753 66.6547 64.0535 66.6925C64.0598 66.6928 64.0661 66.6931 64.0724 66.6931C64.1129 66.6931 64.1522 66.6874 64.1924 66.6853C64.5245 65.7544 64.7549 64.8625 64.9124 64.1215C64.7048 63.9802 64.4597 63.8884 64.1906 63.8755C64.1672 63.8743 64.1441 63.8737 64.1207 63.8737ZM54.7673 62.899C54.02 62.899 53.3966 63.4861 53.36 64.2406C53.3222 65.0185 53.9222 65.68 54.7001 65.7178C54.7232 65.719 54.7466 65.7196 54.7697 65.7196C55.5173 65.7196 56.1404 65.1325 56.1773 64.3777C56.2151 63.5998 55.6151 62.9386 54.8372 62.9005C54.8138 62.8993 54.7904 62.899 54.7673 62.899ZM60.1946 62.1448C60.1562 62.1448 60.1172 62.1535 60.0803 62.1718C59.954 62.2351 59.903 62.3887 59.966 62.515L60.6812 63.9451C60.6992 63.9811 60.707 64.0174 60.7073 64.054C60.7067 64.1512 60.6494 64.2439 60.5519 64.2817L59.5997 64.6546C59.4683 64.7062 59.4035 64.8547 59.4548 64.9861C59.4944 65.0869 59.591 65.1487 59.693 65.1487C59.7242 65.1487 59.7557 65.143 59.7863 65.131L60.7385 64.7578C61.0385 64.6399 61.2191 64.3537 61.2188 64.054C61.2188 63.9406 61.1927 63.8242 61.1387 63.7162L60.4235 62.2861C60.3788 62.1967 60.2885 62.1448 60.1946 62.1448ZM63.2735 60.5032C62.7194 60.5032 62.2514 61.033 62.2184 61.7089C62.1845 62.4022 62.6213 62.9869 63.1937 63.0148C63.2078 63.0154 63.2219 63.0157 63.236 63.0157C63.7901 63.016 64.2581 62.4862 64.2911 61.81C64.325 61.1167 63.8882 60.532 63.3158 60.5041C63.3017 60.5035 63.2876 60.5032 63.2735 60.5032ZM56.4941 60.3877L57.4175 61.4356L56.0939 61.9018C55.9607 61.9486 55.8908 62.0947 55.9376 62.2279C55.9748 62.3329 56.0735 62.3989 56.1788 62.3989C56.207 62.3989 56.2358 62.3941 56.264 62.3842L57.9449 61.792C58.0247 61.7641 58.0862 61.6972 58.1075 61.6153C58.1288 61.5334 58.1078 61.4452 58.052 61.3819L56.8781 60.0496C56.8274 59.9923 56.7569 59.9629 56.6861 59.9629C56.6258 59.9629 56.5655 59.9839 56.5169 60.0268C56.411 60.1201 56.4008 60.2818 56.4941 60.3877Z" fill="#E4C6C8"/>
<path d="M63.2362 63.0156C63.2221 63.0156 63.208 63.0153 63.1939 63.0147C62.6215 62.9868 62.1847 62.4021 62.2186 61.7088C62.2516 61.0329 62.7196 60.5031 63.2737 60.5031C63.2878 60.5031 63.3019 60.5034 63.316 60.504C63.8884 60.5319 64.3252 61.1166 64.2913 61.8099C64.2583 62.4861 63.7903 63.0159 63.2362 63.0156Z" fill="#74878C"/>
<path d="M59.6933 65.1484C59.5913 65.1484 59.4947 65.0866 59.4551 64.9858C59.4038 64.8544 59.4686 64.7059 59.6 64.6543L60.5522 64.2814C60.6497 64.2436 60.707 64.1509 60.7076 64.0537C60.7073 64.0171 60.6995 63.9808 60.6815 63.9448L59.9663 62.5147C59.9033 62.3884 59.9543 62.2348 60.0806 62.1715C60.1175 62.1532 60.1565 62.1445 60.1949 62.1445C60.2888 62.1445 60.3791 62.1964 60.4238 62.2858L61.139 63.7159C61.193 63.8239 61.2191 63.9403 61.2191 64.0537C61.2194 64.3534 61.0388 64.6396 60.7388 64.7575L59.7866 65.1307C59.756 65.1427 59.7245 65.1484 59.6933 65.1484Z" fill="#74878C"/>
<path d="M54.7698 65.7197C54.7467 65.7197 54.7233 65.7191 54.7002 65.7179C53.9223 65.6801 53.3223 65.0186 53.3601 64.2407C53.3967 63.4862 54.0201 62.8991 54.7674 62.8991C54.7905 62.8991 54.8139 62.8994 54.8373 62.9006C55.6152 62.9387 56.2152 63.5999 56.1774 64.3778C56.1405 65.1326 55.5174 65.7197 54.7698 65.7197Z" fill="#E7A6AA"/>
<path d="M64.0726 66.6934C64.0663 66.6934 64.06 66.6931 64.0537 66.6928C63.2755 66.655 62.6758 65.9938 62.7136 65.2159C62.7502 64.4611 63.3736 63.874 64.1209 63.874C64.1443 63.874 64.1674 63.8746 64.1908 63.8758C64.4599 63.8887 64.705 63.9805 64.9126 64.1218C64.7551 64.8628 64.5247 65.7547 64.1926 66.6856C64.1524 66.6877 64.1131 66.6934 64.0726 66.6934Z" fill="#E7A6AA"/>
<path d="M56.1796 62.3984C56.0743 62.3984 55.9756 62.3324 55.9384 62.2274C55.8916 62.0942 55.9615 61.9481 56.0947 61.9013L57.4183 61.4351L56.4949 60.3872C56.4016 60.2813 56.4118 60.1196 56.5177 60.0263C56.5663 59.9834 56.6266 59.9624 56.6869 59.9624C56.7577 59.9624 56.8282 59.9918 56.8789 60.0491L58.0528 61.3814C58.1086 61.4447 58.1296 61.5329 58.1083 61.6148C58.087 61.6967 58.0255 61.7636 57.9457 61.7915L56.2648 62.3837C56.2366 62.3936 56.2078 62.3984 56.1796 62.3984Z" fill="#74878C"/>
<path d="M60.4051 68.2139L56.1787 67.7324C56.6767 66.7787 57.5923 66.2648 58.4347 66.2648C58.7044 66.2648 58.9669 66.3176 59.2054 66.4256C60.2086 66.8792 60.3937 68.1275 60.4051 68.2139Z" fill="#EAF8FB"/>
<path d="M52.6846 60.7881C54.7039 56.2506 58.5157 52.6887 63.2218 51.0009C63.4195 50.991 63.6073 50.9757 63.7888 50.9607C64.1032 50.9343 64.3984 50.9082 64.6945 50.9082C65.2333 50.9082 65.7751 50.9949 66.439 51.3258C67.633 51.9213 69.3154 53.3541 69.2593 55.2468C69.2059 57.0441 67.5997 58.7652 65.296 59.3013C64.5907 59.1417 63.6271 58.8447 62.5867 58.2621C61.4389 57.6198 60.628 56.8716 60.1102 56.3133C56.8966 58.7544 56.7853 58.8354 56.7853 58.8354C55.8565 59.5116 54.5533 60.2334 52.6846 60.7881Z" fill="#74878C"/>
<path d="M69.3949 86.4949C59.2984 86.4949 51.1135 78.31 51.1135 68.2135C51.1135 58.117 59.2984 49.9321 69.3949 49.9321C79.4914 49.9321 87.6763 58.117 87.6763 68.2135C87.6763 78.31 79.4914 86.4949 69.3949 86.4949ZM69.3949 46.3645C57.328 46.3645 47.5459 56.1466 47.5459 68.2135C47.5459 80.2804 57.328 90.0625 69.3949 90.0625C81.4618 90.0625 91.2439 80.2804 91.2439 68.2135C91.2439 56.1466 81.4618 46.3645 69.3949 46.3645Z" fill="#4E52AD"/>
<path d="M60.5333 106.683C60.533 106.683 60.4889 106.674 60.4067 106.658C60.1193 106.602 59.3768 106.451 58.5482 106.24C57.7202 106.029 56.8025 105.756 56.1812 105.466C55.4465 105.124 54.944 104.86 54.6269 104.683C54.4685 104.594 54.3563 104.527 54.2846 104.483C54.2486 104.46 54.2228 104.444 54.2066 104.433L54.1889 104.421L54.1844 104.419C54.0821 104.348 53.942 104.374 53.8718 104.477C53.8013 104.579 53.8271 104.719 53.9297 104.79C53.9423 104.798 54.5033 105.182 55.9916 105.874C56.7599 106.231 57.8669 106.539 58.7906 106.764C59.7134 106.988 60.4481 107.124 60.4508 107.125C60.5729 107.148 60.6905 107.067 60.7133 106.945C60.7361 106.823 60.6554 106.705 60.5333 106.683Z" fill="#232221"/>
<path d="M60.0167 109.431C60.0167 109.431 59.9657 109.426 59.8712 109.415C59.5412 109.378 58.6922 109.273 57.7808 109.092C56.8715 108.913 55.8929 108.651 55.3388 108.33C54.659 107.939 54.2006 107.618 53.9144 107.396C53.771 107.286 53.6708 107.2 53.6075 107.143C53.576 107.115 53.5535 107.093 53.5394 107.08L53.5244 107.065L53.5217 107.062L53.5127 107.071L53.5217 107.062V107.062L53.5127 107.071L53.5217 107.062C53.4359 106.972 53.2934 106.969 53.2037 107.055C53.1137 107.14 53.1101 107.283 53.1959 107.373C53.2124 107.39 53.7221 107.919 55.1144 108.72C55.4864 108.933 55.9694 109.105 56.4914 109.251C58.0535 109.688 59.9654 109.878 59.972 109.879C60.0956 109.891 60.2057 109.801 60.2183 109.677C60.2306 109.554 60.1403 109.443 60.0167 109.431Z" fill="#232221"/>
<path d="M58.884 112.571C57.4605 112.515 56.3973 112.198 55.6554 111.894C55.0362 111.64 54.3276 111.265 53.7774 110.954C53.502 110.799 53.2656 110.659 53.0988 110.559C53.0151 110.509 52.9488 110.468 52.9035 110.44C52.8582 110.413 52.8348 110.398 52.8345 110.398C52.7292 110.332 52.5903 110.364 52.5246 110.469C52.4586 110.574 52.4904 110.713 52.5957 110.779C52.6014 110.782 54.1872 111.777 55.4847 112.31C56.2653 112.63 57.3849 112.962 58.8663 113.02C58.9905 113.025 59.0952 112.929 59.1 112.804C59.1048 112.68 59.0082 112.575 58.884 112.571Z" fill="#232221"/>
<path d="M47.6866 102.779L47.2432 113.312L48.6358 112.876L48.1894 102.731L47.6866 102.779Z" fill="#F35B5F"/>
<path d="M38.3047 82.2549C38.3047 82.2552 36.5323 86.1516 34.7599 90.1524C33.8734 92.1531 32.9872 94.1793 32.3218 95.7588C31.9894 96.5484 31.7119 97.2261 31.5172 97.7343C31.4197 97.9887 31.3429 98.2002 31.2895 98.364C31.2628 98.4462 31.2421 98.5161 31.2274 98.5752C31.213 98.6352 31.2031 98.6805 31.2025 98.7315C31.2034 98.7552 31.2025 98.7816 31.2226 98.8245C31.2481 98.8728 31.2784 98.8911 31.3012 98.9052C31.3453 98.9295 31.3837 98.9391 31.432 98.9502C31.5955 98.985 31.87 99.0051 32.2549 99.0195C32.638 99.0333 33.1252 99.0396 33.6898 99.0396C38.2771 99.0396 47.9974 98.6325 47.9986 98.6325L47.9923 98.4825L47.8423 98.4762L47.0737 116.728L47.2234 116.735L47.233 116.585C47.2324 116.585 47.0329 116.572 46.6726 116.548C45.4114 116.461 42.1873 116.229 38.725 115.88C35.2639 115.532 31.5604 115.066 29.3568 114.519C26.824 113.89 24.108 113.083 22.0259 112.432C20.9848 112.107 20.1021 111.821 19.48 111.617C18.8577 111.412 18.4973 111.29 18.4962 111.289C18.4178 111.263 18.3326 111.305 18.3059 111.383C18.2792 111.461 18.3211 111.547 18.3995 111.574C18.4017 111.574 24.2007 113.548 29.2845 114.81C31.8406 115.444 36.316 115.96 40.1611 116.321C44.005 116.682 47.2132 116.884 47.2141 116.884C47.254 116.887 47.2942 116.873 47.3239 116.846C47.3536 116.819 47.3716 116.781 47.3734 116.741L48.142 98.4888C48.1438 98.4471 48.1279 98.406 48.0982 98.3766C48.0688 98.3469 48.0277 98.331 47.986 98.3325C47.9842 98.3328 47.3785 98.358 46.3957 98.3961C43.4479 98.5107 37.1197 98.7396 33.6898 98.7396C33.0043 98.7396 32.4343 98.7303 32.0335 98.7096C31.8334 98.6991 31.675 98.6856 31.57 98.67C31.5178 98.6625 31.4785 98.6538 31.4593 98.6475L31.4494 98.6442L31.4488 98.6439L31.4011 98.7357L31.4911 98.6907C31.4686 98.6502 31.4503 98.646 31.4488 98.6439L31.4011 98.7357L31.4911 98.6907L31.4092 98.7315H31.5025C31.5016 98.7312 31.5052 98.7222 31.4911 98.6907L31.4092 98.7315H31.5025C31.5019 98.7309 31.5061 98.6952 31.5184 98.6478C31.5655 98.4564 31.7146 98.0439 31.9354 97.4877C32.7091 95.5347 34.3708 91.755 35.8375 88.467C36.5713 86.8224 37.2562 85.3005 37.7581 84.1896C38.0089 83.634 38.2138 83.1816 38.356 82.8678C38.4985 82.554 38.5777 82.3794 38.578 82.3791C38.6122 82.3035 38.5789 82.2147 38.5036 82.1805C38.428 82.146 38.3392 82.1793 38.3047 82.2549Z" fill="#232221"/>
<path d="M70.3922 55.2697C70.2791 55.5217 70.2618 55.8166 70.3665 56.0956C70.5771 56.6572 71.2028 56.9416 71.7644 56.731C72.7847 56.3482 73.8896 56.1868 74.96 56.2642C76.1561 56.3509 77.072 56.7103 77.5115 56.917C78.0329 57.1621 79.1177 57.6721 79.9265 58.7851C81.0524 60.3352 80.9585 62.149 80.8658 62.857C80.7878 63.4516 81.2069 63.9967 81.8015 64.0747C82.3961 64.1524 82.9418 63.7327 83.0192 63.139C83.1761 61.939 83.2115 59.6122 81.6836 57.5086C80.5469 55.9438 79.0673 55.2484 78.4355 54.9514C77.732 54.6208 76.5854 54.2047 75.1169 54.0982C73.7363 53.9983 72.3131 54.2053 71.0015 54.6976C70.7189 54.8035 70.5065 55.0147 70.3922 55.2697Z" fill="white"/>
<path d="M32.2662 80.5757C29.6069 82.94 26.1917 86.4704 23.0744 91.3628C19.8735 96.3857 18.1009 101.096 17.0881 104.562C17.0649 104.641 17.1105 104.725 17.1899 104.748C17.2695 104.771 17.3528 104.725 17.376 104.646C18.3829 101.2 20.1453 96.5177 23.3274 91.5239C26.4265 86.6603 29.8217 83.1503 32.4654 80.8001C32.5272 80.7449 32.5329 80.6501 32.478 80.5883C32.4228 80.5262 32.328 80.5208 32.2662 80.5757Z" fill="white"/>
<path d="M83.7277 120.494H51.259C49.9924 120.494 48.9658 119.468 48.9658 118.201V116.734H83.7277V120.494Z" fill="#4381CB"/>
<path d="M107.95 120.494H72.5268C71.1357 120.494 70.146 119.305 70.3158 117.838L72.993 94.7397C73.1631 93.273 74.4285 92.0838 75.8196 92.0838H111.243C112.634 92.0838 113.624 93.273 113.454 94.7397L110.777 117.838C110.607 119.305 109.341 120.494 107.95 120.494Z" fill="#4381CB"/>
<path d="M111.37 120.494H75.9468C74.5557 120.494 73.566 119.305 73.7358 117.838L76.413 94.7397C76.5831 93.273 77.8485 92.0838 79.2396 92.0838H114.663C116.054 92.0838 117.044 93.273 116.874 94.7397L114.196 117.838C114.027 119.305 112.761 120.494 111.37 120.494Z" fill="#5891D4"/>
<path d="M116.875 96.0678L114.197 117.975C114.197 117.975 114.317 120.494 110.19 120.494C106.063 120.494 87.0078 120.494 87.0078 120.494C89.5032 120.478 98.2419 120.119 106.269 113.546C114.28 106.987 116.363 98.514 116.875 96.0678Z" fill="#7CBAE8"/>
<path d="M115.993 98.8375C115.195 101.421 113.255 106.481 108.607 111.206C104.022 115.868 99.0737 117.893 96.5129 118.745C96.4343 118.771 96.3917 118.856 96.4178 118.934C96.4442 119.013 96.5291 119.056 96.6077 119.029C99.1943 118.169 104.19 116.124 108.82 111.417C113.515 106.645 115.473 101.536 116.279 98.926C116.304 98.8468 116.259 98.7628 116.18 98.7385C116.101 98.7139 116.017 98.7583 115.993 98.8375Z" fill="#232221"/>
<path d="M95.3123 108.602H94.0742L94.8632 103.58H96.1016L95.3123 108.602Z" fill="#FABA1A"/>
<path d="M96.9373 108.602H95.6992L96.2431 105.139H97.4815L96.9373 108.602Z" fill="#FABA1A"/>
<path d="M60.6333 49.3199C58.8342 50.3351 54.294 53.21 51.3135 59.0114C49.1763 63.1721 48.7305 67.1081 48.7305 69.7544C48.7305 70.7879 48.7986 71.6249 48.8604 72.2021C48.8691 72.2843 48.9432 72.344 49.0254 72.335C49.1079 72.3263 49.1676 72.2525 49.1586 72.17C49.0977 71.6006 49.0305 70.7747 49.0305 69.7544C49.0305 67.1411 49.4709 63.2552 51.5805 59.1485C54.5214 53.4227 59.0061 50.5823 60.7809 49.5812C60.8529 49.5404 60.8784 49.4489 60.8376 49.3769C60.7971 49.3046 60.7056 49.2791 60.6333 49.3199Z" fill="#232221"/>
<path d="M63.04 110.293L62.3434 105.381C62.3317 105.299 62.2558 105.242 62.1739 105.253C62.0917 105.265 62.0347 105.341 62.0464 105.423L62.7427 110.335C62.7544 110.417 62.8303 110.474 62.9125 110.462C62.9944 110.451 63.0514 110.375 63.04 110.293Z" fill="#232221"/>
<path d="M131.565 105.41H85.1542C84.0907 105.41 83.2285 104.548 83.2285 103.484V69.5061C83.2285 68.4426 84.0907 67.5805 85.1542 67.5805H131.565C132.629 67.5805 133.491 68.4426 133.491 69.5061V103.484C133.491 104.548 132.629 105.41 131.565 105.41Z" fill="#F8F8F8"/>
<path d="M133.491 71.957H83.2285V69.506C83.2285 68.621 83.8255 67.8755 84.6385 67.6502C84.8026 67.6046 84.9757 67.5803 85.1542 67.5803H131.565C131.744 67.5803 131.917 67.6046 132.081 67.6502C132.894 67.8755 133.491 68.621 133.491 69.506V71.957Z" fill="#E7E7E6"/>
<path d="M85.8419 69.9986C85.8419 70.3277 85.5749 70.5947 85.2455 70.5947C84.9164 70.5947 84.6494 70.3277 84.6494 69.9986C84.6494 69.6692 84.9164 69.4022 85.2455 69.4022C85.5749 69.4022 85.8419 69.6692 85.8419 69.9986Z" fill="#F8F8F8"/>
<path d="M87.7267 69.9986C87.7267 70.3277 87.4597 70.5947 87.1303 70.5947C86.8012 70.5947 86.5342 70.3277 86.5342 69.9986C86.5342 69.6692 86.8012 69.4022 87.1303 69.4022C87.4597 69.4022 87.7267 69.6692 87.7267 69.9986Z" fill="#F8F8F8"/>
<path d="M89.6534 69.9986C89.6534 70.3277 89.3864 70.5947 89.0573 70.5947C88.7279 70.5947 88.4609 70.3277 88.4609 69.9986C88.4609 69.6692 88.7279 69.4022 89.0573 69.4022C89.3864 69.4022 89.6534 69.6692 89.6534 69.9986Z" fill="#F8F8F8"/>
<path d="M120.865 98.7441H98.0974C97.2928 98.7441 96.6406 98.0919 96.6406 97.2873V80.9469V78.4941C96.6406 77.6895 97.2928 77.0373 98.0974 77.0373H112.335C113.14 77.0373 113.792 77.6895 113.792 78.4941V80.9469H120.865C121.67 80.9469 122.322 81.5991 122.322 82.4034V97.2873C122.322 98.0919 121.67 98.7441 120.865 98.7441Z" fill="#E7E7E6"/>
<path d="M112.35 84.3714L109.481 87.2397L106.613 84.3714L104.882 86.1024L107.75 88.9707L104.882 91.8393L106.613 93.5703L109.481 90.7017L112.35 93.5703L114.081 91.8393L111.212 88.9707L114.081 86.1024L112.35 84.3714Z" fill="#D8D7D5"/>
<path d="M85.1534 67.6217H131.565C132.085 67.6217 132.556 67.8326 132.897 68.1737C133.238 68.5148 133.449 68.9858 133.449 69.5063V103.484L133.49 103.525L133.531 103.484V69.5063C133.531 68.42 132.651 67.5395 131.565 67.5395H85.1534L85.1123 67.5806L85.1534 67.6217Z" fill="#232221"/>
<path d="M137.25 126.891H12.8055C11.0392 126.891 9.60742 125.459 9.60742 123.693C9.60742 121.927 11.0392 120.495 12.8055 120.495H137.25C139.016 120.495 140.447 121.927 140.447 123.693C140.447 125.459 139.016 126.891 137.25 126.891Z" fill="#F8A2D5"/>
<path d="M130.021 84.9727L129.287 79.1227L135.315 78.3658L136.049 84.2158L130.021 84.9727ZM129.117 76.3315C128.897 74.5753 128.853 73.144 128.986 72.0388C129.12 70.9333 129.517 69.8857 130.179 68.8951C130.559 68.3032 131.006 67.7785 131.524 67.3201C132.041 66.8626 132.51 66.3877 132.933 65.896C133.354 65.4049 133.695 64.8703 133.956 64.2931C134.216 63.7162 134.292 62.9962 134.184 62.1325C134 60.6742 133.471 59.7046 132.594 59.2249C131.717 58.7455 130.727 58.5748 129.626 58.7131C128.048 58.9114 127.017 59.4874 126.532 60.4399C126.046 61.393 125.823 62.6233 125.861 64.1302L120.101 64.8538C119.918 63.3952 119.989 62.0404 120.316 60.7897C120.642 59.5393 121.193 58.4419 121.967 57.4978C122.74 56.5543 123.716 55.7812 124.896 55.1794C126.075 54.5776 127.409 54.1834 128.898 53.9962C132.113 53.5924 134.733 53.929 136.759 55.0051C138.783 56.0818 139.982 58.093 140.351 61.0405C140.471 61.9936 140.479 62.839 140.375 63.5776C140.271 64.3165 140.062 65.0005 139.748 65.6296C139.434 66.2587 139.026 66.862 138.524 67.4389C138.022 68.0164 137.447 68.6176 136.8 69.2431C136.209 69.832 135.739 70.3672 135.392 70.8487C135.044 71.3311 134.795 71.824 134.647 72.3259C134.498 72.8284 134.427 73.3444 134.433 73.8721C134.439 74.401 134.483 74.9929 134.566 75.6475L129.117 76.3315Z" fill="#F25D26"/>
<path d="M119.55 36.7646C119.55 45.2852 112.643 52.1924 104.122 52.1924C95.6018 52.1924 88.6943 45.2852 88.6943 36.7646C88.6943 28.244 95.6018 21.3368 104.122 21.3368C112.643 21.3368 119.55 28.244 119.55 36.7646Z" fill="#F8F8F8"/>
<path d="M104.122 49.2852C97.2077 49.2852 91.6025 43.6797 91.6025 36.7653C91.6025 29.8509 97.2077 24.2454 104.122 24.2454C111.037 24.2454 116.642 29.8509 116.642 36.7653C116.642 43.6797 111.037 49.2852 104.122 49.2852Z" fill="#E7E7E6"/>
<path d="M104.534 38.1406H103.709V27.9535H104.534V38.1406Z" fill="#D8D7D5"/>
<path d="M109.838 40.6826L109.425 41.3975L103.709 38.0972L104.122 37.3823L109.838 40.6826Z" fill="#D8D7D5"/>
</g>
<defs>
<clipPath id="clip0_1476_35894">
<path d="M0 36C0 19.0294 0 10.5442 5.27208 5.27208C10.5442 0 19.0294 0 36 0H114C130.971 0 139.456 0 144.728 5.27208C150 10.5442 150 19.0294 150 36V114C150 130.971 150 139.456 144.728 144.728C139.456 150 130.971 150 114 150H36C19.0294 150 10.5442 150 5.27208 144.728C0 139.456 0 130.971 0 114V36Z" fill="white"/>
</clipPath>
</defs>
</svg>
