<svg width="191" height="148" viewBox="0 0 191 148" fill="none" xmlns="http://www.w3.org/2000/svg">
<g clip-path="url(#clip0_3602_27536)">
<path d="M146.214 134.72C151.831 134.72 156.384 125.418 156.384 113.944C156.384 102.47 151.831 93.168 146.214 93.168C140.597 93.168 136.044 102.47 136.044 113.944C136.044 125.418 140.597 134.72 146.214 134.72Z" fill="#3F3D56"/>
<path d="M145.275 147.951C149.348 123.483 145.316 99.1035 145.275 98.8604L144.483 98.9947C144.524 99.2367 148.533 123.488 144.482 147.818L145.275 147.951Z" fill="#CACACA"/>
<path d="M137.26 109.477L136.881 110.187L146.077 115.111L146.456 114.402L137.26 109.477Z" fill="#CACACA"/>
<path d="M155.783 111.943L146.588 116.871L146.967 117.581L156.163 112.653L155.783 111.943Z" fill="#CACACA"/>
<path d="M170.649 121.699C181.635 121.699 190.541 103.506 190.541 81.0637C190.541 58.6216 181.635 40.4287 170.649 40.4287C159.664 40.4287 150.758 58.6216 150.758 81.0637C150.758 103.506 159.664 121.699 170.649 121.699Z" fill="#E6E6E6"/>
<path d="M168.434 147.513C176.39 99.7201 168.515 52.1014 168.434 51.626L167.642 51.7603C167.722 52.2346 175.575 99.7253 167.642 147.381L168.434 147.513Z" fill="#CACACA"/>
<path d="M152.956 72.6644L152.577 73.374L170.565 83.0068L170.944 82.2972L152.956 72.6644Z" fill="#CACACA"/>
<path d="M189.548 77.4902L171.562 87.1279L171.942 87.8374L189.927 78.1996L189.548 77.4902Z" fill="#CACACA"/>
<path d="M124.452 147.641H18.6475C18.2583 147.641 17.8852 147.486 17.6101 147.21C17.3349 146.935 17.1801 146.561 17.1797 146.171V79.2361C17.1801 78.8465 17.3349 78.473 17.6101 78.1975C17.8852 77.922 18.2583 77.767 18.6475 77.7666H124.452C124.841 77.7671 125.214 77.922 125.489 78.1975C125.764 78.473 125.919 78.8465 125.919 79.2361V146.171C125.919 146.561 125.764 146.935 125.489 147.21C125.214 147.486 124.841 147.641 124.452 147.641Z" fill="#E4E4E4"/>
<path d="M28.3781 85.8779C28.2113 85.8781 28.0514 85.9445 27.9335 86.0626C27.8155 86.1807 27.7492 86.3407 27.749 86.5077V138.9C27.7492 139.067 27.8155 139.227 27.9335 139.345C28.0514 139.463 28.2113 139.53 28.3781 139.53H114.722C114.889 139.53 115.049 139.463 115.167 139.345C115.285 139.227 115.351 139.067 115.351 138.9V86.5077C115.351 86.3407 115.285 86.1807 115.167 86.0626C115.049 85.9445 114.889 85.8781 114.722 85.8779H28.3781Z" fill="white"/>
<path d="M115.561 99.3722V96.0522H103.35V85.668H100.034V96.0522H78.2955V85.668H74.9795V96.0522H41.4503V85.668H38.1342V96.0522H26.54V99.3722H38.1342V112.283H26.54V115.603H38.1342V129.437H26.54V132.757H56.0042V139.74H59.3203V132.757H74.9795V139.74H78.2955V132.757H115.561V129.437H78.2955V115.603H115.561V112.283H103.35V99.3722H115.561ZM74.9795 99.3722V103.43H41.4503V99.3722H74.9795ZM41.4503 106.75H74.9795V112.283H41.4503V106.75ZM41.4503 129.437V115.603H56.0042V129.437H41.4503ZM74.9795 129.437H59.3203V115.603H74.9795V129.437ZM100.034 112.283H78.2955V99.3722H100.034V112.283Z" fill="#E6E6E6"/>
<path d="M84.2335 120.164C86.5329 119.729 88.0442 117.511 87.609 115.209C87.1738 112.906 84.957 111.393 82.6576 111.827C80.3582 112.262 78.8469 114.481 79.2821 116.783C79.7173 119.085 81.9341 120.599 84.2335 120.164Z" fill="#6C63FF"/>
<path d="M190.917 148H0V147.542H191L190.917 148Z" fill="#CACACA"/>
<path d="M79.2637 91.1387C93.448 88.4574 102.771 74.7714 100.086 60.5702C97.4016 46.369 83.7267 37.0303 69.5424 39.7115C55.3581 42.3928 46.0356 56.0788 48.72 70.28C51.4045 84.4812 65.0794 93.8199 79.2637 91.1387Z" fill="#6C63FF"/>
<path d="M82.5558 107.178L71.8186 94.8346L61.0815 82.4913L77.1238 79.3586L93.1662 76.226L87.861 91.702L82.5558 107.178Z" fill="#6C63FF"/>
<path d="M75.9252 72.311C81.0143 71.349 84.3591 66.4387 83.396 61.3435C82.4328 56.2483 77.5265 52.8977 72.4373 53.8597C67.3482 54.8217 64.0034 59.732 64.9666 64.8272C65.9297 69.9224 70.8361 73.273 75.9252 72.311Z" fill="white"/>
<path d="M76.5401 0.134465C76.5401 0.134465 70.9471 -1.44289 69.2929 6.20727C67.6386 13.8574 68.6893 12.8935 68.6893 12.8935L81.175 11.4345C81.175 11.4345 84.9295 2.46106 76.5401 0.134465Z" fill="#2F2E41"/>
<path d="M68.4064 33.6963C68.4064 33.6963 59.9686 34.0873 61.4298 37.4034C61.5331 37.6378 61.6292 37.8574 61.7183 38.0622C62.7628 40.4641 63.965 42.7941 65.3172 45.0368L70.5032 53.6397L72.3904 52.59L67.0798 38.7688L71.8532 38.3787L68.4064 33.6963Z" fill="#FFB6B6"/>
<path d="M90.654 37.2085L93.3816 43.1579C93.3816 43.1579 95.4273 45.206 97.6679 53.3986C99.9084 61.5912 100.395 61.2986 100.395 61.2986L98.1809 62.037L89.0954 45.4986L84.6143 39.8418L85.9781 36.8184L90.654 37.2085Z" fill="#FFB6B6"/>
<path d="M87.3423 30.381L91.2618 37.6848C91.2618 37.6848 100.148 55.1671 99.2297 55.109C98.1973 55.0438 95.2974 56.2486 94.4071 57.4183C93.9773 57.9828 87.6973 44.1927 85.4914 41.1094L80.7181 37.4032C80.7181 37.4032 67.1652 39.687 67.1485 38.9444C67.1404 38.5806 71.6357 47.3085 70.7131 46.9217C69.6622 46.4812 67.19 48.6251 66.1001 48.1813C65.6505 47.9982 62.4732 40.2856 61.187 37.1251C61.0256 36.7306 61.0172 36.29 61.1635 35.8896C61.3097 35.4892 61.6 35.1579 61.9774 34.9606C62.944 34.4573 76.3745 31.3869 76.3745 31.3869L76.1396 30.186L77.1138 28.2354L87.3423 30.381Z" fill="#2F2E41"/>
<path d="M79.3051 8.85068C79.6412 6.77708 78.2347 4.82331 76.1635 4.48681C74.0924 4.15032 72.1409 5.55852 71.8048 7.63213C71.4687 9.70573 72.8753 11.6595 74.9464 11.996C77.0176 12.3325 78.969 10.9243 79.3051 8.85068Z" fill="#FFB6B6"/>
<path d="M87.6972 30.9667C87.907 31.5968 86.5483 31.9588 84.6546 31.6047C83.0161 31.2985 81.2226 30.9347 79.8082 30.6401C78.2934 30.3242 77.2111 30.0881 77.2111 30.0881C77.2111 30.0881 76.8214 32.5264 75.555 32.2338C74.464 31.9822 71.2035 20.5799 70.3219 17.4286C70.2575 17.1985 70.2699 16.9537 70.3573 16.7313C70.4447 16.5089 70.6023 16.3212 70.8061 16.1968L75.2842 13.4591C75.2842 13.4591 78.3703 12.398 79.4955 12.3677C80.6206 12.3375 82.5689 12.0449 82.5689 12.0449C82.5689 12.0449 84.8094 12.24 85.1991 13.898C85.5888 15.556 87.2147 25.3866 87.2448 27.7474C87.2778 30.3369 87.0681 29.0774 87.6972 30.9667Z" fill="#CACACA"/>
<path d="M76.9757 3.35547C76.9757 3.35547 75.4003 7.53546 71.5403 9.27054L70.9102 5.56376L76.9757 3.35547Z" fill="#2F2E41"/>
<path d="M79.2565 7.80205C79.5524 7.80205 79.7923 7.34356 79.7923 6.77798C79.7923 6.2124 79.5524 5.75391 79.2565 5.75391C78.9606 5.75391 78.7207 6.2124 78.7207 6.77798C78.7207 7.34356 78.9606 7.80205 79.2565 7.80205Z" fill="#FFB6B6"/>
<path d="M73.9606 54.6142L66.4295 58.0807L66.3857 57.9853C66.0284 57.2069 65.9944 56.3183 66.2914 55.5149C66.5883 54.7115 67.1919 54.0591 67.9693 53.7012L67.9695 53.7012L72.5692 51.584L73.9606 54.6142Z" fill="#2F2E41"/>
<path d="M97.0586 61.5405L101.678 59.4672C102.459 59.1168 103.347 59.0912 104.147 59.3962C104.946 59.7012 105.592 60.3117 105.942 61.0934L105.985 61.1892L98.4212 64.5838L97.0586 61.5405Z" fill="#2F2E41"/>
<path opacity="0.2" d="M84.5518 21.9395L83.6699 31.651L85.2377 31.7251L84.5518 21.9395Z" fill="black"/>
<path d="M78.4043 40.0827C78.5912 39.8738 78.73 39.6265 78.8111 39.3581C78.8921 39.0897 78.9134 38.8068 78.8735 38.5293C78.8335 38.2518 78.7332 37.9864 78.5798 37.7519C78.4263 37.5174 78.2233 37.3194 77.9851 37.1719L74.5969 20.0361L70.7061 21.5265L75.26 37.9017C75.039 38.3187 74.9785 38.8024 75.09 39.2611C75.2014 39.7198 75.477 40.1216 75.8646 40.3905C76.2522 40.6593 76.7248 40.7764 77.1929 40.7197C77.661 40.663 78.092 40.4363 78.4043 40.0827Z" fill="#FFB6B6"/>
<path d="M75.4542 22.9243L71.1819 23.6777C71.0603 23.6991 70.9356 23.6941 70.8161 23.6629C70.6967 23.6317 70.5854 23.5751 70.4898 23.497C70.3941 23.4188 70.3165 23.321 70.262 23.2101C70.2076 23.0992 70.1777 22.9778 70.1743 22.8543L70.0564 18.5258C69.9503 17.9025 70.0954 17.2624 70.46 16.7461C70.8245 16.2297 71.3787 15.8792 72.001 15.7713C72.6233 15.6635 73.263 15.8071 73.7797 16.1707C74.2963 16.5343 74.6479 17.0883 74.7573 17.711L76.1202 21.8058C76.1592 21.923 76.1724 22.0473 76.1591 22.1702C76.1458 22.293 76.1062 22.4116 76.043 22.5177C75.9798 22.6239 75.8945 22.7151 75.7929 22.7853C75.6913 22.8555 75.5758 22.9029 75.4542 22.9243Z" fill="#CACACA"/>
<path d="M81.6805 39.7806C81.9244 39.6428 82.1351 39.4531 82.2978 39.2249C82.4606 38.9967 82.5714 38.7356 82.6224 38.4599C82.6734 38.1842 82.6634 37.9006 82.5932 37.6292C82.5229 37.3578 82.3941 37.1051 82.2157 36.889L84.4946 19.5703L80.3319 19.7328L79.4007 36.7054C79.0579 37.0294 78.8457 37.4682 78.8043 37.9384C78.7629 38.4086 78.8953 38.8777 79.1763 39.2568C79.4573 39.6359 79.8675 39.8985 80.329 39.9951C80.7905 40.0916 81.2714 40.0153 81.6805 39.7806Z" fill="#FFB6B6"/>
<path d="M84.3811 22.5814L80.0931 21.9234C79.971 21.9047 79.8545 21.8599 79.7514 21.792C79.6482 21.7241 79.5609 21.6348 79.4954 21.5301C79.4298 21.4253 79.3876 21.3077 79.3715 21.1852C79.3555 21.0627 79.366 20.9381 79.4024 20.82L80.677 16.6822C80.7762 16.0578 81.1186 15.4982 81.6293 15.1261C82.14 14.7541 82.7772 14.6 83.4012 14.6976C84.0251 14.7952 84.585 15.1366 84.958 15.6469C85.3309 16.1572 85.4865 16.7947 85.3907 17.4197L85.3701 21.7358C85.3695 21.8593 85.3423 21.9813 85.2903 22.0934C85.2383 22.2055 85.1629 22.3051 85.069 22.3853C84.9751 22.4656 84.8651 22.5246 84.7464 22.5585C84.6277 22.5923 84.5031 22.6001 84.3811 22.5814Z" fill="#CACACA"/>
</g>
<defs>
<clipPath id="clip0_3602_27536">
<rect width="191" height="148" fill="white"/>
</clipPath>
</defs>
</svg>
