<svg width="124" height="150" viewBox="0 0 124 150" fill="none" xmlns="http://www.w3.org/2000/svg">
<g clip-path="url(#clip0_3625_9717)">
<path d="M40.1461 65.6982C40.1461 65.6982 42.9054 68.5597 43.1504 70.173L40.7499 71.5605L37.9794 66.6881L36.5182 60.1841C36.381 60.0462 36.2825 59.8743 36.2329 59.6859C36.1832 59.4974 36.1841 59.2992 36.2355 59.1112C36.2869 58.9233 36.3869 58.7523 36.5254 58.6157C36.6639 58.479 36.836 58.3816 37.0241 58.3333C37.2123 58.285 37.4098 58.2875 37.5967 58.3406C37.7836 58.3936 37.9531 58.4954 38.0881 58.6355C38.2232 58.7756 38.3188 58.949 38.3655 59.1382C38.4121 59.3274 38.408 59.5257 38.3536 59.7128L40.1461 65.6982Z" fill="#FFB6B6"/>
<path d="M65.7377 58.8363C65.6903 58.6473 65.6935 58.4491 65.7471 58.2617C65.8007 58.0744 65.9027 57.9046 66.0428 57.7696C66.1829 57.6347 66.3561 57.5393 66.5448 57.4932C66.7335 57.4471 66.931 57.452 67.1173 57.5073C67.3035 57.5626 67.4718 57.6663 67.6052 57.808C67.7386 57.9497 67.8322 58.1243 67.8766 58.314C67.921 58.5038 67.9146 58.7019 67.858 58.8884C67.8014 59.0748 67.6967 59.2429 67.5544 59.3756L65.8538 65.8208L62.9051 70.5866L60.5576 69.1108C60.8621 67.5077 63.7252 64.7509 63.7252 64.7509L65.7377 58.8363Z" fill="#FFB6B6"/>
<path d="M22.0118 82.2138C21.9945 78.4153 23.4472 74.8352 25.0619 71.4667C26.7304 67.9861 28.6299 64.5713 29.5728 60.7975C30.1233 58.7194 30.2572 56.5523 29.9667 54.4219C29.9097 54.0421 29.3346 54.2035 29.3913 54.5811C29.9694 58.4356 28.7197 62.2744 27.1634 65.7508C25.6201 69.1981 23.6962 72.4774 22.4922 76.0723C21.7996 78.0463 21.4357 80.1212 21.415 82.2138C21.4177 82.2915 21.4503 82.365 21.506 82.419C21.5617 82.4729 21.636 82.5031 21.7134 82.5031C21.7908 82.5031 21.8652 82.4729 21.9209 82.419C21.9765 82.365 22.0091 82.2915 22.0118 82.2138Z" fill="#E6E6E6"/>
<path d="M39.3561 83.4882C39.2285 81.8712 40.366 80.5221 41.7086 79.7798C43.4124 78.8379 45.4746 78.9188 47.3575 78.9748C49.2891 79.0522 51.2238 78.9599 53.1394 78.6989C57.6631 78.0392 61.9677 76.3165 65.7024 73.6711C69.437 71.0256 72.4963 67.5323 74.6309 63.4756C76.4017 60.111 77.6484 56.2317 77.1505 52.3893C77.0903 51.9221 77.0046 51.4585 76.8937 51.0008C76.8028 50.6265 76.2272 50.785 76.3183 51.16C77.2454 54.9772 76.1826 58.9755 74.4972 62.4214C72.9482 65.5803 70.8352 68.4275 68.2631 70.8219C65.5694 73.3294 62.4137 75.2848 58.9732 76.5783C57.1864 77.2488 55.3382 77.7411 53.4553 78.0481C51.5468 78.3444 49.6145 78.4574 47.6846 78.3857C45.766 78.3296 43.7326 78.228 41.9294 79.0073C40.5182 79.6172 39.2082 80.8252 38.8446 82.3694C38.7585 82.7356 38.7297 83.1131 38.7593 83.4882C38.7894 83.8698 39.3865 83.8731 39.3561 83.4882Z" fill="#E6E6E6"/>
<path d="M100.136 28.1301C99.4338 27.8127 98.7436 27.5072 98.0831 27.2258C97.9837 27.1838 97.8842 27.1399 97.7847 27.098L97.7728 27.092C97.178 26.8365 96.5819 26.5863 95.9845 26.3414C95.5667 26.1697 95.151 26 94.7332 25.8343C94.5701 25.7664 94.407 25.7026 94.2419 25.6387C93.9773 25.5329 93.7108 25.4291 93.4462 25.3252C93.2274 25.2394 93.0066 25.1556 92.7878 25.0717C92.5351 24.9739 92.2825 24.8801 92.0318 24.7842C91.7334 24.6724 91.4357 24.562 91.1387 24.4528C91.1356 24.4512 91.1322 24.4505 91.1287 24.4508C90.9039 24.367 90.6791 24.2852 90.4564 24.2053C87.4307 23.1113 84.3613 22.1331 81.3297 21.2966C81.2203 21.2667 81.1109 21.2367 81.0015 21.2068C80.8125 21.1549 80.6235 21.103 80.4345 21.0511C80.1003 20.9612 79.7648 20.8734 79.428 20.7876C79.1117 20.7037 78.7934 20.6239 78.4751 20.544C78.1946 20.4741 77.9142 20.4043 77.6317 20.3364C77.3552 20.2685 77.0787 20.2026 76.8002 20.1387C75.9706 19.9431 75.1425 19.7581 74.3156 19.5838C74.3098 19.5821 74.3037 19.5814 74.2977 19.5818C74.0988 19.5378 73.9018 19.4959 73.7029 19.456C70.6832 18.8351 67.6119 18.3361 64.5743 17.9707C64.4251 17.9528 64.2759 17.9348 64.1267 17.9188H64.1227C64.0969 17.9148 64.069 17.9128 64.0431 17.9108C63.7925 17.8809 63.5419 17.8529 63.2912 17.827C62.961 17.7911 62.6328 17.7571 62.3026 17.7252C61.5208 17.6473 60.7403 17.5794 59.9612 17.5215C59.7643 17.5056 59.5693 17.4916 59.3744 17.4796C59.1496 17.4617 58.9248 17.4477 58.702 17.4337C58.4713 17.4177 58.2405 17.4038 58.0098 17.3918C57.9222 17.3858 57.8367 17.3818 57.7512 17.3778C57.6437 17.3698 57.5343 17.3658 57.4269 17.3598C57.2658 17.3519 57.1047 17.3439 56.9435 17.3359C53.9119 17.1902 50.8425 17.1782 47.8189 17.3C47.6518 17.3059 47.4847 17.3139 47.3156 17.3219H47.3096C47.1883 17.3279 47.0669 17.3319 46.9436 17.3379C46.8998 17.3399 46.8541 17.3419 46.8103 17.3439C46.5099 17.3598 46.2096 17.3758 45.9092 17.3938C45.5889 17.4117 45.2706 17.4317 44.9524 17.4537C44.7515 17.4676 44.5525 17.4816 44.3536 17.4956C44.2223 17.5056 44.091 17.5156 43.9577 17.5255C43.1262 17.5894 42.2947 17.6633 41.4692 17.7471C41.1927 17.7751 40.9182 17.803 40.6437 17.833C40.4905 17.8489 40.3393 17.8649 40.1881 17.8829C37.1565 18.2263 34.0851 18.7114 31.0615 19.3222C30.8625 19.3622 30.6616 19.4041 30.4607 19.446C30.4567 19.446 30.4528 19.448 30.4488 19.448C30.4189 19.454 30.3871 19.46 30.3573 19.468C30.1504 19.5099 29.9415 19.5538 29.7346 19.5997C29.5059 19.6477 29.2791 19.6976 29.0503 19.7475C28.8594 19.7894 28.6684 19.8333 28.4774 19.8772C28.0279 19.979 27.5763 20.0829 27.1267 20.1927C26.2117 20.4123 25.2973 20.6445 24.3836 20.8894C24.1767 20.9453 23.9678 21.0012 23.7589 21.0591C23.7574 21.0592 23.756 21.0599 23.755 21.0611C23.6476 21.089 23.5381 21.119 23.4307 21.1489C20.4071 21.9834 17.3377 22.9696 14.3061 24.0835C14.0833 24.1654 13.8605 24.2472 13.6357 24.3331C13.6302 24.3334 13.6248 24.3348 13.6198 24.3371C13.017 24.5626 12.411 24.7942 11.8016 25.0318C11.5808 25.1196 11.358 25.2075 11.1352 25.2953C10.9204 25.3811 10.7035 25.467 10.4887 25.5548C10.2997 25.6307 10.1127 25.7065 9.92375 25.7844C9.77257 25.8463 9.62337 25.9082 9.47219 25.9701C8.95498 26.1857 8.43845 26.4039 7.92257 26.6249C7.61026 26.7606 7.29596 26.8964 6.98365 27.0341C6.88219 27.078 6.77875 27.122 6.6773 27.1679C5.92537 27.5013 5.24107 27.8107 4.58462 28.1161C3.8855 28.4406 3.29321 28.9587 2.8774 29.6094C2.46158 30.2601 2.23951 31.0164 2.2373 31.7894V38.8345C2.2373 39.4622 2.38302 40.0812 2.66291 40.6425C2.9428 41.2038 3.34916 41.6919 3.84975 42.0682C4.35035 42.4444 4.93142 42.6985 5.54688 42.8101C6.16233 42.9218 6.79524 42.888 7.39542 42.7114C7.69181 42.6236 7.98821 42.5357 8.2866 42.4479C8.53526 42.374 8.7859 42.3021 9.03456 42.2303C9.30708 42.1524 9.57762 42.0746 9.85015 41.9967C10.4728 41.823 11.0994 41.6493 11.726 41.4816C12.0184 41.4038 12.3108 41.3259 12.6033 41.2481C13.0628 41.1263 13.5223 41.0085 13.9818 40.8907C14.1091 40.8588 14.2364 40.8268 14.3637 40.7949C16.3629 40.2918 18.3721 39.8247 20.3653 39.4015C20.5702 39.3575 20.7751 39.3156 20.978 39.2737C21.8154 39.098 22.6483 38.9317 23.4765 38.7746L24.0733 38.6608H24.0792C24.2742 38.6229 24.4691 38.587 24.6641 38.551C25.2091 38.4512 25.7575 38.354 26.3092 38.2595C26.6255 38.2036 26.9437 38.1497 27.262 38.0978C27.2938 38.0919 27.3257 38.0859 27.3575 38.0819C27.9065 37.99 28.4569 37.9015 29.0086 37.8164C29.3825 37.7585 29.7585 37.7006 30.1345 37.6467C30.4548 37.5988 30.775 37.5529 31.0953 37.5069C34.1309 37.0797 37.1963 36.7383 40.208 36.4988C40.4686 36.4768 40.7292 36.4569 40.9898 36.4369C42.0003 36.361 43.0188 36.2932 44.0393 36.2373C45.3005 36.1694 46.5656 36.1155 47.8248 36.0776C50.8485 35.9837 53.9139 35.9837 56.9356 36.0776C58.1968 36.1155 59.4619 36.1694 60.7231 36.2373C61.7436 36.2932 62.7621 36.361 63.7726 36.4369C64.0332 36.4569 64.2938 36.4768 64.5544 36.4988C67.5641 36.7383 70.6296 37.0777 73.6691 37.5069C73.8143 37.5269 73.9575 37.5489 74.1028 37.5688C74.1545 37.5768 74.2042 37.5828 74.256 37.5908C74.4768 37.6227 74.6976 37.6567 74.9184 37.6886C75.7479 37.8124 76.5767 37.9435 77.4049 38.0819C77.6178 38.1158 77.8306 38.1518 78.0415 38.1877C78.497 38.2655 78.9506 38.3447 79.4021 38.4253C79.6647 38.4732 79.9253 38.5211 80.1859 38.569C80.351 38.5989 80.5181 38.6289 80.6832 38.6608C80.8841 38.6988 81.085 38.7367 81.284 38.7746C81.6122 38.8365 81.9404 38.9004 82.2706 38.9663C82.4775 39.0082 82.6864 39.0481 82.8952 39.092C85.1212 39.5412 87.369 40.0463 89.6069 40.5973C89.8397 40.6552 90.0724 40.7131 90.3052 40.771C90.337 40.7789 90.3669 40.7869 90.3987 40.7949C90.6394 40.8548 90.8801 40.9167 91.1208 40.9786C91.4649 41.0664 91.8097 41.1562 92.1552 41.2481C92.4476 41.3239 92.74 41.4018 93.0324 41.4816C93.9356 41.7232 94.8387 41.9747 95.7358 42.2323C96.2829 42.39 96.8272 42.5497 97.369 42.7114H97.373C97.5888 42.7755 97.8098 42.821 98.0334 42.8472C98.1918 42.8671 98.3512 42.8771 98.5108 42.8771C99.5772 42.8749 100.599 42.4478 101.352 41.6897C102.105 40.9317 102.527 39.9047 102.525 38.8345V31.8213C102.523 31.0406 102.297 30.277 101.873 29.6222C101.449 28.9675 100.846 28.4494 100.136 28.1301Z" fill="#635BFF"/>
<path d="M14.1763 24.4064C14.0983 24.3522 14.0087 24.3172 13.9146 24.3043C13.8206 24.2915 13.7249 24.3012 13.6352 24.3326C13.6298 24.3329 13.6244 24.3343 13.6193 24.3365C13.0166 24.5621 12.4105 24.7937 11.8012 25.0313C11.5804 25.1191 11.3576 25.207 11.1348 25.2948C10.9199 25.3806 10.7031 25.4665 10.4883 25.5543C10.2993 25.6302 10.1123 25.706 9.92332 25.7839C9.77213 25.8458 9.62294 25.9077 9.47175 25.9696C8.95455 26.1852 8.43801 26.4034 7.92214 26.6244C7.60983 26.7601 7.29552 26.8959 6.98321 27.0336C6.8744 27.0812 6.78179 27.1596 6.71677 27.2593C6.65175 27.3589 6.61714 27.4755 6.61719 27.5946V42.122C6.6168 42.2178 6.63893 42.3124 6.68178 42.3981C6.72464 42.4838 6.78702 42.5581 6.86386 42.6151C6.91266 42.651 6.96622 42.6799 7.02299 42.7009C7.14298 42.7432 7.2733 42.746 7.39498 42.7089L8.28417 42.4454C8.53283 42.3735 8.78149 42.3016 9.03014 42.2298C9.30268 42.1519 9.57519 42.074 9.84972 41.9962C10.4723 41.8225 11.099 41.6488 11.7256 41.4811C12.018 41.4013 12.3104 41.3234 12.6028 41.2476C13.0624 41.1258 13.5219 41.008 13.9814 40.8902C14.0948 40.8611 14.1976 40.8002 14.2778 40.7145L14.2798 40.7125C14.3819 40.6001 14.4386 40.4535 14.4389 40.3013V24.9095C14.439 24.8106 14.4151 24.7131 14.3694 24.6255C14.3236 24.5379 14.2574 24.4627 14.1763 24.4064Z" fill="#3F3D56"/>
<path d="M30.9543 19.5713C30.8864 19.5152 30.807 19.4747 30.7217 19.453C30.6364 19.4313 30.5474 19.4287 30.461 19.4456C30.457 19.4456 30.453 19.4476 30.449 19.4476C30.4192 19.4535 30.3874 19.4595 30.3575 19.4675C30.1507 19.5094 29.9418 19.5534 29.7349 19.5993C29.5061 19.6472 29.2794 19.6971 29.0506 19.747C28.8596 19.7889 28.6687 19.8328 28.4777 19.8768C28.0281 19.9786 27.5766 20.0824 27.127 20.1922C26.21 20.4118 25.2956 20.644 24.3838 20.8889C24.1929 20.9388 23.9999 20.9907 23.8089 21.0426C23.7921 21.047 23.7755 21.0524 23.7592 21.0586C23.7577 21.0587 23.7563 21.0595 23.7552 21.0606C23.6392 21.1046 23.5392 21.183 23.4685 21.2853C23.3978 21.3876 23.3598 21.509 23.3594 21.6335V38.0614C23.3592 38.151 23.3787 38.2395 23.4165 38.3206C23.4543 38.4017 23.5095 38.4734 23.5782 38.5306C23.6253 38.5701 23.6783 38.6017 23.7353 38.6244C23.8086 38.6546 23.8869 38.6701 23.9661 38.6703C24.0021 38.67 24.038 38.6666 24.0735 38.6603H24.0795C24.2744 38.6224 24.4694 38.5865 24.6643 38.5506C25.2094 38.4507 25.7577 38.3536 26.3094 38.2591C26.6257 38.2032 26.944 38.1493 27.2623 38.0974C27.2941 38.0914 27.3259 38.0854 27.3578 38.0814C27.9068 37.9896 28.4571 37.9011 29.0088 37.8159C29.3828 37.758 29.7588 37.7001 30.1347 37.6462C30.3098 37.6183 30.4848 37.5943 30.6599 37.5684C30.7758 37.5523 30.8844 37.5023 30.9722 37.4246C31.0376 37.3674 31.09 37.2968 31.126 37.2177C31.1621 37.1385 31.1808 37.0525 31.1811 36.9655V20.0465C31.1812 19.9553 31.1608 19.8652 31.1216 19.783C31.0823 19.7008 31.0252 19.6284 30.9543 19.5713Z" fill="#3F3D56"/>
<path d="M47.7333 17.491C47.6205 17.3834 47.4712 17.3227 47.3156 17.3213H47.2857C47.1724 17.3273 47.057 17.3313 46.9436 17.3373C46.8998 17.3393 46.8541 17.3413 46.8103 17.3432C46.5099 17.3592 46.2096 17.3752 45.9092 17.3932C45.5889 17.4111 45.2706 17.4311 44.9524 17.453C44.7514 17.467 44.5525 17.481 44.3536 17.495C44.2223 17.505 44.091 17.5149 43.9577 17.5249C43.1262 17.5888 42.2947 17.6627 41.4692 17.7465C41.1927 17.7745 40.9182 17.8024 40.6437 17.8324C40.4941 17.8485 40.3559 17.9197 40.2556 18.0321C40.1553 18.1446 40.1001 18.2903 40.1006 18.4412V35.8473C40.1004 35.9311 40.1177 36.0139 40.1513 36.0906C40.1848 36.1672 40.234 36.236 40.2955 36.2925C40.3326 36.3277 40.3741 36.3579 40.4189 36.3824C40.5081 36.4308 40.6079 36.4562 40.7093 36.4562C40.7232 36.4562 40.7391 36.4542 40.7551 36.4542C40.8326 36.4482 40.9122 36.4423 40.9898 36.4363C42.0003 36.3604 43.0188 36.2925 44.0393 36.2366C45.1394 36.1747 46.2394 36.1268 47.3335 36.0909C47.4518 36.0891 47.5669 36.0515 47.6637 35.9831C47.7439 35.9268 47.8094 35.8517 47.8544 35.7645C47.8995 35.6772 47.9227 35.5803 47.9223 35.482V17.9342C47.9226 17.8513 47.9061 17.7692 47.8736 17.6929C47.8411 17.6167 47.7933 17.548 47.7333 17.491Z" fill="#3F3D56"/>
<path d="M64.1265 17.9184H64.1225C64.0966 17.9144 64.0688 17.9124 64.0429 17.9104C63.7923 17.8805 63.5416 17.8526 63.291 17.8266C62.9608 17.7907 62.6325 17.7567 62.3023 17.7248C61.5205 17.6469 60.7401 17.5791 59.961 17.5212C59.764 17.5052 59.5691 17.4912 59.3741 17.4792C59.1494 17.4613 58.9246 17.4473 58.7018 17.4333C58.471 17.4174 58.2403 17.4034 58.0095 17.3914C57.922 17.3854 57.8365 17.3814 57.7509 17.3774C57.6594 17.3714 57.5699 17.3654 57.4804 17.3615C57.4625 17.3598 57.4446 17.3591 57.4267 17.3595C57.2785 17.3639 57.1373 17.4237 57.0308 17.5272C56.9703 17.5843 56.9221 17.6533 56.8893 17.7298C56.8564 17.8064 56.8396 17.889 56.8399 17.9723V35.4823C56.8393 35.5808 56.8628 35.6779 56.9082 35.7652C56.9537 35.8525 57.0196 35.9274 57.1004 35.9833C57.1965 36.0517 57.3109 36.0893 57.4287 36.0911C58.5228 36.1271 59.6228 36.175 60.7229 36.2369C61.7433 36.2928 62.7618 36.3607 63.7724 36.4365C63.85 36.4425 63.9295 36.4485 64.0071 36.4545C64.023 36.4545 64.037 36.4565 64.0529 36.4565C64.1543 36.4564 64.2541 36.431 64.3433 36.3826C64.3881 36.3581 64.4296 36.3279 64.4666 36.2928C64.5278 36.236 64.5768 36.1671 64.6103 36.0905C64.6438 36.014 64.6613 35.9312 64.6616 35.8476V18.5253C64.6611 18.3762 64.6065 18.2323 64.508 18.1206C64.4095 18.009 64.2739 17.9371 64.1265 17.9184Z" fill="#3F3D56"/>
<path d="M81.0019 21.2066C80.9863 21.2003 80.9704 21.195 80.9542 21.1906C80.7811 21.1427 80.6081 21.0968 80.435 21.0508C80.1008 20.961 79.7653 20.8732 79.4284 20.7873C79.1121 20.7035 78.7939 20.6236 78.4756 20.5438C78.1951 20.4739 77.9146 20.404 77.6321 20.3361C77.3556 20.2683 77.0791 20.2024 76.8006 20.1385C75.9711 19.9429 75.1429 19.7579 74.3161 19.5835C74.3102 19.5819 74.3042 19.5812 74.2982 19.5815C74.2124 19.5654 74.1241 19.5683 74.0396 19.5901C73.9551 19.6118 73.8763 19.6518 73.8088 19.7073C73.738 19.7644 73.6808 19.8367 73.6416 19.919C73.6023 20.0012 73.582 20.0912 73.582 20.1824V36.9657C73.5822 37.0529 73.6012 37.1391 73.6375 37.2184C73.6739 37.2976 73.7269 37.368 73.7929 37.4248C73.8799 37.5025 73.9879 37.5525 74.1032 37.5686C74.1549 37.5766 74.2047 37.5825 74.2564 37.5905C74.4772 37.6225 74.698 37.6544 74.9188 37.6884C75.7483 37.8121 76.5772 37.9432 77.4054 38.0816C77.6182 38.1156 77.8311 38.1515 78.0419 38.1874C78.4975 38.2653 78.951 38.3445 79.4026 38.425C79.6652 38.4729 79.9257 38.5208 80.1863 38.5687C80.3514 38.5987 80.5186 38.6286 80.6837 38.6606C80.7211 38.6669 80.759 38.6702 80.797 38.6706C80.8762 38.6706 80.9546 38.655 81.0278 38.6246C81.085 38.6024 81.1382 38.5707 81.1849 38.5308C81.2536 38.4736 81.3088 38.4019 81.3466 38.3208C81.3845 38.2397 81.404 38.1512 81.4038 38.0617V21.7815C81.4035 21.6559 81.3649 21.5334 81.293 21.4306C81.2211 21.3277 81.1195 21.2495 81.0019 21.2066Z" fill="#3F3D56"/>
<path d="M97.7849 27.0973L97.773 27.0913C97.1782 26.8358 96.5821 26.5856 95.9846 26.3407C95.5669 26.169 95.1512 25.9993 94.7334 25.8336C94.5703 25.7658 94.4072 25.7019 94.2421 25.638C93.9775 25.5322 93.7109 25.4284 93.4464 25.3246C93.2276 25.2387 93.0067 25.1549 92.7879 25.071C92.5353 24.9732 92.2827 24.8794 92.032 24.7836C91.7336 24.6718 91.4359 24.5613 91.1388 24.4522C91.1358 24.4506 91.1323 24.4499 91.1289 24.4502C91.0387 24.4176 90.942 24.4075 90.847 24.4207C90.7521 24.4339 90.6618 24.47 90.5838 24.526C90.5034 24.5823 90.4377 24.6573 90.3923 24.7445C90.3469 24.8317 90.3232 24.9287 90.3232 25.0271V40.3011C90.3233 40.4279 90.363 40.5515 90.4366 40.6545C90.4508 40.6746 90.4661 40.694 90.4824 40.7124L90.4844 40.7144C90.5642 40.8004 90.6671 40.8614 90.7808 40.8901C90.8942 40.918 91.0075 40.9479 91.1209 40.9779C91.4651 41.0657 91.8099 41.1556 92.1553 41.2474C92.4478 41.3233 92.7402 41.4011 93.0326 41.481C93.9357 41.7225 94.8388 41.9741 95.736 42.2316C96.283 42.3893 96.8274 42.549 97.3692 42.7107H97.3731C97.4281 42.7265 97.485 42.7346 97.5422 42.7347C97.6093 42.7344 97.6758 42.723 97.7392 42.7007C97.7963 42.6805 97.85 42.6516 97.8983 42.6149C97.9745 42.5575 98.0364 42.4831 98.0789 42.3974C98.1214 42.3118 98.1433 42.2174 98.143 42.1218V27.6543C98.1432 27.5367 98.1095 27.4215 98.046 27.3227C97.9825 27.2238 97.8918 27.1456 97.7849 27.0973Z" fill="#3F3D56"/>
<path d="M8.3002 42.4574C10.8907 44.2091 13.5954 45.7843 16.3212 47.3124C19.2372 48.9472 22.1837 50.5264 25.1002 52.1603C28.0343 53.8039 30.9425 55.5006 33.7477 57.359C36.4756 59.1308 39.0546 61.1233 41.4593 63.3165C43.7366 65.432 45.7992 67.796 47.4207 70.4583C47.614 70.7757 47.8009 71.097 47.9813 71.4221C48.1685 71.7587 48.6842 71.457 48.4966 71.1198C46.9523 68.4059 45.0297 65.9273 42.7869 63.7591C40.4416 61.4927 37.9025 59.4376 35.1988 57.6173C32.4118 55.7029 29.5065 53.9681 26.5677 52.3005C23.6376 50.6379 20.6694 49.0442 17.7238 47.4094C14.951 45.8706 12.1921 44.298 9.53615 42.5619C9.22295 42.3571 8.91137 42.1499 8.60141 41.9402C8.28205 41.7243 7.98304 42.2429 8.3002 42.4574Z" fill="#3F3D56"/>
<path d="M18.3684 35.4297C19.6095 38.2366 21.1344 40.9082 22.919 43.4026C24.7455 45.9572 26.699 48.4178 28.7724 50.775C30.8463 53.1727 32.9824 55.5153 35.0713 57.8998C37.1365 60.2571 39.1614 62.6561 41.0105 65.1895C42.8455 67.6554 44.4392 70.2932 45.7695 73.0662C45.9304 73.41 46.086 73.7562 46.2363 74.1049C46.3886 74.4576 46.9029 74.153 46.7516 73.8026C45.5104 70.9958 43.9856 68.3241 42.2009 65.8297C40.3745 63.2751 38.4209 60.8145 36.3476 58.4574C34.2736 56.0596 32.1376 53.717 30.0486 51.3326C27.9834 48.9752 25.9586 46.5763 24.1094 44.0428C22.2744 41.5769 20.6807 38.9392 19.3505 36.1661C19.1895 35.8224 19.0339 35.4761 18.8837 35.1275C18.7314 34.7747 18.2171 35.0794 18.3684 35.4297Z" fill="#3F3D56"/>
<path d="M91.3181 39.0011C89.0421 41.1807 86.6316 43.2143 84.101 45.09C81.4752 47.0734 78.7781 48.9592 76.0945 50.8622C73.4151 52.7622 70.7451 54.6788 68.1725 56.7232C65.6899 58.6558 63.3586 60.7765 61.199 63.0666C59.1835 65.2475 57.3771 67.6493 56.023 70.3021C55.8602 70.6211 55.7041 70.9435 55.5548 71.2691C55.395 71.6168 55.9092 71.9214 56.0701 71.5714C57.3301 68.9049 58.9705 66.4369 60.9398 64.2453C63.0221 61.9278 65.2919 59.7871 67.726 57.8452C70.255 55.785 72.8964 53.8686 75.5525 51.9782C78.2383 50.0667 80.945 48.184 83.5902 46.2158C86.1456 44.3507 88.5946 42.3432 90.9257 40.2026C91.1999 39.9461 91.4713 39.6868 91.74 39.4245C92.0159 39.1554 91.5938 38.7322 91.3181 39.0011Z" fill="#3F3D56"/>
<path d="M85.1669 33.4879C83.9258 36.2948 82.4009 38.9664 80.6162 41.4608C78.7885 44.0144 76.8326 46.4732 74.7561 48.8276C72.6802 51.2236 70.5438 53.5661 68.4564 55.952C66.3926 58.3108 64.3739 60.7142 62.5247 63.2477C60.6897 65.7136 59.0961 68.3513 57.7658 71.1244C57.6048 71.4682 57.4492 71.8144 57.299 72.163C57.1479 72.5131 57.6618 72.8184 57.8143 72.4653C59.0554 69.6585 60.5803 66.9869 62.3649 64.4924C64.1927 61.9388 66.1486 59.48 68.2251 57.1257C70.301 54.7296 72.4374 52.3872 74.5248 50.0013C76.5886 47.6425 78.6073 45.239 80.4565 42.7056C82.2915 40.2397 83.8851 37.6019 85.2154 34.8289C85.3764 34.4851 85.532 34.1389 85.6822 33.7902C85.8333 33.4402 85.3194 33.1348 85.1669 33.4879Z" fill="#3F3D56"/>
<path d="M41.1113 109.527L41.4875 110.837L46.6997 110.004L46.1445 108.071L41.1113 109.527Z" fill="#FFB6B6"/>
<path d="M39.7373 109.875L40.8939 113.902L40.9446 113.887C41.3588 113.767 41.7087 113.487 41.9172 113.108C42.1256 112.73 42.1757 112.284 42.0564 111.868L42.4012 110.971L41.4509 109.76L41.3499 109.408L39.7373 109.875Z" fill="#2F2E41"/>
<path d="M63.4914 115.96L64.8164 115.661L64.2984 110.39L62.3428 110.831L63.4914 115.96Z" fill="#FFB6B6"/>
<path d="M63.369 117.453L67.4434 116.534L67.4318 116.482C67.3373 116.06 67.0796 115.693 66.7153 115.462C66.3511 115.23 65.9102 115.154 65.4896 115.248L64.6184 114.85L63.3567 115.729L63.001 115.81L63.369 117.453Z" fill="#2F2E41"/>
<path d="M59.4356 87.7285L65.4355 112.435L62.5006 112.696L59.2487 104.428L54.2288 94.6957L54.6825 105.804L45.3432 111.285L43.1484 108.268L50.6146 104.238L47.3532 89.5373L48.2212 87.7285L59.4356 87.7285Z" fill="#2F2E41"/>
<path d="M47.4144 89.8925C46.4418 88.526 48.2411 86.276 48.4618 85.8C48.1998 85.7147 47.9754 85.5408 47.8267 85.3081C47.6781 85.0754 47.6145 84.7981 47.6466 84.5236L47.7417 83.7122L47.8409 82.9164L47.1306 82.2036L47.1287 82.1859L46.7199 78.5967L46.1256 76.2128C45.9017 75.3116 45.9208 74.3669 46.1809 73.4755C46.4411 72.5842 46.9329 71.7784 47.6058 71.1408L48.9795 70.9219L50.649 69.3076H53.3412L54.2642 70.1927C55.9874 70.496 56.2835 70.397 57.7637 72.1795L57.0911 77.7216L56.9233 78.484L56.9238 79.5181L57.3504 79.9939C57.504 80.1652 57.6157 80.3703 57.6764 80.5926C57.7372 80.8149 57.7454 81.0484 57.7003 81.2745L57.6442 81.556C58.0842 81.7452 58.504 85.1078 58.6043 85.5775L58.7541 86.2791C58.8823 86.4488 59.7283 87.581 59.7283 87.8905C59.7283 87.9369 59.6941 87.9819 59.6208 88.0317C59.0442 88.4235 53.9969 89.4608 52.5865 88.8944C51.0841 88.2915 47.4144 89.8925 47.4144 89.8925Z" fill="#E6E6E6"/>
<path d="M42.0199 73.4481L43.2036 74.901C43.6492 75.4478 44.198 75.9008 44.8186 76.234C45.4392 76.5671 46.1193 76.7739 46.8198 76.8423C47.2539 76.8831 47.6907 76.8012 48.0809 76.606C48.4711 76.4107 48.799 76.1098 49.0277 75.7373C49.3344 75.2302 49.4377 74.6252 49.3169 74.0446C49.196 73.464 48.86 72.9511 48.3768 72.6097C46.9103 71.5752 46.1104 69.9725 44.9575 70.4922L44.7095 69.8809L41.459 67.2451L38.7949 69.5393L42.0199 73.4481Z" fill="#E6E6E6"/>
<path d="M64.9344 68.6398L62.3569 66.248L60.3467 67.5327L60.0763 68.1343C58.9434 67.5721 56.7493 70.3722 55.2456 71.3514C54.7501 71.6746 54.3953 72.1747 54.2531 72.7504C54.1109 73.3261 54.1918 73.9345 54.4795 74.4526C54.6943 74.8334 55.0109 75.1463 55.3936 75.3559C55.7762 75.5656 56.2097 75.6637 56.645 75.6391C57.3476 75.5968 58.0349 75.4155 58.6674 75.1057C59.2998 74.7958 59.8651 74.3636 60.3305 73.8337L61.5671 72.4259L64.9344 68.6398Z" fill="#E6E6E6"/>
<path d="M51.8131 68.5274C53.4644 68.5274 54.803 67.184 54.803 65.5269C54.803 63.8697 53.4644 62.5264 51.8131 62.5264C50.1618 62.5264 48.8232 63.8697 48.8232 65.5269C48.8232 67.184 50.1618 68.5274 51.8131 68.5274Z" fill="#FFB6B6"/>
<path d="M49.6437 67.6414C49.6176 67.6185 49.593 67.5939 49.5675 67.5703C49.5665 67.5727 49.5664 67.5752 49.5654 67.5776L49.6437 67.6414Z" fill="#2F2E41"/>
<path d="M54.6204 64.4013C54.6045 64.3914 54.5906 64.3814 54.5747 64.3734C54.3781 64.2183 54.1344 64.1358 53.8844 64.1398C53.6457 64.1698 53.4488 64.3414 53.22 64.4093C52.7287 64.5531 52.2333 64.2017 51.7241 64.1658H51.7121C51.5499 64.1555 51.3873 64.1774 51.2335 64.2303C51.0797 64.2831 50.9378 64.3659 50.8159 64.4738C50.694 64.5817 50.5944 64.7126 50.5229 64.8591C50.4514 65.0056 50.4094 65.1648 50.3992 65.3276C50.3893 65.4933 50.4112 65.659 50.3913 65.8227C50.3858 65.9057 50.3601 65.9861 50.3164 66.0568C50.2727 66.1275 50.2123 66.1863 50.1406 66.228C49.9159 66.3298 49.6135 66.1781 49.4225 66.3358C49.2534 66.4775 49.3151 66.753 49.4166 66.9507C49.535 67.1172 49.5932 67.3193 49.5817 67.5236C49.5779 67.5398 49.5733 67.5558 49.5677 67.5715C49.1073 67.1413 48.742 66.6189 48.4952 66.0381C48.2485 65.4573 48.126 64.831 48.1355 64.1997C48.1276 63.9214 48.1848 63.6452 48.3026 63.3932C48.3618 63.2675 48.4511 63.1586 48.5626 63.076C48.674 62.9935 48.804 62.9399 48.9411 62.92C49.1759 62.9001 49.4186 63.0059 49.6413 62.93C49.9159 62.8382 50.0312 62.5208 50.1745 62.2652C50.3511 61.9606 50.6078 61.7106 50.9166 61.5426C51.2253 61.3747 51.5742 61.2952 51.925 61.313C52.1774 61.3378 52.4266 61.388 52.669 61.4627L53.1424 61.5925C53.323 61.6351 53.4984 61.6974 53.6656 61.7781C53.91 61.9191 54.1157 62.1187 54.2643 62.3591C54.3904 62.5525 54.4901 62.7619 54.5607 62.9819C54.2985 62.9956 54.0356 62.9863 53.775 62.954C54.0734 63.1396 54.3737 63.3253 54.6721 63.511C54.7075 63.8085 54.69 64.11 54.6204 64.4013Z" fill="#2F2E41"/>
<path d="M101.773 19.7367C107.203 19.7367 111.606 15.3185 111.606 9.86833C111.606 4.4182 107.203 0 101.773 0C96.3419 0 91.9395 4.4182 91.9395 9.86833C91.9395 15.3185 96.3419 19.7367 101.773 19.7367Z" fill="#FF6584"/>
<path d="M123.782 5.19618C123.213 3.28368 121.606 2.03597 119.664 1.76247C119.644 1.76048 119.622 1.76446 119.602 1.76247C119.575 1.75371 119.547 1.74704 119.519 1.74251C116.769 1.40674 113.986 2.01465 111.624 3.46735C111.083 3.80637 110.518 4.104 109.933 4.35772C108.057 5.15146 106.05 5.58745 104.015 5.64335C103.999 5.64335 103.983 5.64535 103.967 5.64535C102.97 5.71183 102.018 6.08503 101.24 6.71411C100.463 7.34319 99.8969 8.19758 99.6205 9.16091C99.5912 9.2787 99.6 9.40279 99.6458 9.51516C99.6916 9.62753 99.7719 9.72232 99.8751 9.78575C100.172 10.0383 100.523 10.2181 100.902 10.3108C101.719 10.4845 102.539 10.6435 103.36 10.7879C104.966 11.0694 106.579 11.297 108.2 11.4707C109.274 11.5865 110.35 11.677 111.429 11.7422C113.653 11.8819 115.887 11.9158 118.114 11.846C119.217 11.812 120.279 11.7761 121.289 11.287C122.024 10.9232 122.651 10.3734 123.109 9.69192C123.542 9.0372 123.826 8.29546 123.942 7.51881C124.058 6.74215 124.003 5.94939 123.782 5.19618Z" fill="#F2F2F2"/>
<path d="M85.2585 78.7112C84.8487 77.3337 83.691 76.4333 82.2905 76.2357C82.2746 76.2337 82.2607 76.2377 82.2448 76.2357C82.2252 76.2299 82.2052 76.2252 82.1851 76.2217C80.2018 75.9786 78.195 76.417 76.4919 77.4654C74.8508 78.4936 72.9391 78.9587 71.0055 79.0346C70.9942 79.0343 70.9829 79.035 70.9717 79.0366C70.2534 79.0846 69.5673 79.3536 69.0067 79.8069C68.4461 80.2602 68.0383 80.8758 67.8387 81.5699C67.8173 81.6549 67.8235 81.7445 67.8564 81.8256C67.8893 81.9068 67.9472 81.9753 68.0217 82.0211C68.2353 82.2036 68.4888 82.3329 68.7617 82.3984C69.3505 82.5242 69.9433 82.638 70.5361 82.7438C71.6918 82.9454 72.8575 83.1091 74.0252 83.2349C76.3986 83.491 78.7867 83.5817 81.1726 83.5064C81.9663 83.4824 82.7321 83.4565 83.4602 83.1031C83.9906 82.841 84.4438 82.4447 84.7751 81.9532C85.0863 81.4809 85.2909 80.9459 85.3744 80.3859C85.4579 79.8258 85.4183 79.2542 85.2585 78.7112Z" fill="#F2F2F2"/>
<path d="M22.3981 62.341C21.9883 60.9636 20.8306 60.0632 19.4302 59.8656C19.4143 59.8636 19.4003 59.8676 19.3844 59.8656C19.3648 59.8598 19.3449 59.8551 19.3247 59.8516C17.3415 59.6084 15.3346 60.0469 13.6315 61.0953C11.9904 62.1234 10.0787 62.5886 8.14519 62.6645C8.13388 62.6642 8.12257 62.6648 8.11138 62.6664C7.39306 62.7145 6.70693 62.9835 6.14634 63.4368C5.58575 63.8901 5.17791 64.5057 4.97831 65.1998C4.95691 65.2848 4.96312 65.3744 4.99605 65.4555C5.02897 65.5367 5.08688 65.6052 5.16132 65.651C5.37493 65.8335 5.62848 65.9628 5.90132 66.0283C6.49014 66.1541 7.08293 66.2679 7.67573 66.3737C8.83148 66.5753 9.99718 66.739 11.1649 66.8648C13.5382 67.1209 15.9264 67.2116 18.3122 67.1363C19.1059 67.1123 19.8718 67.0863 20.5999 66.733C21.1303 66.4709 21.5835 66.0746 21.9147 65.5831C22.226 65.1108 22.4305 64.5758 22.514 64.0158C22.5975 63.4557 22.558 62.8841 22.3981 62.341Z" fill="#F2F2F2"/>
<path d="M38.8947 147.73C39.5671 148.471 40.2195 149.228 40.8521 150C31.4467 148.312 22.4512 144.828 14.3534 139.739C14.1843 139.633 14.0172 139.527 13.8501 139.42C9.25513 136.482 4.99054 133.055 1.13086 129.196C1.8072 128.559 2.22494 128.18 2.22494 128.18C11.6639 118.007 12.7222 114.425 22.1612 104.252C25.3002 117.017 38.4988 125.884 45.4214 137.046C43.4028 138.459 41.1946 139.579 38.8629 140.37C38.847 140.388 38.831 140.408 38.8151 140.426C37.9365 141.443 37.4594 142.747 37.4741 144.093C37.4887 145.439 37.9941 146.733 38.8947 147.73Z" fill="#F2F2F2"/>
<path d="M120.251 111.768C114.598 122.169 106.595 131.096 96.885 137.834C96.6781 137.978 96.4712 138.122 96.2623 138.263C89.3842 142.937 81.7788 146.428 73.758 148.595C73.3729 148.297 72.9405 148.067 72.4789 147.914V147.91C72.9961 146.94 73.5133 145.969 74.0305 144.999C72.2442 146.828 69.129 147.141 67.0165 145.708C67.3638 144.92 67.8596 144.208 68.4766 143.61C67.9594 143.847 67.1557 143.504 66.9329 142.905C66.6524 142.156 66.9707 141.328 67.3049 140.601C70.991 132.6 83.0677 119.646 83.2567 119.444C83.1274 119.524 77.6132 122.999 74.4145 122.742C74.2513 121.76 70.0083 120.56 69.5348 120.061C71.4624 115.711 80.4021 107.618 80.4021 107.618C89.841 97.4443 90.8993 93.8628 100.338 83.6895C103.024 94.6095 113.069 102.677 120.251 111.768Z" fill="#F2F2F2"/>
<g opacity="0.2">
<path d="M0 39.5372C0.0587265 39.4591 0.120273 39.384 0.18013 39.307L0.183384 39.2764L0 39.5372Z" fill="black"/>
<path d="M102.12 40.3604C101.79 41.1478 101.215 41.8064 100.48 42.237C99.7445 42.6676 98.8899 42.8469 98.0445 42.7481C97.825 42.7216 97.6081 42.6768 97.396 42.6143C95.0706 41.9196 92.7458 41.2808 90.4217 40.6978C87.3821 39.9312 84.3426 39.2571 81.303 38.6755C78.7627 38.1884 76.2225 37.7659 73.6822 37.4079C70.6407 36.9787 67.6004 36.6419 64.5615 36.3977C62.0212 36.1921 59.4803 36.0517 56.9387 35.9765C53.8992 35.8827 50.8603 35.8827 47.822 35.9765C45.2818 36.0523 42.7408 36.1928 40.1992 36.3977C37.1597 36.6413 34.1201 36.978 31.0805 37.4079C28.5403 37.7672 25.9993 38.1898 23.4577 38.6755C20.4182 39.2565 17.3786 39.9306 14.339 40.6978C12.0136 41.2828 9.68952 41.9216 7.36674 42.6143C7.15463 42.6768 6.93772 42.7216 6.71824 42.7481C6.16779 42.8127 5.60994 42.7597 5.08137 42.5924C4.55281 42.4252 4.06552 42.1475 3.65156 41.7777C3.2376 41.4079 2.90634 40.9544 2.67959 40.4469C2.45283 39.9394 2.33571 39.3894 2.33594 38.8332V36.9886C6.82169 32.9181 13.1674 31.0315 19.2863 30.3887C26.563 29.6241 33.957 30.2769 41.1939 29.1929C47.094 28.3085 52.9563 26.2703 58.8802 26.979C64.0423 27.5938 68.7469 30.249 73.8374 31.311C80.2228 32.6426 86.9644 31.4188 93.2922 33.0019C95.7728 33.6208 98.2036 34.7088 99.9761 36.5554C101.003 37.6191 101.741 38.9291 102.12 40.3604Z" fill="black"/>
</g>
<path d="M52.1431 81.9913C54.2539 81.9913 55.965 80.2741 55.965 78.1558C55.965 76.0375 54.2539 74.3203 52.1431 74.3203C50.0324 74.3203 48.3213 76.0375 48.3213 78.1558C48.3213 80.2741 50.0324 81.9913 52.1431 81.9913Z" fill="#6C63FF"/>
<path d="M51.6216 80.1526C51.5556 80.1526 51.4905 80.1372 51.4315 80.1076C51.3725 80.0779 51.3211 80.0349 51.2815 79.9819L50.2389 78.5867C50.2053 78.5419 50.1808 78.4909 50.1668 78.4366C50.1528 78.3822 50.1497 78.3257 50.1575 78.2701C50.1654 78.2146 50.1841 78.1611 50.2125 78.1128C50.241 78.0645 50.2787 78.0224 50.3234 77.9887C50.3681 77.955 50.419 77.9306 50.4732 77.9167C50.5273 77.9028 50.5837 77.8997 50.639 77.9077C50.6944 77.9157 50.7476 77.9346 50.7956 77.9633C50.8437 77.9919 50.8857 78.0298 50.9191 78.0748L51.6012 78.9875L53.3532 76.3501C53.4158 76.256 53.513 76.1906 53.6236 76.1684C53.7342 76.1463 53.849 76.169 53.9428 76.2318C54.0366 76.2946 54.1017 76.3922 54.1239 76.5031C54.146 76.6141 54.1233 76.7293 54.0607 76.8235L51.9754 79.9626C51.9377 80.0194 51.8869 80.0663 51.8274 80.0993C51.7679 80.1323 51.7014 80.1506 51.6334 80.1525L51.6216 80.1526Z" fill="white"/>
<path d="M99.1352 100.545C98.9541 103.529 98.7738 106.515 98.5941 109.5C98.2758 114.775 97.9575 120.05 97.6392 125.325C97.3886 129.496 97.1373 133.665 96.8853 137.835C96.6784 137.978 96.4716 138.122 96.2627 138.264C96.384 136.273 96.5041 134.283 96.6227 132.293C96.941 127.016 97.2593 121.741 97.5776 116.468C97.8979 111.159 98.2181 105.852 98.5384 100.545C98.5603 100.16 99.157 100.16 99.1352 100.545Z" fill="white"/>
<path d="M79.5516 115.248L90.0685 106.349L93.0193 103.852C93.3133 103.603 92.8893 103.181 92.5973 103.428L82.0804 112.327L79.1296 114.824C78.8356 115.073 79.2596 115.495 79.5516 115.248Z" fill="white"/>
<path d="M80.8944 131.986L88.5632 125.195C88.8518 124.94 88.4284 124.518 88.1412 124.772L80.4725 131.563C80.1839 131.818 80.6073 132.24 80.8944 131.986Z" fill="white"/>
<path d="M7.09367 128.992L14.7624 122.201C15.051 121.946 14.6276 121.524 14.3405 121.778L6.67168 128.569C6.38313 128.824 6.80652 129.246 7.09367 128.992Z" fill="white"/>
<path d="M105.944 109.411C106.951 109.368 107.951 109.586 108.85 110.043C109.749 110.5 110.515 111.182 111.076 112.022C111.285 112.344 111.802 112.044 111.591 111.72C110.977 110.79 110.135 110.034 109.146 109.525C108.157 109.016 107.055 108.77 105.944 108.812C105.561 108.83 105.559 109.429 105.944 109.411Z" fill="white"/>
<path d="M22.3731 120.646C27.4761 123.083 31.563 127.243 33.9193 132.398C34.0793 132.748 34.5938 132.444 34.4346 132.096C32.5609 128.035 29.6312 124.556 25.9537 122.025C24.9119 121.307 23.8154 120.673 22.6743 120.129C22.3293 119.964 22.0261 120.48 22.3731 120.646Z" fill="white"/>
<path d="M21.9896 116.482C21.5798 118.767 21.0799 121.035 20.4897 123.283C19.4469 127.254 18.1268 131.147 16.5391 134.932C15.8587 136.557 15.13 138.159 14.3529 139.739C14.1838 139.633 14.0167 139.527 13.8496 139.42C15.6278 135.793 17.1525 132.047 18.4129 128.208C19.6899 124.322 20.6923 120.351 21.4127 116.324C21.4804 115.945 22.0572 116.106 21.9896 116.482Z" fill="white"/>
<path d="M27.5818 89.3044C29.1819 89.3044 30.479 88.0026 30.479 86.3968C30.479 84.791 29.1819 83.4893 27.5818 83.4893C25.9817 83.4893 24.6846 84.791 24.6846 86.3968C24.6846 88.0026 25.9817 89.3044 27.5818 89.3044Z" fill="#E6E6E6"/>
<path d="M27.1869 87.9106C27.1368 87.9106 27.0875 87.8989 27.0427 87.8765C26.998 87.854 26.9591 87.8214 26.9291 87.7812L26.1387 86.7236C26.0874 86.655 26.0654 86.5687 26.0775 86.4838C26.0895 86.3989 26.1348 86.3223 26.2031 86.2708C26.2715 86.2193 26.3575 86.1972 26.4421 86.2094C26.5267 86.2215 26.603 86.2669 26.6543 86.3355L27.1714 87.0274L28.4996 85.0281C28.5229 84.9926 28.5531 84.962 28.5883 84.9381C28.6235 84.9143 28.663 84.8977 28.7046 84.8892C28.7462 84.8808 28.7891 84.8807 28.8307 84.8889C28.8724 84.8971 28.912 84.9135 28.9473 84.9371C28.9826 84.9608 29.013 84.9912 29.0365 85.0266C29.0601 85.062 29.0765 85.1018 29.0847 85.1436C29.0929 85.1854 29.0929 85.2284 29.0845 85.2701C29.0761 85.3119 29.0596 85.3516 29.0358 85.3869L27.455 87.7666C27.4264 87.8096 27.388 87.8452 27.3429 87.8702C27.2978 87.8953 27.2474 87.9091 27.1958 87.9105L27.1869 87.9106Z" fill="white"/>
<path d="M33.1609 89.3044C34.761 89.3044 36.0581 88.0026 36.0581 86.3968C36.0581 84.791 34.761 83.4893 33.1609 83.4893C31.5608 83.4893 30.2637 84.791 30.2637 86.3968C30.2637 88.0026 31.5608 89.3044 33.1609 89.3044Z" fill="#E6E6E6"/>
<path d="M32.766 87.9106C32.7159 87.9106 32.6666 87.8989 32.6218 87.8765C32.5771 87.854 32.5382 87.8214 32.5082 87.7812L31.7178 86.7236C31.6665 86.655 31.6445 86.5687 31.6566 86.4838C31.6687 86.3989 31.7139 86.3223 31.7822 86.2708C31.8506 86.2193 31.9366 86.1972 32.0212 86.2094C32.1058 86.2215 32.1821 86.2669 32.2334 86.3355L32.7505 87.0274L34.0786 85.0281C34.102 84.9926 34.1322 84.962 34.1674 84.9381C34.2026 84.9143 34.2421 84.8977 34.2837 84.8892C34.3253 84.8808 34.3682 84.8807 34.4098 84.8889C34.4515 84.8971 34.4911 84.9135 34.5264 84.9371C34.5617 84.9608 34.5921 84.9912 34.6156 85.0266C34.6392 85.062 34.6556 85.1018 34.6638 85.1436C34.672 85.1854 34.672 85.2284 34.6636 85.2701C34.6552 85.3119 34.6387 85.3516 34.615 85.3869L33.0341 87.7666C33.0055 87.8096 32.9671 87.8452 32.922 87.8702C32.8769 87.8953 32.8265 87.9091 32.7749 87.9105L32.766 87.9106Z" fill="white"/>
<path d="M30.2957 84.613C31.8957 84.613 33.1929 83.3112 33.1929 81.7054C33.1929 80.0996 31.8957 78.7979 30.2957 78.7979C28.6956 78.7979 27.3984 80.0996 27.3984 81.7054C27.3984 83.3112 28.6956 84.613 30.2957 84.613Z" fill="#E6E6E6"/>
<path d="M29.9007 83.2186C29.8507 83.2186 29.8014 83.2069 29.7566 83.1845C29.7119 83.162 29.6729 83.1294 29.6429 83.0892L28.8525 82.0316C28.8013 81.963 28.7792 81.8767 28.7913 81.7918C28.8034 81.7069 28.8486 81.6303 28.917 81.5788C28.9854 81.5273 29.0713 81.5052 29.1559 81.5174C29.2406 81.5295 29.3169 81.5749 29.3682 81.6435L29.8853 82.3354L31.2134 80.3361C31.261 80.2652 31.3347 80.2161 31.4183 80.1995C31.5019 80.1829 31.5886 80.2002 31.6595 80.2477C31.7304 80.2951 31.7797 80.3688 31.7966 80.4526C31.8135 80.5364 31.7966 80.6235 31.7497 80.6949L30.1689 83.0746C30.1403 83.1176 30.1019 83.1532 30.0568 83.1782C30.0117 83.2033 29.9612 83.2171 29.9097 83.2185L29.9007 83.2186Z" fill="white"/>
<path d="M38.6735 81.9043L38.2456 81.9473L36.1344 87.5467H24.6738L22.5627 81.9473L22.1348 81.9043C21.9983 81.8906 21.8603 81.9058 21.73 81.9488C21.5996 81.9919 21.4797 82.0619 21.3779 82.1543C21.2761 82.2468 21.1948 82.3595 21.1391 82.4855C21.0834 82.6114 21.0547 82.7476 21.0547 82.8853V95.5776C21.0547 96.0731 21.1519 96.5638 21.3409 97.0215C21.5298 97.4793 21.8068 97.8953 22.1559 98.2457C22.5051 98.5961 22.9195 98.874 23.3757 99.0636C23.8319 99.2532 24.3208 99.3508 24.8145 99.3508H35.9937C36.4875 99.3508 36.9764 99.2532 37.4326 99.0636C37.8887 98.874 38.3032 98.5961 38.6524 98.2457C39.0015 97.8953 39.2784 97.4793 39.4674 97.0215C39.6563 96.5638 39.7536 96.0731 39.7536 95.5776V82.8853C39.7536 82.7476 39.7248 82.6114 39.6692 82.4855C39.6135 82.3595 39.5322 82.2468 39.4304 82.1543C39.3286 82.0619 39.2087 81.9919 39.0783 81.9488C38.9479 81.9058 38.81 81.8906 38.6735 81.9043Z" fill="#F2F2F2"/>
<path d="M54.8284 69.2303C54.687 68.8129 54.1414 68.7339 53.7021 68.7352C52.7225 68.7381 51.7441 68.78 50.7668 68.8607L50.8648 68.7471C50.6052 68.6371 50.3194 68.6049 50.0419 68.6544C49.7723 68.7312 49.5508 69.0418 49.6726 69.295C49.7641 69.4852 50.0197 69.6061 50.0013 69.8164C49.9702 70.1726 49.2834 70.0542 49.1766 70.3953C49.1619 70.463 49.1685 70.5336 49.1954 70.5974C49.2224 70.6613 49.2683 70.7151 49.327 70.7517C49.446 70.8224 49.5794 70.8649 49.7172 70.8758C51.171 71.0876 52.6547 70.8956 54.0074 70.3207C54.2438 70.2345 54.4595 70.0993 54.6405 69.924C54.7298 69.8351 54.7942 69.7242 54.8272 69.6025C54.8602 69.4807 54.8606 69.3523 54.8284 69.2303Z" fill="#E6E6E6"/>
</g>
<defs>
<clipPath id="clip0_3625_9717">
<rect width="124" height="150" fill="white"/>
</clipPath>
</defs>
</svg>
