<svg width="276" height="274" viewBox="0 0 276 274" fill="none" xmlns="http://www.w3.org/2000/svg">
<g filter="url(#filter0_d_1666_59213)">
<circle cx="138.029" cy="132.67" r="125" fill="#90ECC0"/>
<circle cx="138.029" cy="132.67" r="118.143" stroke="white" stroke-width="13.7143"/>
</g>
<g filter="url(#filter1_d_1666_59213)">
<circle cx="138.029" cy="132.67" r="92.3469" fill="#41D28C"/>
</g>
<g filter="url(#filter2_d_1666_59213)">
<circle cx="137.833" cy="132.479" r="46.7237" fill="#FFBE33"/>
<path d="M186.495 181.108C173.934 183.831 162.551 169.482 158.271 163.376L168.476 153.46C183.296 161.408 188.071 171.79 186.495 181.108Z" fill="#FFC02B"/>
<path d="M202.806 149.951C193.175 158.461 176.234 151.498 169.517 148.259L173.581 134.623C190.394 134.322 199.631 141.049 202.806 149.951Z" fill="#FFC02B"/>
<path d="M203.099 115.236C198.932 127.394 180.764 129.714 173.324 130.218L170.117 116.356C184.585 107.784 195.94 109.067 203.099 115.236Z" fill="#FFC02B"/>
<path d="M186.162 84.8087C188.554 97.4368 173.912 108.44 167.696 112.558L158.051 102.096C166.385 87.4901 176.888 82.9888 186.162 84.8087Z" fill="#FFC02B"/>
<path d="M155.857 67.232C163.835 77.3093 155.967 93.8494 152.371 100.381L138.974 95.5875C139.581 78.782 146.797 69.9218 155.857 67.232Z" fill="#FFC02B"/>
<path d="M120.273 198.852C132.512 194.93 135.196 176.811 135.849 169.384L122.054 165.899C113.193 180.192 114.249 191.57 120.273 198.852Z" fill="#FFC02B"/>
<path d="M155.017 197.902C163.86 188.575 157.497 171.4 154.497 164.574L140.727 168.155C139.834 184.948 146.233 194.416 155.017 197.902Z" fill="#FFC02B"/>
<path d="M119.717 67.7616C132.039 71.4172 135.116 89.4728 135.931 96.8845L122.214 100.668C113.045 86.5716 113.853 75.1728 119.717 67.7616Z" fill="#FFC02B"/>
<path d="M90.5671 180.026C103.164 182.58 114.353 168.08 118.551 161.917L108.214 152.139C93.5018 160.285 88.8662 170.73 90.5671 180.026Z" fill="#FFC02B"/>
<path d="M72.9564 150.109C82.6446 158.555 99.5387 151.479 106.234 148.197L102.08 134.588C85.2645 134.398 76.0724 141.187 72.9564 150.109Z" fill="#FFC02B"/>
<path d="M72.4104 115.288C76.6528 127.421 94.8352 129.628 102.278 130.087L105.399 116.205C90.8788 107.722 79.5318 109.075 72.4104 115.288Z" fill="#FFC02B"/>
<path d="M89.8667 84.9133C87.9968 97.6292 103.08 108.019 109.461 111.878L118.666 101.028C109.738 86.7776 99.0577 82.7128 89.8667 84.9133Z" fill="#FFC02B"/>
<path d="M168.981 186.559C157.133 185.986 150.413 170.475 148.056 164.009L159.522 157.607C170.835 168.233 172.612 178.628 168.981 186.559Z" fill="#FFE42E"/>
<path d="M190.965 162.68C180.346 167.966 166.907 157.712 161.693 153.22L168.572 142.035C183.633 145.782 190.261 153.986 190.965 162.68Z" fill="#FFE42E"/>
<path d="M199.518 131.802C192.899 141.645 176.148 139.373 169.396 138.046L169.848 124.922C184.793 120.736 194.609 124.592 199.518 131.802Z" fill="#FFE42E"/>
<path d="M191.688 100.631C190.804 112.46 175.122 118.771 168.597 120.957L161.624 109.737C172.542 98.7065 183.855 96.7929 191.688 100.631Z" fill="#FFE42E"/>
<path d="M168.87 77.7219C173.574 88.6111 162.61 101.477 157.844 106.441L146.718 101.042C151.273 86.2053 160.151 77.9557 168.87 77.7219Z" fill="#FFE42E"/>
<path d="M105.706 186.559C117.555 185.986 124.275 170.475 126.632 164.009L115.166 157.607C103.853 168.233 102.076 178.628 105.706 186.559Z" fill="#FFE42E"/>
<path d="M136.908 194.011C147.019 187.809 145.449 170.978 144.405 164.176L131.274 164.079C126.467 178.836 129.91 188.805 136.908 194.011Z" fill="#FFE42E"/>
<path d="M136.525 69.5624C146.637 75.7646 145.182 93.4758 144.138 100.278L131.239 100.278C126.432 85.5207 129.527 74.7685 136.525 69.5624Z" fill="#FFE42E"/>
<path d="M83.7225 162.68C94.3418 167.966 107.781 157.712 112.995 153.22L106.115 142.035C91.0542 145.782 84.4267 153.986 83.7225 162.68Z" fill="#FFE42E"/>
<path d="M75.1696 131.802C81.7889 141.645 98.5397 139.373 105.292 138.046L104.84 124.922C89.8949 120.736 80.0786 124.592 75.1696 131.802Z" fill="#FFE42E"/>
<path d="M83.0002 100.631C83.8841 112.46 99.5659 118.771 106.091 120.958L113.085 109.928C102.167 98.8981 90.8328 96.7934 83.0002 100.631Z" fill="#FFE42E"/>
<path d="M105.817 77.7221C101.113 88.6114 112.077 101.477 116.844 106.441L128.564 100.851C124.009 86.0144 114.536 77.9559 105.817 77.7221Z" fill="#FFE42E"/>
<circle cx="137.259" cy="133.434" r="33.9201" fill="#622E00"/>
<path d="M165.022 133.53C165.022 149.035 152.576 161.573 137.262 161.573C121.948 161.573 109.503 149.035 109.503 133.53C109.503 118.024 121.948 105.487 137.262 105.487C152.576 105.487 165.022 118.024 165.022 133.53Z" stroke="#9D4C09" stroke-width="3.91837"/>
</g>
<defs>
<filter id="filter0_d_1666_59213" x="0.0492156" y="0.322982" width="275.959" height="275.959" filterUnits="userSpaceOnUse" color-interpolation-filters="sRGB">
<feFlood flood-opacity="0" result="BackgroundImageFix"/>
<feColorMatrix in="SourceAlpha" type="matrix" values="0 0 0 0 0 0 0 0 0 0 0 0 0 0 0 0 0 0 127 0" result="hardAlpha"/>
<feMorphology radius="1.22449" operator="dilate" in="SourceAlpha" result="effect1_dropShadow_1666_59213"/>
<feOffset dy="5.63265"/>
<feGaussianBlur stdDeviation="5.87755"/>
<feComposite in2="hardAlpha" operator="out"/>
<feColorMatrix type="matrix" values="0 0 0 0 0 0 0 0 0 0 0 0 0 0 0 0 0 0 0.25 0"/>
<feBlend mode="normal" in2="BackgroundImageFix" result="effect1_dropShadow_1666_59213"/>
<feBlend mode="normal" in="SourceGraphic" in2="effect1_dropShadow_1666_59213" result="shape"/>
</filter>
<filter id="filter1_d_1666_59213" x="35.8862" y="32.4865" width="204.286" height="204.286" filterUnits="userSpaceOnUse" color-interpolation-filters="sRGB">
<feFlood flood-opacity="0" result="BackgroundImageFix"/>
<feColorMatrix in="SourceAlpha" type="matrix" values="0 0 0 0 0 0 0 0 0 0 0 0 0 0 0 0 0 0 127 0" result="hardAlpha"/>
<feMorphology radius="3.91837" operator="dilate" in="SourceAlpha" result="effect1_dropShadow_1666_59213"/>
<feOffset dy="1.95918"/>
<feGaussianBlur stdDeviation="2.93878"/>
<feComposite in2="hardAlpha" operator="out"/>
<feColorMatrix type="matrix" values="0 0 0 0 0 0 0 0 0 0 0 0 0 0 0 0 0 0 0.12 0"/>
<feBlend mode="normal" in2="BackgroundImageFix" result="effect1_dropShadow_1666_59213"/>
<feBlend mode="normal" in="SourceGraphic" in2="effect1_dropShadow_1666_59213" result="shape"/>
</filter>
<filter id="filter2_d_1666_59213" x="11.1862" y="6.00793" width="253.138" height="254.069" filterUnits="userSpaceOnUse" color-interpolation-filters="sRGB">
<feFlood flood-opacity="0" result="BackgroundImageFix"/>
<feColorMatrix in="SourceAlpha" type="matrix" values="0 0 0 0 0 0 0 0 0 0 0 0 0 0 0 0 0 0 127 0" result="hardAlpha"/>
<feOffset/>
<feGaussianBlur stdDeviation="30.6122"/>
<feComposite in2="hardAlpha" operator="out"/>
<feColorMatrix type="matrix" values="0 0 0 0 0 0 0 0 0 0 0 0 0 0 0 0 0 0 0.25 0"/>
<feBlend mode="normal" in2="BackgroundImageFix" result="effect1_dropShadow_1666_59213"/>
<feBlend mode="normal" in="SourceGraphic" in2="effect1_dropShadow_1666_59213" result="shape"/>
</filter>
</defs>
</svg>
