<svg width="24" height="24" viewBox="0 0 24 24" fill="none" xmlns="http://www.w3.org/2000/svg">
<g clip-path="url(#clip0_4292_57407)">
<path d="M17.25 13.5C17.9766 13.5 18.6562 13.6367 19.2891 13.9102C19.9219 14.1836 20.4805 14.5586 20.9648 15.0352C21.4492 15.5117 21.8242 16.0664 22.0898 16.6992C22.3555 17.332 22.4922 18.0156 22.5 18.75C22.5 19.4766 22.3633 20.1562 22.0898 20.7891C21.8164 21.4219 21.4414 21.9805 20.9648 22.4648C20.4883 22.9492 19.9336 23.3242 19.3008 23.5898C18.668 23.8555 17.9844 23.9922 17.25 24C16.5234 24 15.8438 23.8633 15.2109 23.5898C14.5781 23.3164 14.0195 22.9414 13.5352 22.4648C13.0508 21.9883 12.6758 21.4336 12.4102 20.8008C12.1445 20.168 12.0078 19.4844 12 18.75C12 18.0234 12.1367 17.3438 12.4102 16.7109C12.6836 16.0781 13.0586 15.5195 13.5352 15.0352C14.0117 14.5508 14.5664 14.1758 15.1992 13.9102C15.832 13.6445 16.5156 13.5078 17.25 13.5ZM13.5 18.75C13.5 19.2656 13.5977 19.75 13.793 20.2031C13.9883 20.6562 14.2539 21.0547 14.5898 21.3984C14.9258 21.7422 15.3242 22.0117 15.7852 22.207C16.2461 22.4023 16.7344 22.5 17.25 22.5C17.6172 22.5 17.9766 22.4492 18.3281 22.3477C18.6797 22.2461 19.0078 22.0898 19.3125 21.8789L14.1211 16.6875C13.918 16.9922 13.7656 17.3203 13.6641 17.6719C13.5625 18.0234 13.5078 18.3828 13.5 18.75ZM20.3789 20.8125C20.582 20.5078 20.7344 20.1797 20.8359 19.8281C20.9375 19.4766 20.9922 19.1172 21 18.75C21 18.2344 20.9023 17.75 20.707 17.2969C20.5117 16.8438 20.2422 16.4492 19.8984 16.1133C19.5547 15.7773 19.1562 15.5078 18.7031 15.3047C18.25 15.1016 17.7656 15 17.25 15C16.8828 15 16.5234 15.0508 16.1719 15.1523C15.8203 15.2539 15.4922 15.4102 15.1875 15.6211L20.3789 20.8125ZM23.3203 8.76562C23.0625 9.02344 22.8125 9.25781 22.5703 9.46875C22.3281 9.67969 22.0742 9.86328 21.8086 10.0195C21.543 10.1758 21.2578 10.2891 20.9531 10.3594C20.6484 10.4297 20.2969 10.4727 19.8984 10.4883C19.6328 10.4883 19.3789 10.4648 19.1367 10.418L17.5664 12H15.4336L18.6914 8.74219L18.8086 8.77734C18.9883 8.83203 19.168 8.87891 19.3477 8.91797C19.5273 8.95703 19.7109 8.98047 19.8984 8.98828C20.3281 8.98828 20.7344 8.88672 21.1172 8.68359L15.3164 2.88281C15.1133 3.26562 15.0117 3.67188 15.0117 4.10156C15.0117 4.28906 15.0312 4.47266 15.0703 4.65234C15.1094 4.83203 15.1602 5.01172 15.2227 5.19141L15.2578 5.30859L9.49219 11.0625C9.30469 10.9844 9.125 10.9102 8.95312 10.8398C8.78125 10.7695 8.60938 10.7109 8.4375 10.6641C8.26562 10.6172 8.08984 10.582 7.91016 10.5586C7.73047 10.5352 7.53125 10.5195 7.3125 10.5117C6.86719 10.5117 6.43359 10.5742 6.01172 10.6992C5.58984 10.8242 5.19922 11.0156 4.83984 11.2734L10.5 16.9336V19.0664L8.25 16.8047L1.59375 23.4727L0 24L0.527344 22.4062L7.19531 15.75L2.67188 11.2266L3.19922 10.6992C3.74609 10.1523 4.37891 9.73438 5.09766 9.44531C5.81641 9.15625 6.5625 9.01172 7.33594 9.01172C7.64062 9.01172 7.94141 9.03516 8.23828 9.08203C8.53516 9.12891 8.83594 9.20312 9.14062 9.30469L13.582 4.86328C13.5352 4.62109 13.5117 4.36719 13.5117 4.10156C13.5117 3.71875 13.5508 3.375 13.6289 3.07031C13.707 2.76562 13.8242 2.47656 13.9805 2.20312C14.1367 1.92969 14.3164 1.67578 14.5195 1.44141C14.7227 1.20703 14.9609 0.953125 15.2344 0.679688L23.3203 8.76562Z" fill="#0A0A0A"/>
</g>
<defs>
<clipPath id="clip0_4292_57407">
<rect width="24" height="24" fill="white"/>
</clipPath>
</defs>
</svg>
