<svg width="21" height="20" viewBox="0 0 21 20" fill="none" xmlns="http://www.w3.org/2000/svg">
<path d="M18.8989 10.6594C18.7386 10.4769 18.6502 10.2423 18.6502 9.99941C18.6502 9.7565 18.7386 9.5219 18.8989 9.33941L20.1789 7.89941C20.32 7.74208 20.4076 7.54411 20.4291 7.33391C20.4507 7.12372 20.4051 6.91209 20.2989 6.72941L18.2989 3.26941C18.1938 3.08693 18.0338 2.94228 17.8417 2.85609C17.6495 2.7699 17.4351 2.74656 17.2289 2.78941L15.3489 3.16941C15.1097 3.21884 14.8607 3.179 14.6488 3.05741C14.4369 2.93582 14.2769 2.74089 14.1989 2.50941L13.5889 0.679407C13.5218 0.480786 13.394 0.308272 13.2235 0.186249C13.0531 0.0642258 12.8486 -0.00113433 12.6389 -0.000593167H8.63892C8.42085 -0.0119752 8.20505 0.0483332 8.02448 0.171121C7.84391 0.293909 7.7085 0.472426 7.63892 0.679407L7.07892 2.50941C7.00092 2.74089 6.84089 2.93582 6.62903 3.05741C6.41717 3.179 6.16814 3.21884 5.92892 3.16941L3.99892 2.78941C3.80347 2.76179 3.60422 2.79263 3.42627 2.87805C3.24831 2.96346 3.09962 3.09964 2.99892 3.26941L0.99892 6.72941C0.89008 6.91006 0.841142 7.12049 0.859102 7.33063C0.877063 7.54077 0.961002 7.73985 1.09892 7.89941L2.36892 9.33941C2.52924 9.5219 2.61765 9.7565 2.61765 9.99941C2.61765 10.2423 2.52924 10.4769 2.36892 10.6594L1.09892 12.0994C0.961002 12.259 0.877063 12.458 0.859102 12.6682C0.841142 12.8783 0.89008 13.0888 0.99892 13.2694L2.99892 16.7294C3.10402 16.9119 3.26404 17.0565 3.45617 17.1427C3.6483 17.2289 3.86274 17.2522 4.06892 17.2094L5.94892 16.8294C6.18814 16.78 6.43717 16.8198 6.64903 16.9414C6.86089 17.063 7.02092 17.2579 7.09892 17.4894L7.70892 19.3194C7.7785 19.5264 7.91392 19.7049 8.09449 19.8277C8.27506 19.9505 8.49085 20.0108 8.70892 19.9994H12.7089C12.9186 19.9999 13.1231 19.9346 13.2935 19.8126C13.464 19.6905 13.5918 19.518 13.6589 19.3194L14.2689 17.4894C14.3469 17.2579 14.5069 17.063 14.7188 16.9414C14.9307 16.8198 15.1797 16.78 15.4189 16.8294L17.2989 17.2094C17.5051 17.2522 17.7195 17.2289 17.9117 17.1427C18.1038 17.0565 18.2638 16.9119 18.3689 16.7294L20.3689 13.2694C20.4751 13.0867 20.5207 12.8751 20.4991 12.6649C20.4776 12.4547 20.39 12.2567 20.2489 12.0994L18.8989 10.6594ZM17.4089 11.9994L18.2089 12.8994L16.9289 15.1194L15.7489 14.8794C15.0287 14.7322 14.2795 14.8545 13.6435 15.2232C13.0075 15.5919 12.5291 16.1812 12.2989 16.8794L11.9189 17.9994H9.35892L8.99892 16.8594C8.76877 16.1612 8.2903 15.5719 7.65432 15.2032C7.01835 14.8345 6.26914 14.7122 5.54892 14.8594L4.36892 15.0994L3.06892 12.8894L3.86892 11.9894C4.36087 11.4394 4.63285 10.7273 4.63285 9.98941C4.63285 9.25147 4.36087 8.53943 3.86892 7.98941L3.06892 7.08941L4.34892 4.88941L5.52892 5.12941C6.24914 5.27663 6.99835 5.15429 7.63432 4.78561C8.2703 4.41692 8.74877 3.82757 8.97892 3.12941L9.35892 1.99941H11.9189L12.2989 3.13941C12.5291 3.83757 13.0075 4.42692 13.6435 4.79561C14.2795 5.16429 15.0287 5.28663 15.7489 5.13941L16.9289 4.89941L18.2089 7.11941L17.4089 8.01941C16.9225 8.56817 16.6539 9.27609 16.6539 10.0094C16.6539 10.7427 16.9225 11.4506 17.4089 11.9994ZM10.6389 5.99941C9.84779 5.99941 9.07444 6.234 8.41664 6.67353C7.75884 7.11305 7.24615 7.73777 6.9434 8.46867C6.64065 9.19958 6.56144 10.0038 6.71578 10.7798C6.87012 11.5557 7.25108 12.2684 7.81049 12.8278C8.3699 13.3872 9.08263 13.7682 9.85856 13.9225C10.6345 14.0769 11.4387 13.9977 12.1697 13.6949C12.9006 13.3922 13.5253 12.8795 13.9648 12.2217C14.4043 11.5639 14.6389 10.7905 14.6389 9.99941C14.6389 8.93854 14.2175 7.92112 13.4673 7.17098C12.7172 6.42083 11.6998 5.99941 10.6389 5.99941ZM10.6389 11.9994C10.2434 11.9994 9.85668 11.8821 9.52778 11.6623C9.19888 11.4426 8.94254 11.1302 8.79116 10.7648C8.63979 10.3993 8.60018 9.99719 8.67735 9.60923C8.75452 9.22126 8.945 8.8649 9.22471 8.58519C9.50441 8.30549 9.86078 8.11501 10.2487 8.03784C10.6367 7.96067 11.0388 8.00027 11.4043 8.15165C11.7697 8.30302 12.0821 8.55937 12.3019 8.88827C12.5216 9.21716 12.6389 9.60384 12.6389 9.99941C12.6389 10.5298 12.4282 11.0385 12.0531 11.4136C11.6781 11.7887 11.1694 11.9994 10.6389 11.9994Z" fill="#666666"/>
</svg>
