<svg width="25" height="24" viewBox="0 0 25 24" fill="none" xmlns="http://www.w3.org/2000/svg">
<g clip-path="url(#clip0_2198_41498)">
<path d="M8.49981 10.7606H7.91981C7.12832 10.732 6.33939 10.8664 5.60198 11.1554C4.86458 11.4444 4.19444 11.8818 3.63314 12.4406L3.47314 12.6273V18.1473H6.19314V15.0139L6.55981 14.6006L6.72648 14.4073C7.59443 13.5156 8.675 12.8595 9.86648 12.5006C9.26994 12.0467 8.79947 11.4477 8.49981 10.7606Z" fill="#8F8F8F"/>
<path d="M21.3935 12.4191C20.8323 11.8603 20.1621 11.4229 19.4247 11.1339C18.6873 10.8449 17.8984 10.7105 17.1069 10.7391C16.8641 10.7398 16.6216 10.7532 16.3802 10.7791C16.0749 11.4237 15.6173 11.9843 15.0469 12.4125C16.3189 12.7644 17.4711 13.4557 18.3802 14.4125L18.5469 14.5991L18.9069 15.0125V18.1525H21.5335V12.6058L21.3935 12.4191Z" fill="#8F8F8F"/>
<path d="M7.89992 9.46085H8.10658C8.01056 8.63634 8.15523 7.80167 8.52314 7.05757C8.89104 6.31348 9.46645 5.69178 10.1799 5.26751C9.92129 4.87241 9.56449 4.55125 9.14445 4.33548C8.72441 4.1197 8.25554 4.01672 7.78374 4.0366C7.31194 4.05648 6.85339 4.19855 6.45299 4.4489C6.0526 4.69925 5.72408 5.04929 5.49962 5.46475C5.27515 5.8802 5.16243 6.34684 5.17249 6.81895C5.18256 7.29106 5.31506 7.75246 5.55702 8.15798C5.79898 8.5635 6.14211 8.89923 6.55281 9.13229C6.96351 9.36535 7.4277 9.48775 7.89992 9.48751V9.46085Z" fill="#8F8F8F"/>
<path d="M16.7868 8.96004C16.7949 9.11326 16.7949 9.26681 16.7868 9.42004C16.9147 9.44032 17.044 9.45146 17.1735 9.45337H17.3001C17.7703 9.4283 18.2259 9.28193 18.6227 9.02849C19.0195 8.77506 19.3439 8.4232 19.5643 8.00718C19.7847 7.59116 19.8937 7.12515 19.8806 6.65453C19.8674 6.1839 19.7327 5.72469 19.4894 5.32161C19.2461 4.91853 18.9026 4.58531 18.4923 4.35439C18.082 4.12347 17.6189 4.00273 17.1481 4.00391C16.6773 4.0051 16.2148 4.12817 15.8057 4.36115C15.3966 4.59413 15.0547 4.92907 14.8135 5.33337C15.4169 5.72733 15.913 6.26491 16.2574 6.89788C16.6018 7.53086 16.7837 8.23943 16.7868 8.96004Z" fill="#8F8F8F"/>
<path d="M12.4131 11.9473C14.0589 11.9473 15.3931 10.6131 15.3931 8.9673C15.3931 7.3215 14.0589 5.9873 12.4131 5.9873C10.7673 5.9873 9.43311 7.3215 9.43311 8.9673C9.43311 10.6131 10.7673 11.9473 12.4131 11.9473Z" fill="#8F8F8F"/>
<path d="M12.5732 13.5333C11.7025 13.4982 10.8338 13.6395 10.0192 13.9489C9.20461 14.2582 8.46102 14.7291 7.83317 15.3333L7.6665 15.52V19.74C7.66911 19.8774 7.69876 20.013 7.75378 20.139C7.8088 20.265 7.8881 20.379 7.98715 20.4743C8.08621 20.5696 8.20307 20.6445 8.33108 20.6947C8.45908 20.7449 8.59571 20.7693 8.73317 20.7667H16.3932C16.5306 20.7693 16.6673 20.7449 16.7953 20.6947C16.9233 20.6445 17.0401 20.5696 17.1392 20.4743C17.2382 20.379 17.3175 20.265 17.3726 20.139C17.4276 20.013 17.4572 19.8774 17.4598 19.74V15.5333L17.2998 15.3333C16.6761 14.7273 15.9351 14.255 15.1223 13.9455C14.3095 13.636 13.4421 13.4957 12.5732 13.5333Z" fill="#8F8F8F"/>
</g>
<defs>
<clipPath id="clip0_2198_41498">
<rect width="24" height="24" fill="white" transform="translate(0.5)"/>
</clipPath>
</defs>
</svg>
