<svg width="20" height="20" viewBox="0 0 20 20" fill="none" xmlns="http://www.w3.org/2000/svg">
<path d="M10.0016 3.33464C11.835 3.33464 13.335 4.83464 13.335 6.66797C13.335 8.41797 11.585 11.2513 10.0016 13.2513C8.41829 11.168 6.66829 8.41797 6.66829 6.66797C6.66829 4.83464 8.16829 3.33464 10.0016 3.33464ZM10.0016 1.66797C7.25163 1.66797 5.00163 3.91797 5.00163 6.66797C5.00163 10.418 10.0016 15.8346 10.0016 15.8346C10.0016 15.8346 15.0016 10.3346 15.0016 6.66797C15.0016 3.91797 12.7516 1.66797 10.0016 1.66797ZM10.0016 5.0013C9.08496 5.0013 8.33496 5.7513 8.33496 6.66797C8.33496 7.58464 9.08496 8.33464 10.0016 8.33464C10.9183 8.33464 11.6683 7.58464 11.6683 6.66797C11.6683 5.7513 10.9183 5.0013 10.0016 5.0013ZM16.6683 15.8346C16.6683 17.668 13.6683 19.168 10.0016 19.168C6.33496 19.168 3.33496 17.668 3.33496 15.8346C3.33496 14.7513 4.33496 13.8346 5.91829 13.168L6.41829 13.918C5.58496 14.3346 5.00163 14.8346 5.00163 15.418C5.00163 16.5846 7.25163 17.5013 10.0016 17.5013C12.7516 17.5013 15.0016 16.5846 15.0016 15.418C15.0016 14.8346 14.4183 14.3346 13.5016 13.918L14.0016 13.168C15.6683 13.8346 16.6683 14.7513 16.6683 15.8346Z" fill="#2E2E2E"/>
</svg>
